<?xml version="1.0" encoding="UTF-8" standalone="no"?>
<!DOCTYPE svg PUBLIC "-//W3C//DTD SVG 1.1//EN"
 "http://www.w3.org/Graphics/SVG/1.1/DTD/svg11.dtd">
<!-- Generated by graphviz version 2.43.0 (0)
 -->
<!-- Title: Tree Pages: 1 -->
<svg width="1447pt" height="433pt"
 viewBox="0.00 0.00 1447.00 433.00" xmlns="http://www.w3.org/2000/svg" xmlns:xlink="http://www.w3.org/1999/xlink">
<g id="graph0" class="graph" transform="scale(1 1) rotate(0) translate(4 429)">
<title>Tree</title>
<polygon fill="white" stroke="transparent" points="-4,4 -4,-429 1443,-429 1443,4 -4,4"/>
<!-- 0 -->
<g id="node1" class="node">
<title>0</title>
<path fill="#79edaa" stroke="black" d="M760.5,-425C760.5,-425 590.5,-425 590.5,-425 584.5,-425 578.5,-419 578.5,-413 578.5,-413 578.5,-354 578.5,-354 578.5,-348 584.5,-342 590.5,-342 590.5,-342 760.5,-342 760.5,-342 766.5,-342 772.5,-348 772.5,-354 772.5,-354 772.5,-413 772.5,-413 772.5,-419 766.5,-425 760.5,-425"/>
<text text-anchor="start" x="620" y="-409.8" font-family="Helvetica,sans-Serif" font-size="14.00">alcohol ≤ 0.085</text>
<text text-anchor="start" x="622.5" y="-394.8" font-family="Helvetica,sans-Serif" font-size="14.00">entropy = 0.97</text>
<text text-anchor="start" x="618" y="-379.8" font-family="Helvetica,sans-Serif" font-size="14.00">samples = 3918</text>
<text text-anchor="start" x="586.5" y="-364.8" font-family="Helvetica,sans-Serif" font-size="14.00">value = [146, 2924, 848]</text>
<text text-anchor="start" x="619.5" y="-349.8" font-family="Helvetica,sans-Serif" font-size="14.00">class = Medium</text>
</g>
<!-- 1 -->
<g id="node2" class="node">
<title>1</title>
<path fill="#57e994" stroke="black" d="M590.5,-306C590.5,-306 420.5,-306 420.5,-306 414.5,-306 408.5,-300 408.5,-294 408.5,-294 408.5,-235 408.5,-235 408.5,-229 414.5,-223 420.5,-223 420.5,-223 590.5,-223 590.5,-223 596.5,-223 602.5,-229 602.5,-235 602.5,-235 602.5,-294 602.5,-294 602.5,-300 596.5,-306 590.5,-306"/>
<text text-anchor="start" x="422" y="-290.8" font-family="Helvetica,sans-Serif" font-size="14.00">volatile acidity ≤ &#45;0.648</text>
<text text-anchor="start" x="448" y="-275.8" font-family="Helvetica,sans-Serif" font-size="14.00">entropy = 0.702</text>
<text text-anchor="start" x="448" y="-260.8" font-family="Helvetica,sans-Serif" font-size="14.00">samples = 2267</text>
<text text-anchor="start" x="416.5" y="-245.8" font-family="Helvetica,sans-Serif" font-size="14.00">value = [106, 1957, 204]</text>
<text text-anchor="start" x="449.5" y="-230.8" font-family="Helvetica,sans-Serif" font-size="14.00">class = Medium</text>
</g>
<!-- 0&#45;&gt;1 -->
<g id="edge1" class="edge">
<title>0&#45;&gt;1</title>
<path fill="none" stroke="black" d="M616.52,-341.91C602.41,-332.2 587.24,-321.76 572.79,-311.81"/>
<polygon fill="black" stroke="black" points="574.6,-308.81 564.38,-306.02 570.63,-314.57 574.6,-308.81"/>
<text text-anchor="middle" x="568.92" y="-326.91" font-family="Helvetica,sans-Serif" font-size="14.00">True</text>
</g>
<!-- 8 -->
<g id="node9" class="node">
<title>8</title>
<path fill="#bff7d7" stroke="black" d="M960.5,-306C960.5,-306 774.5,-306 774.5,-306 768.5,-306 762.5,-300 762.5,-294 762.5,-294 762.5,-235 762.5,-235 762.5,-229 768.5,-223 774.5,-223 774.5,-223 960.5,-223 960.5,-223 966.5,-223 972.5,-229 972.5,-235 972.5,-235 972.5,-294 972.5,-294 972.5,-300 966.5,-306 960.5,-306"/>
<text text-anchor="start" x="770.5" y="-290.8" font-family="Helvetica,sans-Serif" font-size="14.00">free sulfur dioxide ≤ &#45;1.409</text>
<text text-anchor="start" x="810" y="-275.8" font-family="Helvetica,sans-Serif" font-size="14.00">entropy = 1.112</text>
<text text-anchor="start" x="810" y="-260.8" font-family="Helvetica,sans-Serif" font-size="14.00">samples = 1651</text>
<text text-anchor="start" x="787.5" y="-245.8" font-family="Helvetica,sans-Serif" font-size="14.00">value = [40, 967, 644]</text>
<text text-anchor="start" x="811.5" y="-230.8" font-family="Helvetica,sans-Serif" font-size="14.00">class = Medium</text>
</g>
<!-- 0&#45;&gt;8 -->
<g id="edge8" class="edge">
<title>0&#45;&gt;8</title>
<path fill="none" stroke="black" d="M742.11,-341.91C758.35,-332.02 775.82,-321.37 792.42,-311.25"/>
<polygon fill="black" stroke="black" points="794.29,-314.21 801,-306.02 790.64,-308.24 794.29,-314.21"/>
<text text-anchor="middle" x="795.11" y="-326.62" font-family="Helvetica,sans-Serif" font-size="14.00">False</text>
</g>
<!-- 2 -->
<g id="node3" class="node">
<title>2</title>
<path fill="#74eda7" stroke="black" d="M326.5,-187C326.5,-187 174.5,-187 174.5,-187 168.5,-187 162.5,-181 162.5,-175 162.5,-175 162.5,-116 162.5,-116 162.5,-110 168.5,-104 174.5,-104 174.5,-104 326.5,-104 326.5,-104 332.5,-104 338.5,-110 338.5,-116 338.5,-116 338.5,-175 338.5,-175 338.5,-181 332.5,-187 326.5,-187"/>
<text text-anchor="start" x="192.5" y="-171.8" font-family="Helvetica,sans-Serif" font-size="14.00">alcohol ≤ &#45;1.201</text>
<text text-anchor="start" x="202" y="-156.8" font-family="Helvetica,sans-Serif" font-size="14.00">entropy = 0.9</text>
<text text-anchor="start" x="197.5" y="-141.8" font-family="Helvetica,sans-Serif" font-size="14.00">samples = 616</text>
<text text-anchor="start" x="170.5" y="-126.8" font-family="Helvetica,sans-Serif" font-size="14.00">value = [15, 471, 130]</text>
<text text-anchor="start" x="194.5" y="-111.8" font-family="Helvetica,sans-Serif" font-size="14.00">class = Medium</text>
</g>
<!-- 1&#45;&gt;2 -->
<g id="edge2" class="edge">
<title>1&#45;&gt;2</title>
<path fill="none" stroke="black" d="M417.03,-222.91C394.78,-212.7 370.77,-201.68 348.1,-191.28"/>
<polygon fill="black" stroke="black" points="349.36,-188.01 338.81,-187.02 346.44,-194.37 349.36,-188.01"/>
</g>
<!-- 5 -->
<g id="node6" class="node">
<title>5</title>
<path fill="#4ee88e" stroke="black" d="M582.5,-187C582.5,-187 428.5,-187 428.5,-187 422.5,-187 416.5,-181 416.5,-175 416.5,-175 416.5,-116 416.5,-116 416.5,-110 422.5,-104 428.5,-104 428.5,-104 582.5,-104 582.5,-104 588.5,-104 594.5,-110 594.5,-116 594.5,-116 594.5,-175 594.5,-175 594.5,-181 588.5,-187 582.5,-187"/>
<text text-anchor="start" x="424.5" y="-171.8" font-family="Helvetica,sans-Serif" font-size="14.00">volatile acidity ≤ 2.342</text>
<text text-anchor="start" x="448" y="-156.8" font-family="Helvetica,sans-Serif" font-size="14.00">entropy = 0.568</text>
<text text-anchor="start" x="448" y="-141.8" font-family="Helvetica,sans-Serif" font-size="14.00">samples = 1651</text>
<text text-anchor="start" x="425.5" y="-126.8" font-family="Helvetica,sans-Serif" font-size="14.00">value = [91, 1486, 74]</text>
<text text-anchor="start" x="449.5" y="-111.8" font-family="Helvetica,sans-Serif" font-size="14.00">class = Medium</text>
</g>
<!-- 1&#45;&gt;5 -->
<g id="edge5" class="edge">
<title>1&#45;&gt;5</title>
<path fill="none" stroke="black" d="M505.5,-222.91C505.5,-214.65 505.5,-205.86 505.5,-197.3"/>
<polygon fill="black" stroke="black" points="509,-197.02 505.5,-187.02 502,-197.02 509,-197.02"/>
</g>
<!-- 3 -->
<g id="node4" class="node">
<title>3</title>
<path fill="#ffffff" stroke="black" d="M137,-68C137,-68 12,-68 12,-68 6,-68 0,-62 0,-56 0,-56 0,-12 0,-12 0,-6 6,0 12,0 12,0 137,0 137,0 143,0 149,-6 149,-12 149,-12 149,-56 149,-56 149,-62 143,-68 137,-68"/>
<text text-anchor="start" x="17" y="-52.8" font-family="Helvetica,sans-Serif" font-size="14.00">entropy = 1.141</text>
<text text-anchor="start" x="26" y="-37.8" font-family="Helvetica,sans-Serif" font-size="14.00">samples = 82</text>
<text text-anchor="start" x="8" y="-22.8" font-family="Helvetica,sans-Serif" font-size="14.00">value = [2, 40, 40]</text>
<text text-anchor="start" x="18.5" y="-7.8" font-family="Helvetica,sans-Serif" font-size="14.00">class = Medium</text>
</g>
<!-- 2&#45;&gt;3 -->
<g id="edge3" class="edge">
<title>2&#45;&gt;3</title>
<path fill="none" stroke="black" d="M184.96,-103.73C169.05,-93.82 152.08,-83.27 136.34,-73.48"/>
<polygon fill="black" stroke="black" points="138.08,-70.44 127.74,-68.13 134.38,-76.38 138.08,-70.44"/>
</g>
<!-- 4 -->
<g id="node5" class="node">
<title>4</title>
<path fill="#67eb9e" stroke="black" d="M322,-68C322,-68 179,-68 179,-68 173,-68 167,-62 167,-56 167,-56 167,-12 167,-12 167,-6 173,0 179,0 179,0 322,0 322,0 328,0 334,-6 334,-12 334,-12 334,-56 334,-56 334,-62 328,-68 322,-68"/>
<text text-anchor="start" x="193" y="-52.8" font-family="Helvetica,sans-Serif" font-size="14.00">entropy = 0.813</text>
<text text-anchor="start" x="197.5" y="-37.8" font-family="Helvetica,sans-Serif" font-size="14.00">samples = 534</text>
<text text-anchor="start" x="175" y="-22.8" font-family="Helvetica,sans-Serif" font-size="14.00">value = [13, 431, 90]</text>
<text text-anchor="start" x="194.5" y="-7.8" font-family="Helvetica,sans-Serif" font-size="14.00">class = Medium</text>
</g>
<!-- 2&#45;&gt;4 -->
<g id="edge4" class="edge">
<title>2&#45;&gt;4</title>
<path fill="none" stroke="black" d="M250.5,-103.73C250.5,-95.52 250.5,-86.86 250.5,-78.56"/>
<polygon fill="black" stroke="black" points="254,-78.3 250.5,-68.3 247,-78.3 254,-78.3"/>
</g>
<!-- 6 -->
<g id="node7" class="node">
<title>6</title>
<path fill="#4be78d" stroke="black" d="M515.5,-68C515.5,-68 363.5,-68 363.5,-68 357.5,-68 351.5,-62 351.5,-56 351.5,-56 351.5,-12 351.5,-12 351.5,-6 357.5,0 363.5,0 363.5,0 515.5,0 515.5,0 521.5,0 527.5,-6 527.5,-12 527.5,-12 527.5,-56 527.5,-56 527.5,-62 521.5,-68 515.5,-68"/>
<text text-anchor="start" x="382" y="-52.8" font-family="Helvetica,sans-Serif" font-size="14.00">entropy = 0.521</text>
<text text-anchor="start" x="382" y="-37.8" font-family="Helvetica,sans-Serif" font-size="14.00">samples = 1575</text>
<text text-anchor="start" x="359.5" y="-22.8" font-family="Helvetica,sans-Serif" font-size="14.00">value = [66, 1435, 74]</text>
<text text-anchor="start" x="383.5" y="-7.8" font-family="Helvetica,sans-Serif" font-size="14.00">class = Medium</text>
</g>
<!-- 5&#45;&gt;6 -->
<g id="edge6" class="edge">
<title>5&#45;&gt;6</title>
<path fill="none" stroke="black" d="M480.92,-103.73C475.65,-94.97 470.06,-85.7 464.76,-76.91"/>
<polygon fill="black" stroke="black" points="467.73,-75.06 459.57,-68.3 461.74,-78.67 467.73,-75.06"/>
</g>
<!-- 7 -->
<g id="node8" class="node">
<title>7</title>
<path fill="#9af2bf" stroke="black" d="M682,-68C682,-68 557,-68 557,-68 551,-68 545,-62 545,-56 545,-56 545,-12 545,-12 545,-6 551,0 557,0 557,0 682,0 682,0 688,0 694,-6 694,-12 694,-12 694,-56 694,-56 694,-62 688,-68 682,-68"/>
<text text-anchor="start" x="562" y="-52.8" font-family="Helvetica,sans-Serif" font-size="14.00">entropy = 0.914</text>
<text text-anchor="start" x="571" y="-37.8" font-family="Helvetica,sans-Serif" font-size="14.00">samples = 76</text>
<text text-anchor="start" x="553" y="-22.8" font-family="Helvetica,sans-Serif" font-size="14.00">value = [25, 51, 0]</text>
<text text-anchor="start" x="563.5" y="-7.8" font-family="Helvetica,sans-Serif" font-size="14.00">class = Medium</text>
</g>
<!-- 5&#45;&gt;7 -->
<g id="edge7" class="edge">
<title>5&#45;&gt;7</title>
<path fill="none" stroke="black" d="M547.95,-103.73C557.63,-94.42 567.92,-84.54 577.58,-75.26"/>
<polygon fill="black" stroke="black" points="580.04,-77.75 584.83,-68.3 575.2,-72.7 580.04,-77.75"/>
</g>
<!-- 9 -->
<g id="node10" class="node">
<title>9</title>
<path fill="#89f0b4" stroke="black" d="M946.5,-187C946.5,-187 788.5,-187 788.5,-187 782.5,-187 776.5,-181 776.5,-175 776.5,-175 776.5,-116 776.5,-116 776.5,-110 782.5,-104 788.5,-104 788.5,-104 946.5,-104 946.5,-104 952.5,-104 958.5,-110 958.5,-116 958.5,-116 958.5,-175 958.5,-175 958.5,-181 952.5,-187 946.5,-187"/>
<text text-anchor="start" x="784.5" y="-171.8" font-family="Helvetica,sans-Serif" font-size="14.00">residual sugar ≤ &#45;0.151</text>
<text text-anchor="start" x="810" y="-156.8" font-family="Helvetica,sans-Serif" font-size="14.00">entropy = 1.206</text>
<text text-anchor="start" x="814.5" y="-141.8" font-family="Helvetica,sans-Serif" font-size="14.00">samples = 106</text>
<text text-anchor="start" x="796.5" y="-126.8" font-family="Helvetica,sans-Serif" font-size="14.00">value = [22, 72, 12]</text>
<text text-anchor="start" x="811.5" y="-111.8" font-family="Helvetica,sans-Serif" font-size="14.00">class = Medium</text>
</g>
<!-- 8&#45;&gt;9 -->
<g id="edge9" class="edge">
<title>8&#45;&gt;9</title>
<path fill="none" stroke="black" d="M867.5,-222.91C867.5,-214.65 867.5,-205.86 867.5,-197.3"/>
<polygon fill="black" stroke="black" points="871,-197.02 867.5,-187.02 864,-197.02 871,-197.02"/>
</g>
<!-- 12 -->
<g id="node13" class="node">
<title>12</title>
<path fill="#c6f8db" stroke="black" d="M1221.5,-187C1221.5,-187 1069.5,-187 1069.5,-187 1063.5,-187 1057.5,-181 1057.5,-175 1057.5,-175 1057.5,-116 1057.5,-116 1057.5,-110 1063.5,-104 1069.5,-104 1069.5,-104 1221.5,-104 1221.5,-104 1227.5,-104 1233.5,-110 1233.5,-116 1233.5,-116 1233.5,-175 1233.5,-175 1233.5,-181 1227.5,-187 1221.5,-187"/>
<text text-anchor="start" x="1090" y="-171.8" font-family="Helvetica,sans-Serif" font-size="14.00">alcohol ≤ 0.996</text>
<text text-anchor="start" x="1088" y="-156.8" font-family="Helvetica,sans-Serif" font-size="14.00">entropy = 1.059</text>
<text text-anchor="start" x="1088" y="-141.8" font-family="Helvetica,sans-Serif" font-size="14.00">samples = 1545</text>
<text text-anchor="start" x="1065.5" y="-126.8" font-family="Helvetica,sans-Serif" font-size="14.00">value = [18, 895, 632]</text>
<text text-anchor="start" x="1089.5" y="-111.8" font-family="Helvetica,sans-Serif" font-size="14.00">class = Medium</text>
</g>
<!-- 8&#45;&gt;12 -->
<g id="edge12" class="edge">
<title>8&#45;&gt;12</title>
<path fill="none" stroke="black" d="M963.95,-222.91C991.03,-211.51 1020.48,-199.11 1047.64,-187.69"/>
<polygon fill="black" stroke="black" points="1049.28,-190.79 1057.14,-183.69 1046.57,-184.34 1049.28,-190.79"/>
</g>
<!-- 10 -->
<g id="node11" class="node">
<title>10</title>
<path fill="#89f0b4" stroke="black" d="M849,-68C849,-68 724,-68 724,-68 718,-68 712,-62 712,-56 712,-56 712,-12 712,-12 712,-6 718,0 724,0 724,0 849,0 849,0 855,0 861,-6 861,-12 861,-12 861,-56 861,-56 861,-62 855,-68 849,-68"/>
<text text-anchor="start" x="729" y="-52.8" font-family="Helvetica,sans-Serif" font-size="14.00">entropy = 1.104</text>
<text text-anchor="start" x="738" y="-37.8" font-family="Helvetica,sans-Serif" font-size="14.00">samples = 85</text>
<text text-anchor="start" x="720" y="-22.8" font-family="Helvetica,sans-Serif" font-size="14.00">value = [21, 59, 5]</text>
<text text-anchor="start" x="730.5" y="-7.8" font-family="Helvetica,sans-Serif" font-size="14.00">class = Medium</text>
</g>
<!-- 9&#45;&gt;10 -->
<g id="edge10" class="edge">
<title>9&#45;&gt;10</title>
<path fill="none" stroke="black" d="M837.34,-103.73C830.73,-94.79 823.72,-85.32 817.09,-76.36"/>
<polygon fill="black" stroke="black" points="819.89,-74.26 811.13,-68.3 814.27,-78.42 819.89,-74.26"/>
</g>
<!-- 11 -->
<g id="node12" class="node">
<title>11</title>
<path fill="#aaf4c9" stroke="black" d="M1007.5,-68C1007.5,-68 891.5,-68 891.5,-68 885.5,-68 879.5,-62 879.5,-56 879.5,-56 879.5,-12 879.5,-12 879.5,-6 885.5,0 891.5,0 891.5,0 1007.5,0 1007.5,0 1013.5,0 1019.5,-6 1019.5,-12 1019.5,-12 1019.5,-56 1019.5,-56 1019.5,-62 1013.5,-68 1007.5,-68"/>
<text text-anchor="start" x="892" y="-52.8" font-family="Helvetica,sans-Serif" font-size="14.00">entropy = 1.166</text>
<text text-anchor="start" x="901" y="-37.8" font-family="Helvetica,sans-Serif" font-size="14.00">samples = 21</text>
<text text-anchor="start" x="887.5" y="-22.8" font-family="Helvetica,sans-Serif" font-size="14.00">value = [1, 13, 7]</text>
<text text-anchor="start" x="893.5" y="-7.8" font-family="Helvetica,sans-Serif" font-size="14.00">class = Medium</text>
</g>
<!-- 9&#45;&gt;11 -->
<g id="edge11" class="edge">
<title>9&#45;&gt;11</title>
<path fill="none" stroke="black" d="M898.03,-103.73C904.73,-94.79 911.82,-85.32 918.53,-76.36"/>
<polygon fill="black" stroke="black" points="921.37,-78.4 924.56,-68.3 915.77,-74.21 921.37,-78.4"/>
</g>
<!-- 13 -->
<g id="node14" class="node">
<title>13</title>
<path fill="#96f1bc" stroke="black" d="M1241.5,-68C1241.5,-68 1049.5,-68 1049.5,-68 1043.5,-68 1037.5,-62 1037.5,-56 1037.5,-56 1037.5,-12 1037.5,-12 1037.5,-6 1043.5,0 1049.5,0 1049.5,0 1241.5,0 1241.5,0 1247.5,0 1253.5,-6 1253.5,-12 1253.5,-12 1253.5,-56 1253.5,-56 1253.5,-62 1247.5,-68 1241.5,-68"/>
<text text-anchor="start" x="1092.5" y="-52.8" font-family="Helvetica,sans-Serif" font-size="14.00">entropy = 1.01</text>
<text text-anchor="start" x="1092.5" y="-37.8" font-family="Helvetica,sans-Serif" font-size="14.00">samples = 846</text>
<text text-anchor="start" x="1045.5" y="-22.8" font-family="Helvetica,sans-Serif" font-size="14.00">value = [15.0, 570.0, 261.0]</text>
<text text-anchor="start" x="1089.5" y="-7.8" font-family="Helvetica,sans-Serif" font-size="14.00">class = Medium</text>
</g>
<!-- 12&#45;&gt;13 -->
<g id="edge13" class="edge">
<title>12&#45;&gt;13</title>
<path fill="none" stroke="black" d="M1145.5,-103.73C1145.5,-95.52 1145.5,-86.86 1145.5,-78.56"/>
<polygon fill="black" stroke="black" points="1149,-78.3 1145.5,-68.3 1142,-78.3 1149,-78.3"/>
</g>
<!-- 14 -->
<g id="node15" class="node">
<title>14</title>
<path fill="#f0e7fc" stroke="black" d="M1427,-68C1427,-68 1284,-68 1284,-68 1278,-68 1272,-62 1272,-56 1272,-56 1272,-12 1272,-12 1272,-6 1278,0 1284,0 1284,0 1427,0 1427,0 1433,0 1439,-6 1439,-12 1439,-12 1439,-56 1439,-56 1439,-62 1433,-68 1427,-68"/>
<text text-anchor="start" x="1298" y="-52.8" font-family="Helvetica,sans-Serif" font-size="14.00">entropy = 1.032</text>
<text text-anchor="start" x="1302.5" y="-37.8" font-family="Helvetica,sans-Serif" font-size="14.00">samples = 699</text>
<text text-anchor="start" x="1280" y="-22.8" font-family="Helvetica,sans-Serif" font-size="14.00">value = [3, 325, 371]</text>
<text text-anchor="start" x="1311.5" y="-7.8" font-family="Helvetica,sans-Serif" font-size="14.00">class = High</text>
</g>
<!-- 12&#45;&gt;14 -->
<g id="edge14" class="edge">
<title>12&#45;&gt;14</title>
<path fill="none" stroke="black" d="M1223.4,-103.88C1242.95,-93.69 1263.84,-82.79 1283.11,-72.75"/>
<polygon fill="black" stroke="black" points="1284.88,-75.77 1292.13,-68.04 1281.64,-69.56 1284.88,-75.77"/>
</g>
</g>
</svg>
