<?xml version="1.0" encoding="UTF-8" standalone="no"?>
<!DOCTYPE svg PUBLIC "-//W3C//DTD SVG 1.1//EN"
 "http://www.w3.org/Graphics/SVG/1.1/DTD/svg11.dtd">
<!-- Generated by graphviz version 2.43.0 (0)
 -->
<!-- Title: Tree Pages: 1 -->
<svg width="765pt" height="314pt"
 viewBox="0.00 0.00 765.00 314.00" xmlns="http://www.w3.org/2000/svg" xmlns:xlink="http://www.w3.org/1999/xlink">
<g id="graph0" class="graph" transform="scale(1 1) rotate(0) translate(4 310)">
<title>Tree</title>
<polygon fill="white" stroke="transparent" points="-4,4 -4,-310 761,-310 761,4 -4,4"/>
<!-- 0 -->
<g id="node1" class="node">
<title>0</title>
<path fill="#79edaa" stroke="black" d="M468,-306C468,-306 298,-306 298,-306 292,-306 286,-300 286,-294 286,-294 286,-235 286,-235 286,-229 292,-223 298,-223 298,-223 468,-223 468,-223 474,-223 480,-229 480,-235 480,-235 480,-294 480,-294 480,-300 474,-306 468,-306"/>
<text text-anchor="start" x="327.5" y="-290.8" font-family="Helvetica,sans-Serif" font-size="14.00">alcohol ≤ 0.085</text>
<text text-anchor="start" x="330" y="-275.8" font-family="Helvetica,sans-Serif" font-size="14.00">entropy = 0.97</text>
<text text-anchor="start" x="325.5" y="-260.8" font-family="Helvetica,sans-Serif" font-size="14.00">samples = 3918</text>
<text text-anchor="start" x="294" y="-245.8" font-family="Helvetica,sans-Serif" font-size="14.00">value = [146, 2924, 848]</text>
<text text-anchor="start" x="327" y="-230.8" font-family="Helvetica,sans-Serif" font-size="14.00">class = Medium</text>
</g>
<!-- 1 -->
<g id="node2" class="node">
<title>1</title>
<path fill="#57e994" stroke="black" d="M358,-187C358,-187 188,-187 188,-187 182,-187 176,-181 176,-175 176,-175 176,-116 176,-116 176,-110 182,-104 188,-104 188,-104 358,-104 358,-104 364,-104 370,-110 370,-116 370,-116 370,-175 370,-175 370,-181 364,-187 358,-187"/>
<text text-anchor="start" x="189.5" y="-171.8" font-family="Helvetica,sans-Serif" font-size="14.00">volatile acidity ≤ &#45;0.648</text>
<text text-anchor="start" x="215.5" y="-156.8" font-family="Helvetica,sans-Serif" font-size="14.00">entropy = 0.702</text>
<text text-anchor="start" x="215.5" y="-141.8" font-family="Helvetica,sans-Serif" font-size="14.00">samples = 2267</text>
<text text-anchor="start" x="184" y="-126.8" font-family="Helvetica,sans-Serif" font-size="14.00">value = [106, 1957, 204]</text>
<text text-anchor="start" x="217" y="-111.8" font-family="Helvetica,sans-Serif" font-size="14.00">class = Medium</text>
</g>
<!-- 0&#45;&gt;1 -->
<g id="edge1" class="edge">
<title>0&#45;&gt;1</title>
<path fill="none" stroke="black" d="M344.84,-222.91C336.22,-213.74 326.99,-203.93 318.12,-194.49"/>
<polygon fill="black" stroke="black" points="320.5,-191.91 311.1,-187.02 315.4,-196.7 320.5,-191.91"/>
<text text-anchor="middle" x="310.33" y="-208.31" font-family="Helvetica,sans-Serif" font-size="14.00">True</text>
</g>
<!-- 4 -->
<g id="node5" class="node">
<title>4</title>
<path fill="#bff7d7" stroke="black" d="M586,-187C586,-187 400,-187 400,-187 394,-187 388,-181 388,-175 388,-175 388,-116 388,-116 388,-110 394,-104 400,-104 400,-104 586,-104 586,-104 592,-104 598,-110 598,-116 598,-116 598,-175 598,-175 598,-181 592,-187 586,-187"/>
<text text-anchor="start" x="396" y="-171.8" font-family="Helvetica,sans-Serif" font-size="14.00">free sulfur dioxide ≤ &#45;1.409</text>
<text text-anchor="start" x="435.5" y="-156.8" font-family="Helvetica,sans-Serif" font-size="14.00">entropy = 1.112</text>
<text text-anchor="start" x="435.5" y="-141.8" font-family="Helvetica,sans-Serif" font-size="14.00">samples = 1651</text>
<text text-anchor="start" x="413" y="-126.8" font-family="Helvetica,sans-Serif" font-size="14.00">value = [40, 967, 644]</text>
<text text-anchor="start" x="437" y="-111.8" font-family="Helvetica,sans-Serif" font-size="14.00">class = Medium</text>
</g>
<!-- 0&#45;&gt;4 -->
<g id="edge4" class="edge">
<title>0&#45;&gt;4</title>
<path fill="none" stroke="black" d="M421.16,-222.91C429.78,-213.74 439.01,-203.93 447.88,-194.49"/>
<polygon fill="black" stroke="black" points="450.6,-196.7 454.9,-187.02 445.5,-191.91 450.6,-196.7"/>
<text text-anchor="middle" x="455.67" y="-208.31" font-family="Helvetica,sans-Serif" font-size="14.00">False</text>
</g>
<!-- 2 -->
<g id="node3" class="node">
<title>2</title>
<path fill="#74eda7" stroke="black" d="M164,-68C164,-68 12,-68 12,-68 6,-68 0,-62 0,-56 0,-56 0,-12 0,-12 0,-6 6,0 12,0 12,0 164,0 164,0 170,0 176,-6 176,-12 176,-12 176,-56 176,-56 176,-62 170,-68 164,-68"/>
<text text-anchor="start" x="39.5" y="-52.8" font-family="Helvetica,sans-Serif" font-size="14.00">entropy = 0.9</text>
<text text-anchor="start" x="35" y="-37.8" font-family="Helvetica,sans-Serif" font-size="14.00">samples = 616</text>
<text text-anchor="start" x="8" y="-22.8" font-family="Helvetica,sans-Serif" font-size="14.00">value = [15, 471, 130]</text>
<text text-anchor="start" x="32" y="-7.8" font-family="Helvetica,sans-Serif" font-size="14.00">class = Medium</text>
</g>
<!-- 1&#45;&gt;2 -->
<g id="edge2" class="edge">
<title>1&#45;&gt;2</title>
<path fill="none" stroke="black" d="M204.38,-103.88C187.39,-93.83 169.25,-83.09 152.47,-73.16"/>
<polygon fill="black" stroke="black" points="154.21,-70.12 143.83,-68.04 150.65,-76.15 154.21,-70.12"/>
</g>
<!-- 3 -->
<g id="node4" class="node">
<title>3</title>
<path fill="#4ee88e" stroke="black" d="M358,-68C358,-68 206,-68 206,-68 200,-68 194,-62 194,-56 194,-56 194,-12 194,-12 194,-6 200,0 206,0 206,0 358,0 358,0 364,0 370,-6 370,-12 370,-12 370,-56 370,-56 370,-62 364,-68 358,-68"/>
<text text-anchor="start" x="224.5" y="-52.8" font-family="Helvetica,sans-Serif" font-size="14.00">entropy = 0.568</text>
<text text-anchor="start" x="224.5" y="-37.8" font-family="Helvetica,sans-Serif" font-size="14.00">samples = 1651</text>
<text text-anchor="start" x="202" y="-22.8" font-family="Helvetica,sans-Serif" font-size="14.00">value = [91, 1486, 74]</text>
<text text-anchor="start" x="226" y="-7.8" font-family="Helvetica,sans-Serif" font-size="14.00">class = Medium</text>
</g>
<!-- 1&#45;&gt;3 -->
<g id="edge3" class="edge">
<title>1&#45;&gt;3</title>
<path fill="none" stroke="black" d="M276.35,-103.73C277.03,-95.43 277.75,-86.67 278.44,-78.28"/>
<polygon fill="black" stroke="black" points="281.93,-78.55 279.26,-68.3 274.96,-77.98 281.93,-78.55"/>
</g>
<!-- 5 -->
<g id="node6" class="node">
<title>5</title>
<path fill="#89f0b4" stroke="black" d="M551,-68C551,-68 417,-68 417,-68 411,-68 405,-62 405,-56 405,-56 405,-12 405,-12 405,-6 411,0 417,0 417,0 551,0 551,0 557,0 563,-6 563,-12 563,-12 563,-56 563,-56 563,-62 557,-68 551,-68"/>
<text text-anchor="start" x="426.5" y="-52.8" font-family="Helvetica,sans-Serif" font-size="14.00">entropy = 1.206</text>
<text text-anchor="start" x="431" y="-37.8" font-family="Helvetica,sans-Serif" font-size="14.00">samples = 106</text>
<text text-anchor="start" x="413" y="-22.8" font-family="Helvetica,sans-Serif" font-size="14.00">value = [22, 72, 12]</text>
<text text-anchor="start" x="428" y="-7.8" font-family="Helvetica,sans-Serif" font-size="14.00">class = Medium</text>
</g>
<!-- 4&#45;&gt;5 -->
<g id="edge5" class="edge">
<title>4&#45;&gt;5</title>
<path fill="none" stroke="black" d="M489.65,-103.73C488.97,-95.43 488.25,-86.67 487.56,-78.28"/>
<polygon fill="black" stroke="black" points="491.04,-77.98 486.74,-68.3 484.07,-78.55 491.04,-77.98"/>
</g>
<!-- 6 -->
<g id="node7" class="node">
<title>6</title>
<path fill="#c6f8db" stroke="black" d="M745,-68C745,-68 593,-68 593,-68 587,-68 581,-62 581,-56 581,-56 581,-12 581,-12 581,-6 587,0 593,0 593,0 745,0 745,0 751,0 757,-6 757,-12 757,-12 757,-56 757,-56 757,-62 751,-68 745,-68"/>
<text text-anchor="start" x="611.5" y="-52.8" font-family="Helvetica,sans-Serif" font-size="14.00">entropy = 1.059</text>
<text text-anchor="start" x="611.5" y="-37.8" font-family="Helvetica,sans-Serif" font-size="14.00">samples = 1545</text>
<text text-anchor="start" x="589" y="-22.8" font-family="Helvetica,sans-Serif" font-size="14.00">value = [18, 895, 632]</text>
<text text-anchor="start" x="613" y="-7.8" font-family="Helvetica,sans-Serif" font-size="14.00">class = Medium</text>
</g>
<!-- 4&#45;&gt;6 -->
<g id="edge6" class="edge">
<title>4&#45;&gt;6</title>
<path fill="none" stroke="black" d="M558.54,-103.73C574.45,-93.82 591.42,-83.27 607.16,-73.48"/>
<polygon fill="black" stroke="black" points="609.12,-76.38 615.76,-68.13 605.42,-70.44 609.12,-76.38"/>
</g>
</g>
</svg>
