<?xml version="1.0" encoding="UTF-8" standalone="no"?>
<!DOCTYPE svg PUBLIC "-//W3C//DTD SVG 1.1//EN"
 "http://www.w3.org/Graphics/SVG/1.1/DTD/svg11.dtd">
<!-- Generated by graphviz version 2.43.0 (0)
 -->
<!-- Title: Tree Pages: 1 -->
<svg width="2724pt" height="552pt"
 viewBox="0.00 0.00 2723.50 552.00" xmlns="http://www.w3.org/2000/svg" xmlns:xlink="http://www.w3.org/1999/xlink">
<g id="graph0" class="graph" transform="scale(1 1) rotate(0) translate(4 548)">
<title>Tree</title>
<polygon fill="white" stroke="transparent" points="-4,4 -4,-548 2719.5,-548 2719.5,4 -4,4"/>
<!-- 0 -->
<g id="node1" class="node">
<title>0</title>
<path fill="#79edaa" stroke="black" d="M1473,-544C1473,-544 1303,-544 1303,-544 1297,-544 1291,-538 1291,-532 1291,-532 1291,-473 1291,-473 1291,-467 1297,-461 1303,-461 1303,-461 1473,-461 1473,-461 1479,-461 1485,-467 1485,-473 1485,-473 1485,-532 1485,-532 1485,-538 1479,-544 1473,-544"/>
<text text-anchor="start" x="1332.5" y="-528.8" font-family="Helvetica,sans-Serif" font-size="14.00">alcohol ≤ 0.085</text>
<text text-anchor="start" x="1335" y="-513.8" font-family="Helvetica,sans-Serif" font-size="14.00">entropy = 0.97</text>
<text text-anchor="start" x="1330.5" y="-498.8" font-family="Helvetica,sans-Serif" font-size="14.00">samples = 3918</text>
<text text-anchor="start" x="1299" y="-483.8" font-family="Helvetica,sans-Serif" font-size="14.00">value = [146, 2924, 848]</text>
<text text-anchor="start" x="1332" y="-468.8" font-family="Helvetica,sans-Serif" font-size="14.00">class = Medium</text>
</g>
<!-- 1 -->
<g id="node2" class="node">
<title>1</title>
<path fill="#57e994" stroke="black" d="M1135,-425C1135,-425 965,-425 965,-425 959,-425 953,-419 953,-413 953,-413 953,-354 953,-354 953,-348 959,-342 965,-342 965,-342 1135,-342 1135,-342 1141,-342 1147,-348 1147,-354 1147,-354 1147,-413 1147,-413 1147,-419 1141,-425 1135,-425"/>
<text text-anchor="start" x="966.5" y="-409.8" font-family="Helvetica,sans-Serif" font-size="14.00">volatile acidity ≤ &#45;0.648</text>
<text text-anchor="start" x="992.5" y="-394.8" font-family="Helvetica,sans-Serif" font-size="14.00">entropy = 0.702</text>
<text text-anchor="start" x="992.5" y="-379.8" font-family="Helvetica,sans-Serif" font-size="14.00">samples = 2267</text>
<text text-anchor="start" x="961" y="-364.8" font-family="Helvetica,sans-Serif" font-size="14.00">value = [106, 1957, 204]</text>
<text text-anchor="start" x="994" y="-349.8" font-family="Helvetica,sans-Serif" font-size="14.00">class = Medium</text>
</g>
<!-- 0&#45;&gt;1 -->
<g id="edge1" class="edge">
<title>0&#45;&gt;1</title>
<path fill="none" stroke="black" d="M1290.69,-467.82C1248.81,-453.32 1199.71,-436.32 1156.83,-421.48"/>
<polygon fill="black" stroke="black" points="1157.8,-418.11 1147.21,-418.15 1155.51,-424.73 1157.8,-418.11"/>
<text text-anchor="middle" x="1158.13" y="-436.94" font-family="Helvetica,sans-Serif" font-size="14.00">True</text>
</g>
<!-- 16 -->
<g id="node17" class="node">
<title>16</title>
<path fill="#bff7d7" stroke="black" d="M1793,-425C1793,-425 1607,-425 1607,-425 1601,-425 1595,-419 1595,-413 1595,-413 1595,-354 1595,-354 1595,-348 1601,-342 1607,-342 1607,-342 1793,-342 1793,-342 1799,-342 1805,-348 1805,-354 1805,-354 1805,-413 1805,-413 1805,-419 1799,-425 1793,-425"/>
<text text-anchor="start" x="1603" y="-409.8" font-family="Helvetica,sans-Serif" font-size="14.00">free sulfur dioxide ≤ &#45;1.409</text>
<text text-anchor="start" x="1642.5" y="-394.8" font-family="Helvetica,sans-Serif" font-size="14.00">entropy = 1.112</text>
<text text-anchor="start" x="1642.5" y="-379.8" font-family="Helvetica,sans-Serif" font-size="14.00">samples = 1651</text>
<text text-anchor="start" x="1620" y="-364.8" font-family="Helvetica,sans-Serif" font-size="14.00">value = [40, 967, 644]</text>
<text text-anchor="start" x="1644" y="-349.8" font-family="Helvetica,sans-Serif" font-size="14.00">class = Medium</text>
</g>
<!-- 0&#45;&gt;16 -->
<g id="edge16" class="edge">
<title>0&#45;&gt;16</title>
<path fill="none" stroke="black" d="M1485.01,-465.12C1516.76,-453.22 1552.33,-439.88 1585.26,-427.53"/>
<polygon fill="black" stroke="black" points="1586.79,-430.69 1594.92,-423.9 1584.33,-424.14 1586.79,-430.69"/>
<text text-anchor="middle" x="1584.58" y="-442.96" font-family="Helvetica,sans-Serif" font-size="14.00">False</text>
</g>
<!-- 2 -->
<g id="node3" class="node">
<title>2</title>
<path fill="#74eda7" stroke="black" d="M569,-306C569,-306 417,-306 417,-306 411,-306 405,-300 405,-294 405,-294 405,-235 405,-235 405,-229 411,-223 417,-223 417,-223 569,-223 569,-223 575,-223 581,-229 581,-235 581,-235 581,-294 581,-294 581,-300 575,-306 569,-306"/>
<text text-anchor="start" x="435" y="-290.8" font-family="Helvetica,sans-Serif" font-size="14.00">alcohol ≤ &#45;1.201</text>
<text text-anchor="start" x="444.5" y="-275.8" font-family="Helvetica,sans-Serif" font-size="14.00">entropy = 0.9</text>
<text text-anchor="start" x="440" y="-260.8" font-family="Helvetica,sans-Serif" font-size="14.00">samples = 616</text>
<text text-anchor="start" x="413" y="-245.8" font-family="Helvetica,sans-Serif" font-size="14.00">value = [15, 471, 130]</text>
<text text-anchor="start" x="437" y="-230.8" font-family="Helvetica,sans-Serif" font-size="14.00">class = Medium</text>
</g>
<!-- 1&#45;&gt;2 -->
<g id="edge2" class="edge">
<title>1&#45;&gt;2</title>
<path fill="none" stroke="black" d="M952.98,-362.12C851.48,-340.8 693.01,-307.51 591.1,-286.11"/>
<polygon fill="black" stroke="black" points="591.62,-282.64 581.11,-284.01 590.18,-289.49 591.62,-282.64"/>
</g>
<!-- 9 -->
<g id="node10" class="node">
<title>9</title>
<path fill="#4ee88e" stroke="black" d="M1127,-306C1127,-306 973,-306 973,-306 967,-306 961,-300 961,-294 961,-294 961,-235 961,-235 961,-229 967,-223 973,-223 973,-223 1127,-223 1127,-223 1133,-223 1139,-229 1139,-235 1139,-235 1139,-294 1139,-294 1139,-300 1133,-306 1127,-306"/>
<text text-anchor="start" x="969" y="-290.8" font-family="Helvetica,sans-Serif" font-size="14.00">volatile acidity ≤ 2.342</text>
<text text-anchor="start" x="992.5" y="-275.8" font-family="Helvetica,sans-Serif" font-size="14.00">entropy = 0.568</text>
<text text-anchor="start" x="992.5" y="-260.8" font-family="Helvetica,sans-Serif" font-size="14.00">samples = 1651</text>
<text text-anchor="start" x="970" y="-245.8" font-family="Helvetica,sans-Serif" font-size="14.00">value = [91, 1486, 74]</text>
<text text-anchor="start" x="994" y="-230.8" font-family="Helvetica,sans-Serif" font-size="14.00">class = Medium</text>
</g>
<!-- 1&#45;&gt;9 -->
<g id="edge9" class="edge">
<title>1&#45;&gt;9</title>
<path fill="none" stroke="black" d="M1050,-341.91C1050,-333.65 1050,-324.86 1050,-316.3"/>
<polygon fill="black" stroke="black" points="1053.5,-316.02 1050,-306.02 1046.5,-316.02 1053.5,-316.02"/>
</g>
<!-- 3 -->
<g id="node4" class="node">
<title>3</title>
<path fill="#ffffff" stroke="black" d="M295.5,-187C295.5,-187 170.5,-187 170.5,-187 164.5,-187 158.5,-181 158.5,-175 158.5,-175 158.5,-116 158.5,-116 158.5,-110 164.5,-104 170.5,-104 170.5,-104 295.5,-104 295.5,-104 301.5,-104 307.5,-110 307.5,-116 307.5,-116 307.5,-175 307.5,-175 307.5,-181 301.5,-187 295.5,-187"/>
<text text-anchor="start" x="170.5" y="-171.8" font-family="Helvetica,sans-Serif" font-size="14.00">chlorides ≤ 0.139</text>
<text text-anchor="start" x="175.5" y="-156.8" font-family="Helvetica,sans-Serif" font-size="14.00">entropy = 1.141</text>
<text text-anchor="start" x="184.5" y="-141.8" font-family="Helvetica,sans-Serif" font-size="14.00">samples = 82</text>
<text text-anchor="start" x="166.5" y="-126.8" font-family="Helvetica,sans-Serif" font-size="14.00">value = [2, 40, 40]</text>
<text text-anchor="start" x="177" y="-111.8" font-family="Helvetica,sans-Serif" font-size="14.00">class = Medium</text>
</g>
<!-- 2&#45;&gt;3 -->
<g id="edge3" class="edge">
<title>2&#45;&gt;3</title>
<path fill="none" stroke="black" d="M404.98,-223.89C376.65,-211.14 345.35,-197.06 317.3,-184.43"/>
<polygon fill="black" stroke="black" points="318.47,-181.13 307.92,-180.21 315.6,-187.51 318.47,-181.13"/>
</g>
<!-- 6 -->
<g id="node7" class="node">
<title>6</title>
<path fill="#67eb9e" stroke="black" d="M564.5,-187C564.5,-187 421.5,-187 421.5,-187 415.5,-187 409.5,-181 409.5,-175 409.5,-175 409.5,-116 409.5,-116 409.5,-110 415.5,-104 421.5,-104 421.5,-104 564.5,-104 564.5,-104 570.5,-104 576.5,-110 576.5,-116 576.5,-116 576.5,-175 576.5,-175 576.5,-181 570.5,-187 564.5,-187"/>
<text text-anchor="start" x="428" y="-171.8" font-family="Helvetica,sans-Serif" font-size="14.00">sulphates ≤ 2.896</text>
<text text-anchor="start" x="435.5" y="-156.8" font-family="Helvetica,sans-Serif" font-size="14.00">entropy = 0.813</text>
<text text-anchor="start" x="440" y="-141.8" font-family="Helvetica,sans-Serif" font-size="14.00">samples = 534</text>
<text text-anchor="start" x="417.5" y="-126.8" font-family="Helvetica,sans-Serif" font-size="14.00">value = [13, 431, 90]</text>
<text text-anchor="start" x="437" y="-111.8" font-family="Helvetica,sans-Serif" font-size="14.00">class = Medium</text>
</g>
<!-- 2&#45;&gt;6 -->
<g id="edge6" class="edge">
<title>2&#45;&gt;6</title>
<path fill="none" stroke="black" d="M493,-222.91C493,-214.65 493,-205.86 493,-197.3"/>
<polygon fill="black" stroke="black" points="496.5,-197.02 493,-187.02 489.5,-197.02 496.5,-197.02"/>
</g>
<!-- 4 -->
<g id="node5" class="node">
<title>4</title>
<path fill="#4ee88e" stroke="black" d="M128,-68C128,-68 12,-68 12,-68 6,-68 0,-62 0,-56 0,-56 0,-12 0,-12 0,-6 6,0 12,0 12,0 128,0 128,0 134,0 140,-6 140,-12 140,-12 140,-56 140,-56 140,-62 134,-68 128,-68"/>
<text text-anchor="start" x="12.5" y="-52.8" font-family="Helvetica,sans-Serif" font-size="14.00">entropy = 0.561</text>
<text text-anchor="start" x="21.5" y="-37.8" font-family="Helvetica,sans-Serif" font-size="14.00">samples = 30</text>
<text text-anchor="start" x="8" y="-22.8" font-family="Helvetica,sans-Serif" font-size="14.00">value = [1, 27, 2]</text>
<text text-anchor="start" x="14" y="-7.8" font-family="Helvetica,sans-Serif" font-size="14.00">class = Medium</text>
</g>
<!-- 3&#45;&gt;4 -->
<g id="edge4" class="edge">
<title>3&#45;&gt;4</title>
<path fill="none" stroke="black" d="M172.3,-103.73C157.7,-93.92 142.14,-83.46 127.68,-73.75"/>
<polygon fill="black" stroke="black" points="129.56,-70.8 119.31,-68.13 125.66,-76.61 129.56,-70.8"/>
</g>
<!-- 5 -->
<g id="node6" class="node">
<title>5</title>
<path fill="#ae80ee" stroke="black" d="M295.5,-68C295.5,-68 170.5,-68 170.5,-68 164.5,-68 158.5,-62 158.5,-56 158.5,-56 158.5,-12 158.5,-12 158.5,-6 164.5,0 170.5,0 170.5,0 295.5,0 295.5,0 301.5,0 307.5,-6 307.5,-12 307.5,-12 307.5,-56 307.5,-56 307.5,-62 301.5,-68 295.5,-68"/>
<text text-anchor="start" x="180" y="-52.8" font-family="Helvetica,sans-Serif" font-size="14.00">entropy = 0.94</text>
<text text-anchor="start" x="184.5" y="-37.8" font-family="Helvetica,sans-Serif" font-size="14.00">samples = 52</text>
<text text-anchor="start" x="166.5" y="-22.8" font-family="Helvetica,sans-Serif" font-size="14.00">value = [1, 13, 38]</text>
<text text-anchor="start" x="189" y="-7.8" font-family="Helvetica,sans-Serif" font-size="14.00">class = High</text>
</g>
<!-- 3&#45;&gt;5 -->
<g id="edge5" class="edge">
<title>3&#45;&gt;5</title>
<path fill="none" stroke="black" d="M233,-103.73C233,-95.52 233,-86.86 233,-78.56"/>
<polygon fill="black" stroke="black" points="236.5,-78.3 233,-68.3 229.5,-78.3 236.5,-78.3"/>
</g>
<!-- 7 -->
<g id="node8" class="node">
<title>7</title>
<path fill="#64eb9c" stroke="black" d="M480.5,-68C480.5,-68 337.5,-68 337.5,-68 331.5,-68 325.5,-62 325.5,-56 325.5,-56 325.5,-12 325.5,-12 325.5,-6 331.5,0 337.5,0 337.5,0 480.5,0 480.5,0 486.5,0 492.5,-6 492.5,-12 492.5,-12 492.5,-56 492.5,-56 492.5,-62 486.5,-68 480.5,-68"/>
<text text-anchor="start" x="351.5" y="-52.8" font-family="Helvetica,sans-Serif" font-size="14.00">entropy = 0.789</text>
<text text-anchor="start" x="356" y="-37.8" font-family="Helvetica,sans-Serif" font-size="14.00">samples = 527</text>
<text text-anchor="start" x="333.5" y="-22.8" font-family="Helvetica,sans-Serif" font-size="14.00">value = [13, 431, 83]</text>
<text text-anchor="start" x="353" y="-7.8" font-family="Helvetica,sans-Serif" font-size="14.00">class = Medium</text>
</g>
<!-- 6&#45;&gt;7 -->
<g id="edge7" class="edge">
<title>6&#45;&gt;7</title>
<path fill="none" stroke="black" d="M461.72,-103.73C454.86,-94.79 447.6,-85.32 440.72,-76.36"/>
<polygon fill="black" stroke="black" points="443.41,-74.1 434.54,-68.3 437.85,-78.36 443.41,-74.1"/>
</g>
<!-- 8 -->
<g id="node9" class="node">
<title>8</title>
<path fill="#8139e5" stroke="black" d="M629.5,-68C629.5,-68 522.5,-68 522.5,-68 516.5,-68 510.5,-62 510.5,-56 510.5,-56 510.5,-12 510.5,-12 510.5,-6 516.5,0 522.5,0 522.5,0 629.5,0 629.5,0 635.5,0 641.5,-6 641.5,-12 641.5,-12 641.5,-56 641.5,-56 641.5,-62 635.5,-68 629.5,-68"/>
<text text-anchor="start" x="527.5" y="-52.8" font-family="Helvetica,sans-Serif" font-size="14.00">entropy = 0.0</text>
<text text-anchor="start" x="532" y="-37.8" font-family="Helvetica,sans-Serif" font-size="14.00">samples = 7</text>
<text text-anchor="start" x="518.5" y="-22.8" font-family="Helvetica,sans-Serif" font-size="14.00">value = [0, 0, 7]</text>
<text text-anchor="start" x="532" y="-7.8" font-family="Helvetica,sans-Serif" font-size="14.00">class = High</text>
</g>
<!-- 6&#45;&gt;8 -->
<g id="edge8" class="edge">
<title>6&#45;&gt;8</title>
<path fill="none" stroke="black" d="M523.91,-103.73C530.68,-94.79 537.86,-85.32 544.65,-76.36"/>
<polygon fill="black" stroke="black" points="547.51,-78.38 550.76,-68.3 541.93,-74.15 547.51,-78.38"/>
</g>
<!-- 10 -->
<g id="node11" class="node">
<title>10</title>
<path fill="#4be78d" stroke="black" d="M1029,-187C1029,-187 843,-187 843,-187 837,-187 831,-181 831,-175 831,-175 831,-116 831,-116 831,-110 837,-104 843,-104 843,-104 1029,-104 1029,-104 1035,-104 1041,-110 1041,-116 1041,-116 1041,-175 1041,-175 1041,-181 1035,-187 1029,-187"/>
<text text-anchor="start" x="839" y="-171.8" font-family="Helvetica,sans-Serif" font-size="14.00">free sulfur dioxide ≤ &#45;1.172</text>
<text text-anchor="start" x="878.5" y="-156.8" font-family="Helvetica,sans-Serif" font-size="14.00">entropy = 0.521</text>
<text text-anchor="start" x="878.5" y="-141.8" font-family="Helvetica,sans-Serif" font-size="14.00">samples = 1575</text>
<text text-anchor="start" x="856" y="-126.8" font-family="Helvetica,sans-Serif" font-size="14.00">value = [66, 1435, 74]</text>
<text text-anchor="start" x="880" y="-111.8" font-family="Helvetica,sans-Serif" font-size="14.00">class = Medium</text>
</g>
<!-- 9&#45;&gt;10 -->
<g id="edge10" class="edge">
<title>9&#45;&gt;10</title>
<path fill="none" stroke="black" d="M1010.45,-222.91C1001.43,-213.65 991.76,-203.73 982.49,-194.21"/>
<polygon fill="black" stroke="black" points="984.97,-191.74 975.48,-187.02 979.95,-196.63 984.97,-191.74"/>
</g>
<!-- 13 -->
<g id="node14" class="node">
<title>13</title>
<path fill="#9af2bf" stroke="black" d="M1257,-187C1257,-187 1071,-187 1071,-187 1065,-187 1059,-181 1059,-175 1059,-175 1059,-116 1059,-116 1059,-110 1065,-104 1071,-104 1071,-104 1257,-104 1257,-104 1263,-104 1269,-110 1269,-116 1269,-116 1269,-175 1269,-175 1269,-181 1263,-187 1257,-187"/>
<text text-anchor="start" x="1067" y="-171.8" font-family="Helvetica,sans-Serif" font-size="14.00">free sulfur dioxide ≤ &#45;1.586</text>
<text text-anchor="start" x="1106.5" y="-156.8" font-family="Helvetica,sans-Serif" font-size="14.00">entropy = 0.914</text>
<text text-anchor="start" x="1115.5" y="-141.8" font-family="Helvetica,sans-Serif" font-size="14.00">samples = 76</text>
<text text-anchor="start" x="1097.5" y="-126.8" font-family="Helvetica,sans-Serif" font-size="14.00">value = [25, 51, 0]</text>
<text text-anchor="start" x="1108" y="-111.8" font-family="Helvetica,sans-Serif" font-size="14.00">class = Medium</text>
</g>
<!-- 9&#45;&gt;13 -->
<g id="edge13" class="edge">
<title>9&#45;&gt;13</title>
<path fill="none" stroke="black" d="M1089.55,-222.91C1098.57,-213.65 1108.24,-203.73 1117.51,-194.21"/>
<polygon fill="black" stroke="black" points="1120.05,-196.63 1124.52,-187.02 1115.03,-191.74 1120.05,-196.63"/>
</g>
<!-- 11 -->
<g id="node12" class="node">
<title>11</title>
<path fill="#74eda6" stroke="black" d="M846,-68C846,-68 672,-68 672,-68 666,-68 660,-62 660,-56 660,-56 660,-12 660,-12 660,-6 666,0 672,0 672,0 846,0 846,0 852,0 858,-6 858,-12 858,-12 858,-56 858,-56 858,-62 852,-68 846,-68"/>
<text text-anchor="start" x="701.5" y="-52.8" font-family="Helvetica,sans-Serif" font-size="14.00">entropy = 0.951</text>
<text text-anchor="start" x="706" y="-37.8" font-family="Helvetica,sans-Serif" font-size="14.00">samples = 143</text>
<text text-anchor="start" x="668" y="-22.8" font-family="Helvetica,sans-Serif" font-size="14.00">value = [28.0, 109.0, 6.0]</text>
<text text-anchor="start" x="703" y="-7.8" font-family="Helvetica,sans-Serif" font-size="14.00">class = Medium</text>
</g>
<!-- 10&#45;&gt;11 -->
<g id="edge11" class="edge">
<title>10&#45;&gt;11</title>
<path fill="none" stroke="black" d="M870.34,-103.88C854.24,-93.92 837.05,-83.29 821.12,-73.43"/>
<polygon fill="black" stroke="black" points="822.76,-70.33 812.41,-68.04 819.08,-76.28 822.76,-70.33"/>
</g>
<!-- 12 -->
<g id="node13" class="node">
<title>12</title>
<path fill="#48e78b" stroke="black" d="M1040,-68C1040,-68 888,-68 888,-68 882,-68 876,-62 876,-56 876,-56 876,-12 876,-12 876,-6 882,0 888,0 888,0 1040,0 1040,0 1046,0 1052,-6 1052,-12 1052,-12 1052,-56 1052,-56 1052,-62 1046,-68 1040,-68"/>
<text text-anchor="start" x="911" y="-52.8" font-family="Helvetica,sans-Serif" font-size="14.00">entropy = 0.45</text>
<text text-anchor="start" x="906.5" y="-37.8" font-family="Helvetica,sans-Serif" font-size="14.00">samples = 1432</text>
<text text-anchor="start" x="884" y="-22.8" font-family="Helvetica,sans-Serif" font-size="14.00">value = [38, 1326, 68]</text>
<text text-anchor="start" x="908" y="-7.8" font-family="Helvetica,sans-Serif" font-size="14.00">class = Medium</text>
</g>
<!-- 10&#45;&gt;12 -->
<g id="edge12" class="edge">
<title>10&#45;&gt;12</title>
<path fill="none" stroke="black" d="M946.43,-103.73C948.57,-95.34 950.84,-86.47 953,-78.01"/>
<polygon fill="black" stroke="black" points="956.4,-78.85 955.49,-68.3 949.62,-77.12 956.4,-78.85"/>
</g>
<!-- 14 -->
<g id="node15" class="node">
<title>14</title>
<path fill="#e58139" stroke="black" d="M1189.5,-68C1189.5,-68 1082.5,-68 1082.5,-68 1076.5,-68 1070.5,-62 1070.5,-56 1070.5,-56 1070.5,-12 1070.5,-12 1070.5,-6 1076.5,0 1082.5,0 1082.5,0 1189.5,0 1189.5,0 1195.5,0 1201.5,-6 1201.5,-12 1201.5,-12 1201.5,-56 1201.5,-56 1201.5,-62 1195.5,-68 1189.5,-68"/>
<text text-anchor="start" x="1087.5" y="-52.8" font-family="Helvetica,sans-Serif" font-size="14.00">entropy = 0.0</text>
<text text-anchor="start" x="1092" y="-37.8" font-family="Helvetica,sans-Serif" font-size="14.00">samples = 4</text>
<text text-anchor="start" x="1078.5" y="-22.8" font-family="Helvetica,sans-Serif" font-size="14.00">value = [4, 0, 0]</text>
<text text-anchor="start" x="1094.5" y="-7.8" font-family="Helvetica,sans-Serif" font-size="14.00">class = Low</text>
</g>
<!-- 13&#45;&gt;14 -->
<g id="edge14" class="edge">
<title>13&#45;&gt;14</title>
<path fill="none" stroke="black" d="M1153.57,-103.73C1151.43,-95.34 1149.16,-86.47 1147,-78.01"/>
<polygon fill="black" stroke="black" points="1150.38,-77.12 1144.51,-68.3 1143.6,-78.85 1150.38,-77.12"/>
</g>
<!-- 15 -->
<g id="node16" class="node">
<title>15</title>
<path fill="#8bf0b5" stroke="black" d="M1356.5,-68C1356.5,-68 1231.5,-68 1231.5,-68 1225.5,-68 1219.5,-62 1219.5,-56 1219.5,-56 1219.5,-12 1219.5,-12 1219.5,-6 1225.5,0 1231.5,0 1231.5,0 1356.5,0 1356.5,0 1362.5,0 1368.5,-6 1368.5,-12 1368.5,-12 1368.5,-56 1368.5,-56 1368.5,-62 1362.5,-68 1356.5,-68"/>
<text text-anchor="start" x="1236.5" y="-52.8" font-family="Helvetica,sans-Serif" font-size="14.00">entropy = 0.871</text>
<text text-anchor="start" x="1245.5" y="-37.8" font-family="Helvetica,sans-Serif" font-size="14.00">samples = 72</text>
<text text-anchor="start" x="1227.5" y="-22.8" font-family="Helvetica,sans-Serif" font-size="14.00">value = [21, 51, 0]</text>
<text text-anchor="start" x="1238" y="-7.8" font-family="Helvetica,sans-Serif" font-size="14.00">class = Medium</text>
</g>
<!-- 13&#45;&gt;15 -->
<g id="edge15" class="edge">
<title>13&#45;&gt;15</title>
<path fill="none" stroke="black" d="M1212.41,-103.73C1223.56,-94.33 1235.41,-84.35 1246.53,-74.99"/>
<polygon fill="black" stroke="black" points="1249.07,-77.42 1254.47,-68.3 1244.56,-72.06 1249.07,-77.42"/>
</g>
<!-- 17 -->
<g id="node18" class="node">
<title>17</title>
<path fill="#89f0b4" stroke="black" d="M1779,-306C1779,-306 1621,-306 1621,-306 1615,-306 1609,-300 1609,-294 1609,-294 1609,-235 1609,-235 1609,-229 1615,-223 1621,-223 1621,-223 1779,-223 1779,-223 1785,-223 1791,-229 1791,-235 1791,-235 1791,-294 1791,-294 1791,-300 1785,-306 1779,-306"/>
<text text-anchor="start" x="1617" y="-290.8" font-family="Helvetica,sans-Serif" font-size="14.00">residual sugar ≤ &#45;0.151</text>
<text text-anchor="start" x="1642.5" y="-275.8" font-family="Helvetica,sans-Serif" font-size="14.00">entropy = 1.206</text>
<text text-anchor="start" x="1647" y="-260.8" font-family="Helvetica,sans-Serif" font-size="14.00">samples = 106</text>
<text text-anchor="start" x="1629" y="-245.8" font-family="Helvetica,sans-Serif" font-size="14.00">value = [22, 72, 12]</text>
<text text-anchor="start" x="1644" y="-230.8" font-family="Helvetica,sans-Serif" font-size="14.00">class = Medium</text>
</g>
<!-- 16&#45;&gt;17 -->
<g id="edge17" class="edge">
<title>16&#45;&gt;17</title>
<path fill="none" stroke="black" d="M1700,-341.91C1700,-333.65 1700,-324.86 1700,-316.3"/>
<polygon fill="black" stroke="black" points="1703.5,-316.02 1700,-306.02 1696.5,-316.02 1703.5,-316.02"/>
</g>
<!-- 24 -->
<g id="node25" class="node">
<title>24</title>
<path fill="#c6f8db" stroke="black" d="M2244,-306C2244,-306 2092,-306 2092,-306 2086,-306 2080,-300 2080,-294 2080,-294 2080,-235 2080,-235 2080,-229 2086,-223 2092,-223 2092,-223 2244,-223 2244,-223 2250,-223 2256,-229 2256,-235 2256,-235 2256,-294 2256,-294 2256,-300 2250,-306 2244,-306"/>
<text text-anchor="start" x="2112.5" y="-290.8" font-family="Helvetica,sans-Serif" font-size="14.00">alcohol ≤ 0.996</text>
<text text-anchor="start" x="2110.5" y="-275.8" font-family="Helvetica,sans-Serif" font-size="14.00">entropy = 1.059</text>
<text text-anchor="start" x="2110.5" y="-260.8" font-family="Helvetica,sans-Serif" font-size="14.00">samples = 1545</text>
<text text-anchor="start" x="2088" y="-245.8" font-family="Helvetica,sans-Serif" font-size="14.00">value = [18, 895, 632]</text>
<text text-anchor="start" x="2112" y="-230.8" font-family="Helvetica,sans-Serif" font-size="14.00">class = Medium</text>
</g>
<!-- 16&#45;&gt;24 -->
<g id="edge24" class="edge">
<title>16&#45;&gt;24</title>
<path fill="none" stroke="black" d="M1805.03,-356.24C1884.37,-336.41 1992.48,-309.38 2070.04,-289.99"/>
<polygon fill="black" stroke="black" points="2070.97,-293.37 2079.82,-287.54 2069.27,-286.57 2070.97,-293.37"/>
</g>
<!-- 18 -->
<g id="node19" class="node">
<title>18</title>
<path fill="#89f0b4" stroke="black" d="M1697,-187C1697,-187 1511,-187 1511,-187 1505,-187 1499,-181 1499,-175 1499,-175 1499,-116 1499,-116 1499,-110 1505,-104 1511,-104 1511,-104 1697,-104 1697,-104 1703,-104 1709,-110 1709,-116 1709,-116 1709,-175 1709,-175 1709,-181 1703,-187 1697,-187"/>
<text text-anchor="start" x="1507" y="-171.8" font-family="Helvetica,sans-Serif" font-size="14.00">free sulfur dioxide ≤ &#45;1.527</text>
<text text-anchor="start" x="1546.5" y="-156.8" font-family="Helvetica,sans-Serif" font-size="14.00">entropy = 1.104</text>
<text text-anchor="start" x="1555.5" y="-141.8" font-family="Helvetica,sans-Serif" font-size="14.00">samples = 85</text>
<text text-anchor="start" x="1537.5" y="-126.8" font-family="Helvetica,sans-Serif" font-size="14.00">value = [21, 59, 5]</text>
<text text-anchor="start" x="1548" y="-111.8" font-family="Helvetica,sans-Serif" font-size="14.00">class = Medium</text>
</g>
<!-- 17&#45;&gt;18 -->
<g id="edge18" class="edge">
<title>17&#45;&gt;18</title>
<path fill="none" stroke="black" d="M1666.69,-222.91C1659.25,-213.83 1651.28,-204.12 1643.61,-194.77"/>
<polygon fill="black" stroke="black" points="1646.3,-192.53 1637.25,-187.02 1640.89,-196.97 1646.3,-192.53"/>
</g>
<!-- 21 -->
<g id="node22" class="node">
<title>21</title>
<path fill="#aaf4c9" stroke="black" d="M1855,-187C1855,-187 1739,-187 1739,-187 1733,-187 1727,-181 1727,-175 1727,-175 1727,-116 1727,-116 1727,-110 1733,-104 1739,-104 1739,-104 1855,-104 1855,-104 1861,-104 1867,-110 1867,-116 1867,-116 1867,-175 1867,-175 1867,-181 1861,-187 1855,-187"/>
<text text-anchor="start" x="1738" y="-171.8" font-family="Helvetica,sans-Serif" font-size="14.00">density ≤ &#45;0.166</text>
<text text-anchor="start" x="1739.5" y="-156.8" font-family="Helvetica,sans-Serif" font-size="14.00">entropy = 1.166</text>
<text text-anchor="start" x="1748.5" y="-141.8" font-family="Helvetica,sans-Serif" font-size="14.00">samples = 21</text>
<text text-anchor="start" x="1735" y="-126.8" font-family="Helvetica,sans-Serif" font-size="14.00">value = [1, 13, 7]</text>
<text text-anchor="start" x="1741" y="-111.8" font-family="Helvetica,sans-Serif" font-size="14.00">class = Medium</text>
</g>
<!-- 17&#45;&gt;21 -->
<g id="edge21" class="edge">
<title>17&#45;&gt;21</title>
<path fill="none" stroke="black" d="M1733.65,-222.91C1741.18,-213.83 1749.23,-204.12 1756.98,-194.77"/>
<polygon fill="black" stroke="black" points="1759.72,-196.95 1763.41,-187.02 1754.33,-192.49 1759.72,-196.95"/>
</g>
<!-- 19 -->
<g id="node20" class="node">
<title>19</title>
<path fill="#bbf6d4" stroke="black" d="M1523.5,-68C1523.5,-68 1398.5,-68 1398.5,-68 1392.5,-68 1386.5,-62 1386.5,-56 1386.5,-56 1386.5,-12 1386.5,-12 1386.5,-6 1392.5,0 1398.5,0 1398.5,0 1523.5,0 1523.5,0 1529.5,0 1535.5,-6 1535.5,-12 1535.5,-12 1535.5,-56 1535.5,-56 1535.5,-62 1529.5,-68 1523.5,-68"/>
<text text-anchor="start" x="1403.5" y="-52.8" font-family="Helvetica,sans-Serif" font-size="14.00">entropy = 1.164</text>
<text text-anchor="start" x="1412.5" y="-37.8" font-family="Helvetica,sans-Serif" font-size="14.00">samples = 51</text>
<text text-anchor="start" x="1394.5" y="-22.8" font-family="Helvetica,sans-Serif" font-size="14.00">value = [19, 30, 2]</text>
<text text-anchor="start" x="1405" y="-7.8" font-family="Helvetica,sans-Serif" font-size="14.00">class = Medium</text>
</g>
<!-- 18&#45;&gt;19 -->
<g id="edge19" class="edge">
<title>18&#45;&gt;19</title>
<path fill="none" stroke="black" d="M1550.75,-103.73C1538.25,-94.15 1524.94,-83.96 1512.51,-74.44"/>
<polygon fill="black" stroke="black" points="1514.55,-71.6 1504.49,-68.3 1510.3,-77.16 1514.55,-71.6"/>
</g>
<!-- 20 -->
<g id="node21" class="node">
<title>20</title>
<path fill="#59e995" stroke="black" d="M1682,-68C1682,-68 1566,-68 1566,-68 1560,-68 1554,-62 1554,-56 1554,-56 1554,-12 1554,-12 1554,-6 1560,0 1566,0 1566,0 1682,0 1682,0 1688,0 1694,-6 1694,-12 1694,-12 1694,-56 1694,-56 1694,-62 1688,-68 1682,-68"/>
<text text-anchor="start" x="1566.5" y="-52.8" font-family="Helvetica,sans-Serif" font-size="14.00">entropy = 0.745</text>
<text text-anchor="start" x="1575.5" y="-37.8" font-family="Helvetica,sans-Serif" font-size="14.00">samples = 34</text>
<text text-anchor="start" x="1562" y="-22.8" font-family="Helvetica,sans-Serif" font-size="14.00">value = [2, 29, 3]</text>
<text text-anchor="start" x="1568" y="-7.8" font-family="Helvetica,sans-Serif" font-size="14.00">class = Medium</text>
</g>
<!-- 18&#45;&gt;20 -->
<g id="edge20" class="edge">
<title>18&#45;&gt;20</title>
<path fill="none" stroke="black" d="M1611.45,-103.73C1612.96,-95.43 1614.56,-86.67 1616.09,-78.28"/>
<polygon fill="black" stroke="black" points="1619.56,-78.77 1617.92,-68.3 1612.68,-77.51 1619.56,-78.77"/>
</g>
<!-- 22 -->
<g id="node23" class="node">
<title>22</title>
<path fill="#a572ec" stroke="black" d="M1831.5,-68C1831.5,-68 1724.5,-68 1724.5,-68 1718.5,-68 1712.5,-62 1712.5,-56 1712.5,-56 1712.5,-12 1712.5,-12 1712.5,-6 1718.5,0 1724.5,0 1724.5,0 1831.5,0 1831.5,0 1837.5,0 1843.5,-6 1843.5,-12 1843.5,-12 1843.5,-56 1843.5,-56 1843.5,-62 1837.5,-68 1831.5,-68"/>
<text text-anchor="start" x="1720.5" y="-52.8" font-family="Helvetica,sans-Serif" font-size="14.00">entropy = 0.764</text>
<text text-anchor="start" x="1734" y="-37.8" font-family="Helvetica,sans-Serif" font-size="14.00">samples = 9</text>
<text text-anchor="start" x="1720.5" y="-22.8" font-family="Helvetica,sans-Serif" font-size="14.00">value = [0, 2, 7]</text>
<text text-anchor="start" x="1734" y="-7.8" font-family="Helvetica,sans-Serif" font-size="14.00">class = High</text>
</g>
<!-- 21&#45;&gt;22 -->
<g id="edge22" class="edge">
<title>21&#45;&gt;22</title>
<path fill="none" stroke="black" d="M1789.93,-103.73C1788.48,-95.43 1786.97,-86.67 1785.51,-78.28"/>
<polygon fill="black" stroke="black" points="1788.94,-77.55 1783.78,-68.3 1782.04,-78.75 1788.94,-77.55"/>
</g>
<!-- 23 -->
<g id="node24" class="node">
<title>23</title>
<path fill="#4be78c" stroke="black" d="M1990,-68C1990,-68 1874,-68 1874,-68 1868,-68 1862,-62 1862,-56 1862,-56 1862,-12 1862,-12 1862,-6 1868,0 1874,0 1874,0 1990,0 1990,0 1996,0 2002,-6 2002,-12 2002,-12 2002,-56 2002,-56 2002,-62 1996,-68 1990,-68"/>
<text text-anchor="start" x="1874.5" y="-52.8" font-family="Helvetica,sans-Serif" font-size="14.00">entropy = 0.414</text>
<text text-anchor="start" x="1883.5" y="-37.8" font-family="Helvetica,sans-Serif" font-size="14.00">samples = 12</text>
<text text-anchor="start" x="1870" y="-22.8" font-family="Helvetica,sans-Serif" font-size="14.00">value = [1, 11, 0]</text>
<text text-anchor="start" x="1876" y="-7.8" font-family="Helvetica,sans-Serif" font-size="14.00">class = Medium</text>
</g>
<!-- 21&#45;&gt;23 -->
<g id="edge23" class="edge">
<title>21&#45;&gt;23</title>
<path fill="none" stroke="black" d="M1847.27,-103.73C1858.96,-94.24 1871.4,-84.16 1883.04,-74.72"/>
<polygon fill="black" stroke="black" points="1885.38,-77.32 1890.95,-68.3 1880.97,-71.88 1885.38,-77.32"/>
</g>
<!-- 25 -->
<g id="node26" class="node">
<title>25</title>
<path fill="#96f1bc" stroke="black" d="M2264,-187C2264,-187 2072,-187 2072,-187 2066,-187 2060,-181 2060,-175 2060,-175 2060,-116 2060,-116 2060,-110 2066,-104 2072,-104 2072,-104 2264,-104 2264,-104 2270,-104 2276,-110 2276,-116 2276,-116 2276,-175 2276,-175 2276,-181 2270,-187 2264,-187"/>
<text text-anchor="start" x="2087" y="-171.8" font-family="Helvetica,sans-Serif" font-size="14.00">volatile acidity ≤ 1.996</text>
<text text-anchor="start" x="2115" y="-156.8" font-family="Helvetica,sans-Serif" font-size="14.00">entropy = 1.01</text>
<text text-anchor="start" x="2115" y="-141.8" font-family="Helvetica,sans-Serif" font-size="14.00">samples = 846</text>
<text text-anchor="start" x="2068" y="-126.8" font-family="Helvetica,sans-Serif" font-size="14.00">value = [15.0, 570.0, 261.0]</text>
<text text-anchor="start" x="2112" y="-111.8" font-family="Helvetica,sans-Serif" font-size="14.00">class = Medium</text>
</g>
<!-- 24&#45;&gt;25 -->
<g id="edge25" class="edge">
<title>24&#45;&gt;25</title>
<path fill="none" stroke="black" d="M2168,-222.91C2168,-214.65 2168,-205.86 2168,-197.3"/>
<polygon fill="black" stroke="black" points="2171.5,-197.02 2168,-187.02 2164.5,-197.02 2171.5,-197.02"/>
</g>
<!-- 28 -->
<g id="node29" class="node">
<title>28</title>
<path fill="#f0e7fc" stroke="black" d="M2526.5,-187C2526.5,-187 2367.5,-187 2367.5,-187 2361.5,-187 2355.5,-181 2355.5,-175 2355.5,-175 2355.5,-116 2355.5,-116 2355.5,-110 2361.5,-104 2367.5,-104 2367.5,-104 2526.5,-104 2526.5,-104 2532.5,-104 2538.5,-110 2538.5,-116 2538.5,-116 2538.5,-175 2538.5,-175 2538.5,-181 2532.5,-187 2526.5,-187"/>
<text text-anchor="start" x="2363.5" y="-171.8" font-family="Helvetica,sans-Serif" font-size="14.00">volatile acidity ≤ &#45;0.031</text>
<text text-anchor="start" x="2389.5" y="-156.8" font-family="Helvetica,sans-Serif" font-size="14.00">entropy = 1.032</text>
<text text-anchor="start" x="2394" y="-141.8" font-family="Helvetica,sans-Serif" font-size="14.00">samples = 699</text>
<text text-anchor="start" x="2371.5" y="-126.8" font-family="Helvetica,sans-Serif" font-size="14.00">value = [3, 325, 371]</text>
<text text-anchor="start" x="2403" y="-111.8" font-family="Helvetica,sans-Serif" font-size="14.00">class = High</text>
</g>
<!-- 24&#45;&gt;28 -->
<g id="edge28" class="edge">
<title>24&#45;&gt;28</title>
<path fill="none" stroke="black" d="M2256.28,-226.48C2284.8,-214.52 2316.64,-201.17 2346.01,-188.85"/>
<polygon fill="black" stroke="black" points="2347.58,-191.99 2355.45,-184.89 2344.88,-185.53 2347.58,-191.99"/>
</g>
<!-- 26 -->
<g id="node27" class="node">
<title>26</title>
<path fill="#97f1bd" stroke="black" d="M2184,-68C2184,-68 2032,-68 2032,-68 2026,-68 2020,-62 2020,-56 2020,-56 2020,-12 2020,-12 2020,-6 2026,0 2032,0 2032,0 2184,0 2184,0 2190,0 2196,-6 2196,-12 2196,-12 2196,-56 2196,-56 2196,-62 2190,-68 2184,-68"/>
<text text-anchor="start" x="2050.5" y="-52.8" font-family="Helvetica,sans-Serif" font-size="14.00">entropy = 0.984</text>
<text text-anchor="start" x="2055" y="-37.8" font-family="Helvetica,sans-Serif" font-size="14.00">samples = 833</text>
<text text-anchor="start" x="2028" y="-22.8" font-family="Helvetica,sans-Serif" font-size="14.00">value = [10, 562, 261]</text>
<text text-anchor="start" x="2052" y="-7.8" font-family="Helvetica,sans-Serif" font-size="14.00">class = Medium</text>
</g>
<!-- 25&#45;&gt;26 -->
<g id="edge26" class="edge">
<title>25&#45;&gt;26</title>
<path fill="none" stroke="black" d="M2145.66,-103.73C2140.91,-95.06 2135.89,-85.9 2131.11,-77.18"/>
<polygon fill="black" stroke="black" points="2134.12,-75.39 2126.25,-68.3 2127.98,-78.75 2134.12,-75.39"/>
</g>
<!-- 27 -->
<g id="node28" class="node">
<title>27</title>
<path fill="#b5f5d0" stroke="black" d="M2333.5,-68C2333.5,-68 2226.5,-68 2226.5,-68 2220.5,-68 2214.5,-62 2214.5,-56 2214.5,-56 2214.5,-12 2214.5,-12 2214.5,-6 2220.5,0 2226.5,0 2226.5,0 2333.5,0 2333.5,0 2339.5,0 2345.5,-6 2345.5,-12 2345.5,-12 2345.5,-56 2345.5,-56 2345.5,-62 2339.5,-68 2333.5,-68"/>
<text text-anchor="start" x="2222.5" y="-52.8" font-family="Helvetica,sans-Serif" font-size="14.00">entropy = 0.961</text>
<text text-anchor="start" x="2231.5" y="-37.8" font-family="Helvetica,sans-Serif" font-size="14.00">samples = 13</text>
<text text-anchor="start" x="2222.5" y="-22.8" font-family="Helvetica,sans-Serif" font-size="14.00">value = [5, 8, 0]</text>
<text text-anchor="start" x="2224" y="-7.8" font-family="Helvetica,sans-Serif" font-size="14.00">class = Medium</text>
</g>
<!-- 25&#45;&gt;27 -->
<g id="edge27" class="edge">
<title>25&#45;&gt;27</title>
<path fill="none" stroke="black" d="M2209.7,-103.73C2219.13,-94.51 2229.13,-84.74 2238.54,-75.53"/>
<polygon fill="black" stroke="black" points="2241.24,-77.79 2245.94,-68.3 2236.34,-72.79 2241.24,-77.79"/>
</g>
<!-- 29 -->
<g id="node30" class="node">
<title>29</title>
<path fill="#caf8dd" stroke="black" d="M2518.5,-68C2518.5,-68 2375.5,-68 2375.5,-68 2369.5,-68 2363.5,-62 2363.5,-56 2363.5,-56 2363.5,-12 2363.5,-12 2363.5,-6 2369.5,0 2375.5,0 2375.5,0 2518.5,0 2518.5,0 2524.5,0 2530.5,-6 2530.5,-12 2530.5,-12 2530.5,-56 2530.5,-56 2530.5,-62 2524.5,-68 2518.5,-68"/>
<text text-anchor="start" x="2389.5" y="-52.8" font-family="Helvetica,sans-Serif" font-size="14.00">entropy = 0.983</text>
<text text-anchor="start" x="2394" y="-37.8" font-family="Helvetica,sans-Serif" font-size="14.00">samples = 277</text>
<text text-anchor="start" x="2371.5" y="-22.8" font-family="Helvetica,sans-Serif" font-size="14.00">value = [0, 160, 117]</text>
<text text-anchor="start" x="2391" y="-7.8" font-family="Helvetica,sans-Serif" font-size="14.00">class = Medium</text>
</g>
<!-- 28&#45;&gt;29 -->
<g id="edge29" class="edge">
<title>28&#45;&gt;29</title>
<path fill="none" stroke="black" d="M2447,-103.73C2447,-95.52 2447,-86.86 2447,-78.56"/>
<polygon fill="black" stroke="black" points="2450.5,-78.3 2447,-68.3 2443.5,-78.3 2450.5,-78.3"/>
</g>
<!-- 30 -->
<g id="node31" class="node">
<title>30</title>
<path fill="#d3baf6" stroke="black" d="M2703.5,-68C2703.5,-68 2560.5,-68 2560.5,-68 2554.5,-68 2548.5,-62 2548.5,-56 2548.5,-56 2548.5,-12 2548.5,-12 2548.5,-6 2554.5,0 2560.5,0 2560.5,0 2703.5,0 2703.5,0 2709.5,0 2715.5,-6 2715.5,-12 2715.5,-12 2715.5,-56 2715.5,-56 2715.5,-62 2709.5,-68 2703.5,-68"/>
<text text-anchor="start" x="2574.5" y="-52.8" font-family="Helvetica,sans-Serif" font-size="14.00">entropy = 1.021</text>
<text text-anchor="start" x="2579" y="-37.8" font-family="Helvetica,sans-Serif" font-size="14.00">samples = 422</text>
<text text-anchor="start" x="2556.5" y="-22.8" font-family="Helvetica,sans-Serif" font-size="14.00">value = [3, 165, 254]</text>
<text text-anchor="start" x="2588" y="-7.8" font-family="Helvetica,sans-Serif" font-size="14.00">class = High</text>
</g>
<!-- 28&#45;&gt;30 -->
<g id="edge30" class="edge">
<title>28&#45;&gt;30</title>
<path fill="none" stroke="black" d="M2515.62,-103.88C2532.61,-93.83 2550.75,-83.09 2567.53,-73.16"/>
<polygon fill="black" stroke="black" points="2569.35,-76.15 2576.17,-68.04 2565.79,-70.12 2569.35,-76.15"/>
</g>
</g>
</svg>
