<?xml version="1.0" encoding="UTF-8" standalone="no"?>
<!DOCTYPE svg PUBLIC "-//W3C//DTD SVG 1.1//EN"
 "http://www.w3.org/Graphics/SVG/1.1/DTD/svg11.dtd">
<!-- Generated by graphviz version 2.43.0 (0)
 -->
<!-- Title: Tree Pages: 1 -->
<svg width="1319pt" height="433pt"
 viewBox="0.00 0.00 1318.50 433.00" xmlns="http://www.w3.org/2000/svg" xmlns:xlink="http://www.w3.org/1999/xlink">
<g id="graph0" class="graph" transform="scale(1 1) rotate(0) translate(4 429)">
<title>Tree</title>
<polygon fill="white" stroke="transparent" points="-4,4 -4,-429 1314.5,-429 1314.5,4 -4,4"/>
<!-- 0 -->
<g id="node1" class="node">
<title>0</title>
<path fill="#ea985d" stroke="black" d="M741,-425C741,-425 571,-425 571,-425 565,-425 559,-419 559,-413 559,-413 559,-354 559,-354 559,-348 565,-342 571,-342 571,-342 741,-342 741,-342 747,-342 753,-348 753,-354 753,-354 753,-413 753,-413 753,-419 747,-425 741,-425"/>
<text text-anchor="start" x="586" y="-409.8" font-family="Helvetica,sans-Serif" font-size="14.00">PageValues ≤ 0.707</text>
<text text-anchor="start" x="598.5" y="-394.8" font-family="Helvetica,sans-Serif" font-size="14.00">entropy = 0.621</text>
<text text-anchor="start" x="598.5" y="-379.8" font-family="Helvetica,sans-Serif" font-size="14.00">samples = 9864</text>
<text text-anchor="start" x="567" y="-364.8" font-family="Helvetica,sans-Serif" font-size="14.00">value = [8338.0, 1526.0]</text>
<text text-anchor="start" x="610.5" y="-349.8" font-family="Helvetica,sans-Serif" font-size="14.00">class = False</text>
</g>
<!-- 1 -->
<g id="node2" class="node">
<title>1</title>
<path fill="#e68641" stroke="black" d="M606,-306C606,-306 472,-306 472,-306 466,-306 460,-300 460,-294 460,-294 460,-235 460,-235 460,-229 466,-223 472,-223 472,-223 606,-223 606,-223 612,-223 618,-229 618,-235 618,-235 618,-294 618,-294 618,-300 612,-306 606,-306"/>
<text text-anchor="start" x="478.5" y="-290.8" font-family="Helvetica,sans-Serif" font-size="14.00">Month_Nov ≤ 0.5</text>
<text text-anchor="start" x="481.5" y="-275.8" font-family="Helvetica,sans-Serif" font-size="14.00">entropy = 0.233</text>
<text text-anchor="start" x="481.5" y="-260.8" font-family="Helvetica,sans-Serif" font-size="14.00">samples = 7703</text>
<text text-anchor="start" x="468" y="-245.8" font-family="Helvetica,sans-Serif" font-size="14.00">value = [7410, 293]</text>
<text text-anchor="start" x="493.5" y="-230.8" font-family="Helvetica,sans-Serif" font-size="14.00">class = False</text>
</g>
<!-- 0&#45;&gt;1 -->
<g id="edge1" class="edge">
<title>0&#45;&gt;1</title>
<path fill="none" stroke="black" d="M615.41,-341.91C606.15,-332.65 596.23,-322.73 586.71,-313.21"/>
<polygon fill="black" stroke="black" points="589.07,-310.62 579.52,-306.02 584.12,-315.57 589.07,-310.62"/>
<text text-anchor="middle" x="579.52" y="-327.32" font-family="Helvetica,sans-Serif" font-size="14.00">True</text>
</g>
<!-- 8 -->
<g id="node9" class="node">
<title>8</title>
<path fill="#cee7f9" stroke="black" d="M847,-306C847,-306 713,-306 713,-306 707,-306 701,-300 701,-294 701,-294 701,-235 701,-235 701,-229 707,-223 713,-223 713,-223 847,-223 847,-223 853,-223 859,-229 859,-235 859,-235 859,-294 859,-294 859,-300 853,-306 847,-306"/>
<text text-anchor="start" x="712.5" y="-290.8" font-family="Helvetica,sans-Serif" font-size="14.00">BounceRates ≤ 0.0</text>
<text text-anchor="start" x="722.5" y="-275.8" font-family="Helvetica,sans-Serif" font-size="14.00">entropy = 0.986</text>
<text text-anchor="start" x="722.5" y="-260.8" font-family="Helvetica,sans-Serif" font-size="14.00">samples = 2161</text>
<text text-anchor="start" x="709" y="-245.8" font-family="Helvetica,sans-Serif" font-size="14.00">value = [928, 1233]</text>
<text text-anchor="start" x="737" y="-230.8" font-family="Helvetica,sans-Serif" font-size="14.00">class = True</text>
</g>
<!-- 0&#45;&gt;8 -->
<g id="edge8" class="edge">
<title>0&#45;&gt;8</title>
<path fill="none" stroke="black" d="M699.02,-341.91C708.93,-332.56 719.55,-322.54 729.73,-312.93"/>
<polygon fill="black" stroke="black" points="732.18,-315.43 737.05,-306.02 727.38,-310.34 732.18,-315.43"/>
<text text-anchor="middle" x="736.33" y="-327.31" font-family="Helvetica,sans-Serif" font-size="14.00">False</text>
</g>
<!-- 2 -->
<g id="node3" class="node">
<title>2</title>
<path fill="#e5833d" stroke="black" d="M326.5,-187C326.5,-187 165.5,-187 165.5,-187 159.5,-187 153.5,-181 153.5,-175 153.5,-175 153.5,-116 153.5,-116 153.5,-110 159.5,-104 165.5,-104 165.5,-104 326.5,-104 326.5,-104 332.5,-104 338.5,-110 338.5,-116 338.5,-116 338.5,-175 338.5,-175 338.5,-181 332.5,-187 326.5,-187"/>
<text text-anchor="start" x="184.5" y="-171.8" font-family="Helvetica,sans-Serif" font-size="14.00">Month_May ≤ 0.5</text>
<text text-anchor="start" x="188.5" y="-156.8" font-family="Helvetica,sans-Serif" font-size="14.00">entropy = 0.134</text>
<text text-anchor="start" x="188.5" y="-141.8" font-family="Helvetica,sans-Serif" font-size="14.00">samples = 5956</text>
<text text-anchor="start" x="161.5" y="-126.8" font-family="Helvetica,sans-Serif" font-size="14.00">value = [5845.0, 111.0]</text>
<text text-anchor="start" x="200.5" y="-111.8" font-family="Helvetica,sans-Serif" font-size="14.00">class = False</text>
</g>
<!-- 1&#45;&gt;2 -->
<g id="edge2" class="edge">
<title>1&#45;&gt;2</title>
<path fill="none" stroke="black" d="M459.71,-231.84C425.41,-218.14 384.82,-201.93 348.29,-187.35"/>
<polygon fill="black" stroke="black" points="349.18,-183.93 338.6,-183.48 346.59,-190.44 349.18,-183.93"/>
</g>
<!-- 5 -->
<g id="node6" class="node">
<title>5</title>
<path fill="#e89050" stroke="black" d="M665,-187C665,-187 413,-187 413,-187 407,-187 401,-181 401,-175 401,-175 401,-116 401,-116 401,-110 407,-104 413,-104 413,-104 665,-104 665,-104 671,-104 677,-110 677,-116 677,-116 677,-175 677,-175 677,-181 671,-187 665,-187"/>
<text text-anchor="start" x="409" y="-171.8" font-family="Helvetica,sans-Serif" font-size="14.00">ProductRelated_Duration ≤ 1210.633</text>
<text text-anchor="start" x="481.5" y="-156.8" font-family="Helvetica,sans-Serif" font-size="14.00">entropy = 0.482</text>
<text text-anchor="start" x="481.5" y="-141.8" font-family="Helvetica,sans-Serif" font-size="14.00">samples = 1747</text>
<text text-anchor="start" x="468" y="-126.8" font-family="Helvetica,sans-Serif" font-size="14.00">value = [1565, 182]</text>
<text text-anchor="start" x="493.5" y="-111.8" font-family="Helvetica,sans-Serif" font-size="14.00">class = False</text>
</g>
<!-- 1&#45;&gt;5 -->
<g id="edge5" class="edge">
<title>1&#45;&gt;5</title>
<path fill="none" stroke="black" d="M539,-222.91C539,-214.65 539,-205.86 539,-197.3"/>
<polygon fill="black" stroke="black" points="542.5,-197.02 539,-187.02 535.5,-197.02 542.5,-197.02"/>
</g>
<!-- 3 -->
<g id="node4" class="node">
<title>3</title>
<path fill="#e6853f" stroke="black" d="M146,-68C146,-68 12,-68 12,-68 6,-68 0,-62 0,-56 0,-56 0,-12 0,-12 0,-6 6,0 12,0 12,0 146,0 146,0 152,0 158,-6 158,-12 158,-12 158,-56 158,-56 158,-62 152,-68 146,-68"/>
<text text-anchor="start" x="21.5" y="-52.8" font-family="Helvetica,sans-Serif" font-size="14.00">entropy = 0.189</text>
<text text-anchor="start" x="21.5" y="-37.8" font-family="Helvetica,sans-Serif" font-size="14.00">samples = 3834</text>
<text text-anchor="start" x="8" y="-22.8" font-family="Helvetica,sans-Serif" font-size="14.00">value = [3723, 111]</text>
<text text-anchor="start" x="33.5" y="-7.8" font-family="Helvetica,sans-Serif" font-size="14.00">class = False</text>
</g>
<!-- 2&#45;&gt;3 -->
<g id="edge3" class="edge">
<title>2&#45;&gt;3</title>
<path fill="none" stroke="black" d="M183.82,-103.73C168.85,-93.92 152.91,-83.46 138.1,-73.75"/>
<polygon fill="black" stroke="black" points="139.8,-70.68 129.52,-68.13 135.96,-76.54 139.8,-70.68"/>
</g>
<!-- 4 -->
<g id="node5" class="node">
<title>4</title>
<path fill="#e58139" stroke="black" d="M304,-68C304,-68 188,-68 188,-68 182,-68 176,-62 176,-56 176,-56 176,-12 176,-12 176,-6 182,0 188,0 188,0 304,0 304,0 310,0 316,-6 316,-12 316,-12 316,-56 316,-56 316,-62 310,-68 304,-68"/>
<text text-anchor="start" x="197.5" y="-52.8" font-family="Helvetica,sans-Serif" font-size="14.00">entropy = 0.0</text>
<text text-anchor="start" x="188.5" y="-37.8" font-family="Helvetica,sans-Serif" font-size="14.00">samples = 2122</text>
<text text-anchor="start" x="184" y="-22.8" font-family="Helvetica,sans-Serif" font-size="14.00">value = [2122, 0]</text>
<text text-anchor="start" x="200.5" y="-7.8" font-family="Helvetica,sans-Serif" font-size="14.00">class = False</text>
</g>
<!-- 2&#45;&gt;4 -->
<g id="edge4" class="edge">
<title>2&#45;&gt;4</title>
<path fill="none" stroke="black" d="M246,-103.73C246,-95.52 246,-86.86 246,-78.56"/>
<polygon fill="black" stroke="black" points="249.5,-78.3 246,-68.3 242.5,-78.3 249.5,-78.3"/>
</g>
<!-- 6 -->
<g id="node7" class="node">
<title>6</title>
<path fill="#e78946" stroke="black" d="M471.5,-68C471.5,-68 346.5,-68 346.5,-68 340.5,-68 334.5,-62 334.5,-56 334.5,-56 334.5,-12 334.5,-12 334.5,-6 340.5,0 346.5,0 346.5,0 471.5,0 471.5,0 477.5,0 483.5,-6 483.5,-12 483.5,-12 483.5,-56 483.5,-56 483.5,-62 477.5,-68 471.5,-68"/>
<text text-anchor="start" x="351.5" y="-52.8" font-family="Helvetica,sans-Serif" font-size="14.00">entropy = 0.328</text>
<text text-anchor="start" x="351.5" y="-37.8" font-family="Helvetica,sans-Serif" font-size="14.00">samples = 1130</text>
<text text-anchor="start" x="342.5" y="-22.8" font-family="Helvetica,sans-Serif" font-size="14.00">value = [1062, 68]</text>
<text text-anchor="start" x="363.5" y="-7.8" font-family="Helvetica,sans-Serif" font-size="14.00">class = False</text>
</g>
<!-- 5&#45;&gt;6 -->
<g id="edge6" class="edge">
<title>5&#45;&gt;6</title>
<path fill="none" stroke="black" d="M490.59,-103.73C479.44,-94.33 467.59,-84.35 456.47,-74.99"/>
<polygon fill="black" stroke="black" points="458.44,-72.06 448.53,-68.3 453.93,-77.42 458.44,-72.06"/>
</g>
<!-- 7 -->
<g id="node8" class="node">
<title>7</title>
<path fill="#eb9e66" stroke="black" d="M638.5,-68C638.5,-68 513.5,-68 513.5,-68 507.5,-68 501.5,-62 501.5,-56 501.5,-56 501.5,-12 501.5,-12 501.5,-6 507.5,0 513.5,0 513.5,0 638.5,0 638.5,0 644.5,0 650.5,-6 650.5,-12 650.5,-12 650.5,-56 650.5,-56 650.5,-62 644.5,-68 638.5,-68"/>
<text text-anchor="start" x="523" y="-52.8" font-family="Helvetica,sans-Serif" font-size="14.00">entropy = 0.69</text>
<text text-anchor="start" x="523" y="-37.8" font-family="Helvetica,sans-Serif" font-size="14.00">samples = 617</text>
<text text-anchor="start" x="509.5" y="-22.8" font-family="Helvetica,sans-Serif" font-size="14.00">value = [503, 114]</text>
<text text-anchor="start" x="530.5" y="-7.8" font-family="Helvetica,sans-Serif" font-size="14.00">class = False</text>
</g>
<!-- 5&#45;&gt;7 -->
<g id="edge7" class="edge">
<title>5&#45;&gt;7</title>
<path fill="none" stroke="black" d="M552.78,-103.73C555.61,-95.34 558.61,-86.47 561.47,-78.01"/>
<polygon fill="black" stroke="black" points="564.86,-78.89 564.75,-68.3 558.23,-76.65 564.86,-78.89"/>
</g>
<!-- 9 -->
<g id="node10" class="node">
<title>9</title>
<path fill="#81c1ef" stroke="black" d="M846,-187C846,-187 714,-187 714,-187 708,-187 702,-181 702,-175 702,-175 702,-116 702,-116 702,-110 708,-104 714,-104 714,-104 846,-104 846,-104 852,-104 858,-110 858,-116 858,-116 858,-175 858,-175 858,-181 852,-187 846,-187"/>
<text text-anchor="start" x="710" y="-171.8" font-family="Helvetica,sans-Serif" font-size="14.00">PageValues ≤ 23.61</text>
<text text-anchor="start" x="722.5" y="-156.8" font-family="Helvetica,sans-Serif" font-size="14.00">entropy = 0.838</text>
<text text-anchor="start" x="727" y="-141.8" font-family="Helvetica,sans-Serif" font-size="14.00">samples = 979</text>
<text text-anchor="start" x="713.5" y="-126.8" font-family="Helvetica,sans-Serif" font-size="14.00">value = [262, 717]</text>
<text text-anchor="start" x="737" y="-111.8" font-family="Helvetica,sans-Serif" font-size="14.00">class = True</text>
</g>
<!-- 8&#45;&gt;9 -->
<g id="edge9" class="edge">
<title>8&#45;&gt;9</title>
<path fill="none" stroke="black" d="M780,-222.91C780,-214.65 780,-205.86 780,-197.3"/>
<polygon fill="black" stroke="black" points="783.5,-197.02 780,-187.02 776.5,-197.02 783.5,-197.02"/>
</g>
<!-- 12 -->
<g id="node13" class="node">
<title>12</title>
<path fill="#f9e3d2" stroke="black" d="M1131.5,-187C1131.5,-187 1006.5,-187 1006.5,-187 1000.5,-187 994.5,-181 994.5,-175 994.5,-175 994.5,-116 994.5,-116 994.5,-110 1000.5,-104 1006.5,-104 1006.5,-104 1131.5,-104 1131.5,-104 1137.5,-104 1143.5,-110 1143.5,-116 1143.5,-116 1143.5,-175 1143.5,-175 1143.5,-181 1137.5,-187 1131.5,-187"/>
<text text-anchor="start" x="1008.5" y="-171.8" font-family="Helvetica,sans-Serif" font-size="14.00">Month_Nov ≤ 0.5</text>
<text text-anchor="start" x="1011.5" y="-156.8" font-family="Helvetica,sans-Serif" font-size="14.00">entropy = 0.988</text>
<text text-anchor="start" x="1011.5" y="-141.8" font-family="Helvetica,sans-Serif" font-size="14.00">samples = 1182</text>
<text text-anchor="start" x="1002.5" y="-126.8" font-family="Helvetica,sans-Serif" font-size="14.00">value = [666, 516]</text>
<text text-anchor="start" x="1023.5" y="-111.8" font-family="Helvetica,sans-Serif" font-size="14.00">class = False</text>
</g>
<!-- 8&#45;&gt;12 -->
<g id="edge12" class="edge">
<title>8&#45;&gt;12</title>
<path fill="none" stroke="black" d="M859.35,-231.37C898.34,-215.59 945.32,-196.57 984.92,-180.54"/>
<polygon fill="black" stroke="black" points="986.34,-183.74 994.3,-176.74 983.71,-177.25 986.34,-183.74"/>
</g>
<!-- 10 -->
<g id="node11" class="node">
<title>10</title>
<path fill="#cbe5f8" stroke="black" d="M805.5,-68C805.5,-68 680.5,-68 680.5,-68 674.5,-68 668.5,-62 668.5,-56 668.5,-56 668.5,-12 668.5,-12 668.5,-6 674.5,0 680.5,0 680.5,0 805.5,0 805.5,0 811.5,0 817.5,-6 817.5,-12 817.5,-12 817.5,-56 817.5,-56 817.5,-62 811.5,-68 805.5,-68"/>
<text text-anchor="start" x="685.5" y="-52.8" font-family="Helvetica,sans-Serif" font-size="14.00">entropy = 0.983</text>
<text text-anchor="start" x="690" y="-37.8" font-family="Helvetica,sans-Serif" font-size="14.00">samples = 443</text>
<text text-anchor="start" x="676.5" y="-22.8" font-family="Helvetica,sans-Serif" font-size="14.00">value = [188, 255]</text>
<text text-anchor="start" x="700" y="-7.8" font-family="Helvetica,sans-Serif" font-size="14.00">class = True</text>
</g>
<!-- 9&#45;&gt;10 -->
<g id="edge10" class="edge">
<title>9&#45;&gt;10</title>
<path fill="none" stroke="black" d="M766.22,-103.73C763.39,-95.34 760.39,-86.47 757.53,-78.01"/>
<polygon fill="black" stroke="black" points="760.77,-76.65 754.25,-68.3 754.14,-78.89 760.77,-76.65"/>
</g>
<!-- 11 -->
<g id="node12" class="node">
<title>11</title>
<path fill="#59ade9" stroke="black" d="M964,-68C964,-68 848,-68 848,-68 842,-68 836,-62 836,-56 836,-56 836,-12 836,-12 836,-6 842,0 848,0 848,0 964,0 964,0 970,0 976,-6 976,-12 976,-12 976,-56 976,-56 976,-62 970,-68 964,-68"/>
<text text-anchor="start" x="848.5" y="-52.8" font-family="Helvetica,sans-Serif" font-size="14.00">entropy = 0.579</text>
<text text-anchor="start" x="853" y="-37.8" font-family="Helvetica,sans-Serif" font-size="14.00">samples = 536</text>
<text text-anchor="start" x="844" y="-22.8" font-family="Helvetica,sans-Serif" font-size="14.00">value = [74, 462]</text>
<text text-anchor="start" x="863" y="-7.8" font-family="Helvetica,sans-Serif" font-size="14.00">class = True</text>
</g>
<!-- 9&#45;&gt;11 -->
<g id="edge11" class="edge">
<title>9&#45;&gt;11</title>
<path fill="none" stroke="black" d="M826.92,-103.73C837.73,-94.33 849.21,-84.35 859.99,-74.99"/>
<polygon fill="black" stroke="black" points="862.43,-77.5 867.68,-68.3 857.84,-72.22 862.43,-77.5"/>
</g>
<!-- 13 -->
<g id="node14" class="node">
<title>13</title>
<path fill="#f4c7a7" stroke="black" d="M1131.5,-68C1131.5,-68 1006.5,-68 1006.5,-68 1000.5,-68 994.5,-62 994.5,-56 994.5,-56 994.5,-12 994.5,-12 994.5,-6 1000.5,0 1006.5,0 1006.5,0 1131.5,0 1131.5,0 1137.5,0 1143.5,-6 1143.5,-12 1143.5,-12 1143.5,-56 1143.5,-56 1143.5,-62 1137.5,-68 1131.5,-68"/>
<text text-anchor="start" x="1011.5" y="-52.8" font-family="Helvetica,sans-Serif" font-size="14.00">entropy = 0.941</text>
<text text-anchor="start" x="1016" y="-37.8" font-family="Helvetica,sans-Serif" font-size="14.00">samples = 796</text>
<text text-anchor="start" x="1002.5" y="-22.8" font-family="Helvetica,sans-Serif" font-size="14.00">value = [511, 285]</text>
<text text-anchor="start" x="1023.5" y="-7.8" font-family="Helvetica,sans-Serif" font-size="14.00">class = False</text>
</g>
<!-- 12&#45;&gt;13 -->
<g id="edge13" class="edge">
<title>12&#45;&gt;13</title>
<path fill="none" stroke="black" d="M1069,-103.73C1069,-95.52 1069,-86.86 1069,-78.56"/>
<polygon fill="black" stroke="black" points="1072.5,-78.3 1069,-68.3 1065.5,-78.3 1072.5,-78.3"/>
</g>
<!-- 14 -->
<g id="node15" class="node">
<title>14</title>
<path fill="#bedff6" stroke="black" d="M1298.5,-68C1298.5,-68 1173.5,-68 1173.5,-68 1167.5,-68 1161.5,-62 1161.5,-56 1161.5,-56 1161.5,-12 1161.5,-12 1161.5,-6 1167.5,0 1173.5,0 1173.5,0 1298.5,0 1298.5,0 1304.5,0 1310.5,-6 1310.5,-12 1310.5,-12 1310.5,-56 1310.5,-56 1310.5,-62 1304.5,-68 1298.5,-68"/>
<text text-anchor="start" x="1178.5" y="-52.8" font-family="Helvetica,sans-Serif" font-size="14.00">entropy = 0.972</text>
<text text-anchor="start" x="1183" y="-37.8" font-family="Helvetica,sans-Serif" font-size="14.00">samples = 386</text>
<text text-anchor="start" x="1169.5" y="-22.8" font-family="Helvetica,sans-Serif" font-size="14.00">value = [155, 231]</text>
<text text-anchor="start" x="1193" y="-7.8" font-family="Helvetica,sans-Serif" font-size="14.00">class = True</text>
</g>
<!-- 12&#45;&gt;14 -->
<g id="edge14" class="edge">
<title>12&#45;&gt;14</title>
<path fill="none" stroke="black" d="M1131.18,-103.73C1146.15,-93.92 1162.09,-83.46 1176.9,-73.75"/>
<polygon fill="black" stroke="black" points="1179.04,-76.54 1185.48,-68.13 1175.2,-70.68 1179.04,-76.54"/>
</g>
</g>
</svg>
