<?xml version="1.0" encoding="UTF-8" standalone="no"?>
<!DOCTYPE svg PUBLIC "-//W3C//DTD SVG 1.1//EN"
 "http://www.w3.org/Graphics/SVG/1.1/DTD/svg11.dtd">
<!-- Generated by graphviz version 2.43.0 (0)
 -->
<!-- Title: Tree Pages: 1 -->
<svg width="2268pt" height="552pt"
 viewBox="0.00 0.00 2267.50 552.00" xmlns="http://www.w3.org/2000/svg" xmlns:xlink="http://www.w3.org/1999/xlink">
<g id="graph0" class="graph" transform="scale(1 1) rotate(0) translate(4 548)">
<title>Tree</title>
<polygon fill="white" stroke="transparent" points="-4,4 -4,-548 2263.5,-548 2263.5,4 -4,4"/>
<!-- 0 -->
<g id="node1" class="node">
<title>0</title>
<path fill="#ea985d" stroke="black" d="M999,-544C999,-544 829,-544 829,-544 823,-544 817,-538 817,-532 817,-532 817,-473 817,-473 817,-467 823,-461 829,-461 829,-461 999,-461 999,-461 1005,-461 1011,-467 1011,-473 1011,-473 1011,-532 1011,-532 1011,-538 1005,-544 999,-544"/>
<text text-anchor="start" x="844" y="-528.8" font-family="Helvetica,sans-Serif" font-size="14.00">PageValues ≤ 0.707</text>
<text text-anchor="start" x="856.5" y="-513.8" font-family="Helvetica,sans-Serif" font-size="14.00">entropy = 0.621</text>
<text text-anchor="start" x="856.5" y="-498.8" font-family="Helvetica,sans-Serif" font-size="14.00">samples = 9864</text>
<text text-anchor="start" x="825" y="-483.8" font-family="Helvetica,sans-Serif" font-size="14.00">value = [8338.0, 1526.0]</text>
<text text-anchor="start" x="868.5" y="-468.8" font-family="Helvetica,sans-Serif" font-size="14.00">class = False</text>
</g>
<!-- 1 -->
<g id="node2" class="node">
<title>1</title>
<path fill="#e68641" stroke="black" d="M761,-425C761,-425 627,-425 627,-425 621,-425 615,-419 615,-413 615,-413 615,-354 615,-354 615,-348 621,-342 627,-342 627,-342 761,-342 761,-342 767,-342 773,-348 773,-354 773,-354 773,-413 773,-413 773,-419 767,-425 761,-425"/>
<text text-anchor="start" x="633.5" y="-409.8" font-family="Helvetica,sans-Serif" font-size="14.00">Month_Nov ≤ 0.5</text>
<text text-anchor="start" x="636.5" y="-394.8" font-family="Helvetica,sans-Serif" font-size="14.00">entropy = 0.233</text>
<text text-anchor="start" x="636.5" y="-379.8" font-family="Helvetica,sans-Serif" font-size="14.00">samples = 7703</text>
<text text-anchor="start" x="623" y="-364.8" font-family="Helvetica,sans-Serif" font-size="14.00">value = [7410, 293]</text>
<text text-anchor="start" x="648.5" y="-349.8" font-family="Helvetica,sans-Serif" font-size="14.00">class = False</text>
</g>
<!-- 0&#45;&gt;1 -->
<g id="edge1" class="edge">
<title>0&#45;&gt;1</title>
<path fill="none" stroke="black" d="M837.67,-460.91C818.82,-450.88 798.5,-440.07 779.25,-429.84"/>
<polygon fill="black" stroke="black" points="780.67,-426.63 770.19,-425.02 777.38,-432.81 780.67,-426.63"/>
<text text-anchor="middle" x="777.5" y="-445.23" font-family="Helvetica,sans-Serif" font-size="14.00">True</text>
</g>
<!-- 14 -->
<g id="node15" class="node">
<title>14</title>
<path fill="#cee7f9" stroke="black" d="M1340,-425C1340,-425 1206,-425 1206,-425 1200,-425 1194,-419 1194,-413 1194,-413 1194,-354 1194,-354 1194,-348 1200,-342 1206,-342 1206,-342 1340,-342 1340,-342 1346,-342 1352,-348 1352,-354 1352,-354 1352,-413 1352,-413 1352,-419 1346,-425 1340,-425"/>
<text text-anchor="start" x="1205.5" y="-409.8" font-family="Helvetica,sans-Serif" font-size="14.00">BounceRates ≤ 0.0</text>
<text text-anchor="start" x="1215.5" y="-394.8" font-family="Helvetica,sans-Serif" font-size="14.00">entropy = 0.986</text>
<text text-anchor="start" x="1215.5" y="-379.8" font-family="Helvetica,sans-Serif" font-size="14.00">samples = 2161</text>
<text text-anchor="start" x="1202" y="-364.8" font-family="Helvetica,sans-Serif" font-size="14.00">value = [928, 1233]</text>
<text text-anchor="start" x="1230" y="-349.8" font-family="Helvetica,sans-Serif" font-size="14.00">class = True</text>
</g>
<!-- 0&#45;&gt;14 -->
<g id="edge14" class="edge">
<title>0&#45;&gt;14</title>
<path fill="none" stroke="black" d="M1011.15,-469.84C1065.11,-452.25 1131.73,-430.54 1184.28,-413.42"/>
<polygon fill="black" stroke="black" points="1185.49,-416.7 1193.92,-410.27 1183.33,-410.04 1185.49,-416.7"/>
<text text-anchor="middle" x="1182.59" y="-428.86" font-family="Helvetica,sans-Serif" font-size="14.00">False</text>
</g>
<!-- 2 -->
<g id="node3" class="node">
<title>2</title>
<path fill="#e5833d" stroke="black" d="M484.5,-306C484.5,-306 323.5,-306 323.5,-306 317.5,-306 311.5,-300 311.5,-294 311.5,-294 311.5,-235 311.5,-235 311.5,-229 317.5,-223 323.5,-223 323.5,-223 484.5,-223 484.5,-223 490.5,-223 496.5,-229 496.5,-235 496.5,-235 496.5,-294 496.5,-294 496.5,-300 490.5,-306 484.5,-306"/>
<text text-anchor="start" x="342.5" y="-290.8" font-family="Helvetica,sans-Serif" font-size="14.00">Month_May ≤ 0.5</text>
<text text-anchor="start" x="346.5" y="-275.8" font-family="Helvetica,sans-Serif" font-size="14.00">entropy = 0.134</text>
<text text-anchor="start" x="346.5" y="-260.8" font-family="Helvetica,sans-Serif" font-size="14.00">samples = 5956</text>
<text text-anchor="start" x="319.5" y="-245.8" font-family="Helvetica,sans-Serif" font-size="14.00">value = [5845.0, 111.0]</text>
<text text-anchor="start" x="358.5" y="-230.8" font-family="Helvetica,sans-Serif" font-size="14.00">class = False</text>
</g>
<!-- 1&#45;&gt;2 -->
<g id="edge2" class="edge">
<title>1&#45;&gt;2</title>
<path fill="none" stroke="black" d="M614.76,-350.53C581.2,-336.99 541.67,-321.04 505.98,-306.64"/>
<polygon fill="black" stroke="black" points="507.09,-303.32 496.51,-302.82 504.47,-309.81 507.09,-303.32"/>
</g>
<!-- 7 -->
<g id="node8" class="node">
<title>7</title>
<path fill="#e89050" stroke="black" d="M820,-306C820,-306 568,-306 568,-306 562,-306 556,-300 556,-294 556,-294 556,-235 556,-235 556,-229 562,-223 568,-223 568,-223 820,-223 820,-223 826,-223 832,-229 832,-235 832,-235 832,-294 832,-294 832,-300 826,-306 820,-306"/>
<text text-anchor="start" x="564" y="-290.8" font-family="Helvetica,sans-Serif" font-size="14.00">ProductRelated_Duration ≤ 1210.633</text>
<text text-anchor="start" x="636.5" y="-275.8" font-family="Helvetica,sans-Serif" font-size="14.00">entropy = 0.482</text>
<text text-anchor="start" x="636.5" y="-260.8" font-family="Helvetica,sans-Serif" font-size="14.00">samples = 1747</text>
<text text-anchor="start" x="623" y="-245.8" font-family="Helvetica,sans-Serif" font-size="14.00">value = [1565, 182]</text>
<text text-anchor="start" x="648.5" y="-230.8" font-family="Helvetica,sans-Serif" font-size="14.00">class = False</text>
</g>
<!-- 1&#45;&gt;7 -->
<g id="edge7" class="edge">
<title>1&#45;&gt;7</title>
<path fill="none" stroke="black" d="M694,-341.91C694,-333.65 694,-324.86 694,-316.3"/>
<polygon fill="black" stroke="black" points="697.5,-316.02 694,-306.02 690.5,-316.02 697.5,-316.02"/>
</g>
<!-- 3 -->
<g id="node4" class="node">
<title>3</title>
<path fill="#e6853f" stroke="black" d="M304,-187C304,-187 170,-187 170,-187 164,-187 158,-181 158,-175 158,-175 158,-116 158,-116 158,-110 164,-104 170,-104 170,-104 304,-104 304,-104 310,-104 316,-110 316,-116 316,-116 316,-175 316,-175 316,-181 310,-187 304,-187"/>
<text text-anchor="start" x="176.5" y="-171.8" font-family="Helvetica,sans-Serif" font-size="14.00">Month_Mar ≤ 0.5</text>
<text text-anchor="start" x="179.5" y="-156.8" font-family="Helvetica,sans-Serif" font-size="14.00">entropy = 0.189</text>
<text text-anchor="start" x="179.5" y="-141.8" font-family="Helvetica,sans-Serif" font-size="14.00">samples = 3834</text>
<text text-anchor="start" x="166" y="-126.8" font-family="Helvetica,sans-Serif" font-size="14.00">value = [3723, 111]</text>
<text text-anchor="start" x="191.5" y="-111.8" font-family="Helvetica,sans-Serif" font-size="14.00">class = False</text>
</g>
<!-- 2&#45;&gt;3 -->
<g id="edge3" class="edge">
<title>2&#45;&gt;3</title>
<path fill="none" stroke="black" d="M346.06,-222.91C332.2,-213.2 317.3,-202.76 303.1,-192.81"/>
<polygon fill="black" stroke="black" points="305.04,-189.89 294.84,-187.02 301.02,-195.63 305.04,-189.89"/>
</g>
<!-- 6 -->
<g id="node7" class="node">
<title>6</title>
<path fill="#e58139" stroke="black" d="M462,-179.5C462,-179.5 346,-179.5 346,-179.5 340,-179.5 334,-173.5 334,-167.5 334,-167.5 334,-123.5 334,-123.5 334,-117.5 340,-111.5 346,-111.5 346,-111.5 462,-111.5 462,-111.5 468,-111.5 474,-117.5 474,-123.5 474,-123.5 474,-167.5 474,-167.5 474,-173.5 468,-179.5 462,-179.5"/>
<text text-anchor="start" x="355.5" y="-164.3" font-family="Helvetica,sans-Serif" font-size="14.00">entropy = 0.0</text>
<text text-anchor="start" x="346.5" y="-149.3" font-family="Helvetica,sans-Serif" font-size="14.00">samples = 2122</text>
<text text-anchor="start" x="342" y="-134.3" font-family="Helvetica,sans-Serif" font-size="14.00">value = [2122, 0]</text>
<text text-anchor="start" x="358.5" y="-119.3" font-family="Helvetica,sans-Serif" font-size="14.00">class = False</text>
</g>
<!-- 2&#45;&gt;6 -->
<g id="edge6" class="edge">
<title>2&#45;&gt;6</title>
<path fill="none" stroke="black" d="M404,-222.91C404,-212.2 404,-200.62 404,-189.78"/>
<polygon fill="black" stroke="black" points="407.5,-189.67 404,-179.67 400.5,-189.67 407.5,-189.67"/>
</g>
<!-- 4 -->
<g id="node5" class="node">
<title>4</title>
<path fill="#e68742" stroke="black" d="M146,-68C146,-68 12,-68 12,-68 6,-68 0,-62 0,-56 0,-56 0,-12 0,-12 0,-6 6,0 12,0 12,0 146,0 146,0 152,0 158,-6 158,-12 158,-12 158,-56 158,-56 158,-62 152,-68 146,-68"/>
<text text-anchor="start" x="21.5" y="-52.8" font-family="Helvetica,sans-Serif" font-size="14.00">entropy = 0.257</text>
<text text-anchor="start" x="21.5" y="-37.8" font-family="Helvetica,sans-Serif" font-size="14.00">samples = 2544</text>
<text text-anchor="start" x="8" y="-22.8" font-family="Helvetica,sans-Serif" font-size="14.00">value = [2434, 110]</text>
<text text-anchor="start" x="33.5" y="-7.8" font-family="Helvetica,sans-Serif" font-size="14.00">class = False</text>
</g>
<!-- 3&#45;&gt;4 -->
<g id="edge4" class="edge">
<title>3&#45;&gt;4</title>
<path fill="none" stroke="black" d="M178.17,-103.73C164.14,-94.01 149.21,-83.66 135.31,-74.02"/>
<polygon fill="black" stroke="black" points="137.01,-70.94 126.8,-68.13 133.02,-76.7 137.01,-70.94"/>
</g>
<!-- 5 -->
<g id="node6" class="node">
<title>5</title>
<path fill="#e58139" stroke="black" d="M304,-68C304,-68 188,-68 188,-68 182,-68 176,-62 176,-56 176,-56 176,-12 176,-12 176,-6 182,0 188,0 188,0 304,0 304,0 310,0 316,-6 316,-12 316,-12 316,-56 316,-56 316,-62 310,-68 304,-68"/>
<text text-anchor="start" x="188.5" y="-52.8" font-family="Helvetica,sans-Serif" font-size="14.00">entropy = 0.009</text>
<text text-anchor="start" x="188.5" y="-37.8" font-family="Helvetica,sans-Serif" font-size="14.00">samples = 1290</text>
<text text-anchor="start" x="184" y="-22.8" font-family="Helvetica,sans-Serif" font-size="14.00">value = [1289, 1]</text>
<text text-anchor="start" x="200.5" y="-7.8" font-family="Helvetica,sans-Serif" font-size="14.00">class = False</text>
</g>
<!-- 3&#45;&gt;5 -->
<g id="edge5" class="edge">
<title>3&#45;&gt;5</title>
<path fill="none" stroke="black" d="M240.35,-103.73C241.03,-95.43 241.75,-86.67 242.44,-78.28"/>
<polygon fill="black" stroke="black" points="245.93,-78.55 243.26,-68.3 238.96,-77.98 245.93,-78.55"/>
</g>
<!-- 8 -->
<g id="node9" class="node">
<title>8</title>
<path fill="#e78946" stroke="black" d="M629.5,-187C629.5,-187 504.5,-187 504.5,-187 498.5,-187 492.5,-181 492.5,-175 492.5,-175 492.5,-116 492.5,-116 492.5,-110 498.5,-104 504.5,-104 504.5,-104 629.5,-104 629.5,-104 635.5,-104 641.5,-110 641.5,-116 641.5,-116 641.5,-175 641.5,-175 641.5,-181 635.5,-187 629.5,-187"/>
<text text-anchor="start" x="503.5" y="-171.8" font-family="Helvetica,sans-Serif" font-size="14.00">ExitRates ≤ 0.132</text>
<text text-anchor="start" x="509.5" y="-156.8" font-family="Helvetica,sans-Serif" font-size="14.00">entropy = 0.328</text>
<text text-anchor="start" x="509.5" y="-141.8" font-family="Helvetica,sans-Serif" font-size="14.00">samples = 1130</text>
<text text-anchor="start" x="500.5" y="-126.8" font-family="Helvetica,sans-Serif" font-size="14.00">value = [1062, 68]</text>
<text text-anchor="start" x="521.5" y="-111.8" font-family="Helvetica,sans-Serif" font-size="14.00">class = False</text>
</g>
<!-- 7&#45;&gt;8 -->
<g id="edge8" class="edge">
<title>7&#45;&gt;8</title>
<path fill="none" stroke="black" d="M649.94,-222.91C639.79,-213.56 628.91,-203.54 618.48,-193.93"/>
<polygon fill="black" stroke="black" points="620.71,-191.22 610.98,-187.02 615.97,-196.37 620.71,-191.22"/>
</g>
<!-- 11 -->
<g id="node12" class="node">
<title>11</title>
<path fill="#eb9e66" stroke="black" d="M796.5,-187C796.5,-187 671.5,-187 671.5,-187 665.5,-187 659.5,-181 659.5,-175 659.5,-175 659.5,-116 659.5,-116 659.5,-110 665.5,-104 671.5,-104 671.5,-104 796.5,-104 796.5,-104 802.5,-104 808.5,-110 808.5,-116 808.5,-116 808.5,-175 808.5,-175 808.5,-181 802.5,-187 796.5,-187"/>
<text text-anchor="start" x="670.5" y="-171.8" font-family="Helvetica,sans-Serif" font-size="14.00">ExitRates ≤ 0.041</text>
<text text-anchor="start" x="681" y="-156.8" font-family="Helvetica,sans-Serif" font-size="14.00">entropy = 0.69</text>
<text text-anchor="start" x="681" y="-141.8" font-family="Helvetica,sans-Serif" font-size="14.00">samples = 617</text>
<text text-anchor="start" x="667.5" y="-126.8" font-family="Helvetica,sans-Serif" font-size="14.00">value = [503, 114]</text>
<text text-anchor="start" x="688.5" y="-111.8" font-family="Helvetica,sans-Serif" font-size="14.00">class = False</text>
</g>
<!-- 7&#45;&gt;11 -->
<g id="edge11" class="edge">
<title>7&#45;&gt;11</title>
<path fill="none" stroke="black" d="M707.88,-222.91C710.76,-214.47 713.84,-205.48 716.82,-196.74"/>
<polygon fill="black" stroke="black" points="720.22,-197.62 720.15,-187.02 713.6,-195.35 720.22,-197.62"/>
</g>
<!-- 9 -->
<g id="node10" class="node">
<title>9</title>
<path fill="#e78a48" stroke="black" d="M471,-68C471,-68 355,-68 355,-68 349,-68 343,-62 343,-56 343,-56 343,-12 343,-12 343,-6 349,0 355,0 355,0 471,0 471,0 477,0 483,-6 483,-12 483,-12 483,-56 483,-56 483,-62 477,-68 471,-68"/>
<text text-anchor="start" x="355.5" y="-52.8" font-family="Helvetica,sans-Serif" font-size="14.00">entropy = 0.361</text>
<text text-anchor="start" x="360" y="-37.8" font-family="Helvetica,sans-Serif" font-size="14.00">samples = 975</text>
<text text-anchor="start" x="351" y="-22.8" font-family="Helvetica,sans-Serif" font-size="14.00">value = [908, 67]</text>
<text text-anchor="start" x="367.5" y="-7.8" font-family="Helvetica,sans-Serif" font-size="14.00">class = False</text>
</g>
<!-- 8&#45;&gt;9 -->
<g id="edge9" class="edge">
<title>8&#45;&gt;9</title>
<path fill="none" stroke="black" d="M509.66,-103.73C496.06,-94.06 481.59,-83.77 468.09,-74.17"/>
<polygon fill="black" stroke="black" points="470.01,-71.24 459.83,-68.3 465.95,-76.95 470.01,-71.24"/>
</g>
<!-- 10 -->
<g id="node11" class="node">
<title>10</title>
<path fill="#e5823a" stroke="black" d="M620.5,-68C620.5,-68 513.5,-68 513.5,-68 507.5,-68 501.5,-62 501.5,-56 501.5,-56 501.5,-12 501.5,-12 501.5,-6 507.5,0 513.5,0 513.5,0 620.5,0 620.5,0 626.5,0 632.5,-6 632.5,-12 632.5,-12 632.5,-56 632.5,-56 632.5,-62 626.5,-68 620.5,-68"/>
<text text-anchor="start" x="509.5" y="-52.8" font-family="Helvetica,sans-Serif" font-size="14.00">entropy = 0.056</text>
<text text-anchor="start" x="514" y="-37.8" font-family="Helvetica,sans-Serif" font-size="14.00">samples = 155</text>
<text text-anchor="start" x="509.5" y="-22.8" font-family="Helvetica,sans-Serif" font-size="14.00">value = [154, 1]</text>
<text text-anchor="start" x="521.5" y="-7.8" font-family="Helvetica,sans-Serif" font-size="14.00">class = False</text>
</g>
<!-- 8&#45;&gt;10 -->
<g id="edge10" class="edge">
<title>8&#45;&gt;10</title>
<path fill="none" stroke="black" d="M567,-103.73C567,-95.52 567,-86.86 567,-78.56"/>
<polygon fill="black" stroke="black" points="570.5,-78.3 567,-68.3 563.5,-78.3 570.5,-78.3"/>
</g>
<!-- 12 -->
<g id="node13" class="node">
<title>12</title>
<path fill="#eba06a" stroke="black" d="M787.5,-68C787.5,-68 662.5,-68 662.5,-68 656.5,-68 650.5,-62 650.5,-56 650.5,-56 650.5,-12 650.5,-12 650.5,-6 656.5,0 662.5,0 662.5,0 787.5,0 787.5,0 793.5,0 799.5,-6 799.5,-12 799.5,-12 799.5,-56 799.5,-56 799.5,-62 793.5,-68 787.5,-68"/>
<text text-anchor="start" x="667.5" y="-52.8" font-family="Helvetica,sans-Serif" font-size="14.00">entropy = 0.721</text>
<text text-anchor="start" x="672" y="-37.8" font-family="Helvetica,sans-Serif" font-size="14.00">samples = 562</text>
<text text-anchor="start" x="658.5" y="-22.8" font-family="Helvetica,sans-Serif" font-size="14.00">value = [450, 112]</text>
<text text-anchor="start" x="679.5" y="-7.8" font-family="Helvetica,sans-Serif" font-size="14.00">class = False</text>
</g>
<!-- 11&#45;&gt;12 -->
<g id="edge12" class="edge">
<title>11&#45;&gt;12</title>
<path fill="none" stroke="black" d="M730.65,-103.73C729.97,-95.43 729.25,-86.67 728.56,-78.28"/>
<polygon fill="black" stroke="black" points="732.04,-77.98 727.74,-68.3 725.07,-78.55 732.04,-77.98"/>
</g>
<!-- 13 -->
<g id="node14" class="node">
<title>13</title>
<path fill="#e68640" stroke="black" d="M936.5,-68C936.5,-68 829.5,-68 829.5,-68 823.5,-68 817.5,-62 817.5,-56 817.5,-56 817.5,-12 817.5,-12 817.5,-6 823.5,0 829.5,0 829.5,0 936.5,0 936.5,0 942.5,0 948.5,-6 948.5,-12 948.5,-12 948.5,-56 948.5,-56 948.5,-62 942.5,-68 936.5,-68"/>
<text text-anchor="start" x="825.5" y="-52.8" font-family="Helvetica,sans-Serif" font-size="14.00">entropy = 0.225</text>
<text text-anchor="start" x="834.5" y="-37.8" font-family="Helvetica,sans-Serif" font-size="14.00">samples = 55</text>
<text text-anchor="start" x="830" y="-22.8" font-family="Helvetica,sans-Serif" font-size="14.00">value = [53, 2]</text>
<text text-anchor="start" x="837.5" y="-7.8" font-family="Helvetica,sans-Serif" font-size="14.00">class = False</text>
</g>
<!-- 11&#45;&gt;13 -->
<g id="edge13" class="edge">
<title>11&#45;&gt;13</title>
<path fill="none" stroke="black" d="M789.48,-103.73C802.51,-94.15 816.38,-83.96 829.33,-74.44"/>
<polygon fill="black" stroke="black" points="831.7,-77.04 837.69,-68.3 827.56,-71.4 831.7,-77.04"/>
</g>
<!-- 15 -->
<g id="node16" class="node">
<title>15</title>
<path fill="#81c1ef" stroke="black" d="M1339,-306C1339,-306 1207,-306 1207,-306 1201,-306 1195,-300 1195,-294 1195,-294 1195,-235 1195,-235 1195,-229 1201,-223 1207,-223 1207,-223 1339,-223 1339,-223 1345,-223 1351,-229 1351,-235 1351,-235 1351,-294 1351,-294 1351,-300 1345,-306 1339,-306"/>
<text text-anchor="start" x="1203" y="-290.8" font-family="Helvetica,sans-Serif" font-size="14.00">PageValues ≤ 23.61</text>
<text text-anchor="start" x="1215.5" y="-275.8" font-family="Helvetica,sans-Serif" font-size="14.00">entropy = 0.838</text>
<text text-anchor="start" x="1220" y="-260.8" font-family="Helvetica,sans-Serif" font-size="14.00">samples = 979</text>
<text text-anchor="start" x="1206.5" y="-245.8" font-family="Helvetica,sans-Serif" font-size="14.00">value = [262, 717]</text>
<text text-anchor="start" x="1230" y="-230.8" font-family="Helvetica,sans-Serif" font-size="14.00">class = True</text>
</g>
<!-- 14&#45;&gt;15 -->
<g id="edge15" class="edge">
<title>14&#45;&gt;15</title>
<path fill="none" stroke="black" d="M1273,-341.91C1273,-333.65 1273,-324.86 1273,-316.3"/>
<polygon fill="black" stroke="black" points="1276.5,-316.02 1273,-306.02 1269.5,-316.02 1276.5,-316.02"/>
</g>
<!-- 22 -->
<g id="node23" class="node">
<title>22</title>
<path fill="#f9e3d2" stroke="black" d="M1785.5,-306C1785.5,-306 1660.5,-306 1660.5,-306 1654.5,-306 1648.5,-300 1648.5,-294 1648.5,-294 1648.5,-235 1648.5,-235 1648.5,-229 1654.5,-223 1660.5,-223 1660.5,-223 1785.5,-223 1785.5,-223 1791.5,-223 1797.5,-229 1797.5,-235 1797.5,-235 1797.5,-294 1797.5,-294 1797.5,-300 1791.5,-306 1785.5,-306"/>
<text text-anchor="start" x="1662.5" y="-290.8" font-family="Helvetica,sans-Serif" font-size="14.00">Month_Nov ≤ 0.5</text>
<text text-anchor="start" x="1665.5" y="-275.8" font-family="Helvetica,sans-Serif" font-size="14.00">entropy = 0.988</text>
<text text-anchor="start" x="1665.5" y="-260.8" font-family="Helvetica,sans-Serif" font-size="14.00">samples = 1182</text>
<text text-anchor="start" x="1656.5" y="-245.8" font-family="Helvetica,sans-Serif" font-size="14.00">value = [666, 516]</text>
<text text-anchor="start" x="1677.5" y="-230.8" font-family="Helvetica,sans-Serif" font-size="14.00">class = False</text>
</g>
<!-- 14&#45;&gt;22 -->
<g id="edge22" class="edge">
<title>14&#45;&gt;22</title>
<path fill="none" stroke="black" d="M1352.16,-361.92C1432.49,-341.03 1556.42,-308.81 1638.59,-287.45"/>
<polygon fill="black" stroke="black" points="1639.6,-290.8 1648.4,-284.9 1637.84,-284.03 1639.6,-290.8"/>
</g>
<!-- 16 -->
<g id="node17" class="node">
<title>16</title>
<path fill="#cbe5f8" stroke="black" d="M1252.5,-187C1252.5,-187 1115.5,-187 1115.5,-187 1109.5,-187 1103.5,-181 1103.5,-175 1103.5,-175 1103.5,-116 1103.5,-116 1103.5,-110 1109.5,-104 1115.5,-104 1115.5,-104 1252.5,-104 1252.5,-104 1258.5,-104 1264.5,-110 1264.5,-116 1264.5,-116 1264.5,-175 1264.5,-175 1264.5,-181 1258.5,-187 1252.5,-187"/>
<text text-anchor="start" x="1111.5" y="-171.8" font-family="Helvetica,sans-Serif" font-size="14.00">Administrative ≤ 4.5</text>
<text text-anchor="start" x="1126.5" y="-156.8" font-family="Helvetica,sans-Serif" font-size="14.00">entropy = 0.983</text>
<text text-anchor="start" x="1131" y="-141.8" font-family="Helvetica,sans-Serif" font-size="14.00">samples = 443</text>
<text text-anchor="start" x="1117.5" y="-126.8" font-family="Helvetica,sans-Serif" font-size="14.00">value = [188, 255]</text>
<text text-anchor="start" x="1141" y="-111.8" font-family="Helvetica,sans-Serif" font-size="14.00">class = True</text>
</g>
<!-- 15&#45;&gt;16 -->
<g id="edge16" class="edge">
<title>15&#45;&gt;16</title>
<path fill="none" stroke="black" d="M1242.12,-222.91C1235.29,-213.92 1227.98,-204.32 1220.93,-195.05"/>
<polygon fill="black" stroke="black" points="1223.66,-192.86 1214.82,-187.02 1218.09,-197.1 1223.66,-192.86"/>
</g>
<!-- 19 -->
<g id="node20" class="node">
<title>19</title>
<path fill="#59ade9" stroke="black" d="M1431.5,-187C1431.5,-187 1294.5,-187 1294.5,-187 1288.5,-187 1282.5,-181 1282.5,-175 1282.5,-175 1282.5,-116 1282.5,-116 1282.5,-110 1288.5,-104 1294.5,-104 1294.5,-104 1431.5,-104 1431.5,-104 1437.5,-104 1443.5,-110 1443.5,-116 1443.5,-116 1443.5,-175 1443.5,-175 1443.5,-181 1437.5,-187 1431.5,-187"/>
<text text-anchor="start" x="1290.5" y="-171.8" font-family="Helvetica,sans-Serif" font-size="14.00">Administrative ≤ 1.5</text>
<text text-anchor="start" x="1305.5" y="-156.8" font-family="Helvetica,sans-Serif" font-size="14.00">entropy = 0.579</text>
<text text-anchor="start" x="1310" y="-141.8" font-family="Helvetica,sans-Serif" font-size="14.00">samples = 536</text>
<text text-anchor="start" x="1301" y="-126.8" font-family="Helvetica,sans-Serif" font-size="14.00">value = [74, 462]</text>
<text text-anchor="start" x="1320" y="-111.8" font-family="Helvetica,sans-Serif" font-size="14.00">class = True</text>
</g>
<!-- 15&#45;&gt;19 -->
<g id="edge19" class="edge">
<title>15&#45;&gt;19</title>
<path fill="none" stroke="black" d="M1304.23,-222.91C1311.14,-213.92 1318.53,-204.32 1325.65,-195.05"/>
<polygon fill="black" stroke="black" points="1328.51,-197.08 1331.83,-187.02 1322.96,-192.81 1328.51,-197.08"/>
</g>
<!-- 17 -->
<g id="node18" class="node">
<title>17</title>
<path fill="#8dc7f0" stroke="black" d="M1095,-68C1095,-68 979,-68 979,-68 973,-68 967,-62 967,-56 967,-56 967,-12 967,-12 967,-6 973,0 979,0 979,0 1095,0 1095,0 1101,0 1107,-6 1107,-12 1107,-12 1107,-56 1107,-56 1107,-62 1101,-68 1095,-68"/>
<text text-anchor="start" x="984" y="-52.8" font-family="Helvetica,sans-Serif" font-size="14.00">entropy = 0.88</text>
<text text-anchor="start" x="984" y="-37.8" font-family="Helvetica,sans-Serif" font-size="14.00">samples = 261</text>
<text text-anchor="start" x="975" y="-22.8" font-family="Helvetica,sans-Serif" font-size="14.00">value = [78, 183]</text>
<text text-anchor="start" x="994" y="-7.8" font-family="Helvetica,sans-Serif" font-size="14.00">class = True</text>
</g>
<!-- 16&#45;&gt;17 -->
<g id="edge17" class="edge">
<title>16&#45;&gt;17</title>
<path fill="none" stroke="black" d="M1129.26,-103.73C1116.41,-94.15 1102.73,-83.96 1089.95,-74.44"/>
<polygon fill="black" stroke="black" points="1091.81,-71.47 1081.7,-68.3 1087.63,-77.08 1091.81,-71.47"/>
</g>
<!-- 18 -->
<g id="node19" class="node">
<title>18</title>
<path fill="#f6d3bb" stroke="black" d="M1253,-68C1253,-68 1137,-68 1137,-68 1131,-68 1125,-62 1125,-56 1125,-56 1125,-12 1125,-12 1125,-6 1131,0 1137,0 1137,0 1253,0 1253,0 1259,0 1265,-6 1265,-12 1265,-12 1265,-56 1265,-56 1265,-62 1259,-68 1253,-68"/>
<text text-anchor="start" x="1137.5" y="-52.8" font-family="Helvetica,sans-Serif" font-size="14.00">entropy = 0.968</text>
<text text-anchor="start" x="1142" y="-37.8" font-family="Helvetica,sans-Serif" font-size="14.00">samples = 182</text>
<text text-anchor="start" x="1133" y="-22.8" font-family="Helvetica,sans-Serif" font-size="14.00">value = [110, 72]</text>
<text text-anchor="start" x="1149.5" y="-7.8" font-family="Helvetica,sans-Serif" font-size="14.00">class = False</text>
</g>
<!-- 16&#45;&gt;18 -->
<g id="edge18" class="edge">
<title>16&#45;&gt;18</title>
<path fill="none" stroke="black" d="M1188.1,-103.73C1188.93,-95.43 1189.81,-86.67 1190.65,-78.28"/>
<polygon fill="black" stroke="black" points="1194.14,-78.6 1191.65,-68.3 1187.17,-77.9 1194.14,-78.6"/>
</g>
<!-- 20 -->
<g id="node21" class="node">
<title>20</title>
<path fill="#42a2e6" stroke="black" d="M1411,-68C1411,-68 1295,-68 1295,-68 1289,-68 1283,-62 1283,-56 1283,-56 1283,-12 1283,-12 1283,-6 1289,0 1295,0 1295,0 1411,0 1411,0 1417,0 1423,-6 1423,-12 1423,-12 1423,-56 1423,-56 1423,-62 1417,-68 1411,-68"/>
<text text-anchor="start" x="1295.5" y="-52.8" font-family="Helvetica,sans-Serif" font-size="14.00">entropy = 0.264</text>
<text text-anchor="start" x="1300" y="-37.8" font-family="Helvetica,sans-Serif" font-size="14.00">samples = 268</text>
<text text-anchor="start" x="1291" y="-22.8" font-family="Helvetica,sans-Serif" font-size="14.00">value = [12, 256]</text>
<text text-anchor="start" x="1310" y="-7.8" font-family="Helvetica,sans-Serif" font-size="14.00">class = True</text>
</g>
<!-- 19&#45;&gt;20 -->
<g id="edge20" class="edge">
<title>19&#45;&gt;20</title>
<path fill="none" stroke="black" d="M1359.28,-103.73C1358.52,-95.43 1357.72,-86.67 1356.95,-78.28"/>
<polygon fill="black" stroke="black" points="1360.44,-77.94 1356.04,-68.3 1353.47,-78.58 1360.44,-77.94"/>
</g>
<!-- 21 -->
<g id="node22" class="node">
<title>21</title>
<path fill="#75baed" stroke="black" d="M1569,-68C1569,-68 1453,-68 1453,-68 1447,-68 1441,-62 1441,-56 1441,-56 1441,-12 1441,-12 1441,-6 1447,0 1453,0 1453,0 1569,0 1569,0 1575,0 1581,-6 1581,-12 1581,-12 1581,-56 1581,-56 1581,-62 1575,-68 1569,-68"/>
<text text-anchor="start" x="1458" y="-52.8" font-family="Helvetica,sans-Serif" font-size="14.00">entropy = 0.78</text>
<text text-anchor="start" x="1458" y="-37.8" font-family="Helvetica,sans-Serif" font-size="14.00">samples = 268</text>
<text text-anchor="start" x="1449" y="-22.8" font-family="Helvetica,sans-Serif" font-size="14.00">value = [62, 206]</text>
<text text-anchor="start" x="1468" y="-7.8" font-family="Helvetica,sans-Serif" font-size="14.00">class = True</text>
</g>
<!-- 19&#45;&gt;21 -->
<g id="edge21" class="edge">
<title>19&#45;&gt;21</title>
<path fill="none" stroke="black" d="M1418.11,-103.73C1431.05,-94.15 1444.82,-83.96 1457.69,-74.44"/>
<polygon fill="black" stroke="black" points="1460.04,-77.06 1465.99,-68.3 1455.87,-71.43 1460.04,-77.06"/>
</g>
<!-- 23 -->
<g id="node24" class="node">
<title>23</title>
<path fill="#f4c7a7" stroke="black" d="M1849,-187C1849,-187 1597,-187 1597,-187 1591,-187 1585,-181 1585,-175 1585,-175 1585,-116 1585,-116 1585,-110 1591,-104 1597,-104 1597,-104 1849,-104 1849,-104 1855,-104 1861,-110 1861,-116 1861,-116 1861,-175 1861,-175 1861,-181 1855,-187 1849,-187"/>
<text text-anchor="start" x="1593" y="-171.8" font-family="Helvetica,sans-Serif" font-size="14.00">ProductRelated_Duration ≤ 1329.473</text>
<text text-anchor="start" x="1665.5" y="-156.8" font-family="Helvetica,sans-Serif" font-size="14.00">entropy = 0.941</text>
<text text-anchor="start" x="1670" y="-141.8" font-family="Helvetica,sans-Serif" font-size="14.00">samples = 796</text>
<text text-anchor="start" x="1656.5" y="-126.8" font-family="Helvetica,sans-Serif" font-size="14.00">value = [511, 285]</text>
<text text-anchor="start" x="1677.5" y="-111.8" font-family="Helvetica,sans-Serif" font-size="14.00">class = False</text>
</g>
<!-- 22&#45;&gt;23 -->
<g id="edge23" class="edge">
<title>22&#45;&gt;23</title>
<path fill="none" stroke="black" d="M1723,-222.91C1723,-214.65 1723,-205.86 1723,-197.3"/>
<polygon fill="black" stroke="black" points="1726.5,-197.02 1723,-187.02 1719.5,-197.02 1726.5,-197.02"/>
</g>
<!-- 26 -->
<g id="node27" class="node">
<title>26</title>
<path fill="#bedff6" stroke="black" d="M2066.5,-187C2066.5,-187 1941.5,-187 1941.5,-187 1935.5,-187 1929.5,-181 1929.5,-175 1929.5,-175 1929.5,-116 1929.5,-116 1929.5,-110 1935.5,-104 1941.5,-104 1941.5,-104 2066.5,-104 2066.5,-104 2072.5,-104 2078.5,-110 2078.5,-116 2078.5,-116 2078.5,-175 2078.5,-175 2078.5,-181 2072.5,-187 2066.5,-187"/>
<text text-anchor="start" x="1940.5" y="-171.8" font-family="Helvetica,sans-Serif" font-size="14.00">ExitRates ≤ 0.019</text>
<text text-anchor="start" x="1946.5" y="-156.8" font-family="Helvetica,sans-Serif" font-size="14.00">entropy = 0.972</text>
<text text-anchor="start" x="1951" y="-141.8" font-family="Helvetica,sans-Serif" font-size="14.00">samples = 386</text>
<text text-anchor="start" x="1937.5" y="-126.8" font-family="Helvetica,sans-Serif" font-size="14.00">value = [155, 231]</text>
<text text-anchor="start" x="1961" y="-111.8" font-family="Helvetica,sans-Serif" font-size="14.00">class = True</text>
</g>
<!-- 22&#45;&gt;26 -->
<g id="edge26" class="edge">
<title>22&#45;&gt;26</title>
<path fill="none" stroke="black" d="M1797.57,-232.45C1835.04,-216.85 1880.6,-197.88 1919.38,-181.73"/>
<polygon fill="black" stroke="black" points="1921.2,-184.77 1929.09,-177.69 1918.51,-178.3 1921.2,-184.77"/>
</g>
<!-- 24 -->
<g id="node25" class="node">
<title>24</title>
<path fill="#fefcfb" stroke="black" d="M1736.5,-68C1736.5,-68 1611.5,-68 1611.5,-68 1605.5,-68 1599.5,-62 1599.5,-56 1599.5,-56 1599.5,-12 1599.5,-12 1599.5,-6 1605.5,0 1611.5,0 1611.5,0 1736.5,0 1736.5,0 1742.5,0 1748.5,-6 1748.5,-12 1748.5,-12 1748.5,-56 1748.5,-56 1748.5,-62 1742.5,-68 1736.5,-68"/>
<text text-anchor="start" x="1625.5" y="-52.8" font-family="Helvetica,sans-Serif" font-size="14.00">entropy = 1.0</text>
<text text-anchor="start" x="1621" y="-37.8" font-family="Helvetica,sans-Serif" font-size="14.00">samples = 299</text>
<text text-anchor="start" x="1607.5" y="-22.8" font-family="Helvetica,sans-Serif" font-size="14.00">value = [151, 148]</text>
<text text-anchor="start" x="1628.5" y="-7.8" font-family="Helvetica,sans-Serif" font-size="14.00">class = False</text>
</g>
<!-- 23&#45;&gt;24 -->
<g id="edge24" class="edge">
<title>23&#45;&gt;24</title>
<path fill="none" stroke="black" d="M1704.75,-103.73C1700.92,-95.15 1696.86,-86.09 1693,-77.46"/>
<polygon fill="black" stroke="black" points="1696.18,-76 1688.9,-68.3 1689.79,-78.86 1696.18,-76"/>
</g>
<!-- 25 -->
<g id="node26" class="node">
<title>25</title>
<path fill="#efb184" stroke="black" d="M1903.5,-68C1903.5,-68 1778.5,-68 1778.5,-68 1772.5,-68 1766.5,-62 1766.5,-56 1766.5,-56 1766.5,-12 1766.5,-12 1766.5,-6 1772.5,0 1778.5,0 1778.5,0 1903.5,0 1903.5,0 1909.5,0 1915.5,-6 1915.5,-12 1915.5,-12 1915.5,-56 1915.5,-56 1915.5,-62 1909.5,-68 1903.5,-68"/>
<text text-anchor="start" x="1783.5" y="-52.8" font-family="Helvetica,sans-Serif" font-size="14.00">entropy = 0.849</text>
<text text-anchor="start" x="1788" y="-37.8" font-family="Helvetica,sans-Serif" font-size="14.00">samples = 497</text>
<text text-anchor="start" x="1774.5" y="-22.8" font-family="Helvetica,sans-Serif" font-size="14.00">value = [360, 137]</text>
<text text-anchor="start" x="1795.5" y="-7.8" font-family="Helvetica,sans-Serif" font-size="14.00">class = False</text>
</g>
<!-- 23&#45;&gt;25 -->
<g id="edge25" class="edge">
<title>23&#45;&gt;25</title>
<path fill="none" stroke="black" d="M1766.94,-103.73C1776.96,-94.42 1787.61,-84.54 1797.61,-75.26"/>
<polygon fill="black" stroke="black" points="1800.17,-77.67 1805.12,-68.3 1795.4,-72.54 1800.17,-77.67"/>
</g>
<!-- 27 -->
<g id="node28" class="node">
<title>27</title>
<path fill="#7ebfee" stroke="black" d="M2062,-68C2062,-68 1946,-68 1946,-68 1940,-68 1934,-62 1934,-56 1934,-56 1934,-12 1934,-12 1934,-6 1940,0 1946,0 1946,0 2062,0 2062,0 2068,0 2074,-6 2074,-12 2074,-12 2074,-56 2074,-56 2074,-62 2068,-68 2062,-68"/>
<text text-anchor="start" x="1946.5" y="-52.8" font-family="Helvetica,sans-Serif" font-size="14.00">entropy = 0.826</text>
<text text-anchor="start" x="1951" y="-37.8" font-family="Helvetica,sans-Serif" font-size="14.00">samples = 189</text>
<text text-anchor="start" x="1942" y="-22.8" font-family="Helvetica,sans-Serif" font-size="14.00">value = [49, 140]</text>
<text text-anchor="start" x="1961" y="-7.8" font-family="Helvetica,sans-Serif" font-size="14.00">class = True</text>
</g>
<!-- 26&#45;&gt;27 -->
<g id="edge27" class="edge">
<title>26&#45;&gt;27</title>
<path fill="none" stroke="black" d="M2004,-103.73C2004,-95.52 2004,-86.86 2004,-78.56"/>
<polygon fill="black" stroke="black" points="2007.5,-78.3 2004,-68.3 2000.5,-78.3 2007.5,-78.3"/>
</g>
<!-- 28 -->
<g id="node29" class="node">
<title>28</title>
<path fill="#fbede3" stroke="black" d="M2247.5,-68C2247.5,-68 2104.5,-68 2104.5,-68 2098.5,-68 2092.5,-62 2092.5,-56 2092.5,-56 2092.5,-12 2092.5,-12 2092.5,-6 2098.5,0 2104.5,0 2104.5,0 2247.5,0 2247.5,0 2253.5,0 2259.5,-6 2259.5,-12 2259.5,-12 2259.5,-56 2259.5,-56 2259.5,-62 2253.5,-68 2247.5,-68"/>
<text text-anchor="start" x="2118.5" y="-52.8" font-family="Helvetica,sans-Serif" font-size="14.00">entropy = 0.996</text>
<text text-anchor="start" x="2123" y="-37.8" font-family="Helvetica,sans-Serif" font-size="14.00">samples = 197</text>
<text text-anchor="start" x="2100.5" y="-22.8" font-family="Helvetica,sans-Serif" font-size="14.00">value = [106.0, 91.0]</text>
<text text-anchor="start" x="2130.5" y="-7.8" font-family="Helvetica,sans-Serif" font-size="14.00">class = False</text>
</g>
<!-- 26&#45;&gt;28 -->
<g id="edge28" class="edge">
<title>26&#45;&gt;28</title>
<path fill="none" stroke="black" d="M2068.05,-103.73C2083.46,-93.92 2099.87,-83.46 2115.13,-73.75"/>
<polygon fill="black" stroke="black" points="2117.41,-76.45 2123.97,-68.13 2113.65,-70.54 2117.41,-76.45"/>
</g>
</g>
</svg>
