<?xml version="1.0" encoding="UTF-8" standalone="no"?>
<!DOCTYPE svg PUBLIC "-//W3C//DTD SVG 1.1//EN"
 "http://www.w3.org/Graphics/SVG/1.1/DTD/svg11.dtd">
<!-- Generated by graphviz version 2.43.0 (0)
 -->
<!-- Title: Tree Pages: 1 -->
<svg width="704pt" height="314pt"
 viewBox="0.00 0.00 704.00 314.00" xmlns="http://www.w3.org/2000/svg" xmlns:xlink="http://www.w3.org/1999/xlink">
<g id="graph0" class="graph" transform="scale(1 1) rotate(0) translate(4 310)">
<title>Tree</title>
<polygon fill="white" stroke="transparent" points="-4,4 -4,-310 700,-310 700,4 -4,4"/>
<!-- 0 -->
<g id="node1" class="node">
<title>0</title>
<path fill="#ea985d" stroke="black" d="M452.5,-306C452.5,-306 282.5,-306 282.5,-306 276.5,-306 270.5,-300 270.5,-294 270.5,-294 270.5,-235 270.5,-235 270.5,-229 276.5,-223 282.5,-223 282.5,-223 452.5,-223 452.5,-223 458.5,-223 464.5,-229 464.5,-235 464.5,-235 464.5,-294 464.5,-294 464.5,-300 458.5,-306 452.5,-306"/>
<text text-anchor="start" x="297.5" y="-290.8" font-family="Helvetica,sans-Serif" font-size="14.00">PageValues ≤ 0.707</text>
<text text-anchor="start" x="310" y="-275.8" font-family="Helvetica,sans-Serif" font-size="14.00">entropy = 0.621</text>
<text text-anchor="start" x="310" y="-260.8" font-family="Helvetica,sans-Serif" font-size="14.00">samples = 9864</text>
<text text-anchor="start" x="278.5" y="-245.8" font-family="Helvetica,sans-Serif" font-size="14.00">value = [8338.0, 1526.0]</text>
<text text-anchor="start" x="322" y="-230.8" font-family="Helvetica,sans-Serif" font-size="14.00">class = False</text>
</g>
<!-- 1 -->
<g id="node2" class="node">
<title>1</title>
<path fill="#e68641" stroke="black" d="M346.5,-187C346.5,-187 212.5,-187 212.5,-187 206.5,-187 200.5,-181 200.5,-175 200.5,-175 200.5,-116 200.5,-116 200.5,-110 206.5,-104 212.5,-104 212.5,-104 346.5,-104 346.5,-104 352.5,-104 358.5,-110 358.5,-116 358.5,-116 358.5,-175 358.5,-175 358.5,-181 352.5,-187 346.5,-187"/>
<text text-anchor="start" x="219" y="-171.8" font-family="Helvetica,sans-Serif" font-size="14.00">Month_Nov ≤ 0.5</text>
<text text-anchor="start" x="222" y="-156.8" font-family="Helvetica,sans-Serif" font-size="14.00">entropy = 0.233</text>
<text text-anchor="start" x="222" y="-141.8" font-family="Helvetica,sans-Serif" font-size="14.00">samples = 7703</text>
<text text-anchor="start" x="208.5" y="-126.8" font-family="Helvetica,sans-Serif" font-size="14.00">value = [7410, 293]</text>
<text text-anchor="start" x="234" y="-111.8" font-family="Helvetica,sans-Serif" font-size="14.00">class = False</text>
</g>
<!-- 0&#45;&gt;1 -->
<g id="edge1" class="edge">
<title>0&#45;&gt;1</title>
<path fill="none" stroke="black" d="M336.97,-222.91C330.21,-213.92 322.98,-204.32 316.02,-195.05"/>
<polygon fill="black" stroke="black" points="318.79,-192.91 309.98,-187.02 313.19,-197.12 318.79,-192.91"/>
<text text-anchor="middle" x="306.48" y="-208.07" font-family="Helvetica,sans-Serif" font-size="14.00">True</text>
</g>
<!-- 4 -->
<g id="node5" class="node">
<title>4</title>
<path fill="#cee7f9" stroke="black" d="M522.5,-187C522.5,-187 388.5,-187 388.5,-187 382.5,-187 376.5,-181 376.5,-175 376.5,-175 376.5,-116 376.5,-116 376.5,-110 382.5,-104 388.5,-104 388.5,-104 522.5,-104 522.5,-104 528.5,-104 534.5,-110 534.5,-116 534.5,-116 534.5,-175 534.5,-175 534.5,-181 528.5,-187 522.5,-187"/>
<text text-anchor="start" x="388" y="-171.8" font-family="Helvetica,sans-Serif" font-size="14.00">BounceRates ≤ 0.0</text>
<text text-anchor="start" x="398" y="-156.8" font-family="Helvetica,sans-Serif" font-size="14.00">entropy = 0.986</text>
<text text-anchor="start" x="398" y="-141.8" font-family="Helvetica,sans-Serif" font-size="14.00">samples = 2161</text>
<text text-anchor="start" x="384.5" y="-126.8" font-family="Helvetica,sans-Serif" font-size="14.00">value = [928, 1233]</text>
<text text-anchor="start" x="412.5" y="-111.8" font-family="Helvetica,sans-Serif" font-size="14.00">class = True</text>
</g>
<!-- 0&#45;&gt;4 -->
<g id="edge4" class="edge">
<title>0&#45;&gt;4</title>
<path fill="none" stroke="black" d="M398.03,-222.91C404.79,-213.92 412.02,-204.32 418.98,-195.05"/>
<polygon fill="black" stroke="black" points="421.81,-197.12 425.02,-187.02 416.21,-192.91 421.81,-197.12"/>
<text text-anchor="middle" x="428.52" y="-208.07" font-family="Helvetica,sans-Serif" font-size="14.00">False</text>
</g>
<!-- 2 -->
<g id="node3" class="node">
<title>2</title>
<path fill="#e5833d" stroke="black" d="M173,-68C173,-68 12,-68 12,-68 6,-68 0,-62 0,-56 0,-56 0,-12 0,-12 0,-6 6,0 12,0 12,0 173,0 173,0 179,0 185,-6 185,-12 185,-12 185,-56 185,-56 185,-62 179,-68 173,-68"/>
<text text-anchor="start" x="35" y="-52.8" font-family="Helvetica,sans-Serif" font-size="14.00">entropy = 0.134</text>
<text text-anchor="start" x="35" y="-37.8" font-family="Helvetica,sans-Serif" font-size="14.00">samples = 5956</text>
<text text-anchor="start" x="8" y="-22.8" font-family="Helvetica,sans-Serif" font-size="14.00">value = [5845.0, 111.0]</text>
<text text-anchor="start" x="47" y="-7.8" font-family="Helvetica,sans-Serif" font-size="14.00">class = False</text>
</g>
<!-- 1&#45;&gt;2 -->
<g id="edge2" class="edge">
<title>1&#45;&gt;2</title>
<path fill="none" stroke="black" d="M210.13,-103.88C192.96,-93.83 174.63,-83.09 157.66,-73.16"/>
<polygon fill="black" stroke="black" points="159.33,-70.08 148.93,-68.04 155.79,-76.12 159.33,-70.08"/>
</g>
<!-- 3 -->
<g id="node4" class="node">
<title>3</title>
<path fill="#e89050" stroke="black" d="M348.5,-68C348.5,-68 214.5,-68 214.5,-68 208.5,-68 202.5,-62 202.5,-56 202.5,-56 202.5,-12 202.5,-12 202.5,-6 208.5,0 214.5,0 214.5,0 348.5,0 348.5,0 354.5,0 360.5,-6 360.5,-12 360.5,-12 360.5,-56 360.5,-56 360.5,-62 354.5,-68 348.5,-68"/>
<text text-anchor="start" x="224" y="-52.8" font-family="Helvetica,sans-Serif" font-size="14.00">entropy = 0.482</text>
<text text-anchor="start" x="224" y="-37.8" font-family="Helvetica,sans-Serif" font-size="14.00">samples = 1747</text>
<text text-anchor="start" x="210.5" y="-22.8" font-family="Helvetica,sans-Serif" font-size="14.00">value = [1565, 182]</text>
<text text-anchor="start" x="236" y="-7.8" font-family="Helvetica,sans-Serif" font-size="14.00">class = False</text>
</g>
<!-- 1&#45;&gt;3 -->
<g id="edge3" class="edge">
<title>1&#45;&gt;3</title>
<path fill="none" stroke="black" d="M280.24,-103.73C280.39,-95.52 280.55,-86.86 280.7,-78.56"/>
<polygon fill="black" stroke="black" points="284.21,-78.36 280.89,-68.3 277.21,-78.23 284.21,-78.36"/>
</g>
<!-- 5 -->
<g id="node6" class="node">
<title>5</title>
<path fill="#81c1ef" stroke="black" d="M517,-68C517,-68 392,-68 392,-68 386,-68 380,-62 380,-56 380,-56 380,-12 380,-12 380,-6 386,0 392,0 392,0 517,0 517,0 523,0 529,-6 529,-12 529,-12 529,-56 529,-56 529,-62 523,-68 517,-68"/>
<text text-anchor="start" x="397" y="-52.8" font-family="Helvetica,sans-Serif" font-size="14.00">entropy = 0.838</text>
<text text-anchor="start" x="401.5" y="-37.8" font-family="Helvetica,sans-Serif" font-size="14.00">samples = 979</text>
<text text-anchor="start" x="388" y="-22.8" font-family="Helvetica,sans-Serif" font-size="14.00">value = [262, 717]</text>
<text text-anchor="start" x="411.5" y="-7.8" font-family="Helvetica,sans-Serif" font-size="14.00">class = True</text>
</g>
<!-- 4&#45;&gt;5 -->
<g id="edge5" class="edge">
<title>4&#45;&gt;5</title>
<path fill="none" stroke="black" d="M455.13,-103.73C455.05,-95.52 454.97,-86.86 454.9,-78.56"/>
<polygon fill="black" stroke="black" points="458.4,-78.27 454.8,-68.3 451.4,-78.33 458.4,-78.27"/>
</g>
<!-- 6 -->
<g id="node7" class="node">
<title>6</title>
<path fill="#f9e3d2" stroke="black" d="M684,-68C684,-68 559,-68 559,-68 553,-68 547,-62 547,-56 547,-56 547,-12 547,-12 547,-6 553,0 559,0 559,0 684,0 684,0 690,0 696,-6 696,-12 696,-12 696,-56 696,-56 696,-62 690,-68 684,-68"/>
<text text-anchor="start" x="564" y="-52.8" font-family="Helvetica,sans-Serif" font-size="14.00">entropy = 0.988</text>
<text text-anchor="start" x="564" y="-37.8" font-family="Helvetica,sans-Serif" font-size="14.00">samples = 1182</text>
<text text-anchor="start" x="555" y="-22.8" font-family="Helvetica,sans-Serif" font-size="14.00">value = [666, 516]</text>
<text text-anchor="start" x="576" y="-7.8" font-family="Helvetica,sans-Serif" font-size="14.00">class = False</text>
</g>
<!-- 4&#45;&gt;6 -->
<g id="edge6" class="edge">
<title>4&#45;&gt;6</title>
<path fill="none" stroke="black" d="M517.31,-103.73C532.18,-93.92 548.03,-83.46 562.76,-73.75"/>
<polygon fill="black" stroke="black" points="564.86,-76.55 571.28,-68.13 561.01,-70.71 564.86,-76.55"/>
</g>
</g>
</svg>
