<?xml version="1.0" encoding="UTF-8" standalone="no"?>
<!DOCTYPE svg PUBLIC "-//W3C//DTD SVG 1.1//EN"
 "http://www.w3.org/Graphics/SVG/1.1/DTD/svg11.dtd">
<!-- Generated by graphviz version 2.43.0 (0)
 -->
<!-- Title: Tree Pages: 1 -->
<svg width="1117pt" height="671pt"
 viewBox="0.00 0.00 1117.00 671.00" xmlns="http://www.w3.org/2000/svg" xmlns:xlink="http://www.w3.org/1999/xlink">
<g id="graph0" class="graph" transform="scale(1 1) rotate(0) translate(4 667)">
<title>Tree</title>
<polygon fill="white" stroke="transparent" points="-4,4 -4,-667 1113,-667 1113,4 -4,4"/>
<!-- 0 -->
<g id="node1" class="node">
<title>0</title>
<path fill="#f5ccb0" stroke="black" d="M663,-663C663,-663 535,-663 535,-663 529,-663 523,-657 523,-651 523,-651 523,-592 523,-592 523,-586 529,-580 535,-580 535,-580 663,-580 663,-580 669,-580 675,-586 675,-592 675,-592 675,-651 675,-651 675,-657 669,-663 663,-663"/>
<text text-anchor="middle" x="599" y="-647.8" font-family="Helvetica,sans-Serif" font-size="14.00">radius3 &lt;= 16.805</text>
<text text-anchor="middle" x="599" y="-632.8" font-family="Helvetica,sans-Serif" font-size="14.00">entropy = 0.954</text>
<text text-anchor="middle" x="599" y="-617.8" font-family="Helvetica,sans-Serif" font-size="14.00">samples = 227</text>
<text text-anchor="middle" x="599" y="-602.8" font-family="Helvetica,sans-Serif" font-size="14.00">value = [142, 85]</text>
<text text-anchor="middle" x="599" y="-587.8" font-family="Helvetica,sans-Serif" font-size="14.00">class = B</text>
</g>
<!-- 1 -->
<g id="node2" class="node">
<title>1</title>
<path fill="#e78b49" stroke="black" d="M590,-544C590,-544 408,-544 408,-544 402,-544 396,-538 396,-532 396,-532 396,-473 396,-473 396,-467 402,-461 408,-461 408,-461 590,-461 590,-461 596,-461 602,-467 602,-473 602,-473 602,-532 602,-532 602,-538 596,-544 590,-544"/>
<text text-anchor="middle" x="499" y="-528.8" font-family="Helvetica,sans-Serif" font-size="14.00">concave_points3 &lt;= 0.181</text>
<text text-anchor="middle" x="499" y="-513.8" font-family="Helvetica,sans-Serif" font-size="14.00">entropy = 0.386</text>
<text text-anchor="middle" x="499" y="-498.8" font-family="Helvetica,sans-Serif" font-size="14.00">samples = 146</text>
<text text-anchor="middle" x="499" y="-483.8" font-family="Helvetica,sans-Serif" font-size="14.00">value = [135, 11]</text>
<text text-anchor="middle" x="499" y="-468.8" font-family="Helvetica,sans-Serif" font-size="14.00">class = B</text>
</g>
<!-- 0&#45;&gt;1 -->
<g id="edge1" class="edge">
<title>0&#45;&gt;1</title>
<path fill="none" stroke="black" d="M564.31,-579.91C556.55,-570.83 548.25,-561.12 540.26,-551.77"/>
<polygon fill="black" stroke="black" points="542.79,-549.35 533.63,-544.02 537.47,-553.9 542.79,-549.35"/>
<text text-anchor="middle" x="531.68" y="-565.24" font-family="Helvetica,sans-Serif" font-size="14.00">True</text>
</g>
<!-- 10 -->
<g id="node11" class="node">
<title>10</title>
<path fill="#4ca6e7" stroke="black" d="M766,-544C766,-544 632,-544 632,-544 626,-544 620,-538 620,-532 620,-532 620,-473 620,-473 620,-467 626,-461 632,-461 632,-461 766,-461 766,-461 772,-461 778,-467 778,-473 778,-473 778,-532 778,-532 778,-538 772,-544 766,-544"/>
<text text-anchor="middle" x="699" y="-528.8" font-family="Helvetica,sans-Serif" font-size="14.00">texture3 &lt;= 19.385</text>
<text text-anchor="middle" x="699" y="-513.8" font-family="Helvetica,sans-Serif" font-size="14.00">entropy = 0.424</text>
<text text-anchor="middle" x="699" y="-498.8" font-family="Helvetica,sans-Serif" font-size="14.00">samples = 81</text>
<text text-anchor="middle" x="699" y="-483.8" font-family="Helvetica,sans-Serif" font-size="14.00">value = [7, 74]</text>
<text text-anchor="middle" x="699" y="-468.8" font-family="Helvetica,sans-Serif" font-size="14.00">class = M</text>
</g>
<!-- 0&#45;&gt;10 -->
<g id="edge10" class="edge">
<title>0&#45;&gt;10</title>
<path fill="none" stroke="black" d="M633.69,-579.91C641.45,-570.83 649.75,-561.12 657.74,-551.77"/>
<polygon fill="black" stroke="black" points="660.53,-553.9 664.37,-544.02 655.21,-549.35 660.53,-553.9"/>
<text text-anchor="middle" x="666.32" y="-565.24" font-family="Helvetica,sans-Serif" font-size="14.00">False</text>
</g>
<!-- 2 -->
<g id="node3" class="node">
<title>2</title>
<path fill="#e68640" stroke="black" d="M420,-425C420,-425 274,-425 274,-425 268,-425 262,-419 262,-413 262,-413 262,-354 262,-354 262,-348 268,-342 274,-342 274,-342 420,-342 420,-342 426,-342 432,-348 432,-354 432,-354 432,-413 432,-413 432,-419 426,-425 420,-425"/>
<text text-anchor="middle" x="347" y="-409.8" font-family="Helvetica,sans-Serif" font-size="14.00">symmetry2 &lt;= 0.016</text>
<text text-anchor="middle" x="347" y="-394.8" font-family="Helvetica,sans-Serif" font-size="14.00">entropy = 0.222</text>
<text text-anchor="middle" x="347" y="-379.8" font-family="Helvetica,sans-Serif" font-size="14.00">samples = 140</text>
<text text-anchor="middle" x="347" y="-364.8" font-family="Helvetica,sans-Serif" font-size="14.00">value = [135, 5]</text>
<text text-anchor="middle" x="347" y="-349.8" font-family="Helvetica,sans-Serif" font-size="14.00">class = B</text>
</g>
<!-- 1&#45;&gt;2 -->
<g id="edge2" class="edge">
<title>1&#45;&gt;2</title>
<path fill="none" stroke="black" d="M446.26,-460.91C433.88,-451.38 420.59,-441.15 407.89,-431.37"/>
<polygon fill="black" stroke="black" points="409.7,-428.35 399.64,-425.02 405.43,-433.89 409.7,-428.35"/>
</g>
<!-- 9 -->
<g id="node10" class="node">
<title>9</title>
<path fill="#399de5" stroke="black" d="M551.5,-417.5C551.5,-417.5 462.5,-417.5 462.5,-417.5 456.5,-417.5 450.5,-411.5 450.5,-405.5 450.5,-405.5 450.5,-361.5 450.5,-361.5 450.5,-355.5 456.5,-349.5 462.5,-349.5 462.5,-349.5 551.5,-349.5 551.5,-349.5 557.5,-349.5 563.5,-355.5 563.5,-361.5 563.5,-361.5 563.5,-405.5 563.5,-405.5 563.5,-411.5 557.5,-417.5 551.5,-417.5"/>
<text text-anchor="middle" x="507" y="-402.3" font-family="Helvetica,sans-Serif" font-size="14.00">entropy = 0.0</text>
<text text-anchor="middle" x="507" y="-387.3" font-family="Helvetica,sans-Serif" font-size="14.00">samples = 6</text>
<text text-anchor="middle" x="507" y="-372.3" font-family="Helvetica,sans-Serif" font-size="14.00">value = [0, 6]</text>
<text text-anchor="middle" x="507" y="-357.3" font-family="Helvetica,sans-Serif" font-size="14.00">class = M</text>
</g>
<!-- 1&#45;&gt;9 -->
<g id="edge9" class="edge">
<title>1&#45;&gt;9</title>
<path fill="none" stroke="black" d="M501.78,-460.91C502.51,-450.2 503.3,-438.62 504.04,-427.78"/>
<polygon fill="black" stroke="black" points="507.54,-427.88 504.73,-417.67 500.56,-427.4 507.54,-427.88"/>
</g>
<!-- 3 -->
<g id="node4" class="node">
<title>3</title>
<path fill="#e99355" stroke="black" d="M272,-306C272,-306 126,-306 126,-306 120,-306 114,-300 114,-294 114,-294 114,-235 114,-235 114,-229 120,-223 126,-223 126,-223 272,-223 272,-223 278,-223 284,-229 284,-235 284,-235 284,-294 284,-294 284,-300 278,-306 272,-306"/>
<text text-anchor="middle" x="199" y="-290.8" font-family="Helvetica,sans-Serif" font-size="14.00">symmetry3 &lt;= 0.296</text>
<text text-anchor="middle" x="199" y="-275.8" font-family="Helvetica,sans-Serif" font-size="14.00">entropy = 0.544</text>
<text text-anchor="middle" x="199" y="-260.8" font-family="Helvetica,sans-Serif" font-size="14.00">samples = 40</text>
<text text-anchor="middle" x="199" y="-245.8" font-family="Helvetica,sans-Serif" font-size="14.00">value = [35, 5]</text>
<text text-anchor="middle" x="199" y="-230.8" font-family="Helvetica,sans-Serif" font-size="14.00">class = B</text>
</g>
<!-- 2&#45;&gt;3 -->
<g id="edge3" class="edge">
<title>2&#45;&gt;3</title>
<path fill="none" stroke="black" d="M295.65,-341.91C283.6,-332.38 270.66,-322.15 258.29,-312.37"/>
<polygon fill="black" stroke="black" points="260.27,-309.48 250.26,-306.02 255.93,-314.97 260.27,-309.48"/>
</g>
<!-- 8 -->
<g id="node9" class="node">
<title>8</title>
<path fill="#e58139" stroke="black" d="M421.5,-298.5C421.5,-298.5 314.5,-298.5 314.5,-298.5 308.5,-298.5 302.5,-292.5 302.5,-286.5 302.5,-286.5 302.5,-242.5 302.5,-242.5 302.5,-236.5 308.5,-230.5 314.5,-230.5 314.5,-230.5 421.5,-230.5 421.5,-230.5 427.5,-230.5 433.5,-236.5 433.5,-242.5 433.5,-242.5 433.5,-286.5 433.5,-286.5 433.5,-292.5 427.5,-298.5 421.5,-298.5"/>
<text text-anchor="middle" x="368" y="-283.3" font-family="Helvetica,sans-Serif" font-size="14.00">entropy = 0.0</text>
<text text-anchor="middle" x="368" y="-268.3" font-family="Helvetica,sans-Serif" font-size="14.00">samples = 100</text>
<text text-anchor="middle" x="368" y="-253.3" font-family="Helvetica,sans-Serif" font-size="14.00">value = [100, 0]</text>
<text text-anchor="middle" x="368" y="-238.3" font-family="Helvetica,sans-Serif" font-size="14.00">class = B</text>
</g>
<!-- 2&#45;&gt;8 -->
<g id="edge8" class="edge">
<title>2&#45;&gt;8</title>
<path fill="none" stroke="black" d="M354.29,-341.91C356.21,-331.2 358.29,-319.62 360.23,-308.78"/>
<polygon fill="black" stroke="black" points="363.73,-309.13 362.05,-298.67 356.84,-307.89 363.73,-309.13"/>
</g>
<!-- 4 -->
<g id="node5" class="node">
<title>4</title>
<path fill="#e68844" stroke="black" d="M182.5,-187C182.5,-187 75.5,-187 75.5,-187 69.5,-187 63.5,-181 63.5,-175 63.5,-175 63.5,-116 63.5,-116 63.5,-110 69.5,-104 75.5,-104 75.5,-104 182.5,-104 182.5,-104 188.5,-104 194.5,-110 194.5,-116 194.5,-116 194.5,-175 194.5,-175 194.5,-181 188.5,-187 182.5,-187"/>
<text text-anchor="middle" x="129" y="-171.8" font-family="Helvetica,sans-Serif" font-size="14.00">area2 &lt;= 42.73</text>
<text text-anchor="middle" x="129" y="-156.8" font-family="Helvetica,sans-Serif" font-size="14.00">entropy = 0.303</text>
<text text-anchor="middle" x="129" y="-141.8" font-family="Helvetica,sans-Serif" font-size="14.00">samples = 37</text>
<text text-anchor="middle" x="129" y="-126.8" font-family="Helvetica,sans-Serif" font-size="14.00">value = [35, 2]</text>
<text text-anchor="middle" x="129" y="-111.8" font-family="Helvetica,sans-Serif" font-size="14.00">class = B</text>
</g>
<!-- 3&#45;&gt;4 -->
<g id="edge4" class="edge">
<title>3&#45;&gt;4</title>
<path fill="none" stroke="black" d="M174.71,-222.91C169.45,-214.1 163.82,-204.7 158.38,-195.61"/>
<polygon fill="black" stroke="black" points="161.38,-193.81 153.24,-187.02 155.37,-197.4 161.38,-193.81"/>
</g>
<!-- 7 -->
<g id="node8" class="node">
<title>7</title>
<path fill="#399de5" stroke="black" d="M313.5,-179.5C313.5,-179.5 224.5,-179.5 224.5,-179.5 218.5,-179.5 212.5,-173.5 212.5,-167.5 212.5,-167.5 212.5,-123.5 212.5,-123.5 212.5,-117.5 218.5,-111.5 224.5,-111.5 224.5,-111.5 313.5,-111.5 313.5,-111.5 319.5,-111.5 325.5,-117.5 325.5,-123.5 325.5,-123.5 325.5,-167.5 325.5,-167.5 325.5,-173.5 319.5,-179.5 313.5,-179.5"/>
<text text-anchor="middle" x="269" y="-164.3" font-family="Helvetica,sans-Serif" font-size="14.00">entropy = 0.0</text>
<text text-anchor="middle" x="269" y="-149.3" font-family="Helvetica,sans-Serif" font-size="14.00">samples = 3</text>
<text text-anchor="middle" x="269" y="-134.3" font-family="Helvetica,sans-Serif" font-size="14.00">value = [0, 3]</text>
<text text-anchor="middle" x="269" y="-119.3" font-family="Helvetica,sans-Serif" font-size="14.00">class = M</text>
</g>
<!-- 3&#45;&gt;7 -->
<g id="edge7" class="edge">
<title>3&#45;&gt;7</title>
<path fill="none" stroke="black" d="M223.29,-222.91C229.95,-211.76 237.2,-199.66 243.91,-188.44"/>
<polygon fill="black" stroke="black" points="247.03,-190.05 249.16,-179.67 241.02,-186.45 247.03,-190.05"/>
</g>
<!-- 5 -->
<g id="node6" class="node">
<title>5</title>
<path fill="#e58139" stroke="black" d="M110,-68C110,-68 12,-68 12,-68 6,-68 0,-62 0,-56 0,-56 0,-12 0,-12 0,-6 6,0 12,0 12,0 110,0 110,0 116,0 122,-6 122,-12 122,-12 122,-56 122,-56 122,-62 116,-68 110,-68"/>
<text text-anchor="middle" x="61" y="-52.8" font-family="Helvetica,sans-Serif" font-size="14.00">entropy = 0.0</text>
<text text-anchor="middle" x="61" y="-37.8" font-family="Helvetica,sans-Serif" font-size="14.00">samples = 35</text>
<text text-anchor="middle" x="61" y="-22.8" font-family="Helvetica,sans-Serif" font-size="14.00">value = [35, 0]</text>
<text text-anchor="middle" x="61" y="-7.8" font-family="Helvetica,sans-Serif" font-size="14.00">class = B</text>
</g>
<!-- 4&#45;&gt;5 -->
<g id="edge5" class="edge">
<title>4&#45;&gt;5</title>
<path fill="none" stroke="black" d="M103.68,-103.73C98.24,-94.97 92.49,-85.7 87.02,-76.91"/>
<polygon fill="black" stroke="black" points="89.93,-74.95 81.68,-68.3 83.98,-78.64 89.93,-74.95"/>
</g>
<!-- 6 -->
<g id="node7" class="node">
<title>6</title>
<path fill="#399de5" stroke="black" d="M241.5,-68C241.5,-68 152.5,-68 152.5,-68 146.5,-68 140.5,-62 140.5,-56 140.5,-56 140.5,-12 140.5,-12 140.5,-6 146.5,0 152.5,0 152.5,0 241.5,0 241.5,0 247.5,0 253.5,-6 253.5,-12 253.5,-12 253.5,-56 253.5,-56 253.5,-62 247.5,-68 241.5,-68"/>
<text text-anchor="middle" x="197" y="-52.8" font-family="Helvetica,sans-Serif" font-size="14.00">entropy = 0.0</text>
<text text-anchor="middle" x="197" y="-37.8" font-family="Helvetica,sans-Serif" font-size="14.00">samples = 2</text>
<text text-anchor="middle" x="197" y="-22.8" font-family="Helvetica,sans-Serif" font-size="14.00">value = [0, 2]</text>
<text text-anchor="middle" x="197" y="-7.8" font-family="Helvetica,sans-Serif" font-size="14.00">class = M</text>
</g>
<!-- 4&#45;&gt;6 -->
<g id="edge6" class="edge">
<title>4&#45;&gt;6</title>
<path fill="none" stroke="black" d="M154.32,-103.73C159.76,-94.97 165.51,-85.7 170.98,-76.91"/>
<polygon fill="black" stroke="black" points="174.02,-78.64 176.32,-68.3 168.07,-74.95 174.02,-78.64"/>
</g>
<!-- 11 -->
<g id="node12" class="node">
<title>11</title>
<path fill="#ea9a61" stroke="black" d="M775.5,-425C775.5,-425 608.5,-425 608.5,-425 602.5,-425 596.5,-419 596.5,-413 596.5,-413 596.5,-354 596.5,-354 596.5,-348 602.5,-342 608.5,-342 608.5,-342 775.5,-342 775.5,-342 781.5,-342 787.5,-348 787.5,-354 787.5,-354 787.5,-413 787.5,-413 787.5,-419 781.5,-425 775.5,-425"/>
<text text-anchor="middle" x="692" y="-409.8" font-family="Helvetica,sans-Serif" font-size="14.00">compactness3 &lt;= 0.328</text>
<text text-anchor="middle" x="692" y="-394.8" font-family="Helvetica,sans-Serif" font-size="14.00">entropy = 0.65</text>
<text text-anchor="middle" x="692" y="-379.8" font-family="Helvetica,sans-Serif" font-size="14.00">samples = 6</text>
<text text-anchor="middle" x="692" y="-364.8" font-family="Helvetica,sans-Serif" font-size="14.00">value = [5, 1]</text>
<text text-anchor="middle" x="692" y="-349.8" font-family="Helvetica,sans-Serif" font-size="14.00">class = B</text>
</g>
<!-- 10&#45;&gt;11 -->
<g id="edge11" class="edge">
<title>10&#45;&gt;11</title>
<path fill="none" stroke="black" d="M696.57,-460.91C696.07,-452.56 695.54,-443.67 695.02,-435.02"/>
<polygon fill="black" stroke="black" points="698.52,-434.79 694.42,-425.02 691.53,-435.21 698.52,-434.79"/>
</g>
<!-- 14 -->
<g id="node15" class="node">
<title>14</title>
<path fill="#3ea0e6" stroke="black" d="M1000,-425C1000,-425 818,-425 818,-425 812,-425 806,-419 806,-413 806,-413 806,-354 806,-354 806,-348 812,-342 818,-342 818,-342 1000,-342 1000,-342 1006,-342 1012,-348 1012,-354 1012,-354 1012,-413 1012,-413 1012,-419 1006,-425 1000,-425"/>
<text text-anchor="middle" x="909" y="-409.8" font-family="Helvetica,sans-Serif" font-size="14.00">concave_points3 &lt;= 0.092</text>
<text text-anchor="middle" x="909" y="-394.8" font-family="Helvetica,sans-Serif" font-size="14.00">entropy = 0.177</text>
<text text-anchor="middle" x="909" y="-379.8" font-family="Helvetica,sans-Serif" font-size="14.00">samples = 75</text>
<text text-anchor="middle" x="909" y="-364.8" font-family="Helvetica,sans-Serif" font-size="14.00">value = [2, 73]</text>
<text text-anchor="middle" x="909" y="-349.8" font-family="Helvetica,sans-Serif" font-size="14.00">class = M</text>
</g>
<!-- 10&#45;&gt;14 -->
<g id="edge14" class="edge">
<title>10&#45;&gt;14</title>
<path fill="none" stroke="black" d="M771.86,-460.91C789.78,-450.92 809.08,-440.17 827.38,-429.98"/>
<polygon fill="black" stroke="black" points="829.24,-432.95 836.27,-425.02 825.83,-426.83 829.24,-432.95"/>
</g>
<!-- 12 -->
<g id="node13" class="node">
<title>12</title>
<path fill="#e58139" stroke="black" d="M622.5,-298.5C622.5,-298.5 533.5,-298.5 533.5,-298.5 527.5,-298.5 521.5,-292.5 521.5,-286.5 521.5,-286.5 521.5,-242.5 521.5,-242.5 521.5,-236.5 527.5,-230.5 533.5,-230.5 533.5,-230.5 622.5,-230.5 622.5,-230.5 628.5,-230.5 634.5,-236.5 634.5,-242.5 634.5,-242.5 634.5,-286.5 634.5,-286.5 634.5,-292.5 628.5,-298.5 622.5,-298.5"/>
<text text-anchor="middle" x="578" y="-283.3" font-family="Helvetica,sans-Serif" font-size="14.00">entropy = 0.0</text>
<text text-anchor="middle" x="578" y="-268.3" font-family="Helvetica,sans-Serif" font-size="14.00">samples = 5</text>
<text text-anchor="middle" x="578" y="-253.3" font-family="Helvetica,sans-Serif" font-size="14.00">value = [5, 0]</text>
<text text-anchor="middle" x="578" y="-238.3" font-family="Helvetica,sans-Serif" font-size="14.00">class = B</text>
</g>
<!-- 11&#45;&gt;12 -->
<g id="edge12" class="edge">
<title>11&#45;&gt;12</title>
<path fill="none" stroke="black" d="M652.45,-341.91C641.16,-330.32 628.86,-317.7 617.57,-306.11"/>
<polygon fill="black" stroke="black" points="619.8,-303.39 610.32,-298.67 614.79,-308.27 619.8,-303.39"/>
</g>
<!-- 13 -->
<g id="node14" class="node">
<title>13</title>
<path fill="#399de5" stroke="black" d="M753.5,-298.5C753.5,-298.5 664.5,-298.5 664.5,-298.5 658.5,-298.5 652.5,-292.5 652.5,-286.5 652.5,-286.5 652.5,-242.5 652.5,-242.5 652.5,-236.5 658.5,-230.5 664.5,-230.5 664.5,-230.5 753.5,-230.5 753.5,-230.5 759.5,-230.5 765.5,-236.5 765.5,-242.5 765.5,-242.5 765.5,-286.5 765.5,-286.5 765.5,-292.5 759.5,-298.5 753.5,-298.5"/>
<text text-anchor="middle" x="709" y="-283.3" font-family="Helvetica,sans-Serif" font-size="14.00">entropy = 0.0</text>
<text text-anchor="middle" x="709" y="-268.3" font-family="Helvetica,sans-Serif" font-size="14.00">samples = 1</text>
<text text-anchor="middle" x="709" y="-253.3" font-family="Helvetica,sans-Serif" font-size="14.00">value = [0, 1]</text>
<text text-anchor="middle" x="709" y="-238.3" font-family="Helvetica,sans-Serif" font-size="14.00">class = M</text>
</g>
<!-- 11&#45;&gt;13 -->
<g id="edge13" class="edge">
<title>11&#45;&gt;13</title>
<path fill="none" stroke="black" d="M697.9,-341.91C699.45,-331.2 701.14,-319.62 702.71,-308.78"/>
<polygon fill="black" stroke="black" points="706.21,-309.07 704.18,-298.67 699.28,-308.06 706.21,-309.07"/>
</g>
<!-- 15 -->
<g id="node16" class="node">
<title>15</title>
<path fill="#f2c09c" stroke="black" d="M957,-306C957,-306 829,-306 829,-306 823,-306 817,-300 817,-294 817,-294 817,-235 817,-235 817,-229 823,-223 829,-223 829,-223 957,-223 957,-223 963,-223 969,-229 969,-235 969,-235 969,-294 969,-294 969,-300 963,-306 957,-306"/>
<text text-anchor="middle" x="893" y="-290.8" font-family="Helvetica,sans-Serif" font-size="14.00">radius1 &lt;= 15.815</text>
<text text-anchor="middle" x="893" y="-275.8" font-family="Helvetica,sans-Serif" font-size="14.00">entropy = 0.918</text>
<text text-anchor="middle" x="893" y="-260.8" font-family="Helvetica,sans-Serif" font-size="14.00">samples = 3</text>
<text text-anchor="middle" x="893" y="-245.8" font-family="Helvetica,sans-Serif" font-size="14.00">value = [2, 1]</text>
<text text-anchor="middle" x="893" y="-230.8" font-family="Helvetica,sans-Serif" font-size="14.00">class = B</text>
</g>
<!-- 14&#45;&gt;15 -->
<g id="edge15" class="edge">
<title>14&#45;&gt;15</title>
<path fill="none" stroke="black" d="M903.45,-341.91C902.31,-333.56 901.09,-324.67 899.91,-316.02"/>
<polygon fill="black" stroke="black" points="903.36,-315.45 898.54,-306.02 896.43,-316.4 903.36,-315.45"/>
</g>
<!-- 18 -->
<g id="node19" class="node">
<title>18</title>
<path fill="#399de5" stroke="black" d="M1097,-298.5C1097,-298.5 999,-298.5 999,-298.5 993,-298.5 987,-292.5 987,-286.5 987,-286.5 987,-242.5 987,-242.5 987,-236.5 993,-230.5 999,-230.5 999,-230.5 1097,-230.5 1097,-230.5 1103,-230.5 1109,-236.5 1109,-242.5 1109,-242.5 1109,-286.5 1109,-286.5 1109,-292.5 1103,-298.5 1097,-298.5"/>
<text text-anchor="middle" x="1048" y="-283.3" font-family="Helvetica,sans-Serif" font-size="14.00">entropy = 0.0</text>
<text text-anchor="middle" x="1048" y="-268.3" font-family="Helvetica,sans-Serif" font-size="14.00">samples = 72</text>
<text text-anchor="middle" x="1048" y="-253.3" font-family="Helvetica,sans-Serif" font-size="14.00">value = [0, 72]</text>
<text text-anchor="middle" x="1048" y="-238.3" font-family="Helvetica,sans-Serif" font-size="14.00">class = M</text>
</g>
<!-- 14&#45;&gt;18 -->
<g id="edge18" class="edge">
<title>14&#45;&gt;18</title>
<path fill="none" stroke="black" d="M957.23,-341.91C971.38,-329.99 986.85,-316.98 1000.93,-305.12"/>
<polygon fill="black" stroke="black" points="1003.2,-307.78 1008.6,-298.67 998.69,-302.43 1003.2,-307.78"/>
</g>
<!-- 16 -->
<g id="node17" class="node">
<title>16</title>
<path fill="#399de5" stroke="black" d="M871.5,-179.5C871.5,-179.5 782.5,-179.5 782.5,-179.5 776.5,-179.5 770.5,-173.5 770.5,-167.5 770.5,-167.5 770.5,-123.5 770.5,-123.5 770.5,-117.5 776.5,-111.5 782.5,-111.5 782.5,-111.5 871.5,-111.5 871.5,-111.5 877.5,-111.5 883.5,-117.5 883.5,-123.5 883.5,-123.5 883.5,-167.5 883.5,-167.5 883.5,-173.5 877.5,-179.5 871.5,-179.5"/>
<text text-anchor="middle" x="827" y="-164.3" font-family="Helvetica,sans-Serif" font-size="14.00">entropy = 0.0</text>
<text text-anchor="middle" x="827" y="-149.3" font-family="Helvetica,sans-Serif" font-size="14.00">samples = 1</text>
<text text-anchor="middle" x="827" y="-134.3" font-family="Helvetica,sans-Serif" font-size="14.00">value = [0, 1]</text>
<text text-anchor="middle" x="827" y="-119.3" font-family="Helvetica,sans-Serif" font-size="14.00">class = M</text>
</g>
<!-- 15&#45;&gt;16 -->
<g id="edge16" class="edge">
<title>15&#45;&gt;16</title>
<path fill="none" stroke="black" d="M870.1,-222.91C863.81,-211.76 856.99,-199.66 850.66,-188.44"/>
<polygon fill="black" stroke="black" points="853.67,-186.66 845.71,-179.67 847.57,-190.1 853.67,-186.66"/>
</g>
<!-- 17 -->
<g id="node18" class="node">
<title>17</title>
<path fill="#e58139" stroke="black" d="M1002.5,-179.5C1002.5,-179.5 913.5,-179.5 913.5,-179.5 907.5,-179.5 901.5,-173.5 901.5,-167.5 901.5,-167.5 901.5,-123.5 901.5,-123.5 901.5,-117.5 907.5,-111.5 913.5,-111.5 913.5,-111.5 1002.5,-111.5 1002.5,-111.5 1008.5,-111.5 1014.5,-117.5 1014.5,-123.5 1014.5,-123.5 1014.5,-167.5 1014.5,-167.5 1014.5,-173.5 1008.5,-179.5 1002.5,-179.5"/>
<text text-anchor="middle" x="958" y="-164.3" font-family="Helvetica,sans-Serif" font-size="14.00">entropy = 0.0</text>
<text text-anchor="middle" x="958" y="-149.3" font-family="Helvetica,sans-Serif" font-size="14.00">samples = 2</text>
<text text-anchor="middle" x="958" y="-134.3" font-family="Helvetica,sans-Serif" font-size="14.00">value = [2, 0]</text>
<text text-anchor="middle" x="958" y="-119.3" font-family="Helvetica,sans-Serif" font-size="14.00">class = B</text>
</g>
<!-- 15&#45;&gt;17 -->
<g id="edge17" class="edge">
<title>15&#45;&gt;17</title>
<path fill="none" stroke="black" d="M915.55,-222.91C921.74,-211.76 928.47,-199.66 934.7,-188.44"/>
<polygon fill="black" stroke="black" points="937.78,-190.11 939.57,-179.67 931.66,-186.71 937.78,-190.11"/>
</g>
</g>
</svg>
