<?xml version="1.0" encoding="UTF-8" standalone="no"?>
<!DOCTYPE svg PUBLIC "-//W3C//DTD SVG 1.1//EN"
 "http://www.w3.org/Graphics/SVG/1.1/DTD/svg11.dtd">
<!-- Generated by graphviz version 2.43.0 (0)
 -->
<!-- Title: Tree Pages: 1 -->
<svg width="1342pt" height="1028pt"
 viewBox="0.00 0.00 1342.00 1028.00" xmlns="http://www.w3.org/2000/svg" xmlns:xlink="http://www.w3.org/1999/xlink">
<g id="graph0" class="graph" transform="scale(1 1) rotate(0) translate(4 1024)">
<title>Tree</title>
<polygon fill="white" stroke="transparent" points="-4,4 -4,-1024 1338,-1024 1338,4 -4,4"/>
<!-- 0 -->
<g id="node1" class="node">
<title>0</title>
<path fill="#f4ccaf" stroke="black" d="M1075.5,-1020C1075.5,-1020 923.5,-1020 923.5,-1020 917.5,-1020 911.5,-1014 911.5,-1008 911.5,-1008 911.5,-949 911.5,-949 911.5,-943 917.5,-937 923.5,-937 923.5,-937 1075.5,-937 1075.5,-937 1081.5,-937 1087.5,-943 1087.5,-949 1087.5,-949 1087.5,-1008 1087.5,-1008 1087.5,-1014 1081.5,-1020 1075.5,-1020"/>
<text text-anchor="middle" x="999.5" y="-1004.8" font-family="Helvetica,sans-Serif" font-size="14.00">perimeter3 &lt;= 117.45</text>
<text text-anchor="middle" x="999.5" y="-989.8" font-family="Helvetica,sans-Serif" font-size="14.00">entropy = 0.953</text>
<text text-anchor="middle" x="999.5" y="-974.8" font-family="Helvetica,sans-Serif" font-size="14.00">samples = 341</text>
<text text-anchor="middle" x="999.5" y="-959.8" font-family="Helvetica,sans-Serif" font-size="14.00">value = [214, 127]</text>
<text text-anchor="middle" x="999.5" y="-944.8" font-family="Helvetica,sans-Serif" font-size="14.00">class = B</text>
</g>
<!-- 1 -->
<g id="node2" class="node">
<title>1</title>
<path fill="#e88f4f" stroke="black" d="M941.5,-901C941.5,-901 759.5,-901 759.5,-901 753.5,-901 747.5,-895 747.5,-889 747.5,-889 747.5,-830 747.5,-830 747.5,-824 753.5,-818 759.5,-818 759.5,-818 941.5,-818 941.5,-818 947.5,-818 953.5,-824 953.5,-830 953.5,-830 953.5,-889 953.5,-889 953.5,-895 947.5,-901 941.5,-901"/>
<text text-anchor="middle" x="850.5" y="-885.8" font-family="Helvetica,sans-Serif" font-size="14.00">concave_points3 &lt;= 0.149</text>
<text text-anchor="middle" x="850.5" y="-870.8" font-family="Helvetica,sans-Serif" font-size="14.00">entropy = 0.474</text>
<text text-anchor="middle" x="850.5" y="-855.8" font-family="Helvetica,sans-Serif" font-size="14.00">samples = 236</text>
<text text-anchor="middle" x="850.5" y="-840.8" font-family="Helvetica,sans-Serif" font-size="14.00">value = [212, 24]</text>
<text text-anchor="middle" x="850.5" y="-825.8" font-family="Helvetica,sans-Serif" font-size="14.00">class = B</text>
</g>
<!-- 0&#45;&gt;1 -->
<g id="edge1" class="edge">
<title>0&#45;&gt;1</title>
<path fill="none" stroke="black" d="M947.81,-936.91C935.67,-927.38 922.64,-917.15 910.19,-907.37"/>
<polygon fill="black" stroke="black" points="912.13,-904.44 902.1,-901.02 907.81,-909.95 912.13,-904.44"/>
<text text-anchor="middle" x="905.09" y="-922.14" font-family="Helvetica,sans-Serif" font-size="14.00">True</text>
</g>
<!-- 24 -->
<g id="node25" class="node">
<title>24</title>
<path fill="#3d9fe6" stroke="black" d="M1173,-901C1173,-901 1032,-901 1032,-901 1026,-901 1020,-895 1020,-889 1020,-889 1020,-830 1020,-830 1020,-824 1026,-818 1032,-818 1032,-818 1173,-818 1173,-818 1179,-818 1185,-824 1185,-830 1185,-830 1185,-889 1185,-889 1185,-895 1179,-901 1173,-901"/>
<text text-anchor="middle" x="1102.5" y="-885.8" font-family="Helvetica,sans-Serif" font-size="14.00">smoothness3 &lt;= 0.1</text>
<text text-anchor="middle" x="1102.5" y="-870.8" font-family="Helvetica,sans-Serif" font-size="14.00">entropy = 0.136</text>
<text text-anchor="middle" x="1102.5" y="-855.8" font-family="Helvetica,sans-Serif" font-size="14.00">samples = 105</text>
<text text-anchor="middle" x="1102.5" y="-840.8" font-family="Helvetica,sans-Serif" font-size="14.00">value = [2, 103]</text>
<text text-anchor="middle" x="1102.5" y="-825.8" font-family="Helvetica,sans-Serif" font-size="14.00">class = M</text>
</g>
<!-- 0&#45;&gt;24 -->
<g id="edge24" class="edge">
<title>0&#45;&gt;24</title>
<path fill="none" stroke="black" d="M1035.24,-936.91C1043.22,-927.83 1051.77,-918.12 1060.01,-908.77"/>
<polygon fill="black" stroke="black" points="1062.85,-910.84 1066.83,-901.02 1057.59,-906.21 1062.85,-910.84"/>
<text text-anchor="middle" x="1068.42" y="-922.27" font-family="Helvetica,sans-Serif" font-size="14.00">False</text>
</g>
<!-- 2 -->
<g id="node3" class="node">
<title>2</title>
<path fill="#e68742" stroke="black" d="M596.5,-782C596.5,-782 480.5,-782 480.5,-782 474.5,-782 468.5,-776 468.5,-770 468.5,-770 468.5,-711 468.5,-711 468.5,-705 474.5,-699 480.5,-699 480.5,-699 596.5,-699 596.5,-699 602.5,-699 608.5,-705 608.5,-711 608.5,-711 608.5,-770 608.5,-770 608.5,-776 602.5,-782 596.5,-782"/>
<text text-anchor="middle" x="538.5" y="-766.8" font-family="Helvetica,sans-Serif" font-size="14.00">area2 &lt;= 36.465</text>
<text text-anchor="middle" x="538.5" y="-751.8" font-family="Helvetica,sans-Serif" font-size="14.00">entropy = 0.268</text>
<text text-anchor="middle" x="538.5" y="-736.8" font-family="Helvetica,sans-Serif" font-size="14.00">samples = 219</text>
<text text-anchor="middle" x="538.5" y="-721.8" font-family="Helvetica,sans-Serif" font-size="14.00">value = [209, 10]</text>
<text text-anchor="middle" x="538.5" y="-706.8" font-family="Helvetica,sans-Serif" font-size="14.00">class = B</text>
</g>
<!-- 1&#45;&gt;2 -->
<g id="edge2" class="edge">
<title>1&#45;&gt;2</title>
<path fill="none" stroke="black" d="M747.47,-819.87C705.59,-804.16 657.91,-786.28 618.69,-771.57"/>
<polygon fill="black" stroke="black" points="619.5,-768.14 608.91,-767.9 617.04,-774.69 619.5,-768.14"/>
</g>
<!-- 19 -->
<g id="node20" class="node">
<title>19</title>
<path fill="#63b2eb" stroke="black" d="M917.5,-782C917.5,-782 783.5,-782 783.5,-782 777.5,-782 771.5,-776 771.5,-770 771.5,-770 771.5,-711 771.5,-711 771.5,-705 777.5,-699 783.5,-699 783.5,-699 917.5,-699 917.5,-699 923.5,-699 929.5,-705 929.5,-711 929.5,-711 929.5,-770 929.5,-770 929.5,-776 923.5,-782 917.5,-782"/>
<text text-anchor="middle" x="850.5" y="-766.8" font-family="Helvetica,sans-Serif" font-size="14.00">texture3 &lt;= 24.785</text>
<text text-anchor="middle" x="850.5" y="-751.8" font-family="Helvetica,sans-Serif" font-size="14.00">entropy = 0.672</text>
<text text-anchor="middle" x="850.5" y="-736.8" font-family="Helvetica,sans-Serif" font-size="14.00">samples = 17</text>
<text text-anchor="middle" x="850.5" y="-721.8" font-family="Helvetica,sans-Serif" font-size="14.00">value = [3, 14]</text>
<text text-anchor="middle" x="850.5" y="-706.8" font-family="Helvetica,sans-Serif" font-size="14.00">class = M</text>
</g>
<!-- 1&#45;&gt;19 -->
<g id="edge19" class="edge">
<title>1&#45;&gt;19</title>
<path fill="none" stroke="black" d="M850.5,-817.91C850.5,-809.65 850.5,-800.86 850.5,-792.3"/>
<polygon fill="black" stroke="black" points="854,-792.02 850.5,-782.02 847,-792.02 854,-792.02"/>
</g>
<!-- 3 -->
<g id="node4" class="node">
<title>3</title>
<path fill="#e6843e" stroke="black" d="M321.5,-663C321.5,-663 187.5,-663 187.5,-663 181.5,-663 175.5,-657 175.5,-651 175.5,-651 175.5,-592 175.5,-592 175.5,-586 181.5,-580 187.5,-580 187.5,-580 321.5,-580 321.5,-580 327.5,-580 333.5,-586 333.5,-592 333.5,-592 333.5,-651 333.5,-651 333.5,-657 327.5,-663 321.5,-663"/>
<text text-anchor="middle" x="254.5" y="-647.8" font-family="Helvetica,sans-Serif" font-size="14.00">texture3 &lt;= 29.985</text>
<text text-anchor="middle" x="254.5" y="-632.8" font-family="Helvetica,sans-Serif" font-size="14.00">entropy = 0.165</text>
<text text-anchor="middle" x="254.5" y="-617.8" font-family="Helvetica,sans-Serif" font-size="14.00">samples = 206</text>
<text text-anchor="middle" x="254.5" y="-602.8" font-family="Helvetica,sans-Serif" font-size="14.00">value = [201, 5]</text>
<text text-anchor="middle" x="254.5" y="-587.8" font-family="Helvetica,sans-Serif" font-size="14.00">class = B</text>
</g>
<!-- 2&#45;&gt;3 -->
<g id="edge3" class="edge">
<title>2&#45;&gt;3</title>
<path fill="none" stroke="black" d="M468.3,-710.58C430.43,-694.98 383.32,-675.57 342.96,-658.94"/>
<polygon fill="black" stroke="black" points="344.24,-655.69 333.66,-655.11 341.57,-662.16 344.24,-655.69"/>
</g>
<!-- 14 -->
<g id="node15" class="node">
<title>14</title>
<path fill="#f5d0b5" stroke="black" d="M637.5,-663C637.5,-663 439.5,-663 439.5,-663 433.5,-663 427.5,-657 427.5,-651 427.5,-651 427.5,-592 427.5,-592 427.5,-586 433.5,-580 439.5,-580 439.5,-580 637.5,-580 637.5,-580 643.5,-580 649.5,-586 649.5,-592 649.5,-592 649.5,-651 649.5,-651 649.5,-657 643.5,-663 637.5,-663"/>
<text text-anchor="middle" x="538.5" y="-647.8" font-family="Helvetica,sans-Serif" font-size="14.00">fractal_dimension2 &lt;= 0.003</text>
<text text-anchor="middle" x="538.5" y="-632.8" font-family="Helvetica,sans-Serif" font-size="14.00">entropy = 0.961</text>
<text text-anchor="middle" x="538.5" y="-617.8" font-family="Helvetica,sans-Serif" font-size="14.00">samples = 13</text>
<text text-anchor="middle" x="538.5" y="-602.8" font-family="Helvetica,sans-Serif" font-size="14.00">value = [8, 5]</text>
<text text-anchor="middle" x="538.5" y="-587.8" font-family="Helvetica,sans-Serif" font-size="14.00">class = B</text>
</g>
<!-- 2&#45;&gt;14 -->
<g id="edge14" class="edge">
<title>2&#45;&gt;14</title>
<path fill="none" stroke="black" d="M538.5,-698.91C538.5,-690.65 538.5,-681.86 538.5,-673.3"/>
<polygon fill="black" stroke="black" points="542,-673.02 538.5,-663.02 535,-673.02 542,-673.02"/>
</g>
<!-- 4 -->
<g id="node5" class="node">
<title>4</title>
<path fill="#e58139" stroke="black" d="M121,-536.5C121,-536.5 14,-536.5 14,-536.5 8,-536.5 2,-530.5 2,-524.5 2,-524.5 2,-480.5 2,-480.5 2,-474.5 8,-468.5 14,-468.5 14,-468.5 121,-468.5 121,-468.5 127,-468.5 133,-474.5 133,-480.5 133,-480.5 133,-524.5 133,-524.5 133,-530.5 127,-536.5 121,-536.5"/>
<text text-anchor="middle" x="67.5" y="-521.3" font-family="Helvetica,sans-Serif" font-size="14.00">entropy = 0.0</text>
<text text-anchor="middle" x="67.5" y="-506.3" font-family="Helvetica,sans-Serif" font-size="14.00">samples = 169</text>
<text text-anchor="middle" x="67.5" y="-491.3" font-family="Helvetica,sans-Serif" font-size="14.00">value = [169, 0]</text>
<text text-anchor="middle" x="67.5" y="-476.3" font-family="Helvetica,sans-Serif" font-size="14.00">class = B</text>
</g>
<!-- 3&#45;&gt;4 -->
<g id="edge4" class="edge">
<title>3&#45;&gt;4</title>
<path fill="none" stroke="black" d="M189.62,-579.91C170.04,-567.66 148.62,-554.25 129.25,-542.13"/>
<polygon fill="black" stroke="black" points="130.84,-539 120.51,-536.67 127.13,-544.94 130.84,-539"/>
</g>
<!-- 5 -->
<g id="node6" class="node">
<title>5</title>
<path fill="#e99558" stroke="black" d="M345.5,-544C345.5,-544 163.5,-544 163.5,-544 157.5,-544 151.5,-538 151.5,-532 151.5,-532 151.5,-473 151.5,-473 151.5,-467 157.5,-461 163.5,-461 163.5,-461 345.5,-461 345.5,-461 351.5,-461 357.5,-467 357.5,-473 357.5,-473 357.5,-532 357.5,-532 357.5,-538 351.5,-544 345.5,-544"/>
<text text-anchor="middle" x="254.5" y="-528.8" font-family="Helvetica,sans-Serif" font-size="14.00">concave_points3 &lt;= 0.132</text>
<text text-anchor="middle" x="254.5" y="-513.8" font-family="Helvetica,sans-Serif" font-size="14.00">entropy = 0.571</text>
<text text-anchor="middle" x="254.5" y="-498.8" font-family="Helvetica,sans-Serif" font-size="14.00">samples = 37</text>
<text text-anchor="middle" x="254.5" y="-483.8" font-family="Helvetica,sans-Serif" font-size="14.00">value = [32, 5]</text>
<text text-anchor="middle" x="254.5" y="-468.8" font-family="Helvetica,sans-Serif" font-size="14.00">class = B</text>
</g>
<!-- 3&#45;&gt;5 -->
<g id="edge5" class="edge">
<title>3&#45;&gt;5</title>
<path fill="none" stroke="black" d="M254.5,-579.91C254.5,-571.65 254.5,-562.86 254.5,-554.3"/>
<polygon fill="black" stroke="black" points="258,-554.02 254.5,-544.02 251,-554.02 258,-554.02"/>
</g>
<!-- 6 -->
<g id="node7" class="node">
<title>6</title>
<path fill="#e78945" stroke="black" d="M193.5,-425C193.5,-425 77.5,-425 77.5,-425 71.5,-425 65.5,-419 65.5,-413 65.5,-413 65.5,-354 65.5,-354 65.5,-348 71.5,-342 77.5,-342 77.5,-342 193.5,-342 193.5,-342 199.5,-342 205.5,-348 205.5,-354 205.5,-354 205.5,-413 205.5,-413 205.5,-419 199.5,-425 193.5,-425"/>
<text text-anchor="middle" x="135.5" y="-409.8" font-family="Helvetica,sans-Serif" font-size="14.00">texture2 &lt;= 0.86</text>
<text text-anchor="middle" x="135.5" y="-394.8" font-family="Helvetica,sans-Serif" font-size="14.00">entropy = 0.323</text>
<text text-anchor="middle" x="135.5" y="-379.8" font-family="Helvetica,sans-Serif" font-size="14.00">samples = 34</text>
<text text-anchor="middle" x="135.5" y="-364.8" font-family="Helvetica,sans-Serif" font-size="14.00">value = [32, 2]</text>
<text text-anchor="middle" x="135.5" y="-349.8" font-family="Helvetica,sans-Serif" font-size="14.00">class = B</text>
</g>
<!-- 5&#45;&gt;6 -->
<g id="edge6" class="edge">
<title>5&#45;&gt;6</title>
<path fill="none" stroke="black" d="M213.21,-460.91C203.8,-451.65 193.71,-441.73 184.02,-432.21"/>
<polygon fill="black" stroke="black" points="186.3,-429.54 176.71,-425.02 181.39,-434.53 186.3,-429.54"/>
</g>
<!-- 13 -->
<g id="node14" class="node">
<title>13</title>
<path fill="#399de5" stroke="black" d="M325,-417.5C325,-417.5 236,-417.5 236,-417.5 230,-417.5 224,-411.5 224,-405.5 224,-405.5 224,-361.5 224,-361.5 224,-355.5 230,-349.5 236,-349.5 236,-349.5 325,-349.5 325,-349.5 331,-349.5 337,-355.5 337,-361.5 337,-361.5 337,-405.5 337,-405.5 337,-411.5 331,-417.5 325,-417.5"/>
<text text-anchor="middle" x="280.5" y="-402.3" font-family="Helvetica,sans-Serif" font-size="14.00">entropy = 0.0</text>
<text text-anchor="middle" x="280.5" y="-387.3" font-family="Helvetica,sans-Serif" font-size="14.00">samples = 3</text>
<text text-anchor="middle" x="280.5" y="-372.3" font-family="Helvetica,sans-Serif" font-size="14.00">value = [0, 3]</text>
<text text-anchor="middle" x="280.5" y="-357.3" font-family="Helvetica,sans-Serif" font-size="14.00">class = M</text>
</g>
<!-- 5&#45;&gt;13 -->
<g id="edge13" class="edge">
<title>5&#45;&gt;13</title>
<path fill="none" stroke="black" d="M263.52,-460.91C265.92,-450.09 268.53,-438.38 270.96,-427.44"/>
<polygon fill="black" stroke="black" points="274.38,-428.19 273.13,-417.67 267.54,-426.67 274.38,-428.19"/>
</g>
<!-- 7 -->
<g id="node8" class="node">
<title>7</title>
<path fill="#399de5" stroke="black" d="M101,-298.5C101,-298.5 12,-298.5 12,-298.5 6,-298.5 0,-292.5 0,-286.5 0,-286.5 0,-242.5 0,-242.5 0,-236.5 6,-230.5 12,-230.5 12,-230.5 101,-230.5 101,-230.5 107,-230.5 113,-236.5 113,-242.5 113,-242.5 113,-286.5 113,-286.5 113,-292.5 107,-298.5 101,-298.5"/>
<text text-anchor="middle" x="56.5" y="-283.3" font-family="Helvetica,sans-Serif" font-size="14.00">entropy = 0.0</text>
<text text-anchor="middle" x="56.5" y="-268.3" font-family="Helvetica,sans-Serif" font-size="14.00">samples = 1</text>
<text text-anchor="middle" x="56.5" y="-253.3" font-family="Helvetica,sans-Serif" font-size="14.00">value = [0, 1]</text>
<text text-anchor="middle" x="56.5" y="-238.3" font-family="Helvetica,sans-Serif" font-size="14.00">class = M</text>
</g>
<!-- 6&#45;&gt;7 -->
<g id="edge7" class="edge">
<title>6&#45;&gt;7</title>
<path fill="none" stroke="black" d="M108.09,-341.91C100.49,-330.65 92.23,-318.42 84.59,-307.11"/>
<polygon fill="black" stroke="black" points="87.39,-305 78.89,-298.67 81.59,-308.91 87.39,-305"/>
</g>
<!-- 8 -->
<g id="node9" class="node">
<title>8</title>
<path fill="#e6853f" stroke="black" d="M286,-306C286,-306 143,-306 143,-306 137,-306 131,-300 131,-294 131,-294 131,-235 131,-235 131,-229 137,-223 143,-223 143,-223 286,-223 286,-223 292,-223 298,-229 298,-235 298,-235 298,-294 298,-294 298,-300 292,-306 286,-306"/>
<text text-anchor="middle" x="214.5" y="-290.8" font-family="Helvetica,sans-Serif" font-size="14.00">perimeter2 &lt;= 1.467</text>
<text text-anchor="middle" x="214.5" y="-275.8" font-family="Helvetica,sans-Serif" font-size="14.00">entropy = 0.196</text>
<text text-anchor="middle" x="214.5" y="-260.8" font-family="Helvetica,sans-Serif" font-size="14.00">samples = 33</text>
<text text-anchor="middle" x="214.5" y="-245.8" font-family="Helvetica,sans-Serif" font-size="14.00">value = [32, 1]</text>
<text text-anchor="middle" x="214.5" y="-230.8" font-family="Helvetica,sans-Serif" font-size="14.00">class = B</text>
</g>
<!-- 6&#45;&gt;8 -->
<g id="edge8" class="edge">
<title>6&#45;&gt;8</title>
<path fill="none" stroke="black" d="M162.91,-341.91C168.91,-333.01 175.33,-323.51 181.53,-314.33"/>
<polygon fill="black" stroke="black" points="184.44,-316.27 187.14,-306.02 178.64,-312.35 184.44,-316.27"/>
</g>
<!-- 9 -->
<g id="node10" class="node">
<title>9</title>
<path fill="#e9965a" stroke="black" d="M204,-187C204,-187 61,-187 61,-187 55,-187 49,-181 49,-175 49,-175 49,-116 49,-116 49,-110 55,-104 61,-104 61,-104 204,-104 204,-104 210,-104 216,-110 216,-116 216,-116 216,-175 216,-175 216,-181 210,-187 204,-187"/>
<text text-anchor="middle" x="132.5" y="-171.8" font-family="Helvetica,sans-Serif" font-size="14.00">perimeter2 &lt;= 1.451</text>
<text text-anchor="middle" x="132.5" y="-156.8" font-family="Helvetica,sans-Serif" font-size="14.00">entropy = 0.592</text>
<text text-anchor="middle" x="132.5" y="-141.8" font-family="Helvetica,sans-Serif" font-size="14.00">samples = 7</text>
<text text-anchor="middle" x="132.5" y="-126.8" font-family="Helvetica,sans-Serif" font-size="14.00">value = [6, 1]</text>
<text text-anchor="middle" x="132.5" y="-111.8" font-family="Helvetica,sans-Serif" font-size="14.00">class = B</text>
</g>
<!-- 8&#45;&gt;9 -->
<g id="edge9" class="edge">
<title>8&#45;&gt;9</title>
<path fill="none" stroke="black" d="M186.05,-222.91C179.82,-214.01 173.16,-204.51 166.72,-195.33"/>
<polygon fill="black" stroke="black" points="169.5,-193.2 160.9,-187.02 163.77,-197.22 169.5,-193.2"/>
</g>
<!-- 12 -->
<g id="node13" class="node">
<title>12</title>
<path fill="#e58139" stroke="black" d="M344.5,-179.5C344.5,-179.5 246.5,-179.5 246.5,-179.5 240.5,-179.5 234.5,-173.5 234.5,-167.5 234.5,-167.5 234.5,-123.5 234.5,-123.5 234.5,-117.5 240.5,-111.5 246.5,-111.5 246.5,-111.5 344.5,-111.5 344.5,-111.5 350.5,-111.5 356.5,-117.5 356.5,-123.5 356.5,-123.5 356.5,-167.5 356.5,-167.5 356.5,-173.5 350.5,-179.5 344.5,-179.5"/>
<text text-anchor="middle" x="295.5" y="-164.3" font-family="Helvetica,sans-Serif" font-size="14.00">entropy = 0.0</text>
<text text-anchor="middle" x="295.5" y="-149.3" font-family="Helvetica,sans-Serif" font-size="14.00">samples = 26</text>
<text text-anchor="middle" x="295.5" y="-134.3" font-family="Helvetica,sans-Serif" font-size="14.00">value = [26, 0]</text>
<text text-anchor="middle" x="295.5" y="-119.3" font-family="Helvetica,sans-Serif" font-size="14.00">class = B</text>
</g>
<!-- 8&#45;&gt;12 -->
<g id="edge12" class="edge">
<title>8&#45;&gt;12</title>
<path fill="none" stroke="black" d="M242.6,-222.91C250.39,-211.65 258.86,-199.42 266.7,-188.11"/>
<polygon fill="black" stroke="black" points="269.72,-189.88 272.54,-179.67 263.97,-185.9 269.72,-189.88"/>
</g>
<!-- 10 -->
<g id="node11" class="node">
<title>10</title>
<path fill="#e58139" stroke="black" d="M112,-68C112,-68 23,-68 23,-68 17,-68 11,-62 11,-56 11,-56 11,-12 11,-12 11,-6 17,0 23,0 23,0 112,0 112,0 118,0 124,-6 124,-12 124,-12 124,-56 124,-56 124,-62 118,-68 112,-68"/>
<text text-anchor="middle" x="67.5" y="-52.8" font-family="Helvetica,sans-Serif" font-size="14.00">entropy = 0.0</text>
<text text-anchor="middle" x="67.5" y="-37.8" font-family="Helvetica,sans-Serif" font-size="14.00">samples = 6</text>
<text text-anchor="middle" x="67.5" y="-22.8" font-family="Helvetica,sans-Serif" font-size="14.00">value = [6, 0]</text>
<text text-anchor="middle" x="67.5" y="-7.8" font-family="Helvetica,sans-Serif" font-size="14.00">class = B</text>
</g>
<!-- 9&#45;&gt;10 -->
<g id="edge10" class="edge">
<title>9&#45;&gt;10</title>
<path fill="none" stroke="black" d="M108.3,-103.73C103.1,-94.97 97.6,-85.7 92.38,-76.91"/>
<polygon fill="black" stroke="black" points="95.38,-75.11 87.27,-68.3 89.36,-78.69 95.38,-75.11"/>
</g>
<!-- 11 -->
<g id="node12" class="node">
<title>11</title>
<path fill="#399de5" stroke="black" d="M243,-68C243,-68 154,-68 154,-68 148,-68 142,-62 142,-56 142,-56 142,-12 142,-12 142,-6 148,0 154,0 154,0 243,0 243,0 249,0 255,-6 255,-12 255,-12 255,-56 255,-56 255,-62 249,-68 243,-68"/>
<text text-anchor="middle" x="198.5" y="-52.8" font-family="Helvetica,sans-Serif" font-size="14.00">entropy = 0.0</text>
<text text-anchor="middle" x="198.5" y="-37.8" font-family="Helvetica,sans-Serif" font-size="14.00">samples = 1</text>
<text text-anchor="middle" x="198.5" y="-22.8" font-family="Helvetica,sans-Serif" font-size="14.00">value = [0, 1]</text>
<text text-anchor="middle" x="198.5" y="-7.8" font-family="Helvetica,sans-Serif" font-size="14.00">class = M</text>
</g>
<!-- 9&#45;&gt;11 -->
<g id="edge11" class="edge">
<title>9&#45;&gt;11</title>
<path fill="none" stroke="black" d="M157.08,-103.73C162.35,-94.97 167.94,-85.7 173.24,-76.91"/>
<polygon fill="black" stroke="black" points="176.26,-78.67 178.43,-68.3 170.27,-75.06 176.26,-78.67"/>
</g>
<!-- 15 -->
<g id="node16" class="node">
<title>15</title>
<path fill="#61b1ea" stroke="black" d="M585.5,-544C585.5,-544 387.5,-544 387.5,-544 381.5,-544 375.5,-538 375.5,-532 375.5,-532 375.5,-473 375.5,-473 375.5,-467 381.5,-461 387.5,-461 387.5,-461 585.5,-461 585.5,-461 591.5,-461 597.5,-467 597.5,-473 597.5,-473 597.5,-532 597.5,-532 597.5,-538 591.5,-544 585.5,-544"/>
<text text-anchor="middle" x="486.5" y="-528.8" font-family="Helvetica,sans-Serif" font-size="14.00">fractal_dimension2 &lt;= 0.002</text>
<text text-anchor="middle" x="486.5" y="-513.8" font-family="Helvetica,sans-Serif" font-size="14.00">entropy = 0.65</text>
<text text-anchor="middle" x="486.5" y="-498.8" font-family="Helvetica,sans-Serif" font-size="14.00">samples = 6</text>
<text text-anchor="middle" x="486.5" y="-483.8" font-family="Helvetica,sans-Serif" font-size="14.00">value = [1, 5]</text>
<text text-anchor="middle" x="486.5" y="-468.8" font-family="Helvetica,sans-Serif" font-size="14.00">class = M</text>
</g>
<!-- 14&#45;&gt;15 -->
<g id="edge15" class="edge">
<title>14&#45;&gt;15</title>
<path fill="none" stroke="black" d="M520.46,-579.91C516.63,-571.29 512.54,-562.09 508.58,-553.17"/>
<polygon fill="black" stroke="black" points="511.77,-551.74 504.51,-544.02 505.37,-554.58 511.77,-551.74"/>
</g>
<!-- 18 -->
<g id="node19" class="node">
<title>18</title>
<path fill="#e58139" stroke="black" d="M717,-536.5C717,-536.5 628,-536.5 628,-536.5 622,-536.5 616,-530.5 616,-524.5 616,-524.5 616,-480.5 616,-480.5 616,-474.5 622,-468.5 628,-468.5 628,-468.5 717,-468.5 717,-468.5 723,-468.5 729,-474.5 729,-480.5 729,-480.5 729,-524.5 729,-524.5 729,-530.5 723,-536.5 717,-536.5"/>
<text text-anchor="middle" x="672.5" y="-521.3" font-family="Helvetica,sans-Serif" font-size="14.00">entropy = 0.0</text>
<text text-anchor="middle" x="672.5" y="-506.3" font-family="Helvetica,sans-Serif" font-size="14.00">samples = 7</text>
<text text-anchor="middle" x="672.5" y="-491.3" font-family="Helvetica,sans-Serif" font-size="14.00">value = [7, 0]</text>
<text text-anchor="middle" x="672.5" y="-476.3" font-family="Helvetica,sans-Serif" font-size="14.00">class = B</text>
</g>
<!-- 14&#45;&gt;18 -->
<g id="edge18" class="edge">
<title>14&#45;&gt;18</title>
<path fill="none" stroke="black" d="M584.99,-579.91C598.51,-568.1 613.27,-555.22 626.75,-543.45"/>
<polygon fill="black" stroke="black" points="629.28,-545.88 634.51,-536.67 624.68,-540.61 629.28,-545.88"/>
</g>
<!-- 16 -->
<g id="node17" class="node">
<title>16</title>
<path fill="#e58139" stroke="black" d="M506,-417.5C506,-417.5 417,-417.5 417,-417.5 411,-417.5 405,-411.5 405,-405.5 405,-405.5 405,-361.5 405,-361.5 405,-355.5 411,-349.5 417,-349.5 417,-349.5 506,-349.5 506,-349.5 512,-349.5 518,-355.5 518,-361.5 518,-361.5 518,-405.5 518,-405.5 518,-411.5 512,-417.5 506,-417.5"/>
<text text-anchor="middle" x="461.5" y="-402.3" font-family="Helvetica,sans-Serif" font-size="14.00">entropy = 0.0</text>
<text text-anchor="middle" x="461.5" y="-387.3" font-family="Helvetica,sans-Serif" font-size="14.00">samples = 1</text>
<text text-anchor="middle" x="461.5" y="-372.3" font-family="Helvetica,sans-Serif" font-size="14.00">value = [1, 0]</text>
<text text-anchor="middle" x="461.5" y="-357.3" font-family="Helvetica,sans-Serif" font-size="14.00">class = B</text>
</g>
<!-- 15&#45;&gt;16 -->
<g id="edge16" class="edge">
<title>15&#45;&gt;16</title>
<path fill="none" stroke="black" d="M477.83,-460.91C475.54,-450.2 473.06,-438.62 470.75,-427.78"/>
<polygon fill="black" stroke="black" points="474.1,-426.71 468.59,-417.67 467.25,-428.18 474.1,-426.71"/>
</g>
<!-- 17 -->
<g id="node18" class="node">
<title>17</title>
<path fill="#399de5" stroke="black" d="M637,-417.5C637,-417.5 548,-417.5 548,-417.5 542,-417.5 536,-411.5 536,-405.5 536,-405.5 536,-361.5 536,-361.5 536,-355.5 542,-349.5 548,-349.5 548,-349.5 637,-349.5 637,-349.5 643,-349.5 649,-355.5 649,-361.5 649,-361.5 649,-405.5 649,-405.5 649,-411.5 643,-417.5 637,-417.5"/>
<text text-anchor="middle" x="592.5" y="-402.3" font-family="Helvetica,sans-Serif" font-size="14.00">entropy = 0.0</text>
<text text-anchor="middle" x="592.5" y="-387.3" font-family="Helvetica,sans-Serif" font-size="14.00">samples = 5</text>
<text text-anchor="middle" x="592.5" y="-372.3" font-family="Helvetica,sans-Serif" font-size="14.00">value = [0, 5]</text>
<text text-anchor="middle" x="592.5" y="-357.3" font-family="Helvetica,sans-Serif" font-size="14.00">class = M</text>
</g>
<!-- 15&#45;&gt;17 -->
<g id="edge17" class="edge">
<title>15&#45;&gt;17</title>
<path fill="none" stroke="black" d="M523.28,-460.91C533.77,-449.32 545.21,-436.7 555.71,-425.11"/>
<polygon fill="black" stroke="black" points="558.33,-427.43 562.45,-417.67 553.14,-422.73 558.33,-427.43"/>
</g>
<!-- 20 -->
<g id="node21" class="node">
<title>20</title>
<path fill="#eeab7b" stroke="black" d="M875,-663C875,-663 732,-663 732,-663 726,-663 720,-657 720,-651 720,-651 720,-592 720,-592 720,-586 726,-580 732,-580 732,-580 875,-580 875,-580 881,-580 887,-586 887,-592 887,-592 887,-651 887,-651 887,-657 881,-663 875,-663"/>
<text text-anchor="middle" x="803.5" y="-647.8" font-family="Helvetica,sans-Serif" font-size="14.00">perimeter1 &lt;= 86.85</text>
<text text-anchor="middle" x="803.5" y="-632.8" font-family="Helvetica,sans-Serif" font-size="14.00">entropy = 0.811</text>
<text text-anchor="middle" x="803.5" y="-617.8" font-family="Helvetica,sans-Serif" font-size="14.00">samples = 4</text>
<text text-anchor="middle" x="803.5" y="-602.8" font-family="Helvetica,sans-Serif" font-size="14.00">value = [3, 1]</text>
<text text-anchor="middle" x="803.5" y="-587.8" font-family="Helvetica,sans-Serif" font-size="14.00">class = B</text>
</g>
<!-- 19&#45;&gt;20 -->
<g id="edge20" class="edge">
<title>19&#45;&gt;20</title>
<path fill="none" stroke="black" d="M834.19,-698.91C830.77,-690.38 827.11,-681.28 823.57,-672.46"/>
<polygon fill="black" stroke="black" points="826.75,-671 819.78,-663.02 820.26,-673.6 826.75,-671"/>
</g>
<!-- 23 -->
<g id="node24" class="node">
<title>23</title>
<path fill="#399de5" stroke="black" d="M1015.5,-655.5C1015.5,-655.5 917.5,-655.5 917.5,-655.5 911.5,-655.5 905.5,-649.5 905.5,-643.5 905.5,-643.5 905.5,-599.5 905.5,-599.5 905.5,-593.5 911.5,-587.5 917.5,-587.5 917.5,-587.5 1015.5,-587.5 1015.5,-587.5 1021.5,-587.5 1027.5,-593.5 1027.5,-599.5 1027.5,-599.5 1027.5,-643.5 1027.5,-643.5 1027.5,-649.5 1021.5,-655.5 1015.5,-655.5"/>
<text text-anchor="middle" x="966.5" y="-640.3" font-family="Helvetica,sans-Serif" font-size="14.00">entropy = 0.0</text>
<text text-anchor="middle" x="966.5" y="-625.3" font-family="Helvetica,sans-Serif" font-size="14.00">samples = 13</text>
<text text-anchor="middle" x="966.5" y="-610.3" font-family="Helvetica,sans-Serif" font-size="14.00">value = [0, 13]</text>
<text text-anchor="middle" x="966.5" y="-595.3" font-family="Helvetica,sans-Serif" font-size="14.00">class = M</text>
</g>
<!-- 19&#45;&gt;23 -->
<g id="edge23" class="edge">
<title>19&#45;&gt;23</title>
<path fill="none" stroke="black" d="M890.75,-698.91C902.34,-687.21 914.99,-674.46 926.56,-662.78"/>
<polygon fill="black" stroke="black" points="929.06,-665.23 933.62,-655.67 924.09,-660.3 929.06,-665.23"/>
</g>
<!-- 21 -->
<g id="node22" class="node">
<title>21</title>
<path fill="#e58139" stroke="black" d="M848,-536.5C848,-536.5 759,-536.5 759,-536.5 753,-536.5 747,-530.5 747,-524.5 747,-524.5 747,-480.5 747,-480.5 747,-474.5 753,-468.5 759,-468.5 759,-468.5 848,-468.5 848,-468.5 854,-468.5 860,-474.5 860,-480.5 860,-480.5 860,-524.5 860,-524.5 860,-530.5 854,-536.5 848,-536.5"/>
<text text-anchor="middle" x="803.5" y="-521.3" font-family="Helvetica,sans-Serif" font-size="14.00">entropy = 0.0</text>
<text text-anchor="middle" x="803.5" y="-506.3" font-family="Helvetica,sans-Serif" font-size="14.00">samples = 3</text>
<text text-anchor="middle" x="803.5" y="-491.3" font-family="Helvetica,sans-Serif" font-size="14.00">value = [3, 0]</text>
<text text-anchor="middle" x="803.5" y="-476.3" font-family="Helvetica,sans-Serif" font-size="14.00">class = B</text>
</g>
<!-- 20&#45;&gt;21 -->
<g id="edge21" class="edge">
<title>20&#45;&gt;21</title>
<path fill="none" stroke="black" d="M803.5,-579.91C803.5,-569.2 803.5,-557.62 803.5,-546.78"/>
<polygon fill="black" stroke="black" points="807,-546.67 803.5,-536.67 800,-546.67 807,-546.67"/>
</g>
<!-- 22 -->
<g id="node23" class="node">
<title>22</title>
<path fill="#399de5" stroke="black" d="M979,-536.5C979,-536.5 890,-536.5 890,-536.5 884,-536.5 878,-530.5 878,-524.5 878,-524.5 878,-480.5 878,-480.5 878,-474.5 884,-468.5 890,-468.5 890,-468.5 979,-468.5 979,-468.5 985,-468.5 991,-474.5 991,-480.5 991,-480.5 991,-524.5 991,-524.5 991,-530.5 985,-536.5 979,-536.5"/>
<text text-anchor="middle" x="934.5" y="-521.3" font-family="Helvetica,sans-Serif" font-size="14.00">entropy = 0.0</text>
<text text-anchor="middle" x="934.5" y="-506.3" font-family="Helvetica,sans-Serif" font-size="14.00">samples = 1</text>
<text text-anchor="middle" x="934.5" y="-491.3" font-family="Helvetica,sans-Serif" font-size="14.00">value = [0, 1]</text>
<text text-anchor="middle" x="934.5" y="-476.3" font-family="Helvetica,sans-Serif" font-size="14.00">class = M</text>
</g>
<!-- 20&#45;&gt;22 -->
<g id="edge22" class="edge">
<title>20&#45;&gt;22</title>
<path fill="none" stroke="black" d="M848.95,-579.91C862.17,-568.1 876.6,-555.22 889.77,-543.45"/>
<polygon fill="black" stroke="black" points="892.24,-545.94 897.36,-536.67 887.57,-540.72 892.24,-545.94"/>
</g>
<!-- 25 -->
<g id="node26" class="node">
<title>25</title>
<path fill="#f2c09c" stroke="black" d="M1173,-782C1173,-782 1032,-782 1032,-782 1026,-782 1020,-776 1020,-770 1020,-770 1020,-711 1020,-711 1020,-705 1026,-699 1032,-699 1032,-699 1173,-699 1173,-699 1179,-699 1185,-705 1185,-711 1185,-711 1185,-770 1185,-770 1185,-776 1179,-782 1173,-782"/>
<text text-anchor="middle" x="1102.5" y="-766.8" font-family="Helvetica,sans-Serif" font-size="14.00">concavity1 &lt;= 0.081</text>
<text text-anchor="middle" x="1102.5" y="-751.8" font-family="Helvetica,sans-Serif" font-size="14.00">entropy = 0.918</text>
<text text-anchor="middle" x="1102.5" y="-736.8" font-family="Helvetica,sans-Serif" font-size="14.00">samples = 3</text>
<text text-anchor="middle" x="1102.5" y="-721.8" font-family="Helvetica,sans-Serif" font-size="14.00">value = [2, 1]</text>
<text text-anchor="middle" x="1102.5" y="-706.8" font-family="Helvetica,sans-Serif" font-size="14.00">class = B</text>
</g>
<!-- 24&#45;&gt;25 -->
<g id="edge25" class="edge">
<title>24&#45;&gt;25</title>
<path fill="none" stroke="black" d="M1102.5,-817.91C1102.5,-809.65 1102.5,-800.86 1102.5,-792.3"/>
<polygon fill="black" stroke="black" points="1106,-792.02 1102.5,-782.02 1099,-792.02 1106,-792.02"/>
</g>
<!-- 28 -->
<g id="node29" class="node">
<title>28</title>
<path fill="#399de5" stroke="black" d="M1322,-774.5C1322,-774.5 1215,-774.5 1215,-774.5 1209,-774.5 1203,-768.5 1203,-762.5 1203,-762.5 1203,-718.5 1203,-718.5 1203,-712.5 1209,-706.5 1215,-706.5 1215,-706.5 1322,-706.5 1322,-706.5 1328,-706.5 1334,-712.5 1334,-718.5 1334,-718.5 1334,-762.5 1334,-762.5 1334,-768.5 1328,-774.5 1322,-774.5"/>
<text text-anchor="middle" x="1268.5" y="-759.3" font-family="Helvetica,sans-Serif" font-size="14.00">entropy = 0.0</text>
<text text-anchor="middle" x="1268.5" y="-744.3" font-family="Helvetica,sans-Serif" font-size="14.00">samples = 102</text>
<text text-anchor="middle" x="1268.5" y="-729.3" font-family="Helvetica,sans-Serif" font-size="14.00">value = [0, 102]</text>
<text text-anchor="middle" x="1268.5" y="-714.3" font-family="Helvetica,sans-Serif" font-size="14.00">class = M</text>
</g>
<!-- 24&#45;&gt;28 -->
<g id="edge28" class="edge">
<title>24&#45;&gt;28</title>
<path fill="none" stroke="black" d="M1160.09,-817.91C1177.31,-805.77 1196.15,-792.49 1213.22,-780.46"/>
<polygon fill="black" stroke="black" points="1215.29,-783.29 1221.44,-774.67 1211.25,-777.57 1215.29,-783.29"/>
</g>
<!-- 26 -->
<g id="node27" class="node">
<title>26</title>
<path fill="#e58139" stroke="black" d="M1147,-655.5C1147,-655.5 1058,-655.5 1058,-655.5 1052,-655.5 1046,-649.5 1046,-643.5 1046,-643.5 1046,-599.5 1046,-599.5 1046,-593.5 1052,-587.5 1058,-587.5 1058,-587.5 1147,-587.5 1147,-587.5 1153,-587.5 1159,-593.5 1159,-599.5 1159,-599.5 1159,-643.5 1159,-643.5 1159,-649.5 1153,-655.5 1147,-655.5"/>
<text text-anchor="middle" x="1102.5" y="-640.3" font-family="Helvetica,sans-Serif" font-size="14.00">entropy = 0.0</text>
<text text-anchor="middle" x="1102.5" y="-625.3" font-family="Helvetica,sans-Serif" font-size="14.00">samples = 2</text>
<text text-anchor="middle" x="1102.5" y="-610.3" font-family="Helvetica,sans-Serif" font-size="14.00">value = [2, 0]</text>
<text text-anchor="middle" x="1102.5" y="-595.3" font-family="Helvetica,sans-Serif" font-size="14.00">class = B</text>
</g>
<!-- 25&#45;&gt;26 -->
<g id="edge26" class="edge">
<title>25&#45;&gt;26</title>
<path fill="none" stroke="black" d="M1102.5,-698.91C1102.5,-688.2 1102.5,-676.62 1102.5,-665.78"/>
<polygon fill="black" stroke="black" points="1106,-665.67 1102.5,-655.67 1099,-665.67 1106,-665.67"/>
</g>
<!-- 27 -->
<g id="node28" class="node">
<title>27</title>
<path fill="#399de5" stroke="black" d="M1278,-655.5C1278,-655.5 1189,-655.5 1189,-655.5 1183,-655.5 1177,-649.5 1177,-643.5 1177,-643.5 1177,-599.5 1177,-599.5 1177,-593.5 1183,-587.5 1189,-587.5 1189,-587.5 1278,-587.5 1278,-587.5 1284,-587.5 1290,-593.5 1290,-599.5 1290,-599.5 1290,-643.5 1290,-643.5 1290,-649.5 1284,-655.5 1278,-655.5"/>
<text text-anchor="middle" x="1233.5" y="-640.3" font-family="Helvetica,sans-Serif" font-size="14.00">entropy = 0.0</text>
<text text-anchor="middle" x="1233.5" y="-625.3" font-family="Helvetica,sans-Serif" font-size="14.00">samples = 1</text>
<text text-anchor="middle" x="1233.5" y="-610.3" font-family="Helvetica,sans-Serif" font-size="14.00">value = [0, 1]</text>
<text text-anchor="middle" x="1233.5" y="-595.3" font-family="Helvetica,sans-Serif" font-size="14.00">class = M</text>
</g>
<!-- 25&#45;&gt;27 -->
<g id="edge27" class="edge">
<title>25&#45;&gt;27</title>
<path fill="none" stroke="black" d="M1147.95,-698.91C1161.17,-687.1 1175.6,-674.22 1188.77,-662.45"/>
<polygon fill="black" stroke="black" points="1191.24,-664.94 1196.36,-655.67 1186.57,-659.72 1191.24,-664.94"/>
</g>
</g>
</svg>
