<?xml version="1.0" encoding="UTF-8" standalone="no"?>
<!DOCTYPE svg PUBLIC "-//W3C//DTD SVG 1.1//EN"
 "http://www.w3.org/Graphics/SVG/1.1/DTD/svg11.dtd">
<!-- Generated by graphviz version 2.43.0 (0)
 -->
<!-- Title: Tree Pages: 1 -->
<svg width="593pt" height="314pt"
 viewBox="0.00 0.00 592.50 314.00" xmlns="http://www.w3.org/2000/svg" xmlns:xlink="http://www.w3.org/1999/xlink">
<g id="graph0" class="graph" transform="scale(1 1) rotate(0) translate(4 310)">
<title>Tree</title>
<polygon fill="white" stroke="transparent" points="-4,4 -4,-310 588.5,-310 588.5,4 -4,4"/>
<!-- 0 -->
<g id="node1" class="node">
<title>0</title>
<path fill="#f5ccaf" stroke="black" d="M364.5,-306C364.5,-306 233.5,-306 233.5,-306 227.5,-306 221.5,-300 221.5,-294 221.5,-294 221.5,-235 221.5,-235 221.5,-229 227.5,-223 233.5,-223 233.5,-223 364.5,-223 364.5,-223 370.5,-223 376.5,-229 376.5,-235 376.5,-235 376.5,-294 376.5,-294 376.5,-300 370.5,-306 364.5,-306"/>
<text text-anchor="start" x="229.5" y="-290.8" font-family="Helvetica,sans-Serif" font-size="14.00">perimeter3 ≤ 112.8</text>
<text text-anchor="start" x="255" y="-275.8" font-family="Helvetica,sans-Serif" font-size="14.00">gini = 0.468</text>
<text text-anchor="start" x="246" y="-260.8" font-family="Helvetica,sans-Serif" font-size="14.00">samples = 455</text>
<text text-anchor="start" x="232.5" y="-245.8" font-family="Helvetica,sans-Serif" font-size="14.00">value = [285, 170]</text>
<text text-anchor="start" x="266" y="-230.8" font-family="Helvetica,sans-Serif" font-size="14.00">class = B</text>
</g>
<!-- 1 -->
<g id="node2" class="node">
<title>1</title>
<path fill="#e78b49" stroke="black" d="M287.5,-187C287.5,-187 126.5,-187 126.5,-187 120.5,-187 114.5,-181 114.5,-175 114.5,-175 114.5,-116 114.5,-116 114.5,-110 120.5,-104 126.5,-104 126.5,-104 287.5,-104 287.5,-104 293.5,-104 299.5,-110 299.5,-116 299.5,-116 299.5,-175 299.5,-175 299.5,-181 293.5,-187 287.5,-187"/>
<text text-anchor="start" x="122.5" y="-171.8" font-family="Helvetica,sans-Serif" font-size="14.00">concave_points3 ≤ 0.16</text>
<text text-anchor="start" x="163" y="-156.8" font-family="Helvetica,sans-Serif" font-size="14.00">gini = 0.137</text>
<text text-anchor="start" x="154" y="-141.8" font-family="Helvetica,sans-Serif" font-size="14.00">samples = 297</text>
<text text-anchor="start" x="145" y="-126.8" font-family="Helvetica,sans-Serif" font-size="14.00">value = [275, 22]</text>
<text text-anchor="start" x="174" y="-111.8" font-family="Helvetica,sans-Serif" font-size="14.00">class = B</text>
</g>
<!-- 0&#45;&gt;1 -->
<g id="edge1" class="edge">
<title>0&#45;&gt;1</title>
<path fill="none" stroke="black" d="M267.08,-222.91C260.02,-213.92 252.46,-204.32 245.18,-195.05"/>
<polygon fill="black" stroke="black" points="247.8,-192.72 238.86,-187.02 242.29,-197.05 247.8,-192.72"/>
<text text-anchor="middle" x="235.89" y="-208.14" font-family="Helvetica,sans-Serif" font-size="14.00">True</text>
</g>
<!-- 4 -->
<g id="node5" class="node">
<title>4</title>
<path fill="#46a4e7" stroke="black" d="M452,-187C452,-187 330,-187 330,-187 324,-187 318,-181 318,-175 318,-175 318,-116 318,-116 318,-110 324,-104 330,-104 330,-104 452,-104 452,-104 458,-104 464,-110 464,-116 464,-116 464,-175 464,-175 464,-181 458,-187 452,-187"/>
<text text-anchor="start" x="326" y="-171.8" font-family="Helvetica,sans-Serif" font-size="14.00">texture1 ≤ 14.955</text>
<text text-anchor="start" x="347" y="-156.8" font-family="Helvetica,sans-Serif" font-size="14.00">gini = 0.119</text>
<text text-anchor="start" x="338" y="-141.8" font-family="Helvetica,sans-Serif" font-size="14.00">samples = 158</text>
<text text-anchor="start" x="329" y="-126.8" font-family="Helvetica,sans-Serif" font-size="14.00">value = [10, 148]</text>
<text text-anchor="start" x="357" y="-111.8" font-family="Helvetica,sans-Serif" font-size="14.00">class = M</text>
</g>
<!-- 0&#45;&gt;4 -->
<g id="edge4" class="edge">
<title>0&#45;&gt;4</title>
<path fill="none" stroke="black" d="M330.92,-222.91C337.98,-213.92 345.54,-204.32 352.82,-195.05"/>
<polygon fill="black" stroke="black" points="355.71,-197.05 359.14,-187.02 350.2,-192.72 355.71,-197.05"/>
<text text-anchor="middle" x="362.11" y="-208.14" font-family="Helvetica,sans-Serif" font-size="14.00">False</text>
</g>
<!-- 2 -->
<g id="node3" class="node">
<title>2</title>
<path fill="#e68742" stroke="black" d="M128,-68C128,-68 12,-68 12,-68 6,-68 0,-62 0,-56 0,-56 0,-12 0,-12 0,-6 6,0 12,0 12,0 128,0 128,0 134,0 140,-6 140,-12 140,-12 140,-56 140,-56 140,-62 134,-68 128,-68"/>
<text text-anchor="start" x="26" y="-52.8" font-family="Helvetica,sans-Serif" font-size="14.00">gini = 0.081</text>
<text text-anchor="start" x="17" y="-37.8" font-family="Helvetica,sans-Serif" font-size="14.00">samples = 285</text>
<text text-anchor="start" x="8" y="-22.8" font-family="Helvetica,sans-Serif" font-size="14.00">value = [273, 12]</text>
<text text-anchor="start" x="37" y="-7.8" font-family="Helvetica,sans-Serif" font-size="14.00">class = B</text>
</g>
<!-- 1&#45;&gt;2 -->
<g id="edge2" class="edge">
<title>1&#45;&gt;2</title>
<path fill="none" stroke="black" d="M155.99,-103.73C144.12,-94.24 131.5,-84.16 119.69,-74.72"/>
<polygon fill="black" stroke="black" points="121.66,-71.81 111.66,-68.3 117.29,-77.28 121.66,-71.81"/>
</g>
<!-- 3 -->
<g id="node4" class="node">
<title>3</title>
<path fill="#61b1ea" stroke="black" d="M268,-68C268,-68 170,-68 170,-68 164,-68 158,-62 158,-56 158,-56 158,-12 158,-12 158,-6 164,0 170,0 170,0 268,0 268,0 274,0 280,-6 280,-12 280,-12 280,-56 280,-56 280,-62 274,-68 268,-68"/>
<text text-anchor="start" x="175" y="-52.8" font-family="Helvetica,sans-Serif" font-size="14.00">gini = 0.278</text>
<text text-anchor="start" x="170.5" y="-37.8" font-family="Helvetica,sans-Serif" font-size="14.00">samples = 12</text>
<text text-anchor="start" x="166" y="-22.8" font-family="Helvetica,sans-Serif" font-size="14.00">value = [2, 10]</text>
<text text-anchor="start" x="185" y="-7.8" font-family="Helvetica,sans-Serif" font-size="14.00">class = M</text>
</g>
<!-- 1&#45;&gt;3 -->
<g id="edge3" class="edge">
<title>1&#45;&gt;3</title>
<path fill="none" stroke="black" d="M211.47,-103.73C212.38,-95.43 213.34,-86.67 214.26,-78.28"/>
<polygon fill="black" stroke="black" points="217.74,-78.62 215.35,-68.3 210.78,-77.86 217.74,-78.62"/>
</g>
<!-- 5 -->
<g id="node6" class="node">
<title>5</title>
<path fill="#efb388" stroke="black" d="M423.5,-68C423.5,-68 334.5,-68 334.5,-68 328.5,-68 322.5,-62 322.5,-56 322.5,-56 322.5,-12 322.5,-12 322.5,-6 328.5,0 334.5,0 334.5,0 423.5,0 423.5,0 429.5,0 435.5,-6 435.5,-12 435.5,-12 435.5,-56 435.5,-56 435.5,-62 429.5,-68 423.5,-68"/>
<text text-anchor="start" x="335" y="-52.8" font-family="Helvetica,sans-Serif" font-size="14.00">gini = 0.408</text>
<text text-anchor="start" x="335" y="-37.8" font-family="Helvetica,sans-Serif" font-size="14.00">samples = 7</text>
<text text-anchor="start" x="330.5" y="-22.8" font-family="Helvetica,sans-Serif" font-size="14.00">value = [5, 2]</text>
<text text-anchor="start" x="346" y="-7.8" font-family="Helvetica,sans-Serif" font-size="14.00">class = B</text>
</g>
<!-- 4&#45;&gt;5 -->
<g id="edge5" class="edge">
<title>4&#45;&gt;5</title>
<path fill="none" stroke="black" d="M386.53,-103.73C385.62,-95.43 384.66,-86.67 383.74,-78.28"/>
<polygon fill="black" stroke="black" points="387.22,-77.86 382.65,-68.3 380.26,-78.62 387.22,-77.86"/>
</g>
<!-- 6 -->
<g id="node7" class="node">
<title>6</title>
<path fill="#40a0e6" stroke="black" d="M572.5,-68C572.5,-68 465.5,-68 465.5,-68 459.5,-68 453.5,-62 453.5,-56 453.5,-56 453.5,-12 453.5,-12 453.5,-6 459.5,0 465.5,0 465.5,0 572.5,0 572.5,0 578.5,0 584.5,-6 584.5,-12 584.5,-12 584.5,-56 584.5,-56 584.5,-62 578.5,-68 572.5,-68"/>
<text text-anchor="start" x="475" y="-52.8" font-family="Helvetica,sans-Serif" font-size="14.00">gini = 0.064</text>
<text text-anchor="start" x="466" y="-37.8" font-family="Helvetica,sans-Serif" font-size="14.00">samples = 151</text>
<text text-anchor="start" x="461.5" y="-22.8" font-family="Helvetica,sans-Serif" font-size="14.00">value = [5, 146]</text>
<text text-anchor="start" x="485" y="-7.8" font-family="Helvetica,sans-Serif" font-size="14.00">class = M</text>
</g>
<!-- 4&#45;&gt;6 -->
<g id="edge6" class="edge">
<title>4&#45;&gt;6</title>
<path fill="none" stroke="black" d="M438.66,-103.73C449.64,-94.33 461.31,-84.35 472.26,-74.99"/>
<polygon fill="black" stroke="black" points="474.75,-77.46 480.07,-68.3 470.2,-72.14 474.75,-77.46"/>
</g>
</g>
</svg>
