<?xml version="1.0" encoding="UTF-8" standalone="no"?>
<!DOCTYPE svg PUBLIC "-//W3C//DTD SVG 1.1//EN"
 "http://www.w3.org/Graphics/SVG/1.1/DTD/svg11.dtd">
<!-- Generated by graphviz version 2.43.0 (0)
 -->
<!-- Title: Tree Pages: 1 -->
<svg width="1754pt" height="671pt"
 viewBox="0.00 0.00 1754.00 671.00" xmlns="http://www.w3.org/2000/svg" xmlns:xlink="http://www.w3.org/1999/xlink">
<g id="graph0" class="graph" transform="scale(1 1) rotate(0) translate(4 667)">
<title>Tree</title>
<polygon fill="white" stroke="transparent" points="-4,4 -4,-667 1750,-667 1750,4 -4,4"/>
<!-- 0 -->
<g id="node1" class="node">
<title>0</title>
<path fill="#f5ccaf" stroke="black" d="M991,-663C991,-663 860,-663 860,-663 854,-663 848,-657 848,-651 848,-651 848,-592 848,-592 848,-586 854,-580 860,-580 860,-580 991,-580 991,-580 997,-580 1003,-586 1003,-592 1003,-592 1003,-651 1003,-651 1003,-657 997,-663 991,-663"/>
<text text-anchor="start" x="856" y="-647.8" font-family="Helvetica,sans-Serif" font-size="14.00">perimeter3 ≤ 112.8</text>
<text text-anchor="start" x="881.5" y="-632.8" font-family="Helvetica,sans-Serif" font-size="14.00">gini = 0.468</text>
<text text-anchor="start" x="872.5" y="-617.8" font-family="Helvetica,sans-Serif" font-size="14.00">samples = 455</text>
<text text-anchor="start" x="859" y="-602.8" font-family="Helvetica,sans-Serif" font-size="14.00">value = [285, 170]</text>
<text text-anchor="start" x="892.5" y="-587.8" font-family="Helvetica,sans-Serif" font-size="14.00">class = B</text>
</g>
<!-- 1 -->
<g id="node2" class="node">
<title>1</title>
<path fill="#e78b49" stroke="black" d="M877,-544C877,-544 716,-544 716,-544 710,-544 704,-538 704,-532 704,-532 704,-473 704,-473 704,-467 710,-461 716,-461 716,-461 877,-461 877,-461 883,-461 889,-467 889,-473 889,-473 889,-532 889,-532 889,-538 883,-544 877,-544"/>
<text text-anchor="start" x="712" y="-528.8" font-family="Helvetica,sans-Serif" font-size="14.00">concave_points3 ≤ 0.16</text>
<text text-anchor="start" x="752.5" y="-513.8" font-family="Helvetica,sans-Serif" font-size="14.00">gini = 0.137</text>
<text text-anchor="start" x="743.5" y="-498.8" font-family="Helvetica,sans-Serif" font-size="14.00">samples = 297</text>
<text text-anchor="start" x="734.5" y="-483.8" font-family="Helvetica,sans-Serif" font-size="14.00">value = [275, 22]</text>
<text text-anchor="start" x="763.5" y="-468.8" font-family="Helvetica,sans-Serif" font-size="14.00">class = B</text>
</g>
<!-- 0&#45;&gt;1 -->
<g id="edge1" class="edge">
<title>0&#45;&gt;1</title>
<path fill="none" stroke="black" d="M880.74,-579.91C870.44,-570.56 859.39,-560.54 848.79,-550.93"/>
<polygon fill="black" stroke="black" points="850.94,-548.15 841.18,-544.02 846.23,-553.33 850.94,-548.15"/>
<text text-anchor="middle" x="842.39" y="-565.29" font-family="Helvetica,sans-Serif" font-size="14.00">True</text>
</g>
<!-- 18 -->
<g id="node19" class="node">
<title>18</title>
<path fill="#46a4e7" stroke="black" d="M1154.5,-544C1154.5,-544 1032.5,-544 1032.5,-544 1026.5,-544 1020.5,-538 1020.5,-532 1020.5,-532 1020.5,-473 1020.5,-473 1020.5,-467 1026.5,-461 1032.5,-461 1032.5,-461 1154.5,-461 1154.5,-461 1160.5,-461 1166.5,-467 1166.5,-473 1166.5,-473 1166.5,-532 1166.5,-532 1166.5,-538 1160.5,-544 1154.5,-544"/>
<text text-anchor="start" x="1028.5" y="-528.8" font-family="Helvetica,sans-Serif" font-size="14.00">texture1 ≤ 14.955</text>
<text text-anchor="start" x="1049.5" y="-513.8" font-family="Helvetica,sans-Serif" font-size="14.00">gini = 0.119</text>
<text text-anchor="start" x="1040.5" y="-498.8" font-family="Helvetica,sans-Serif" font-size="14.00">samples = 158</text>
<text text-anchor="start" x="1031.5" y="-483.8" font-family="Helvetica,sans-Serif" font-size="14.00">value = [10, 148]</text>
<text text-anchor="start" x="1059.5" y="-468.8" font-family="Helvetica,sans-Serif" font-size="14.00">class = M</text>
</g>
<!-- 0&#45;&gt;18 -->
<g id="edge18" class="edge">
<title>0&#45;&gt;18</title>
<path fill="none" stroke="black" d="M983.79,-579.91C997.73,-570.2 1012.72,-559.76 1027,-549.81"/>
<polygon fill="black" stroke="black" points="1029.11,-552.61 1035.32,-544.02 1025.11,-546.86 1029.11,-552.61"/>
<text text-anchor="middle" x="1030.91" y="-564.93" font-family="Helvetica,sans-Serif" font-size="14.00">False</text>
</g>
<!-- 2 -->
<g id="node3" class="node">
<title>2</title>
<path fill="#e68742" stroke="black" d="M656.5,-425C656.5,-425 540.5,-425 540.5,-425 534.5,-425 528.5,-419 528.5,-413 528.5,-413 528.5,-354 528.5,-354 528.5,-348 534.5,-342 540.5,-342 540.5,-342 656.5,-342 656.5,-342 662.5,-342 668.5,-348 668.5,-354 668.5,-354 668.5,-413 668.5,-413 668.5,-419 662.5,-425 656.5,-425"/>
<text text-anchor="start" x="543.5" y="-409.8" font-family="Helvetica,sans-Serif" font-size="14.00">area1 ≤ 696.25</text>
<text text-anchor="start" x="554.5" y="-394.8" font-family="Helvetica,sans-Serif" font-size="14.00">gini = 0.081</text>
<text text-anchor="start" x="545.5" y="-379.8" font-family="Helvetica,sans-Serif" font-size="14.00">samples = 285</text>
<text text-anchor="start" x="536.5" y="-364.8" font-family="Helvetica,sans-Serif" font-size="14.00">value = [273, 12]</text>
<text text-anchor="start" x="565.5" y="-349.8" font-family="Helvetica,sans-Serif" font-size="14.00">class = B</text>
</g>
<!-- 1&#45;&gt;2 -->
<g id="edge2" class="edge">
<title>1&#45;&gt;2</title>
<path fill="none" stroke="black" d="M727.8,-460.91C711.06,-451.02 693.05,-440.37 675.93,-430.25"/>
<polygon fill="black" stroke="black" points="677.46,-427.09 667.07,-425.02 673.9,-433.12 677.46,-427.09"/>
</g>
<!-- 13 -->
<g id="node14" class="node">
<title>13</title>
<path fill="#61b1ea" stroke="black" d="M857.5,-425C857.5,-425 735.5,-425 735.5,-425 729.5,-425 723.5,-419 723.5,-413 723.5,-413 723.5,-354 723.5,-354 723.5,-348 729.5,-342 735.5,-342 735.5,-342 857.5,-342 857.5,-342 863.5,-342 869.5,-348 869.5,-354 869.5,-354 869.5,-413 869.5,-413 869.5,-419 863.5,-425 857.5,-425"/>
<text text-anchor="start" x="731.5" y="-409.8" font-family="Helvetica,sans-Serif" font-size="14.00">texture3 ≤ 24.785</text>
<text text-anchor="start" x="752.5" y="-394.8" font-family="Helvetica,sans-Serif" font-size="14.00">gini = 0.278</text>
<text text-anchor="start" x="748" y="-379.8" font-family="Helvetica,sans-Serif" font-size="14.00">samples = 12</text>
<text text-anchor="start" x="743.5" y="-364.8" font-family="Helvetica,sans-Serif" font-size="14.00">value = [2, 10]</text>
<text text-anchor="start" x="762.5" y="-349.8" font-family="Helvetica,sans-Serif" font-size="14.00">class = M</text>
</g>
<!-- 1&#45;&gt;13 -->
<g id="edge13" class="edge">
<title>1&#45;&gt;13</title>
<path fill="none" stroke="black" d="M796.5,-460.91C796.5,-452.65 796.5,-443.86 796.5,-435.3"/>
<polygon fill="black" stroke="black" points="800,-435.02 796.5,-425.02 793,-435.02 800,-435.02"/>
</g>
<!-- 3 -->
<g id="node4" class="node">
<title>3</title>
<path fill="#e6853f" stroke="black" d="M441,-306C441,-306 294,-306 294,-306 288,-306 282,-300 282,-294 282,-294 282,-235 282,-235 282,-229 288,-223 294,-223 294,-223 441,-223 441,-223 447,-223 453,-229 453,-235 453,-235 453,-294 453,-294 453,-300 447,-306 441,-306"/>
<text text-anchor="start" x="290" y="-290.8" font-family="Helvetica,sans-Serif" font-size="14.00">smoothness3 ≤ 0.178</text>
<text text-anchor="start" x="323.5" y="-275.8" font-family="Helvetica,sans-Serif" font-size="14.00">gini = 0.056</text>
<text text-anchor="start" x="314.5" y="-260.8" font-family="Helvetica,sans-Serif" font-size="14.00">samples = 279</text>
<text text-anchor="start" x="310" y="-245.8" font-family="Helvetica,sans-Serif" font-size="14.00">value = [271, 8]</text>
<text text-anchor="start" x="334.5" y="-230.8" font-family="Helvetica,sans-Serif" font-size="14.00">class = B</text>
</g>
<!-- 2&#45;&gt;3 -->
<g id="edge3" class="edge">
<title>2&#45;&gt;3</title>
<path fill="none" stroke="black" d="M528.25,-346.92C505.65,-335.47 480.31,-322.64 456.54,-310.6"/>
<polygon fill="black" stroke="black" points="458.03,-307.43 447.52,-306.03 454.86,-313.67 458.03,-307.43"/>
</g>
<!-- 10 -->
<g id="node11" class="node">
<title>10</title>
<path fill="#9ccef2" stroke="black" d="M655,-306C655,-306 542,-306 542,-306 536,-306 530,-300 530,-294 530,-294 530,-235 530,-235 530,-229 536,-223 542,-223 542,-223 655,-223 655,-223 661,-223 667,-229 667,-235 667,-235 667,-294 667,-294 667,-300 661,-306 655,-306"/>
<text text-anchor="start" x="538" y="-290.8" font-family="Helvetica,sans-Serif" font-size="14.00">texture3 ≤ 21.48</text>
<text text-anchor="start" x="554.5" y="-275.8" font-family="Helvetica,sans-Serif" font-size="14.00">gini = 0.444</text>
<text text-anchor="start" x="554.5" y="-260.8" font-family="Helvetica,sans-Serif" font-size="14.00">samples = 6</text>
<text text-anchor="start" x="550" y="-245.8" font-family="Helvetica,sans-Serif" font-size="14.00">value = [2, 4]</text>
<text text-anchor="start" x="564.5" y="-230.8" font-family="Helvetica,sans-Serif" font-size="14.00">class = M</text>
</g>
<!-- 2&#45;&gt;10 -->
<g id="edge10" class="edge">
<title>2&#45;&gt;10</title>
<path fill="none" stroke="black" d="M598.5,-341.91C598.5,-333.65 598.5,-324.86 598.5,-316.3"/>
<polygon fill="black" stroke="black" points="602,-316.02 598.5,-306.02 595,-316.02 602,-316.02"/>
</g>
<!-- 4 -->
<g id="node5" class="node">
<title>4</title>
<path fill="#e5833d" stroke="black" d="M269,-187C269,-187 138,-187 138,-187 132,-187 126,-181 126,-175 126,-175 126,-116 126,-116 126,-110 132,-104 138,-104 138,-104 269,-104 269,-104 275,-104 281,-110 281,-116 281,-116 281,-175 281,-175 281,-181 275,-187 269,-187"/>
<text text-anchor="start" x="134" y="-171.8" font-family="Helvetica,sans-Serif" font-size="14.00">perimeter3 ≤ 102.4</text>
<text text-anchor="start" x="159.5" y="-156.8" font-family="Helvetica,sans-Serif" font-size="14.00">gini = 0.036</text>
<text text-anchor="start" x="150.5" y="-141.8" font-family="Helvetica,sans-Serif" font-size="14.00">samples = 274</text>
<text text-anchor="start" x="146" y="-126.8" font-family="Helvetica,sans-Serif" font-size="14.00">value = [269, 5]</text>
<text text-anchor="start" x="170.5" y="-111.8" font-family="Helvetica,sans-Serif" font-size="14.00">class = B</text>
</g>
<!-- 3&#45;&gt;4 -->
<g id="edge4" class="edge">
<title>3&#45;&gt;4</title>
<path fill="none" stroke="black" d="M310.6,-222.91C297.12,-213.29 282.63,-202.95 268.81,-193.09"/>
<polygon fill="black" stroke="black" points="270.47,-189.98 260.3,-187.02 266.41,-195.68 270.47,-189.98"/>
</g>
<!-- 7 -->
<g id="node8" class="node">
<title>7</title>
<path fill="#bddef6" stroke="black" d="M424,-187C424,-187 311,-187 311,-187 305,-187 299,-181 299,-175 299,-175 299,-116 299,-116 299,-110 305,-104 311,-104 311,-104 424,-104 424,-104 430,-104 436,-110 436,-116 436,-116 436,-175 436,-175 436,-181 430,-187 424,-187"/>
<text text-anchor="start" x="307" y="-171.8" font-family="Helvetica,sans-Serif" font-size="14.00">texture2 ≤ 1.279</text>
<text text-anchor="start" x="328" y="-156.8" font-family="Helvetica,sans-Serif" font-size="14.00">gini = 0.48</text>
<text text-anchor="start" x="323.5" y="-141.8" font-family="Helvetica,sans-Serif" font-size="14.00">samples = 5</text>
<text text-anchor="start" x="319" y="-126.8" font-family="Helvetica,sans-Serif" font-size="14.00">value = [2, 3]</text>
<text text-anchor="start" x="333.5" y="-111.8" font-family="Helvetica,sans-Serif" font-size="14.00">class = M</text>
</g>
<!-- 3&#45;&gt;7 -->
<g id="edge7" class="edge">
<title>3&#45;&gt;7</title>
<path fill="none" stroke="black" d="M367.5,-222.91C367.5,-214.65 367.5,-205.86 367.5,-197.3"/>
<polygon fill="black" stroke="black" points="371,-197.02 367.5,-187.02 364,-197.02 371,-197.02"/>
</g>
<!-- 5 -->
<g id="node6" class="node">
<title>5</title>
<path fill="#e5823b" stroke="black" d="M119,-68C119,-68 12,-68 12,-68 6,-68 0,-62 0,-56 0,-56 0,-12 0,-12 0,-6 6,0 12,0 12,0 119,0 119,0 125,0 131,-6 131,-12 131,-12 131,-56 131,-56 131,-62 125,-68 119,-68"/>
<text text-anchor="start" x="21.5" y="-52.8" font-family="Helvetica,sans-Serif" font-size="14.00">gini = 0.016</text>
<text text-anchor="start" x="12.5" y="-37.8" font-family="Helvetica,sans-Serif" font-size="14.00">samples = 247</text>
<text text-anchor="start" x="8" y="-22.8" font-family="Helvetica,sans-Serif" font-size="14.00">value = [245, 2]</text>
<text text-anchor="start" x="32.5" y="-7.8" font-family="Helvetica,sans-Serif" font-size="14.00">class = B</text>
</g>
<!-- 4&#45;&gt;5 -->
<g id="edge5" class="edge">
<title>4&#45;&gt;5</title>
<path fill="none" stroke="black" d="M152.11,-103.73C140.16,-94.24 127.45,-84.16 115.55,-74.72"/>
<polygon fill="black" stroke="black" points="117.48,-71.77 107.47,-68.3 113.12,-77.26 117.48,-71.77"/>
</g>
<!-- 6 -->
<g id="node7" class="node">
<title>6</title>
<path fill="#e89152" stroke="black" d="M259.5,-68C259.5,-68 161.5,-68 161.5,-68 155.5,-68 149.5,-62 149.5,-56 149.5,-56 149.5,-12 149.5,-12 149.5,-6 155.5,0 161.5,0 161.5,0 259.5,0 259.5,0 265.5,0 271.5,-6 271.5,-12 271.5,-12 271.5,-56 271.5,-56 271.5,-62 265.5,-68 259.5,-68"/>
<text text-anchor="start" x="166.5" y="-52.8" font-family="Helvetica,sans-Serif" font-size="14.00">gini = 0.198</text>
<text text-anchor="start" x="162" y="-37.8" font-family="Helvetica,sans-Serif" font-size="14.00">samples = 27</text>
<text text-anchor="start" x="157.5" y="-22.8" font-family="Helvetica,sans-Serif" font-size="14.00">value = [24, 3]</text>
<text text-anchor="start" x="177.5" y="-7.8" font-family="Helvetica,sans-Serif" font-size="14.00">class = B</text>
</g>
<!-- 4&#45;&gt;6 -->
<g id="edge6" class="edge">
<title>4&#45;&gt;6</title>
<path fill="none" stroke="black" d="M206.11,-103.73C206.64,-95.43 207.2,-86.67 207.73,-78.28"/>
<polygon fill="black" stroke="black" points="211.23,-78.5 208.37,-68.3 204.24,-78.06 211.23,-78.5"/>
</g>
<!-- 8 -->
<g id="node9" class="node">
<title>8</title>
<path fill="#e58139" stroke="black" d="M405,-68C405,-68 316,-68 316,-68 310,-68 304,-62 304,-56 304,-56 304,-12 304,-12 304,-6 310,0 316,0 316,0 405,0 405,0 411,0 417,-6 417,-12 417,-12 417,-56 417,-56 417,-62 411,-68 405,-68"/>
<text text-anchor="start" x="325.5" y="-52.8" font-family="Helvetica,sans-Serif" font-size="14.00">gini = 0.0</text>
<text text-anchor="start" x="316.5" y="-37.8" font-family="Helvetica,sans-Serif" font-size="14.00">samples = 2</text>
<text text-anchor="start" x="312" y="-22.8" font-family="Helvetica,sans-Serif" font-size="14.00">value = [2, 0]</text>
<text text-anchor="start" x="327.5" y="-7.8" font-family="Helvetica,sans-Serif" font-size="14.00">class = B</text>
</g>
<!-- 7&#45;&gt;8 -->
<g id="edge8" class="edge">
<title>7&#45;&gt;8</title>
<path fill="none" stroke="black" d="M364.89,-103.73C364.36,-95.43 363.8,-86.67 363.27,-78.28"/>
<polygon fill="black" stroke="black" points="366.76,-78.06 362.63,-68.3 359.77,-78.5 366.76,-78.06"/>
</g>
<!-- 9 -->
<g id="node10" class="node">
<title>9</title>
<path fill="#399de5" stroke="black" d="M536,-68C536,-68 447,-68 447,-68 441,-68 435,-62 435,-56 435,-56 435,-12 435,-12 435,-6 441,0 447,0 447,0 536,0 536,0 542,0 548,-6 548,-12 548,-12 548,-56 548,-56 548,-62 542,-68 536,-68"/>
<text text-anchor="start" x="456.5" y="-52.8" font-family="Helvetica,sans-Serif" font-size="14.00">gini = 0.0</text>
<text text-anchor="start" x="447.5" y="-37.8" font-family="Helvetica,sans-Serif" font-size="14.00">samples = 3</text>
<text text-anchor="start" x="443" y="-22.8" font-family="Helvetica,sans-Serif" font-size="14.00">value = [0, 3]</text>
<text text-anchor="start" x="457.5" y="-7.8" font-family="Helvetica,sans-Serif" font-size="14.00">class = M</text>
</g>
<!-- 7&#45;&gt;9 -->
<g id="edge9" class="edge">
<title>7&#45;&gt;9</title>
<path fill="none" stroke="black" d="M413.67,-103.73C424.31,-94.33 435.62,-84.35 446.22,-74.99"/>
<polygon fill="black" stroke="black" points="448.61,-77.54 453.79,-68.3 443.98,-72.3 448.61,-77.54"/>
</g>
<!-- 11 -->
<g id="node12" class="node">
<title>11</title>
<path fill="#e58139" stroke="black" d="M555,-179.5C555,-179.5 466,-179.5 466,-179.5 460,-179.5 454,-173.5 454,-167.5 454,-167.5 454,-123.5 454,-123.5 454,-117.5 460,-111.5 466,-111.5 466,-111.5 555,-111.5 555,-111.5 561,-111.5 567,-117.5 567,-123.5 567,-123.5 567,-167.5 567,-167.5 567,-173.5 561,-179.5 555,-179.5"/>
<text text-anchor="start" x="475.5" y="-164.3" font-family="Helvetica,sans-Serif" font-size="14.00">gini = 0.0</text>
<text text-anchor="start" x="466.5" y="-149.3" font-family="Helvetica,sans-Serif" font-size="14.00">samples = 2</text>
<text text-anchor="start" x="462" y="-134.3" font-family="Helvetica,sans-Serif" font-size="14.00">value = [2, 0]</text>
<text text-anchor="start" x="477.5" y="-119.3" font-family="Helvetica,sans-Serif" font-size="14.00">class = B</text>
</g>
<!-- 10&#45;&gt;11 -->
<g id="edge11" class="edge">
<title>10&#45;&gt;11</title>
<path fill="none" stroke="black" d="M567.97,-222.91C559.42,-211.54 550.12,-199.18 541.54,-187.77"/>
<polygon fill="black" stroke="black" points="544.25,-185.55 535.45,-179.67 538.66,-189.76 544.25,-185.55"/>
</g>
<!-- 12 -->
<g id="node13" class="node">
<title>12</title>
<path fill="#399de5" stroke="black" d="M686,-179.5C686,-179.5 597,-179.5 597,-179.5 591,-179.5 585,-173.5 585,-167.5 585,-167.5 585,-123.5 585,-123.5 585,-117.5 591,-111.5 597,-111.5 597,-111.5 686,-111.5 686,-111.5 692,-111.5 698,-117.5 698,-123.5 698,-123.5 698,-167.5 698,-167.5 698,-173.5 692,-179.5 686,-179.5"/>
<text text-anchor="start" x="606.5" y="-164.3" font-family="Helvetica,sans-Serif" font-size="14.00">gini = 0.0</text>
<text text-anchor="start" x="597.5" y="-149.3" font-family="Helvetica,sans-Serif" font-size="14.00">samples = 4</text>
<text text-anchor="start" x="593" y="-134.3" font-family="Helvetica,sans-Serif" font-size="14.00">value = [0, 4]</text>
<text text-anchor="start" x="607.5" y="-119.3" font-family="Helvetica,sans-Serif" font-size="14.00">class = M</text>
</g>
<!-- 10&#45;&gt;12 -->
<g id="edge12" class="edge">
<title>10&#45;&gt;12</title>
<path fill="none" stroke="black" d="M613.42,-222.91C617.43,-211.98 621.79,-200.14 625.84,-189.11"/>
<polygon fill="black" stroke="black" points="629.15,-190.26 629.31,-179.67 622.58,-187.85 629.15,-190.26"/>
</g>
<!-- 14 -->
<g id="node15" class="node">
<title>14</title>
<path fill="#f2c09c" stroke="black" d="M823.5,-306C823.5,-306 721.5,-306 721.5,-306 715.5,-306 709.5,-300 709.5,-294 709.5,-294 709.5,-235 709.5,-235 709.5,-229 715.5,-223 721.5,-223 721.5,-223 823.5,-223 823.5,-223 829.5,-223 835.5,-229 835.5,-235 835.5,-235 835.5,-294 835.5,-294 835.5,-300 829.5,-306 823.5,-306"/>
<text text-anchor="start" x="717.5" y="-290.8" font-family="Helvetica,sans-Serif" font-size="14.00">area3 ≤ 721.05</text>
<text text-anchor="start" x="728.5" y="-275.8" font-family="Helvetica,sans-Serif" font-size="14.00">gini = 0.444</text>
<text text-anchor="start" x="728.5" y="-260.8" font-family="Helvetica,sans-Serif" font-size="14.00">samples = 3</text>
<text text-anchor="start" x="724" y="-245.8" font-family="Helvetica,sans-Serif" font-size="14.00">value = [2, 1]</text>
<text text-anchor="start" x="739.5" y="-230.8" font-family="Helvetica,sans-Serif" font-size="14.00">class = B</text>
</g>
<!-- 13&#45;&gt;14 -->
<g id="edge14" class="edge">
<title>13&#45;&gt;14</title>
<path fill="none" stroke="black" d="M788.17,-341.91C786.46,-333.56 784.64,-324.67 782.86,-316.02"/>
<polygon fill="black" stroke="black" points="786.25,-315.11 780.81,-306.02 779.39,-316.52 786.25,-315.11"/>
</g>
<!-- 17 -->
<g id="node18" class="node">
<title>17</title>
<path fill="#399de5" stroke="black" d="M955,-298.5C955,-298.5 866,-298.5 866,-298.5 860,-298.5 854,-292.5 854,-286.5 854,-286.5 854,-242.5 854,-242.5 854,-236.5 860,-230.5 866,-230.5 866,-230.5 955,-230.5 955,-230.5 961,-230.5 967,-236.5 967,-242.5 967,-242.5 967,-286.5 967,-286.5 967,-292.5 961,-298.5 955,-298.5"/>
<text text-anchor="start" x="875.5" y="-283.3" font-family="Helvetica,sans-Serif" font-size="14.00">gini = 0.0</text>
<text text-anchor="start" x="866.5" y="-268.3" font-family="Helvetica,sans-Serif" font-size="14.00">samples = 9</text>
<text text-anchor="start" x="862" y="-253.3" font-family="Helvetica,sans-Serif" font-size="14.00">value = [0, 9]</text>
<text text-anchor="start" x="876.5" y="-238.3" font-family="Helvetica,sans-Serif" font-size="14.00">class = M</text>
</g>
<!-- 13&#45;&gt;17 -->
<g id="edge17" class="edge">
<title>13&#45;&gt;17</title>
<path fill="none" stroke="black" d="M836.05,-341.91C847.34,-330.32 859.64,-317.7 870.93,-306.11"/>
<polygon fill="black" stroke="black" points="873.71,-308.27 878.18,-298.67 868.7,-303.39 873.71,-308.27"/>
</g>
<!-- 15 -->
<g id="node16" class="node">
<title>15</title>
<path fill="#e58139" stroke="black" d="M817,-179.5C817,-179.5 728,-179.5 728,-179.5 722,-179.5 716,-173.5 716,-167.5 716,-167.5 716,-123.5 716,-123.5 716,-117.5 722,-111.5 728,-111.5 728,-111.5 817,-111.5 817,-111.5 823,-111.5 829,-117.5 829,-123.5 829,-123.5 829,-167.5 829,-167.5 829,-173.5 823,-179.5 817,-179.5"/>
<text text-anchor="start" x="737.5" y="-164.3" font-family="Helvetica,sans-Serif" font-size="14.00">gini = 0.0</text>
<text text-anchor="start" x="728.5" y="-149.3" font-family="Helvetica,sans-Serif" font-size="14.00">samples = 2</text>
<text text-anchor="start" x="724" y="-134.3" font-family="Helvetica,sans-Serif" font-size="14.00">value = [2, 0]</text>
<text text-anchor="start" x="739.5" y="-119.3" font-family="Helvetica,sans-Serif" font-size="14.00">class = B</text>
</g>
<!-- 14&#45;&gt;15 -->
<g id="edge15" class="edge">
<title>14&#45;&gt;15</title>
<path fill="none" stroke="black" d="M772.5,-222.91C772.5,-212.2 772.5,-200.62 772.5,-189.78"/>
<polygon fill="black" stroke="black" points="776,-189.67 772.5,-179.67 769,-189.67 776,-189.67"/>
</g>
<!-- 16 -->
<g id="node17" class="node">
<title>16</title>
<path fill="#399de5" stroke="black" d="M948,-179.5C948,-179.5 859,-179.5 859,-179.5 853,-179.5 847,-173.5 847,-167.5 847,-167.5 847,-123.5 847,-123.5 847,-117.5 853,-111.5 859,-111.5 859,-111.5 948,-111.5 948,-111.5 954,-111.5 960,-117.5 960,-123.5 960,-123.5 960,-167.5 960,-167.5 960,-173.5 954,-179.5 948,-179.5"/>
<text text-anchor="start" x="868.5" y="-164.3" font-family="Helvetica,sans-Serif" font-size="14.00">gini = 0.0</text>
<text text-anchor="start" x="859.5" y="-149.3" font-family="Helvetica,sans-Serif" font-size="14.00">samples = 1</text>
<text text-anchor="start" x="855" y="-134.3" font-family="Helvetica,sans-Serif" font-size="14.00">value = [0, 1]</text>
<text text-anchor="start" x="869.5" y="-119.3" font-family="Helvetica,sans-Serif" font-size="14.00">class = M</text>
</g>
<!-- 14&#45;&gt;16 -->
<g id="edge16" class="edge">
<title>14&#45;&gt;16</title>
<path fill="none" stroke="black" d="M817.95,-222.91C831.17,-211.1 845.6,-198.22 858.77,-186.45"/>
<polygon fill="black" stroke="black" points="861.24,-188.94 866.36,-179.67 856.57,-183.72 861.24,-188.94"/>
</g>
<!-- 19 -->
<g id="node20" class="node">
<title>19</title>
<path fill="#efb388" stroke="black" d="M1158,-425C1158,-425 1029,-425 1029,-425 1023,-425 1017,-419 1017,-413 1017,-413 1017,-354 1017,-354 1017,-348 1023,-342 1029,-342 1029,-342 1158,-342 1158,-342 1164,-342 1170,-348 1170,-354 1170,-354 1170,-413 1170,-413 1170,-419 1164,-425 1158,-425"/>
<text text-anchor="start" x="1025" y="-409.8" font-family="Helvetica,sans-Serif" font-size="14.00">concavity3 ≤ 0.452</text>
<text text-anchor="start" x="1049.5" y="-394.8" font-family="Helvetica,sans-Serif" font-size="14.00">gini = 0.408</text>
<text text-anchor="start" x="1049.5" y="-379.8" font-family="Helvetica,sans-Serif" font-size="14.00">samples = 7</text>
<text text-anchor="start" x="1045" y="-364.8" font-family="Helvetica,sans-Serif" font-size="14.00">value = [5, 2]</text>
<text text-anchor="start" x="1060.5" y="-349.8" font-family="Helvetica,sans-Serif" font-size="14.00">class = B</text>
</g>
<!-- 18&#45;&gt;19 -->
<g id="edge19" class="edge">
<title>18&#45;&gt;19</title>
<path fill="none" stroke="black" d="M1093.5,-460.91C1093.5,-452.65 1093.5,-443.86 1093.5,-435.3"/>
<polygon fill="black" stroke="black" points="1097,-435.02 1093.5,-425.02 1090,-435.02 1097,-435.02"/>
</g>
<!-- 22 -->
<g id="node23" class="node">
<title>22</title>
<path fill="#40a0e6" stroke="black" d="M1359,-425C1359,-425 1252,-425 1252,-425 1246,-425 1240,-419 1240,-413 1240,-413 1240,-354 1240,-354 1240,-348 1246,-342 1252,-342 1252,-342 1359,-342 1359,-342 1365,-342 1371,-348 1371,-354 1371,-354 1371,-413 1371,-413 1371,-419 1365,-425 1359,-425"/>
<text text-anchor="start" x="1255" y="-409.8" font-family="Helvetica,sans-Serif" font-size="14.00">area3 ≤ 810.1</text>
<text text-anchor="start" x="1261.5" y="-394.8" font-family="Helvetica,sans-Serif" font-size="14.00">gini = 0.064</text>
<text text-anchor="start" x="1252.5" y="-379.8" font-family="Helvetica,sans-Serif" font-size="14.00">samples = 151</text>
<text text-anchor="start" x="1248" y="-364.8" font-family="Helvetica,sans-Serif" font-size="14.00">value = [5, 146]</text>
<text text-anchor="start" x="1271.5" y="-349.8" font-family="Helvetica,sans-Serif" font-size="14.00">class = M</text>
</g>
<!-- 18&#45;&gt;22 -->
<g id="edge22" class="edge">
<title>18&#45;&gt;22</title>
<path fill="none" stroke="black" d="M1166.76,-461.07C1187.49,-449.63 1210.08,-437.16 1230.89,-425.67"/>
<polygon fill="black" stroke="black" points="1232.63,-428.71 1239.69,-420.82 1229.25,-422.59 1232.63,-428.71"/>
</g>
<!-- 20 -->
<g id="node21" class="node">
<title>20</title>
<path fill="#e58139" stroke="black" d="M1086,-298.5C1086,-298.5 997,-298.5 997,-298.5 991,-298.5 985,-292.5 985,-286.5 985,-286.5 985,-242.5 985,-242.5 985,-236.5 991,-230.5 997,-230.5 997,-230.5 1086,-230.5 1086,-230.5 1092,-230.5 1098,-236.5 1098,-242.5 1098,-242.5 1098,-286.5 1098,-286.5 1098,-292.5 1092,-298.5 1086,-298.5"/>
<text text-anchor="start" x="1006.5" y="-283.3" font-family="Helvetica,sans-Serif" font-size="14.00">gini = 0.0</text>
<text text-anchor="start" x="997.5" y="-268.3" font-family="Helvetica,sans-Serif" font-size="14.00">samples = 5</text>
<text text-anchor="start" x="993" y="-253.3" font-family="Helvetica,sans-Serif" font-size="14.00">value = [5, 0]</text>
<text text-anchor="start" x="1008.5" y="-238.3" font-family="Helvetica,sans-Serif" font-size="14.00">class = B</text>
</g>
<!-- 19&#45;&gt;20 -->
<g id="edge20" class="edge">
<title>19&#45;&gt;20</title>
<path fill="none" stroke="black" d="M1075.46,-341.91C1070.6,-330.98 1065.34,-319.14 1060.44,-308.11"/>
<polygon fill="black" stroke="black" points="1063.5,-306.38 1056.24,-298.67 1057.1,-309.23 1063.5,-306.38"/>
</g>
<!-- 21 -->
<g id="node22" class="node">
<title>21</title>
<path fill="#399de5" stroke="black" d="M1217,-298.5C1217,-298.5 1128,-298.5 1128,-298.5 1122,-298.5 1116,-292.5 1116,-286.5 1116,-286.5 1116,-242.5 1116,-242.5 1116,-236.5 1122,-230.5 1128,-230.5 1128,-230.5 1217,-230.5 1217,-230.5 1223,-230.5 1229,-236.5 1229,-242.5 1229,-242.5 1229,-286.5 1229,-286.5 1229,-292.5 1223,-298.5 1217,-298.5"/>
<text text-anchor="start" x="1137.5" y="-283.3" font-family="Helvetica,sans-Serif" font-size="14.00">gini = 0.0</text>
<text text-anchor="start" x="1128.5" y="-268.3" font-family="Helvetica,sans-Serif" font-size="14.00">samples = 2</text>
<text text-anchor="start" x="1124" y="-253.3" font-family="Helvetica,sans-Serif" font-size="14.00">value = [0, 2]</text>
<text text-anchor="start" x="1138.5" y="-238.3" font-family="Helvetica,sans-Serif" font-size="14.00">class = M</text>
</g>
<!-- 19&#45;&gt;21 -->
<g id="edge21" class="edge">
<title>19&#45;&gt;21</title>
<path fill="none" stroke="black" d="M1120.91,-341.91C1128.51,-330.65 1136.77,-318.42 1144.41,-307.11"/>
<polygon fill="black" stroke="black" points="1147.41,-308.91 1150.11,-298.67 1141.61,-305 1147.41,-308.91"/>
</g>
<!-- 23 -->
<g id="node24" class="node">
<title>23</title>
<path fill="#f6d5bd" stroke="black" d="M1352,-306C1352,-306 1259,-306 1259,-306 1253,-306 1247,-300 1247,-294 1247,-294 1247,-235 1247,-235 1247,-229 1253,-223 1259,-223 1259,-223 1352,-223 1352,-223 1358,-223 1364,-229 1364,-235 1364,-235 1364,-294 1364,-294 1364,-300 1358,-306 1352,-306"/>
<text text-anchor="start" x="1255" y="-290.8" font-family="Helvetica,sans-Serif" font-size="14.00">area2 ≤ 24.36</text>
<text text-anchor="start" x="1266" y="-275.8" font-family="Helvetica,sans-Serif" font-size="14.00">gini = 0.48</text>
<text text-anchor="start" x="1261.5" y="-260.8" font-family="Helvetica,sans-Serif" font-size="14.00">samples = 5</text>
<text text-anchor="start" x="1257" y="-245.8" font-family="Helvetica,sans-Serif" font-size="14.00">value = [3, 2]</text>
<text text-anchor="start" x="1272.5" y="-230.8" font-family="Helvetica,sans-Serif" font-size="14.00">class = B</text>
</g>
<!-- 22&#45;&gt;23 -->
<g id="edge23" class="edge">
<title>22&#45;&gt;23</title>
<path fill="none" stroke="black" d="M1305.5,-341.91C1305.5,-333.65 1305.5,-324.86 1305.5,-316.3"/>
<polygon fill="black" stroke="black" points="1309,-316.02 1305.5,-306.02 1302,-316.02 1309,-316.02"/>
</g>
<!-- 26 -->
<g id="node27" class="node">
<title>26</title>
<path fill="#3c9ee5" stroke="black" d="M1541,-306C1541,-306 1394,-306 1394,-306 1388,-306 1382,-300 1382,-294 1382,-294 1382,-235 1382,-235 1382,-229 1388,-223 1394,-223 1394,-223 1541,-223 1541,-223 1547,-223 1553,-229 1553,-235 1553,-235 1553,-294 1553,-294 1553,-300 1547,-306 1541,-306"/>
<text text-anchor="start" x="1390" y="-290.8" font-family="Helvetica,sans-Serif" font-size="14.00">smoothness3 ≤ 0.088</text>
<text text-anchor="start" x="1423.5" y="-275.8" font-family="Helvetica,sans-Serif" font-size="14.00">gini = 0.027</text>
<text text-anchor="start" x="1414.5" y="-260.8" font-family="Helvetica,sans-Serif" font-size="14.00">samples = 146</text>
<text text-anchor="start" x="1410" y="-245.8" font-family="Helvetica,sans-Serif" font-size="14.00">value = [2, 144]</text>
<text text-anchor="start" x="1433.5" y="-230.8" font-family="Helvetica,sans-Serif" font-size="14.00">class = M</text>
</g>
<!-- 22&#45;&gt;26 -->
<g id="edge26" class="edge">
<title>22&#45;&gt;26</title>
<path fill="none" stroke="black" d="M1361.71,-341.91C1375.02,-332.29 1389.33,-321.95 1402.99,-312.09"/>
<polygon fill="black" stroke="black" points="1405.34,-314.71 1411.39,-306.02 1401.24,-309.04 1405.34,-314.71"/>
</g>
<!-- 24 -->
<g id="node25" class="node">
<title>24</title>
<path fill="#e58139" stroke="black" d="M1227,-179.5C1227,-179.5 1138,-179.5 1138,-179.5 1132,-179.5 1126,-173.5 1126,-167.5 1126,-167.5 1126,-123.5 1126,-123.5 1126,-117.5 1132,-111.5 1138,-111.5 1138,-111.5 1227,-111.5 1227,-111.5 1233,-111.5 1239,-117.5 1239,-123.5 1239,-123.5 1239,-167.5 1239,-167.5 1239,-173.5 1233,-179.5 1227,-179.5"/>
<text text-anchor="start" x="1147.5" y="-164.3" font-family="Helvetica,sans-Serif" font-size="14.00">gini = 0.0</text>
<text text-anchor="start" x="1138.5" y="-149.3" font-family="Helvetica,sans-Serif" font-size="14.00">samples = 3</text>
<text text-anchor="start" x="1134" y="-134.3" font-family="Helvetica,sans-Serif" font-size="14.00">value = [3, 0]</text>
<text text-anchor="start" x="1149.5" y="-119.3" font-family="Helvetica,sans-Serif" font-size="14.00">class = B</text>
</g>
<!-- 23&#45;&gt;24 -->
<g id="edge24" class="edge">
<title>23&#45;&gt;24</title>
<path fill="none" stroke="black" d="M1262.83,-222.91C1250.53,-211.21 1237.12,-198.46 1224.85,-186.78"/>
<polygon fill="black" stroke="black" points="1227.03,-184.02 1217.37,-179.67 1222.2,-189.1 1227.03,-184.02"/>
</g>
<!-- 25 -->
<g id="node26" class="node">
<title>25</title>
<path fill="#399de5" stroke="black" d="M1358,-179.5C1358,-179.5 1269,-179.5 1269,-179.5 1263,-179.5 1257,-173.5 1257,-167.5 1257,-167.5 1257,-123.5 1257,-123.5 1257,-117.5 1263,-111.5 1269,-111.5 1269,-111.5 1358,-111.5 1358,-111.5 1364,-111.5 1370,-117.5 1370,-123.5 1370,-123.5 1370,-167.5 1370,-167.5 1370,-173.5 1364,-179.5 1358,-179.5"/>
<text text-anchor="start" x="1278.5" y="-164.3" font-family="Helvetica,sans-Serif" font-size="14.00">gini = 0.0</text>
<text text-anchor="start" x="1269.5" y="-149.3" font-family="Helvetica,sans-Serif" font-size="14.00">samples = 2</text>
<text text-anchor="start" x="1265" y="-134.3" font-family="Helvetica,sans-Serif" font-size="14.00">value = [0, 2]</text>
<text text-anchor="start" x="1279.5" y="-119.3" font-family="Helvetica,sans-Serif" font-size="14.00">class = M</text>
</g>
<!-- 23&#45;&gt;25 -->
<g id="edge25" class="edge">
<title>23&#45;&gt;25</title>
<path fill="none" stroke="black" d="M1308.28,-222.91C1309.01,-212.2 1309.8,-200.62 1310.54,-189.78"/>
<polygon fill="black" stroke="black" points="1314.04,-189.88 1311.23,-179.67 1307.06,-189.4 1314.04,-189.88"/>
</g>
<!-- 27 -->
<g id="node28" class="node">
<title>27</title>
<path fill="#e58139" stroke="black" d="M1504,-179.5C1504,-179.5 1415,-179.5 1415,-179.5 1409,-179.5 1403,-173.5 1403,-167.5 1403,-167.5 1403,-123.5 1403,-123.5 1403,-117.5 1409,-111.5 1415,-111.5 1415,-111.5 1504,-111.5 1504,-111.5 1510,-111.5 1516,-117.5 1516,-123.5 1516,-123.5 1516,-167.5 1516,-167.5 1516,-173.5 1510,-179.5 1504,-179.5"/>
<text text-anchor="start" x="1424.5" y="-164.3" font-family="Helvetica,sans-Serif" font-size="14.00">gini = 0.0</text>
<text text-anchor="start" x="1415.5" y="-149.3" font-family="Helvetica,sans-Serif" font-size="14.00">samples = 1</text>
<text text-anchor="start" x="1411" y="-134.3" font-family="Helvetica,sans-Serif" font-size="14.00">value = [1, 0]</text>
<text text-anchor="start" x="1426.5" y="-119.3" font-family="Helvetica,sans-Serif" font-size="14.00">class = B</text>
</g>
<!-- 26&#45;&gt;27 -->
<g id="edge27" class="edge">
<title>26&#45;&gt;27</title>
<path fill="none" stroke="black" d="M1464.72,-222.91C1463.99,-212.2 1463.2,-200.62 1462.46,-189.78"/>
<polygon fill="black" stroke="black" points="1465.94,-189.4 1461.77,-179.67 1458.96,-189.88 1465.94,-189.4"/>
</g>
<!-- 28 -->
<g id="node29" class="node">
<title>28</title>
<path fill="#3a9ee5" stroke="black" d="M1675,-187C1675,-187 1546,-187 1546,-187 1540,-187 1534,-181 1534,-175 1534,-175 1534,-116 1534,-116 1534,-110 1540,-104 1546,-104 1546,-104 1675,-104 1675,-104 1681,-104 1687,-110 1687,-116 1687,-116 1687,-175 1687,-175 1687,-181 1681,-187 1675,-187"/>
<text text-anchor="start" x="1542" y="-171.8" font-family="Helvetica,sans-Serif" font-size="14.00">concavity3 ≤ 0.187</text>
<text text-anchor="start" x="1566.5" y="-156.8" font-family="Helvetica,sans-Serif" font-size="14.00">gini = 0.014</text>
<text text-anchor="start" x="1557.5" y="-141.8" font-family="Helvetica,sans-Serif" font-size="14.00">samples = 145</text>
<text text-anchor="start" x="1553" y="-126.8" font-family="Helvetica,sans-Serif" font-size="14.00">value = [1, 144]</text>
<text text-anchor="start" x="1576.5" y="-111.8" font-family="Helvetica,sans-Serif" font-size="14.00">class = M</text>
</g>
<!-- 26&#45;&gt;28 -->
<g id="edge28" class="edge">
<title>26&#45;&gt;28</title>
<path fill="none" stroke="black" d="M1517.11,-222.91C1528.76,-213.38 1541.26,-203.15 1553.21,-193.37"/>
<polygon fill="black" stroke="black" points="1555.45,-196.06 1560.97,-187.02 1551.02,-190.64 1555.45,-196.06"/>
</g>
<!-- 29 -->
<g id="node30" class="node">
<title>29</title>
<path fill="#9ccef2" stroke="black" d="M1585,-68C1585,-68 1496,-68 1496,-68 1490,-68 1484,-62 1484,-56 1484,-56 1484,-12 1484,-12 1484,-6 1490,0 1496,0 1496,0 1585,0 1585,0 1591,0 1597,-6 1597,-12 1597,-12 1597,-56 1597,-56 1597,-62 1591,-68 1585,-68"/>
<text text-anchor="start" x="1496.5" y="-52.8" font-family="Helvetica,sans-Serif" font-size="14.00">gini = 0.444</text>
<text text-anchor="start" x="1496.5" y="-37.8" font-family="Helvetica,sans-Serif" font-size="14.00">samples = 3</text>
<text text-anchor="start" x="1492" y="-22.8" font-family="Helvetica,sans-Serif" font-size="14.00">value = [1, 2]</text>
<text text-anchor="start" x="1506.5" y="-7.8" font-family="Helvetica,sans-Serif" font-size="14.00">class = M</text>
</g>
<!-- 28&#45;&gt;29 -->
<g id="edge29" class="edge">
<title>28&#45;&gt;29</title>
<path fill="none" stroke="black" d="M1584.43,-103.73C1578.84,-94.97 1572.91,-85.7 1567.29,-76.91"/>
<polygon fill="black" stroke="black" points="1570.12,-74.84 1561.79,-68.3 1564.22,-78.61 1570.12,-74.84"/>
</g>
<!-- 30 -->
<g id="node31" class="node">
<title>30</title>
<path fill="#399de5" stroke="black" d="M1734,-68C1734,-68 1627,-68 1627,-68 1621,-68 1615,-62 1615,-56 1615,-56 1615,-12 1615,-12 1615,-6 1621,0 1627,0 1627,0 1734,0 1734,0 1740,0 1746,-6 1746,-12 1746,-12 1746,-56 1746,-56 1746,-62 1740,-68 1734,-68"/>
<text text-anchor="start" x="1645.5" y="-52.8" font-family="Helvetica,sans-Serif" font-size="14.00">gini = 0.0</text>
<text text-anchor="start" x="1627.5" y="-37.8" font-family="Helvetica,sans-Serif" font-size="14.00">samples = 142</text>
<text text-anchor="start" x="1623" y="-22.8" font-family="Helvetica,sans-Serif" font-size="14.00">value = [0, 142]</text>
<text text-anchor="start" x="1646.5" y="-7.8" font-family="Helvetica,sans-Serif" font-size="14.00">class = M</text>
</g>
<!-- 28&#45;&gt;30 -->
<g id="edge30" class="edge">
<title>28&#45;&gt;30</title>
<path fill="none" stroke="black" d="M1636.57,-103.73C1642.16,-94.97 1648.09,-85.7 1653.71,-76.91"/>
<polygon fill="black" stroke="black" points="1656.78,-78.61 1659.21,-68.3 1650.88,-74.84 1656.78,-78.61"/>
</g>
</g>
</svg>
