<?xml version="1.0" encoding="UTF-8" standalone="no"?>
<!DOCTYPE svg PUBLIC "-//W3C//DTD SVG 1.1//EN"
 "http://www.w3.org/Graphics/SVG/1.1/DTD/svg11.dtd">
<!-- Generated by graphviz version 2.43.0 (0)
 -->
<!-- Title: Tree Pages: 1 -->
<svg width="2007pt" height="790pt"
 viewBox="0.00 0.00 2007.00 790.00" xmlns="http://www.w3.org/2000/svg" xmlns:xlink="http://www.w3.org/1999/xlink">
<g id="graph0" class="graph" transform="scale(1 1) rotate(0) translate(4 786)">
<title>Tree</title>
<polygon fill="white" stroke="transparent" points="-4,4 -4,-786 2003,-786 2003,4 -4,4"/>
<!-- 0 -->
<g id="node1" class="node">
<title>0</title>
<path fill="#f5ccaf" stroke="black" d="M1189,-782C1189,-782 1058,-782 1058,-782 1052,-782 1046,-776 1046,-770 1046,-770 1046,-711 1046,-711 1046,-705 1052,-699 1058,-699 1058,-699 1189,-699 1189,-699 1195,-699 1201,-705 1201,-711 1201,-711 1201,-770 1201,-770 1201,-776 1195,-782 1189,-782"/>
<text text-anchor="start" x="1054" y="-766.8" font-family="Helvetica,sans-Serif" font-size="14.00">perimeter3 ≤ 112.8</text>
<text text-anchor="start" x="1079.5" y="-751.8" font-family="Helvetica,sans-Serif" font-size="14.00">gini = 0.468</text>
<text text-anchor="start" x="1070.5" y="-736.8" font-family="Helvetica,sans-Serif" font-size="14.00">samples = 455</text>
<text text-anchor="start" x="1057" y="-721.8" font-family="Helvetica,sans-Serif" font-size="14.00">value = [285, 170]</text>
<text text-anchor="start" x="1090.5" y="-706.8" font-family="Helvetica,sans-Serif" font-size="14.00">class = B</text>
</g>
<!-- 1 -->
<g id="node2" class="node">
<title>1</title>
<path fill="#e78b49" stroke="black" d="M1063,-663C1063,-663 902,-663 902,-663 896,-663 890,-657 890,-651 890,-651 890,-592 890,-592 890,-586 896,-580 902,-580 902,-580 1063,-580 1063,-580 1069,-580 1075,-586 1075,-592 1075,-592 1075,-651 1075,-651 1075,-657 1069,-663 1063,-663"/>
<text text-anchor="start" x="898" y="-647.8" font-family="Helvetica,sans-Serif" font-size="14.00">concave_points3 ≤ 0.16</text>
<text text-anchor="start" x="938.5" y="-632.8" font-family="Helvetica,sans-Serif" font-size="14.00">gini = 0.137</text>
<text text-anchor="start" x="929.5" y="-617.8" font-family="Helvetica,sans-Serif" font-size="14.00">samples = 297</text>
<text text-anchor="start" x="920.5" y="-602.8" font-family="Helvetica,sans-Serif" font-size="14.00">value = [275, 22]</text>
<text text-anchor="start" x="949.5" y="-587.8" font-family="Helvetica,sans-Serif" font-size="14.00">class = B</text>
</g>
<!-- 0&#45;&gt;1 -->
<g id="edge1" class="edge">
<title>0&#45;&gt;1</title>
<path fill="none" stroke="black" d="M1074.58,-698.91C1063.21,-689.47 1051,-679.34 1039.32,-669.65"/>
<polygon fill="black" stroke="black" points="1041.26,-666.71 1031.33,-663.02 1036.79,-672.1 1041.26,-666.71"/>
<text text-anchor="middle" x="1033.65" y="-684.21" font-family="Helvetica,sans-Serif" font-size="14.00">True</text>
</g>
<!-- 22 -->
<g id="node23" class="node">
<title>22</title>
<path fill="#46a4e7" stroke="black" d="M1342.5,-663C1342.5,-663 1220.5,-663 1220.5,-663 1214.5,-663 1208.5,-657 1208.5,-651 1208.5,-651 1208.5,-592 1208.5,-592 1208.5,-586 1214.5,-580 1220.5,-580 1220.5,-580 1342.5,-580 1342.5,-580 1348.5,-580 1354.5,-586 1354.5,-592 1354.5,-592 1354.5,-651 1354.5,-651 1354.5,-657 1348.5,-663 1342.5,-663"/>
<text text-anchor="start" x="1216.5" y="-647.8" font-family="Helvetica,sans-Serif" font-size="14.00">texture1 ≤ 14.955</text>
<text text-anchor="start" x="1237.5" y="-632.8" font-family="Helvetica,sans-Serif" font-size="14.00">gini = 0.119</text>
<text text-anchor="start" x="1228.5" y="-617.8" font-family="Helvetica,sans-Serif" font-size="14.00">samples = 158</text>
<text text-anchor="start" x="1219.5" y="-602.8" font-family="Helvetica,sans-Serif" font-size="14.00">value = [10, 148]</text>
<text text-anchor="start" x="1247.5" y="-587.8" font-family="Helvetica,sans-Serif" font-size="14.00">class = M</text>
</g>
<!-- 0&#45;&gt;22 -->
<g id="edge22" class="edge">
<title>0&#45;&gt;22</title>
<path fill="none" stroke="black" d="M1178.32,-698.91C1191.31,-689.29 1205.26,-678.95 1218.58,-669.09"/>
<polygon fill="black" stroke="black" points="1220.83,-671.78 1226.78,-663.02 1216.66,-666.16 1220.83,-671.78"/>
<text text-anchor="middle" x="1223.09" y="-684.05" font-family="Helvetica,sans-Serif" font-size="14.00">False</text>
</g>
<!-- 2 -->
<g id="node3" class="node">
<title>2</title>
<path fill="#e68742" stroke="black" d="M793.5,-544C793.5,-544 677.5,-544 677.5,-544 671.5,-544 665.5,-538 665.5,-532 665.5,-532 665.5,-473 665.5,-473 665.5,-467 671.5,-461 677.5,-461 677.5,-461 793.5,-461 793.5,-461 799.5,-461 805.5,-467 805.5,-473 805.5,-473 805.5,-532 805.5,-532 805.5,-538 799.5,-544 793.5,-544"/>
<text text-anchor="start" x="680.5" y="-528.8" font-family="Helvetica,sans-Serif" font-size="14.00">area1 ≤ 696.25</text>
<text text-anchor="start" x="691.5" y="-513.8" font-family="Helvetica,sans-Serif" font-size="14.00">gini = 0.081</text>
<text text-anchor="start" x="682.5" y="-498.8" font-family="Helvetica,sans-Serif" font-size="14.00">samples = 285</text>
<text text-anchor="start" x="673.5" y="-483.8" font-family="Helvetica,sans-Serif" font-size="14.00">value = [273, 12]</text>
<text text-anchor="start" x="702.5" y="-468.8" font-family="Helvetica,sans-Serif" font-size="14.00">class = B</text>
</g>
<!-- 1&#45;&gt;2 -->
<g id="edge2" class="edge">
<title>1&#45;&gt;2</title>
<path fill="none" stroke="black" d="M896.8,-579.91C870.13,-567.27 840.86,-553.41 814.65,-540.99"/>
<polygon fill="black" stroke="black" points="816.05,-537.78 805.52,-536.67 813.06,-544.11 816.05,-537.78"/>
</g>
<!-- 17 -->
<g id="node18" class="node">
<title>17</title>
<path fill="#61b1ea" stroke="black" d="M1043.5,-544C1043.5,-544 921.5,-544 921.5,-544 915.5,-544 909.5,-538 909.5,-532 909.5,-532 909.5,-473 909.5,-473 909.5,-467 915.5,-461 921.5,-461 921.5,-461 1043.5,-461 1043.5,-461 1049.5,-461 1055.5,-467 1055.5,-473 1055.5,-473 1055.5,-532 1055.5,-532 1055.5,-538 1049.5,-544 1043.5,-544"/>
<text text-anchor="start" x="917.5" y="-528.8" font-family="Helvetica,sans-Serif" font-size="14.00">texture3 ≤ 24.785</text>
<text text-anchor="start" x="938.5" y="-513.8" font-family="Helvetica,sans-Serif" font-size="14.00">gini = 0.278</text>
<text text-anchor="start" x="934" y="-498.8" font-family="Helvetica,sans-Serif" font-size="14.00">samples = 12</text>
<text text-anchor="start" x="929.5" y="-483.8" font-family="Helvetica,sans-Serif" font-size="14.00">value = [2, 10]</text>
<text text-anchor="start" x="948.5" y="-468.8" font-family="Helvetica,sans-Serif" font-size="14.00">class = M</text>
</g>
<!-- 1&#45;&gt;17 -->
<g id="edge17" class="edge">
<title>1&#45;&gt;17</title>
<path fill="none" stroke="black" d="M982.5,-579.91C982.5,-571.65 982.5,-562.86 982.5,-554.3"/>
<polygon fill="black" stroke="black" points="986,-554.02 982.5,-544.02 979,-554.02 986,-554.02"/>
</g>
<!-- 3 -->
<g id="node4" class="node">
<title>3</title>
<path fill="#e6853f" stroke="black" d="M602,-425C602,-425 455,-425 455,-425 449,-425 443,-419 443,-413 443,-413 443,-354 443,-354 443,-348 449,-342 455,-342 455,-342 602,-342 602,-342 608,-342 614,-348 614,-354 614,-354 614,-413 614,-413 614,-419 608,-425 602,-425"/>
<text text-anchor="start" x="451" y="-409.8" font-family="Helvetica,sans-Serif" font-size="14.00">smoothness3 ≤ 0.178</text>
<text text-anchor="start" x="484.5" y="-394.8" font-family="Helvetica,sans-Serif" font-size="14.00">gini = 0.056</text>
<text text-anchor="start" x="475.5" y="-379.8" font-family="Helvetica,sans-Serif" font-size="14.00">samples = 279</text>
<text text-anchor="start" x="471" y="-364.8" font-family="Helvetica,sans-Serif" font-size="14.00">value = [271, 8]</text>
<text text-anchor="start" x="495.5" y="-349.8" font-family="Helvetica,sans-Serif" font-size="14.00">class = B</text>
</g>
<!-- 2&#45;&gt;3 -->
<g id="edge3" class="edge">
<title>2&#45;&gt;3</title>
<path fill="none" stroke="black" d="M665.42,-461.89C647.29,-451.64 627.64,-440.53 609.03,-430.01"/>
<polygon fill="black" stroke="black" points="610.7,-426.94 600.27,-425.07 607.26,-433.03 610.7,-426.94"/>
</g>
<!-- 14 -->
<g id="node15" class="node">
<title>14</title>
<path fill="#9ccef2" stroke="black" d="M792,-425C792,-425 679,-425 679,-425 673,-425 667,-419 667,-413 667,-413 667,-354 667,-354 667,-348 673,-342 679,-342 679,-342 792,-342 792,-342 798,-342 804,-348 804,-354 804,-354 804,-413 804,-413 804,-419 798,-425 792,-425"/>
<text text-anchor="start" x="675" y="-409.8" font-family="Helvetica,sans-Serif" font-size="14.00">texture2 ≤ 0.656</text>
<text text-anchor="start" x="691.5" y="-394.8" font-family="Helvetica,sans-Serif" font-size="14.00">gini = 0.444</text>
<text text-anchor="start" x="691.5" y="-379.8" font-family="Helvetica,sans-Serif" font-size="14.00">samples = 6</text>
<text text-anchor="start" x="687" y="-364.8" font-family="Helvetica,sans-Serif" font-size="14.00">value = [2, 4]</text>
<text text-anchor="start" x="701.5" y="-349.8" font-family="Helvetica,sans-Serif" font-size="14.00">class = M</text>
</g>
<!-- 2&#45;&gt;14 -->
<g id="edge14" class="edge">
<title>2&#45;&gt;14</title>
<path fill="none" stroke="black" d="M735.5,-460.91C735.5,-452.65 735.5,-443.86 735.5,-435.3"/>
<polygon fill="black" stroke="black" points="739,-435.02 735.5,-425.02 732,-435.02 739,-435.02"/>
</g>
<!-- 4 -->
<g id="node5" class="node">
<title>4</title>
<path fill="#e5833d" stroke="black" d="M430,-306C430,-306 299,-306 299,-306 293,-306 287,-300 287,-294 287,-294 287,-235 287,-235 287,-229 293,-223 299,-223 299,-223 430,-223 430,-223 436,-223 442,-229 442,-235 442,-235 442,-294 442,-294 442,-300 436,-306 430,-306"/>
<text text-anchor="start" x="295" y="-290.8" font-family="Helvetica,sans-Serif" font-size="14.00">perimeter3 ≤ 102.4</text>
<text text-anchor="start" x="320.5" y="-275.8" font-family="Helvetica,sans-Serif" font-size="14.00">gini = 0.036</text>
<text text-anchor="start" x="311.5" y="-260.8" font-family="Helvetica,sans-Serif" font-size="14.00">samples = 274</text>
<text text-anchor="start" x="307" y="-245.8" font-family="Helvetica,sans-Serif" font-size="14.00">value = [269, 5]</text>
<text text-anchor="start" x="331.5" y="-230.8" font-family="Helvetica,sans-Serif" font-size="14.00">class = B</text>
</g>
<!-- 3&#45;&gt;4 -->
<g id="edge4" class="edge">
<title>3&#45;&gt;4</title>
<path fill="none" stroke="black" d="M471.6,-341.91C458.12,-332.29 443.63,-321.95 429.81,-312.09"/>
<polygon fill="black" stroke="black" points="431.47,-308.98 421.3,-306.02 427.41,-314.68 431.47,-308.98"/>
</g>
<!-- 11 -->
<g id="node12" class="node">
<title>11</title>
<path fill="#bddef6" stroke="black" d="M585,-306C585,-306 472,-306 472,-306 466,-306 460,-300 460,-294 460,-294 460,-235 460,-235 460,-229 466,-223 472,-223 472,-223 585,-223 585,-223 591,-223 597,-229 597,-235 597,-235 597,-294 597,-294 597,-300 591,-306 585,-306"/>
<text text-anchor="start" x="468" y="-290.8" font-family="Helvetica,sans-Serif" font-size="14.00">texture2 ≤ 1.279</text>
<text text-anchor="start" x="489" y="-275.8" font-family="Helvetica,sans-Serif" font-size="14.00">gini = 0.48</text>
<text text-anchor="start" x="484.5" y="-260.8" font-family="Helvetica,sans-Serif" font-size="14.00">samples = 5</text>
<text text-anchor="start" x="480" y="-245.8" font-family="Helvetica,sans-Serif" font-size="14.00">value = [2, 3]</text>
<text text-anchor="start" x="494.5" y="-230.8" font-family="Helvetica,sans-Serif" font-size="14.00">class = M</text>
</g>
<!-- 3&#45;&gt;11 -->
<g id="edge11" class="edge">
<title>3&#45;&gt;11</title>
<path fill="none" stroke="black" d="M528.5,-341.91C528.5,-333.65 528.5,-324.86 528.5,-316.3"/>
<polygon fill="black" stroke="black" points="532,-316.02 528.5,-306.02 525,-316.02 532,-316.02"/>
</g>
<!-- 5 -->
<g id="node6" class="node">
<title>5</title>
<path fill="#e5823b" stroke="black" d="M250,-187C250,-187 143,-187 143,-187 137,-187 131,-181 131,-175 131,-175 131,-116 131,-116 131,-110 137,-104 143,-104 143,-104 250,-104 250,-104 256,-104 262,-110 262,-116 262,-116 262,-175 262,-175 262,-181 256,-187 250,-187"/>
<text text-anchor="start" x="141.5" y="-171.8" font-family="Helvetica,sans-Serif" font-size="14.00">area2 ≤ 47.035</text>
<text text-anchor="start" x="152.5" y="-156.8" font-family="Helvetica,sans-Serif" font-size="14.00">gini = 0.016</text>
<text text-anchor="start" x="143.5" y="-141.8" font-family="Helvetica,sans-Serif" font-size="14.00">samples = 247</text>
<text text-anchor="start" x="139" y="-126.8" font-family="Helvetica,sans-Serif" font-size="14.00">value = [245, 2]</text>
<text text-anchor="start" x="163.5" y="-111.8" font-family="Helvetica,sans-Serif" font-size="14.00">class = B</text>
</g>
<!-- 4&#45;&gt;5 -->
<g id="edge5" class="edge">
<title>4&#45;&gt;5</title>
<path fill="none" stroke="black" d="M306.21,-222.91C292.27,-213.2 277.28,-202.76 263,-192.81"/>
<polygon fill="black" stroke="black" points="264.89,-189.86 254.68,-187.02 260.89,-195.61 264.89,-189.86"/>
</g>
<!-- 8 -->
<g id="node9" class="node">
<title>8</title>
<path fill="#e89152" stroke="black" d="M439,-187C439,-187 292,-187 292,-187 286,-187 280,-181 280,-175 280,-175 280,-116 280,-116 280,-110 286,-104 292,-104 292,-104 439,-104 439,-104 445,-104 451,-110 451,-116 451,-116 451,-175 451,-175 451,-181 445,-187 439,-187"/>
<text text-anchor="start" x="288" y="-171.8" font-family="Helvetica,sans-Serif" font-size="14.00">smoothness3 ≤ 0.136</text>
<text text-anchor="start" x="321.5" y="-156.8" font-family="Helvetica,sans-Serif" font-size="14.00">gini = 0.198</text>
<text text-anchor="start" x="317" y="-141.8" font-family="Helvetica,sans-Serif" font-size="14.00">samples = 27</text>
<text text-anchor="start" x="312.5" y="-126.8" font-family="Helvetica,sans-Serif" font-size="14.00">value = [24, 3]</text>
<text text-anchor="start" x="332.5" y="-111.8" font-family="Helvetica,sans-Serif" font-size="14.00">class = B</text>
</g>
<!-- 4&#45;&gt;8 -->
<g id="edge8" class="edge">
<title>4&#45;&gt;8</title>
<path fill="none" stroke="black" d="M364.85,-222.91C364.92,-214.65 364.99,-205.86 365.07,-197.3"/>
<polygon fill="black" stroke="black" points="368.57,-197.05 365.15,-187.02 361.57,-196.99 368.57,-197.05"/>
</g>
<!-- 6 -->
<g id="node7" class="node">
<title>6</title>
<path fill="#e5823a" stroke="black" d="M119,-68C119,-68 12,-68 12,-68 6,-68 0,-62 0,-56 0,-56 0,-12 0,-12 0,-6 6,0 12,0 12,0 119,0 119,0 125,0 131,-6 131,-12 131,-12 131,-56 131,-56 131,-62 125,-68 119,-68"/>
<text text-anchor="start" x="21.5" y="-52.8" font-family="Helvetica,sans-Serif" font-size="14.00">gini = 0.008</text>
<text text-anchor="start" x="12.5" y="-37.8" font-family="Helvetica,sans-Serif" font-size="14.00">samples = 243</text>
<text text-anchor="start" x="8" y="-22.8" font-family="Helvetica,sans-Serif" font-size="14.00">value = [242, 1]</text>
<text text-anchor="start" x="32.5" y="-7.8" font-family="Helvetica,sans-Serif" font-size="14.00">class = B</text>
</g>
<!-- 5&#45;&gt;6 -->
<g id="edge6" class="edge">
<title>5&#45;&gt;6</title>
<path fill="none" stroke="black" d="M147.72,-103.73C136.37,-94.24 124.31,-84.16 113.01,-74.72"/>
<polygon fill="black" stroke="black" points="115.26,-72.03 105.34,-68.3 110.77,-77.4 115.26,-72.03"/>
</g>
<!-- 7 -->
<g id="node8" class="node">
<title>7</title>
<path fill="#eeab7b" stroke="black" d="M250,-68C250,-68 161,-68 161,-68 155,-68 149,-62 149,-56 149,-56 149,-12 149,-12 149,-6 155,0 161,0 161,0 250,0 250,0 256,0 262,-6 262,-12 262,-12 262,-56 262,-56 262,-62 256,-68 250,-68"/>
<text text-anchor="start" x="161.5" y="-52.8" font-family="Helvetica,sans-Serif" font-size="14.00">gini = 0.375</text>
<text text-anchor="start" x="161.5" y="-37.8" font-family="Helvetica,sans-Serif" font-size="14.00">samples = 4</text>
<text text-anchor="start" x="157" y="-22.8" font-family="Helvetica,sans-Serif" font-size="14.00">value = [3, 1]</text>
<text text-anchor="start" x="172.5" y="-7.8" font-family="Helvetica,sans-Serif" font-size="14.00">class = B</text>
</g>
<!-- 5&#45;&gt;7 -->
<g id="edge7" class="edge">
<title>5&#45;&gt;7</title>
<path fill="none" stroke="black" d="M199.85,-103.73C200.53,-95.43 201.25,-86.67 201.94,-78.28"/>
<polygon fill="black" stroke="black" points="205.43,-78.55 202.76,-68.3 198.46,-77.98 205.43,-78.55"/>
</g>
<!-- 9 -->
<g id="node10" class="node">
<title>9</title>
<path fill="#e68641" stroke="black" d="M406.5,-68C406.5,-68 308.5,-68 308.5,-68 302.5,-68 296.5,-62 296.5,-56 296.5,-56 296.5,-12 296.5,-12 296.5,-6 302.5,0 308.5,0 308.5,0 406.5,0 406.5,0 412.5,0 418.5,-6 418.5,-12 418.5,-12 418.5,-56 418.5,-56 418.5,-62 412.5,-68 406.5,-68"/>
<text text-anchor="start" x="313.5" y="-52.8" font-family="Helvetica,sans-Serif" font-size="14.00">gini = 0.077</text>
<text text-anchor="start" x="309" y="-37.8" font-family="Helvetica,sans-Serif" font-size="14.00">samples = 25</text>
<text text-anchor="start" x="304.5" y="-22.8" font-family="Helvetica,sans-Serif" font-size="14.00">value = [24, 1]</text>
<text text-anchor="start" x="324.5" y="-7.8" font-family="Helvetica,sans-Serif" font-size="14.00">class = B</text>
</g>
<!-- 8&#45;&gt;9 -->
<g id="edge9" class="edge">
<title>8&#45;&gt;9</title>
<path fill="none" stroke="black" d="M362.52,-103.73C361.91,-95.43 361.27,-86.67 360.66,-78.28"/>
<polygon fill="black" stroke="black" points="364.15,-78.02 359.93,-68.3 357.17,-78.53 364.15,-78.02"/>
</g>
<!-- 10 -->
<g id="node11" class="node">
<title>10</title>
<path fill="#399de5" stroke="black" d="M538,-68C538,-68 449,-68 449,-68 443,-68 437,-62 437,-56 437,-56 437,-12 437,-12 437,-6 443,0 449,0 449,0 538,0 538,0 544,0 550,-6 550,-12 550,-12 550,-56 550,-56 550,-62 544,-68 538,-68"/>
<text text-anchor="start" x="458.5" y="-52.8" font-family="Helvetica,sans-Serif" font-size="14.00">gini = 0.0</text>
<text text-anchor="start" x="449.5" y="-37.8" font-family="Helvetica,sans-Serif" font-size="14.00">samples = 2</text>
<text text-anchor="start" x="445" y="-22.8" font-family="Helvetica,sans-Serif" font-size="14.00">value = [0, 2]</text>
<text text-anchor="start" x="459.5" y="-7.8" font-family="Helvetica,sans-Serif" font-size="14.00">class = M</text>
</g>
<!-- 8&#45;&gt;10 -->
<g id="edge10" class="edge">
<title>8&#45;&gt;10</title>
<path fill="none" stroke="black" d="M413.16,-103.73C424.14,-94.33 435.81,-84.35 446.76,-74.99"/>
<polygon fill="black" stroke="black" points="449.25,-77.46 454.57,-68.3 444.7,-72.14 449.25,-77.46"/>
</g>
<!-- 12 -->
<g id="node13" class="node">
<title>12</title>
<path fill="#e58139" stroke="black" d="M572,-179.5C572,-179.5 483,-179.5 483,-179.5 477,-179.5 471,-173.5 471,-167.5 471,-167.5 471,-123.5 471,-123.5 471,-117.5 477,-111.5 483,-111.5 483,-111.5 572,-111.5 572,-111.5 578,-111.5 584,-117.5 584,-123.5 584,-123.5 584,-167.5 584,-167.5 584,-173.5 578,-179.5 572,-179.5"/>
<text text-anchor="start" x="492.5" y="-164.3" font-family="Helvetica,sans-Serif" font-size="14.00">gini = 0.0</text>
<text text-anchor="start" x="483.5" y="-149.3" font-family="Helvetica,sans-Serif" font-size="14.00">samples = 2</text>
<text text-anchor="start" x="479" y="-134.3" font-family="Helvetica,sans-Serif" font-size="14.00">value = [2, 0]</text>
<text text-anchor="start" x="494.5" y="-119.3" font-family="Helvetica,sans-Serif" font-size="14.00">class = B</text>
</g>
<!-- 11&#45;&gt;12 -->
<g id="edge12" class="edge">
<title>11&#45;&gt;12</title>
<path fill="none" stroke="black" d="M528.15,-222.91C528.06,-212.2 527.96,-200.62 527.87,-189.78"/>
<polygon fill="black" stroke="black" points="531.37,-189.64 527.78,-179.67 524.37,-189.7 531.37,-189.64"/>
</g>
<!-- 13 -->
<g id="node14" class="node">
<title>13</title>
<path fill="#399de5" stroke="black" d="M703,-179.5C703,-179.5 614,-179.5 614,-179.5 608,-179.5 602,-173.5 602,-167.5 602,-167.5 602,-123.5 602,-123.5 602,-117.5 608,-111.5 614,-111.5 614,-111.5 703,-111.5 703,-111.5 709,-111.5 715,-117.5 715,-123.5 715,-123.5 715,-167.5 715,-167.5 715,-173.5 709,-179.5 703,-179.5"/>
<text text-anchor="start" x="623.5" y="-164.3" font-family="Helvetica,sans-Serif" font-size="14.00">gini = 0.0</text>
<text text-anchor="start" x="614.5" y="-149.3" font-family="Helvetica,sans-Serif" font-size="14.00">samples = 3</text>
<text text-anchor="start" x="610" y="-134.3" font-family="Helvetica,sans-Serif" font-size="14.00">value = [0, 3]</text>
<text text-anchor="start" x="624.5" y="-119.3" font-family="Helvetica,sans-Serif" font-size="14.00">class = M</text>
</g>
<!-- 11&#45;&gt;13 -->
<g id="edge13" class="edge">
<title>11&#45;&gt;13</title>
<path fill="none" stroke="black" d="M573.6,-222.91C586.72,-211.1 601.04,-198.22 614.11,-186.45"/>
<polygon fill="black" stroke="black" points="616.56,-188.96 621.65,-179.67 611.87,-183.76 616.56,-188.96"/>
</g>
<!-- 15 -->
<g id="node16" class="node">
<title>15</title>
<path fill="#e58139" stroke="black" d="M716,-298.5C716,-298.5 627,-298.5 627,-298.5 621,-298.5 615,-292.5 615,-286.5 615,-286.5 615,-242.5 615,-242.5 615,-236.5 621,-230.5 627,-230.5 627,-230.5 716,-230.5 716,-230.5 722,-230.5 728,-236.5 728,-242.5 728,-242.5 728,-286.5 728,-286.5 728,-292.5 722,-298.5 716,-298.5"/>
<text text-anchor="start" x="636.5" y="-283.3" font-family="Helvetica,sans-Serif" font-size="14.00">gini = 0.0</text>
<text text-anchor="start" x="627.5" y="-268.3" font-family="Helvetica,sans-Serif" font-size="14.00">samples = 2</text>
<text text-anchor="start" x="623" y="-253.3" font-family="Helvetica,sans-Serif" font-size="14.00">value = [2, 0]</text>
<text text-anchor="start" x="638.5" y="-238.3" font-family="Helvetica,sans-Serif" font-size="14.00">class = B</text>
</g>
<!-- 14&#45;&gt;15 -->
<g id="edge15" class="edge">
<title>14&#45;&gt;15</title>
<path fill="none" stroke="black" d="M713.3,-341.91C707.26,-330.87 700.71,-318.9 694.62,-307.77"/>
<polygon fill="black" stroke="black" points="697.51,-305.76 689.64,-298.67 691.37,-309.12 697.51,-305.76"/>
</g>
<!-- 16 -->
<g id="node17" class="node">
<title>16</title>
<path fill="#399de5" stroke="black" d="M847,-298.5C847,-298.5 758,-298.5 758,-298.5 752,-298.5 746,-292.5 746,-286.5 746,-286.5 746,-242.5 746,-242.5 746,-236.5 752,-230.5 758,-230.5 758,-230.5 847,-230.5 847,-230.5 853,-230.5 859,-236.5 859,-242.5 859,-242.5 859,-286.5 859,-286.5 859,-292.5 853,-298.5 847,-298.5"/>
<text text-anchor="start" x="767.5" y="-283.3" font-family="Helvetica,sans-Serif" font-size="14.00">gini = 0.0</text>
<text text-anchor="start" x="758.5" y="-268.3" font-family="Helvetica,sans-Serif" font-size="14.00">samples = 4</text>
<text text-anchor="start" x="754" y="-253.3" font-family="Helvetica,sans-Serif" font-size="14.00">value = [0, 4]</text>
<text text-anchor="start" x="768.5" y="-238.3" font-family="Helvetica,sans-Serif" font-size="14.00">class = M</text>
</g>
<!-- 14&#45;&gt;16 -->
<g id="edge16" class="edge">
<title>14&#45;&gt;16</title>
<path fill="none" stroke="black" d="M758.75,-341.91C765.13,-330.76 772.06,-318.66 778.48,-307.44"/>
<polygon fill="black" stroke="black" points="781.57,-309.08 783.51,-298.67 775.5,-305.61 781.57,-309.08"/>
</g>
<!-- 18 -->
<g id="node19" class="node">
<title>18</title>
<path fill="#f2c09c" stroke="black" d="M999,-425C999,-425 868,-425 868,-425 862,-425 856,-419 856,-413 856,-413 856,-354 856,-354 856,-348 862,-342 868,-342 868,-342 999,-342 999,-342 1005,-342 1011,-348 1011,-354 1011,-354 1011,-413 1011,-413 1011,-419 1005,-425 999,-425"/>
<text text-anchor="start" x="864" y="-409.8" font-family="Helvetica,sans-Serif" font-size="14.00">perimeter1 ≤ 86.85</text>
<text text-anchor="start" x="889.5" y="-394.8" font-family="Helvetica,sans-Serif" font-size="14.00">gini = 0.444</text>
<text text-anchor="start" x="889.5" y="-379.8" font-family="Helvetica,sans-Serif" font-size="14.00">samples = 3</text>
<text text-anchor="start" x="885" y="-364.8" font-family="Helvetica,sans-Serif" font-size="14.00">value = [2, 1]</text>
<text text-anchor="start" x="900.5" y="-349.8" font-family="Helvetica,sans-Serif" font-size="14.00">class = B</text>
</g>
<!-- 17&#45;&gt;18 -->
<g id="edge18" class="edge">
<title>17&#45;&gt;18</title>
<path fill="none" stroke="black" d="M965.5,-460.91C961.93,-452.38 958.12,-443.28 954.42,-434.46"/>
<polygon fill="black" stroke="black" points="957.56,-432.89 950.47,-425.02 951.1,-435.6 957.56,-432.89"/>
</g>
<!-- 21 -->
<g id="node22" class="node">
<title>21</title>
<path fill="#399de5" stroke="black" d="M1130,-417.5C1130,-417.5 1041,-417.5 1041,-417.5 1035,-417.5 1029,-411.5 1029,-405.5 1029,-405.5 1029,-361.5 1029,-361.5 1029,-355.5 1035,-349.5 1041,-349.5 1041,-349.5 1130,-349.5 1130,-349.5 1136,-349.5 1142,-355.5 1142,-361.5 1142,-361.5 1142,-405.5 1142,-405.5 1142,-411.5 1136,-417.5 1130,-417.5"/>
<text text-anchor="start" x="1050.5" y="-402.3" font-family="Helvetica,sans-Serif" font-size="14.00">gini = 0.0</text>
<text text-anchor="start" x="1041.5" y="-387.3" font-family="Helvetica,sans-Serif" font-size="14.00">samples = 9</text>
<text text-anchor="start" x="1037" y="-372.3" font-family="Helvetica,sans-Serif" font-size="14.00">value = [0, 9]</text>
<text text-anchor="start" x="1051.5" y="-357.3" font-family="Helvetica,sans-Serif" font-size="14.00">class = M</text>
</g>
<!-- 17&#45;&gt;21 -->
<g id="edge21" class="edge">
<title>17&#45;&gt;21</title>
<path fill="none" stroke="black" d="M1018.24,-460.91C1028.34,-449.43 1039.34,-436.94 1049.46,-425.44"/>
<polygon fill="black" stroke="black" points="1052.32,-427.49 1056.3,-417.67 1047.07,-422.86 1052.32,-427.49"/>
</g>
<!-- 19 -->
<g id="node20" class="node">
<title>19</title>
<path fill="#e58139" stroke="black" d="M978,-298.5C978,-298.5 889,-298.5 889,-298.5 883,-298.5 877,-292.5 877,-286.5 877,-286.5 877,-242.5 877,-242.5 877,-236.5 883,-230.5 889,-230.5 889,-230.5 978,-230.5 978,-230.5 984,-230.5 990,-236.5 990,-242.5 990,-242.5 990,-286.5 990,-286.5 990,-292.5 984,-298.5 978,-298.5"/>
<text text-anchor="start" x="898.5" y="-283.3" font-family="Helvetica,sans-Serif" font-size="14.00">gini = 0.0</text>
<text text-anchor="start" x="889.5" y="-268.3" font-family="Helvetica,sans-Serif" font-size="14.00">samples = 2</text>
<text text-anchor="start" x="885" y="-253.3" font-family="Helvetica,sans-Serif" font-size="14.00">value = [2, 0]</text>
<text text-anchor="start" x="900.5" y="-238.3" font-family="Helvetica,sans-Serif" font-size="14.00">class = B</text>
</g>
<!-- 18&#45;&gt;19 -->
<g id="edge19" class="edge">
<title>18&#45;&gt;19</title>
<path fill="none" stroke="black" d="M933.5,-341.91C933.5,-331.2 933.5,-319.62 933.5,-308.78"/>
<polygon fill="black" stroke="black" points="937,-308.67 933.5,-298.67 930,-308.67 937,-308.67"/>
</g>
<!-- 20 -->
<g id="node21" class="node">
<title>20</title>
<path fill="#399de5" stroke="black" d="M1109,-298.5C1109,-298.5 1020,-298.5 1020,-298.5 1014,-298.5 1008,-292.5 1008,-286.5 1008,-286.5 1008,-242.5 1008,-242.5 1008,-236.5 1014,-230.5 1020,-230.5 1020,-230.5 1109,-230.5 1109,-230.5 1115,-230.5 1121,-236.5 1121,-242.5 1121,-242.5 1121,-286.5 1121,-286.5 1121,-292.5 1115,-298.5 1109,-298.5"/>
<text text-anchor="start" x="1029.5" y="-283.3" font-family="Helvetica,sans-Serif" font-size="14.00">gini = 0.0</text>
<text text-anchor="start" x="1020.5" y="-268.3" font-family="Helvetica,sans-Serif" font-size="14.00">samples = 1</text>
<text text-anchor="start" x="1016" y="-253.3" font-family="Helvetica,sans-Serif" font-size="14.00">value = [0, 1]</text>
<text text-anchor="start" x="1030.5" y="-238.3" font-family="Helvetica,sans-Serif" font-size="14.00">class = M</text>
</g>
<!-- 18&#45;&gt;20 -->
<g id="edge20" class="edge">
<title>18&#45;&gt;20</title>
<path fill="none" stroke="black" d="M978.95,-341.91C992.17,-330.1 1006.6,-317.22 1019.77,-305.45"/>
<polygon fill="black" stroke="black" points="1022.24,-307.94 1027.36,-298.67 1017.57,-302.72 1022.24,-307.94"/>
</g>
<!-- 23 -->
<g id="node24" class="node">
<title>23</title>
<path fill="#efb388" stroke="black" d="M1355,-544C1355,-544 1208,-544 1208,-544 1202,-544 1196,-538 1196,-532 1196,-532 1196,-473 1196,-473 1196,-467 1202,-461 1208,-461 1208,-461 1355,-461 1355,-461 1361,-461 1367,-467 1367,-473 1367,-473 1367,-532 1367,-532 1367,-538 1361,-544 1355,-544"/>
<text text-anchor="start" x="1204" y="-528.8" font-family="Helvetica,sans-Serif" font-size="14.00">smoothness3 ≤ 0.142</text>
<text text-anchor="start" x="1237.5" y="-513.8" font-family="Helvetica,sans-Serif" font-size="14.00">gini = 0.408</text>
<text text-anchor="start" x="1237.5" y="-498.8" font-family="Helvetica,sans-Serif" font-size="14.00">samples = 7</text>
<text text-anchor="start" x="1233" y="-483.8" font-family="Helvetica,sans-Serif" font-size="14.00">value = [5, 2]</text>
<text text-anchor="start" x="1248.5" y="-468.8" font-family="Helvetica,sans-Serif" font-size="14.00">class = B</text>
</g>
<!-- 22&#45;&gt;23 -->
<g id="edge23" class="edge">
<title>22&#45;&gt;23</title>
<path fill="none" stroke="black" d="M1281.5,-579.91C1281.5,-571.65 1281.5,-562.86 1281.5,-554.3"/>
<polygon fill="black" stroke="black" points="1285,-554.02 1281.5,-544.02 1278,-554.02 1285,-554.02"/>
</g>
<!-- 26 -->
<g id="node27" class="node">
<title>26</title>
<path fill="#40a0e6" stroke="black" d="M1573,-544C1573,-544 1466,-544 1466,-544 1460,-544 1454,-538 1454,-532 1454,-532 1454,-473 1454,-473 1454,-467 1460,-461 1466,-461 1466,-461 1573,-461 1573,-461 1579,-461 1585,-467 1585,-473 1585,-473 1585,-532 1585,-532 1585,-538 1579,-544 1573,-544"/>
<text text-anchor="start" x="1469" y="-528.8" font-family="Helvetica,sans-Serif" font-size="14.00">area3 ≤ 810.1</text>
<text text-anchor="start" x="1475.5" y="-513.8" font-family="Helvetica,sans-Serif" font-size="14.00">gini = 0.064</text>
<text text-anchor="start" x="1466.5" y="-498.8" font-family="Helvetica,sans-Serif" font-size="14.00">samples = 151</text>
<text text-anchor="start" x="1462" y="-483.8" font-family="Helvetica,sans-Serif" font-size="14.00">value = [5, 146]</text>
<text text-anchor="start" x="1485.5" y="-468.8" font-family="Helvetica,sans-Serif" font-size="14.00">class = M</text>
</g>
<!-- 22&#45;&gt;26 -->
<g id="edge26" class="edge">
<title>22&#45;&gt;26</title>
<path fill="none" stroke="black" d="M1354.53,-584.6C1383.13,-570.54 1415.92,-554.42 1444.7,-540.27"/>
<polygon fill="black" stroke="black" points="1446.46,-543.31 1453.89,-535.75 1443.37,-537.02 1446.46,-543.31"/>
</g>
<!-- 24 -->
<g id="node25" class="node">
<title>24</title>
<path fill="#e58139" stroke="black" d="M1261,-417.5C1261,-417.5 1172,-417.5 1172,-417.5 1166,-417.5 1160,-411.5 1160,-405.5 1160,-405.5 1160,-361.5 1160,-361.5 1160,-355.5 1166,-349.5 1172,-349.5 1172,-349.5 1261,-349.5 1261,-349.5 1267,-349.5 1273,-355.5 1273,-361.5 1273,-361.5 1273,-405.5 1273,-405.5 1273,-411.5 1267,-417.5 1261,-417.5"/>
<text text-anchor="start" x="1181.5" y="-402.3" font-family="Helvetica,sans-Serif" font-size="14.00">gini = 0.0</text>
<text text-anchor="start" x="1172.5" y="-387.3" font-family="Helvetica,sans-Serif" font-size="14.00">samples = 5</text>
<text text-anchor="start" x="1168" y="-372.3" font-family="Helvetica,sans-Serif" font-size="14.00">value = [5, 0]</text>
<text text-anchor="start" x="1183.5" y="-357.3" font-family="Helvetica,sans-Serif" font-size="14.00">class = B</text>
</g>
<!-- 23&#45;&gt;24 -->
<g id="edge24" class="edge">
<title>23&#45;&gt;24</title>
<path fill="none" stroke="black" d="M1258.95,-460.91C1252.76,-449.76 1246.03,-437.66 1239.8,-426.44"/>
<polygon fill="black" stroke="black" points="1242.84,-424.71 1234.93,-417.67 1236.72,-428.11 1242.84,-424.71"/>
</g>
<!-- 25 -->
<g id="node26" class="node">
<title>25</title>
<path fill="#399de5" stroke="black" d="M1392,-417.5C1392,-417.5 1303,-417.5 1303,-417.5 1297,-417.5 1291,-411.5 1291,-405.5 1291,-405.5 1291,-361.5 1291,-361.5 1291,-355.5 1297,-349.5 1303,-349.5 1303,-349.5 1392,-349.5 1392,-349.5 1398,-349.5 1404,-355.5 1404,-361.5 1404,-361.5 1404,-405.5 1404,-405.5 1404,-411.5 1398,-417.5 1392,-417.5"/>
<text text-anchor="start" x="1312.5" y="-402.3" font-family="Helvetica,sans-Serif" font-size="14.00">gini = 0.0</text>
<text text-anchor="start" x="1303.5" y="-387.3" font-family="Helvetica,sans-Serif" font-size="14.00">samples = 2</text>
<text text-anchor="start" x="1299" y="-372.3" font-family="Helvetica,sans-Serif" font-size="14.00">value = [0, 2]</text>
<text text-anchor="start" x="1313.5" y="-357.3" font-family="Helvetica,sans-Serif" font-size="14.00">class = M</text>
</g>
<!-- 23&#45;&gt;25 -->
<g id="edge25" class="edge">
<title>23&#45;&gt;25</title>
<path fill="none" stroke="black" d="M1304.4,-460.91C1310.69,-449.76 1317.51,-437.66 1323.84,-426.44"/>
<polygon fill="black" stroke="black" points="1326.93,-428.1 1328.79,-417.67 1320.83,-424.66 1326.93,-428.1"/>
</g>
<!-- 27 -->
<g id="node28" class="node">
<title>27</title>
<path fill="#f6d5bd" stroke="black" d="M1604.5,-425C1604.5,-425 1434.5,-425 1434.5,-425 1428.5,-425 1422.5,-419 1422.5,-413 1422.5,-413 1422.5,-354 1422.5,-354 1422.5,-348 1428.5,-342 1434.5,-342 1434.5,-342 1604.5,-342 1604.5,-342 1610.5,-342 1616.5,-348 1616.5,-354 1616.5,-354 1616.5,-413 1616.5,-413 1616.5,-419 1610.5,-425 1604.5,-425"/>
<text text-anchor="start" x="1430.5" y="-409.8" font-family="Helvetica,sans-Serif" font-size="14.00">concave_points1 ≤ 0.047</text>
<text text-anchor="start" x="1480" y="-394.8" font-family="Helvetica,sans-Serif" font-size="14.00">gini = 0.48</text>
<text text-anchor="start" x="1475.5" y="-379.8" font-family="Helvetica,sans-Serif" font-size="14.00">samples = 5</text>
<text text-anchor="start" x="1471" y="-364.8" font-family="Helvetica,sans-Serif" font-size="14.00">value = [3, 2]</text>
<text text-anchor="start" x="1486.5" y="-349.8" font-family="Helvetica,sans-Serif" font-size="14.00">class = B</text>
</g>
<!-- 26&#45;&gt;27 -->
<g id="edge27" class="edge">
<title>26&#45;&gt;27</title>
<path fill="none" stroke="black" d="M1519.5,-460.91C1519.5,-452.65 1519.5,-443.86 1519.5,-435.3"/>
<polygon fill="black" stroke="black" points="1523,-435.02 1519.5,-425.02 1516,-435.02 1523,-435.02"/>
</g>
<!-- 30 -->
<g id="node31" class="node">
<title>30</title>
<path fill="#3c9ee5" stroke="black" d="M1794,-425C1794,-425 1647,-425 1647,-425 1641,-425 1635,-419 1635,-413 1635,-413 1635,-354 1635,-354 1635,-348 1641,-342 1647,-342 1647,-342 1794,-342 1794,-342 1800,-342 1806,-348 1806,-354 1806,-354 1806,-413 1806,-413 1806,-419 1800,-425 1794,-425"/>
<text text-anchor="start" x="1643" y="-409.8" font-family="Helvetica,sans-Serif" font-size="14.00">smoothness3 ≤ 0.088</text>
<text text-anchor="start" x="1676.5" y="-394.8" font-family="Helvetica,sans-Serif" font-size="14.00">gini = 0.027</text>
<text text-anchor="start" x="1667.5" y="-379.8" font-family="Helvetica,sans-Serif" font-size="14.00">samples = 146</text>
<text text-anchor="start" x="1663" y="-364.8" font-family="Helvetica,sans-Serif" font-size="14.00">value = [2, 144]</text>
<text text-anchor="start" x="1686.5" y="-349.8" font-family="Helvetica,sans-Serif" font-size="14.00">class = M</text>
</g>
<!-- 26&#45;&gt;30 -->
<g id="edge30" class="edge">
<title>26&#45;&gt;30</title>
<path fill="none" stroke="black" d="M1585.04,-463.35C1603.23,-452.76 1623.18,-441.15 1642.03,-430.17"/>
<polygon fill="black" stroke="black" points="1644.02,-433.07 1650.9,-425.01 1640.5,-427.02 1644.02,-433.07"/>
</g>
<!-- 28 -->
<g id="node29" class="node">
<title>28</title>
<path fill="#e58139" stroke="black" d="M1468,-298.5C1468,-298.5 1379,-298.5 1379,-298.5 1373,-298.5 1367,-292.5 1367,-286.5 1367,-286.5 1367,-242.5 1367,-242.5 1367,-236.5 1373,-230.5 1379,-230.5 1379,-230.5 1468,-230.5 1468,-230.5 1474,-230.5 1480,-236.5 1480,-242.5 1480,-242.5 1480,-286.5 1480,-286.5 1480,-292.5 1474,-298.5 1468,-298.5"/>
<text text-anchor="start" x="1388.5" y="-283.3" font-family="Helvetica,sans-Serif" font-size="14.00">gini = 0.0</text>
<text text-anchor="start" x="1379.5" y="-268.3" font-family="Helvetica,sans-Serif" font-size="14.00">samples = 3</text>
<text text-anchor="start" x="1375" y="-253.3" font-family="Helvetica,sans-Serif" font-size="14.00">value = [3, 0]</text>
<text text-anchor="start" x="1390.5" y="-238.3" font-family="Helvetica,sans-Serif" font-size="14.00">class = B</text>
</g>
<!-- 27&#45;&gt;28 -->
<g id="edge28" class="edge">
<title>27&#45;&gt;28</title>
<path fill="none" stroke="black" d="M1486.19,-341.91C1476.78,-330.43 1466.53,-317.94 1457.09,-306.44"/>
<polygon fill="black" stroke="black" points="1459.76,-304.18 1450.71,-298.67 1454.35,-308.62 1459.76,-304.18"/>
</g>
<!-- 29 -->
<g id="node30" class="node">
<title>29</title>
<path fill="#399de5" stroke="black" d="M1599,-298.5C1599,-298.5 1510,-298.5 1510,-298.5 1504,-298.5 1498,-292.5 1498,-286.5 1498,-286.5 1498,-242.5 1498,-242.5 1498,-236.5 1504,-230.5 1510,-230.5 1510,-230.5 1599,-230.5 1599,-230.5 1605,-230.5 1611,-236.5 1611,-242.5 1611,-242.5 1611,-286.5 1611,-286.5 1611,-292.5 1605,-298.5 1599,-298.5"/>
<text text-anchor="start" x="1519.5" y="-283.3" font-family="Helvetica,sans-Serif" font-size="14.00">gini = 0.0</text>
<text text-anchor="start" x="1510.5" y="-268.3" font-family="Helvetica,sans-Serif" font-size="14.00">samples = 2</text>
<text text-anchor="start" x="1506" y="-253.3" font-family="Helvetica,sans-Serif" font-size="14.00">value = [0, 2]</text>
<text text-anchor="start" x="1520.5" y="-238.3" font-family="Helvetica,sans-Serif" font-size="14.00">class = M</text>
</g>
<!-- 27&#45;&gt;29 -->
<g id="edge29" class="edge">
<title>27&#45;&gt;29</title>
<path fill="none" stroke="black" d="M1531.64,-341.91C1534.88,-331.09 1538.38,-319.38 1541.65,-308.44"/>
<polygon fill="black" stroke="black" points="1545.07,-309.25 1544.58,-298.67 1538.36,-307.24 1545.07,-309.25"/>
</g>
<!-- 31 -->
<g id="node32" class="node">
<title>31</title>
<path fill="#e58139" stroke="black" d="M1747,-298.5C1747,-298.5 1658,-298.5 1658,-298.5 1652,-298.5 1646,-292.5 1646,-286.5 1646,-286.5 1646,-242.5 1646,-242.5 1646,-236.5 1652,-230.5 1658,-230.5 1658,-230.5 1747,-230.5 1747,-230.5 1753,-230.5 1759,-236.5 1759,-242.5 1759,-242.5 1759,-286.5 1759,-286.5 1759,-292.5 1753,-298.5 1747,-298.5"/>
<text text-anchor="start" x="1667.5" y="-283.3" font-family="Helvetica,sans-Serif" font-size="14.00">gini = 0.0</text>
<text text-anchor="start" x="1658.5" y="-268.3" font-family="Helvetica,sans-Serif" font-size="14.00">samples = 1</text>
<text text-anchor="start" x="1654" y="-253.3" font-family="Helvetica,sans-Serif" font-size="14.00">value = [1, 0]</text>
<text text-anchor="start" x="1669.5" y="-238.3" font-family="Helvetica,sans-Serif" font-size="14.00">class = B</text>
</g>
<!-- 30&#45;&gt;31 -->
<g id="edge31" class="edge">
<title>30&#45;&gt;31</title>
<path fill="none" stroke="black" d="M1714.25,-341.91C1712.61,-331.2 1710.83,-319.62 1709.16,-308.78"/>
<polygon fill="black" stroke="black" points="1712.58,-308.02 1707.6,-298.67 1705.66,-309.08 1712.58,-308.02"/>
</g>
<!-- 32 -->
<g id="node33" class="node">
<title>32</title>
<path fill="#3a9ee5" stroke="black" d="M1918,-306C1918,-306 1789,-306 1789,-306 1783,-306 1777,-300 1777,-294 1777,-294 1777,-235 1777,-235 1777,-229 1783,-223 1789,-223 1789,-223 1918,-223 1918,-223 1924,-223 1930,-229 1930,-235 1930,-235 1930,-294 1930,-294 1930,-300 1924,-306 1918,-306"/>
<text text-anchor="start" x="1785" y="-290.8" font-family="Helvetica,sans-Serif" font-size="14.00">concavity3 ≤ 0.187</text>
<text text-anchor="start" x="1809.5" y="-275.8" font-family="Helvetica,sans-Serif" font-size="14.00">gini = 0.014</text>
<text text-anchor="start" x="1800.5" y="-260.8" font-family="Helvetica,sans-Serif" font-size="14.00">samples = 145</text>
<text text-anchor="start" x="1796" y="-245.8" font-family="Helvetica,sans-Serif" font-size="14.00">value = [1, 144]</text>
<text text-anchor="start" x="1819.5" y="-230.8" font-family="Helvetica,sans-Serif" font-size="14.00">class = M</text>
</g>
<!-- 30&#45;&gt;32 -->
<g id="edge32" class="edge">
<title>30&#45;&gt;32</title>
<path fill="none" stroke="black" d="M1766.64,-341.91C1777.37,-332.47 1788.88,-322.34 1799.9,-312.65"/>
<polygon fill="black" stroke="black" points="1802.24,-315.25 1807.44,-306.02 1797.62,-310 1802.24,-315.25"/>
</g>
<!-- 33 -->
<g id="node34" class="node">
<title>33</title>
<path fill="#9ccef2" stroke="black" d="M1838,-187C1838,-187 1709,-187 1709,-187 1703,-187 1697,-181 1697,-175 1697,-175 1697,-116 1697,-116 1697,-110 1703,-104 1709,-104 1709,-104 1838,-104 1838,-104 1844,-104 1850,-110 1850,-116 1850,-116 1850,-175 1850,-175 1850,-181 1844,-187 1838,-187"/>
<text text-anchor="start" x="1705" y="-171.8" font-family="Helvetica,sans-Serif" font-size="14.00">concavity2 ≤ 0.015</text>
<text text-anchor="start" x="1729.5" y="-156.8" font-family="Helvetica,sans-Serif" font-size="14.00">gini = 0.444</text>
<text text-anchor="start" x="1729.5" y="-141.8" font-family="Helvetica,sans-Serif" font-size="14.00">samples = 3</text>
<text text-anchor="start" x="1725" y="-126.8" font-family="Helvetica,sans-Serif" font-size="14.00">value = [1, 2]</text>
<text text-anchor="start" x="1739.5" y="-111.8" font-family="Helvetica,sans-Serif" font-size="14.00">class = M</text>
</g>
<!-- 32&#45;&gt;33 -->
<g id="edge33" class="edge">
<title>32&#45;&gt;33</title>
<path fill="none" stroke="black" d="M1825.74,-222.91C1819.66,-214.01 1813.16,-204.51 1806.89,-195.33"/>
<polygon fill="black" stroke="black" points="1809.74,-193.3 1801.21,-187.02 1803.96,-197.25 1809.74,-193.3"/>
</g>
<!-- 36 -->
<g id="node37" class="node">
<title>36</title>
<path fill="#399de5" stroke="black" d="M1987,-179.5C1987,-179.5 1880,-179.5 1880,-179.5 1874,-179.5 1868,-173.5 1868,-167.5 1868,-167.5 1868,-123.5 1868,-123.5 1868,-117.5 1874,-111.5 1880,-111.5 1880,-111.5 1987,-111.5 1987,-111.5 1993,-111.5 1999,-117.5 1999,-123.5 1999,-123.5 1999,-167.5 1999,-167.5 1999,-173.5 1993,-179.5 1987,-179.5"/>
<text text-anchor="start" x="1898.5" y="-164.3" font-family="Helvetica,sans-Serif" font-size="14.00">gini = 0.0</text>
<text text-anchor="start" x="1880.5" y="-149.3" font-family="Helvetica,sans-Serif" font-size="14.00">samples = 142</text>
<text text-anchor="start" x="1876" y="-134.3" font-family="Helvetica,sans-Serif" font-size="14.00">value = [0, 142]</text>
<text text-anchor="start" x="1899.5" y="-119.3" font-family="Helvetica,sans-Serif" font-size="14.00">class = M</text>
</g>
<!-- 32&#45;&gt;36 -->
<g id="edge36" class="edge">
<title>32&#45;&gt;36</title>
<path fill="none" stroke="black" d="M1881.26,-222.91C1888.95,-211.65 1897.32,-199.42 1905.05,-188.11"/>
<polygon fill="black" stroke="black" points="1908.07,-189.9 1910.82,-179.67 1902.29,-185.95 1908.07,-189.9"/>
</g>
<!-- 34 -->
<g id="node35" class="node">
<title>34</title>
<path fill="#399de5" stroke="black" d="M1752,-68C1752,-68 1663,-68 1663,-68 1657,-68 1651,-62 1651,-56 1651,-56 1651,-12 1651,-12 1651,-6 1657,0 1663,0 1663,0 1752,0 1752,0 1758,0 1764,-6 1764,-12 1764,-12 1764,-56 1764,-56 1764,-62 1758,-68 1752,-68"/>
<text text-anchor="start" x="1672.5" y="-52.8" font-family="Helvetica,sans-Serif" font-size="14.00">gini = 0.0</text>
<text text-anchor="start" x="1663.5" y="-37.8" font-family="Helvetica,sans-Serif" font-size="14.00">samples = 2</text>
<text text-anchor="start" x="1659" y="-22.8" font-family="Helvetica,sans-Serif" font-size="14.00">value = [0, 2]</text>
<text text-anchor="start" x="1673.5" y="-7.8" font-family="Helvetica,sans-Serif" font-size="14.00">class = M</text>
</g>
<!-- 33&#45;&gt;34 -->
<g id="edge34" class="edge">
<title>33&#45;&gt;34</title>
<path fill="none" stroke="black" d="M1748.92,-103.73C1743.65,-94.97 1738.06,-85.7 1732.76,-76.91"/>
<polygon fill="black" stroke="black" points="1735.73,-75.06 1727.57,-68.3 1729.74,-78.67 1735.73,-75.06"/>
</g>
<!-- 35 -->
<g id="node36" class="node">
<title>35</title>
<path fill="#e58139" stroke="black" d="M1883,-68C1883,-68 1794,-68 1794,-68 1788,-68 1782,-62 1782,-56 1782,-56 1782,-12 1782,-12 1782,-6 1788,0 1794,0 1794,0 1883,0 1883,0 1889,0 1895,-6 1895,-12 1895,-12 1895,-56 1895,-56 1895,-62 1889,-68 1883,-68"/>
<text text-anchor="start" x="1803.5" y="-52.8" font-family="Helvetica,sans-Serif" font-size="14.00">gini = 0.0</text>
<text text-anchor="start" x="1794.5" y="-37.8" font-family="Helvetica,sans-Serif" font-size="14.00">samples = 1</text>
<text text-anchor="start" x="1790" y="-22.8" font-family="Helvetica,sans-Serif" font-size="14.00">value = [1, 0]</text>
<text text-anchor="start" x="1805.5" y="-7.8" font-family="Helvetica,sans-Serif" font-size="14.00">class = B</text>
</g>
<!-- 33&#45;&gt;35 -->
<g id="edge35" class="edge">
<title>33&#45;&gt;35</title>
<path fill="none" stroke="black" d="M1797.7,-103.73C1802.9,-94.97 1808.4,-85.7 1813.62,-76.91"/>
<polygon fill="black" stroke="black" points="1816.64,-78.69 1818.73,-68.3 1810.62,-75.11 1816.64,-78.69"/>
</g>
</g>
</svg>
