<?xml version="1.0" encoding="UTF-8" standalone="no"?>
<!DOCTYPE svg PUBLIC "-//W3C//DTD SVG 1.1//EN"
 "http://www.w3.org/Graphics/SVG/1.1/DTD/svg11.dtd">
<!-- Generated by graphviz version 2.43.0 (0)
 -->
<!-- Title: Tree Pages: 1 -->
<svg width="1074pt" height="433pt"
 viewBox="0.00 0.00 1074.00 433.00" xmlns="http://www.w3.org/2000/svg" xmlns:xlink="http://www.w3.org/1999/xlink">
<g id="graph0" class="graph" transform="scale(1 1) rotate(0) translate(4 429)">
<title>Tree</title>
<polygon fill="white" stroke="transparent" points="-4,4 -4,-429 1070,-429 1070,4 -4,4"/>
<!-- 0 -->
<g id="node1" class="node">
<title>0</title>
<path fill="#f5ccaf" stroke="black" d="M572,-425C572,-425 441,-425 441,-425 435,-425 429,-419 429,-413 429,-413 429,-354 429,-354 429,-348 435,-342 441,-342 441,-342 572,-342 572,-342 578,-342 584,-348 584,-354 584,-354 584,-413 584,-413 584,-419 578,-425 572,-425"/>
<text text-anchor="start" x="437" y="-409.8" font-family="Helvetica,sans-Serif" font-size="14.00">perimeter3 ≤ 112.8</text>
<text text-anchor="start" x="462.5" y="-394.8" font-family="Helvetica,sans-Serif" font-size="14.00">gini = 0.468</text>
<text text-anchor="start" x="453.5" y="-379.8" font-family="Helvetica,sans-Serif" font-size="14.00">samples = 455</text>
<text text-anchor="start" x="440" y="-364.8" font-family="Helvetica,sans-Serif" font-size="14.00">value = [285, 170]</text>
<text text-anchor="start" x="473.5" y="-349.8" font-family="Helvetica,sans-Serif" font-size="14.00">class = B</text>
</g>
<!-- 1 -->
<g id="node2" class="node">
<title>1</title>
<path fill="#e78b49" stroke="black" d="M471,-306C471,-306 310,-306 310,-306 304,-306 298,-300 298,-294 298,-294 298,-235 298,-235 298,-229 304,-223 310,-223 310,-223 471,-223 471,-223 477,-223 483,-229 483,-235 483,-235 483,-294 483,-294 483,-300 477,-306 471,-306"/>
<text text-anchor="start" x="306" y="-290.8" font-family="Helvetica,sans-Serif" font-size="14.00">concave_points3 ≤ 0.16</text>
<text text-anchor="start" x="346.5" y="-275.8" font-family="Helvetica,sans-Serif" font-size="14.00">gini = 0.137</text>
<text text-anchor="start" x="337.5" y="-260.8" font-family="Helvetica,sans-Serif" font-size="14.00">samples = 297</text>
<text text-anchor="start" x="328.5" y="-245.8" font-family="Helvetica,sans-Serif" font-size="14.00">value = [275, 22]</text>
<text text-anchor="start" x="357.5" y="-230.8" font-family="Helvetica,sans-Serif" font-size="14.00">class = B</text>
</g>
<!-- 0&#45;&gt;1 -->
<g id="edge1" class="edge">
<title>0&#45;&gt;1</title>
<path fill="none" stroke="black" d="M466.25,-341.91C457.08,-332.65 447.24,-322.73 437.8,-313.21"/>
<polygon fill="black" stroke="black" points="440.2,-310.66 430.67,-306.02 435.23,-315.59 440.2,-310.66"/>
<text text-anchor="middle" x="430.57" y="-327.32" font-family="Helvetica,sans-Serif" font-size="14.00">True</text>
</g>
<!-- 8 -->
<g id="node9" class="node">
<title>8</title>
<path fill="#46a4e7" stroke="black" d="M716.5,-306C716.5,-306 594.5,-306 594.5,-306 588.5,-306 582.5,-300 582.5,-294 582.5,-294 582.5,-235 582.5,-235 582.5,-229 588.5,-223 594.5,-223 594.5,-223 716.5,-223 716.5,-223 722.5,-223 728.5,-229 728.5,-235 728.5,-235 728.5,-294 728.5,-294 728.5,-300 722.5,-306 716.5,-306"/>
<text text-anchor="start" x="590.5" y="-290.8" font-family="Helvetica,sans-Serif" font-size="14.00">texture1 ≤ 14.955</text>
<text text-anchor="start" x="611.5" y="-275.8" font-family="Helvetica,sans-Serif" font-size="14.00">gini = 0.119</text>
<text text-anchor="start" x="602.5" y="-260.8" font-family="Helvetica,sans-Serif" font-size="14.00">samples = 158</text>
<text text-anchor="start" x="593.5" y="-245.8" font-family="Helvetica,sans-Serif" font-size="14.00">value = [10, 148]</text>
<text text-anchor="start" x="621.5" y="-230.8" font-family="Helvetica,sans-Serif" font-size="14.00">class = M</text>
</g>
<!-- 0&#45;&gt;8 -->
<g id="edge8" class="edge">
<title>0&#45;&gt;8</title>
<path fill="none" stroke="black" d="M558.19,-341.91C570.33,-332.38 583.36,-322.15 595.81,-312.37"/>
<polygon fill="black" stroke="black" points="598.19,-314.95 603.9,-306.02 593.87,-309.44 598.19,-314.95"/>
<text text-anchor="middle" x="600.91" y="-327.14" font-family="Helvetica,sans-Serif" font-size="14.00">False</text>
</g>
<!-- 2 -->
<g id="node3" class="node">
<title>2</title>
<path fill="#e68742" stroke="black" d="M263.5,-187C263.5,-187 147.5,-187 147.5,-187 141.5,-187 135.5,-181 135.5,-175 135.5,-175 135.5,-116 135.5,-116 135.5,-110 141.5,-104 147.5,-104 147.5,-104 263.5,-104 263.5,-104 269.5,-104 275.5,-110 275.5,-116 275.5,-116 275.5,-175 275.5,-175 275.5,-181 269.5,-187 263.5,-187"/>
<text text-anchor="start" x="150.5" y="-171.8" font-family="Helvetica,sans-Serif" font-size="14.00">area1 ≤ 696.25</text>
<text text-anchor="start" x="161.5" y="-156.8" font-family="Helvetica,sans-Serif" font-size="14.00">gini = 0.081</text>
<text text-anchor="start" x="152.5" y="-141.8" font-family="Helvetica,sans-Serif" font-size="14.00">samples = 285</text>
<text text-anchor="start" x="143.5" y="-126.8" font-family="Helvetica,sans-Serif" font-size="14.00">value = [273, 12]</text>
<text text-anchor="start" x="172.5" y="-111.8" font-family="Helvetica,sans-Serif" font-size="14.00">class = B</text>
</g>
<!-- 1&#45;&gt;2 -->
<g id="edge2" class="edge">
<title>1&#45;&gt;2</title>
<path fill="none" stroke="black" d="M326.32,-222.91C310.82,-213.11 294.15,-202.56 278.29,-192.53"/>
<polygon fill="black" stroke="black" points="279.89,-189.41 269.57,-187.02 276.15,-195.32 279.89,-189.41"/>
</g>
<!-- 5 -->
<g id="node6" class="node">
<title>5</title>
<path fill="#61b1ea" stroke="black" d="M451.5,-187C451.5,-187 329.5,-187 329.5,-187 323.5,-187 317.5,-181 317.5,-175 317.5,-175 317.5,-116 317.5,-116 317.5,-110 323.5,-104 329.5,-104 329.5,-104 451.5,-104 451.5,-104 457.5,-104 463.5,-110 463.5,-116 463.5,-116 463.5,-175 463.5,-175 463.5,-181 457.5,-187 451.5,-187"/>
<text text-anchor="start" x="325.5" y="-171.8" font-family="Helvetica,sans-Serif" font-size="14.00">texture3 ≤ 24.785</text>
<text text-anchor="start" x="346.5" y="-156.8" font-family="Helvetica,sans-Serif" font-size="14.00">gini = 0.278</text>
<text text-anchor="start" x="342" y="-141.8" font-family="Helvetica,sans-Serif" font-size="14.00">samples = 12</text>
<text text-anchor="start" x="337.5" y="-126.8" font-family="Helvetica,sans-Serif" font-size="14.00">value = [2, 10]</text>
<text text-anchor="start" x="356.5" y="-111.8" font-family="Helvetica,sans-Serif" font-size="14.00">class = M</text>
</g>
<!-- 1&#45;&gt;5 -->
<g id="edge5" class="edge">
<title>1&#45;&gt;5</title>
<path fill="none" stroke="black" d="M390.5,-222.91C390.5,-214.65 390.5,-205.86 390.5,-197.3"/>
<polygon fill="black" stroke="black" points="394,-197.02 390.5,-187.02 387,-197.02 394,-197.02"/>
</g>
<!-- 3 -->
<g id="node4" class="node">
<title>3</title>
<path fill="#e6853f" stroke="black" d="M119,-68C119,-68 12,-68 12,-68 6,-68 0,-62 0,-56 0,-56 0,-12 0,-12 0,-6 6,0 12,0 12,0 119,0 119,0 125,0 131,-6 131,-12 131,-12 131,-56 131,-56 131,-62 125,-68 119,-68"/>
<text text-anchor="start" x="21.5" y="-52.8" font-family="Helvetica,sans-Serif" font-size="14.00">gini = 0.056</text>
<text text-anchor="start" x="12.5" y="-37.8" font-family="Helvetica,sans-Serif" font-size="14.00">samples = 279</text>
<text text-anchor="start" x="8" y="-22.8" font-family="Helvetica,sans-Serif" font-size="14.00">value = [271, 8]</text>
<text text-anchor="start" x="32.5" y="-7.8" font-family="Helvetica,sans-Serif" font-size="14.00">class = B</text>
</g>
<!-- 2&#45;&gt;3 -->
<g id="edge3" class="edge">
<title>2&#45;&gt;3</title>
<path fill="none" stroke="black" d="M153.37,-103.73C141.24,-94.24 128.35,-84.16 116.28,-74.72"/>
<polygon fill="black" stroke="black" points="118.11,-71.7 108.07,-68.3 113.8,-77.22 118.11,-71.7"/>
</g>
<!-- 4 -->
<g id="node5" class="node">
<title>4</title>
<path fill="#9ccef2" stroke="black" d="M250,-68C250,-68 161,-68 161,-68 155,-68 149,-62 149,-56 149,-56 149,-12 149,-12 149,-6 155,0 161,0 161,0 250,0 250,0 256,0 262,-6 262,-12 262,-12 262,-56 262,-56 262,-62 256,-68 250,-68"/>
<text text-anchor="start" x="161.5" y="-52.8" font-family="Helvetica,sans-Serif" font-size="14.00">gini = 0.444</text>
<text text-anchor="start" x="161.5" y="-37.8" font-family="Helvetica,sans-Serif" font-size="14.00">samples = 6</text>
<text text-anchor="start" x="157" y="-22.8" font-family="Helvetica,sans-Serif" font-size="14.00">value = [2, 4]</text>
<text text-anchor="start" x="171.5" y="-7.8" font-family="Helvetica,sans-Serif" font-size="14.00">class = M</text>
</g>
<!-- 2&#45;&gt;4 -->
<g id="edge4" class="edge">
<title>2&#45;&gt;4</title>
<path fill="none" stroke="black" d="M205.5,-103.73C205.5,-95.52 205.5,-86.86 205.5,-78.56"/>
<polygon fill="black" stroke="black" points="209,-78.3 205.5,-68.3 202,-78.3 209,-78.3"/>
</g>
<!-- 6 -->
<g id="node7" class="node">
<title>6</title>
<path fill="#f2c09c" stroke="black" d="M381,-68C381,-68 292,-68 292,-68 286,-68 280,-62 280,-56 280,-56 280,-12 280,-12 280,-6 286,0 292,0 292,0 381,0 381,0 387,0 393,-6 393,-12 393,-12 393,-56 393,-56 393,-62 387,-68 381,-68"/>
<text text-anchor="start" x="292.5" y="-52.8" font-family="Helvetica,sans-Serif" font-size="14.00">gini = 0.444</text>
<text text-anchor="start" x="292.5" y="-37.8" font-family="Helvetica,sans-Serif" font-size="14.00">samples = 3</text>
<text text-anchor="start" x="288" y="-22.8" font-family="Helvetica,sans-Serif" font-size="14.00">value = [2, 1]</text>
<text text-anchor="start" x="303.5" y="-7.8" font-family="Helvetica,sans-Serif" font-size="14.00">class = B</text>
</g>
<!-- 5&#45;&gt;6 -->
<g id="edge6" class="edge">
<title>5&#45;&gt;6</title>
<path fill="none" stroke="black" d="M370.39,-103.73C366.16,-95.15 361.69,-86.09 357.44,-77.46"/>
<polygon fill="black" stroke="black" points="360.48,-75.72 352.92,-68.3 354.21,-78.82 360.48,-75.72"/>
</g>
<!-- 7 -->
<g id="node8" class="node">
<title>7</title>
<path fill="#399de5" stroke="black" d="M512,-68C512,-68 423,-68 423,-68 417,-68 411,-62 411,-56 411,-56 411,-12 411,-12 411,-6 417,0 423,0 423,0 512,0 512,0 518,0 524,-6 524,-12 524,-12 524,-56 524,-56 524,-62 518,-68 512,-68"/>
<text text-anchor="start" x="432.5" y="-52.8" font-family="Helvetica,sans-Serif" font-size="14.00">gini = 0.0</text>
<text text-anchor="start" x="423.5" y="-37.8" font-family="Helvetica,sans-Serif" font-size="14.00">samples = 9</text>
<text text-anchor="start" x="419" y="-22.8" font-family="Helvetica,sans-Serif" font-size="14.00">value = [0, 9]</text>
<text text-anchor="start" x="433.5" y="-7.8" font-family="Helvetica,sans-Serif" font-size="14.00">class = M</text>
</g>
<!-- 5&#45;&gt;7 -->
<g id="edge7" class="edge">
<title>5&#45;&gt;7</title>
<path fill="none" stroke="black" d="M419.17,-103.73C425.39,-94.88 431.98,-85.51 438.23,-76.63"/>
<polygon fill="black" stroke="black" points="441.19,-78.49 444.08,-68.3 435.47,-74.47 441.19,-78.49"/>
</g>
<!-- 9 -->
<g id="node10" class="node">
<title>9</title>
<path fill="#efb388" stroke="black" d="M707.5,-187C707.5,-187 603.5,-187 603.5,-187 597.5,-187 591.5,-181 591.5,-175 591.5,-175 591.5,-116 591.5,-116 591.5,-110 597.5,-104 603.5,-104 603.5,-104 707.5,-104 707.5,-104 713.5,-104 719.5,-110 719.5,-116 719.5,-116 719.5,-175 719.5,-175 719.5,-181 713.5,-187 707.5,-187"/>
<text text-anchor="start" x="599.5" y="-171.8" font-family="Helvetica,sans-Serif" font-size="14.00">texture1 ≤ 12.4</text>
<text text-anchor="start" x="611.5" y="-156.8" font-family="Helvetica,sans-Serif" font-size="14.00">gini = 0.408</text>
<text text-anchor="start" x="611.5" y="-141.8" font-family="Helvetica,sans-Serif" font-size="14.00">samples = 7</text>
<text text-anchor="start" x="607" y="-126.8" font-family="Helvetica,sans-Serif" font-size="14.00">value = [5, 2]</text>
<text text-anchor="start" x="622.5" y="-111.8" font-family="Helvetica,sans-Serif" font-size="14.00">class = B</text>
</g>
<!-- 8&#45;&gt;9 -->
<g id="edge9" class="edge">
<title>8&#45;&gt;9</title>
<path fill="none" stroke="black" d="M655.5,-222.91C655.5,-214.65 655.5,-205.86 655.5,-197.3"/>
<polygon fill="black" stroke="black" points="659,-197.02 655.5,-187.02 652,-197.02 659,-197.02"/>
</g>
<!-- 12 -->
<g id="node13" class="node">
<title>12</title>
<path fill="#40a0e6" stroke="black" d="M914,-187C914,-187 807,-187 807,-187 801,-187 795,-181 795,-175 795,-175 795,-116 795,-116 795,-110 801,-104 807,-104 807,-104 914,-104 914,-104 920,-104 926,-110 926,-116 926,-116 926,-175 926,-175 926,-181 920,-187 914,-187"/>
<text text-anchor="start" x="810" y="-171.8" font-family="Helvetica,sans-Serif" font-size="14.00">area3 ≤ 810.1</text>
<text text-anchor="start" x="816.5" y="-156.8" font-family="Helvetica,sans-Serif" font-size="14.00">gini = 0.064</text>
<text text-anchor="start" x="807.5" y="-141.8" font-family="Helvetica,sans-Serif" font-size="14.00">samples = 151</text>
<text text-anchor="start" x="803" y="-126.8" font-family="Helvetica,sans-Serif" font-size="14.00">value = [5, 146]</text>
<text text-anchor="start" x="826.5" y="-111.8" font-family="Helvetica,sans-Serif" font-size="14.00">class = M</text>
</g>
<!-- 8&#45;&gt;12 -->
<g id="edge12" class="edge">
<title>8&#45;&gt;12</title>
<path fill="none" stroke="black" d="M726.62,-222.91C745.78,-211.98 766.55,-200.12 785.89,-189.08"/>
<polygon fill="black" stroke="black" points="787.71,-192.07 794.66,-184.08 784.24,-185.99 787.71,-192.07"/>
</g>
<!-- 10 -->
<g id="node11" class="node">
<title>10</title>
<path fill="#399de5" stroke="black" d="M643,-68C643,-68 554,-68 554,-68 548,-68 542,-62 542,-56 542,-56 542,-12 542,-12 542,-6 548,0 554,0 554,0 643,0 643,0 649,0 655,-6 655,-12 655,-12 655,-56 655,-56 655,-62 649,-68 643,-68"/>
<text text-anchor="start" x="563.5" y="-52.8" font-family="Helvetica,sans-Serif" font-size="14.00">gini = 0.0</text>
<text text-anchor="start" x="554.5" y="-37.8" font-family="Helvetica,sans-Serif" font-size="14.00">samples = 2</text>
<text text-anchor="start" x="550" y="-22.8" font-family="Helvetica,sans-Serif" font-size="14.00">value = [0, 2]</text>
<text text-anchor="start" x="564.5" y="-7.8" font-family="Helvetica,sans-Serif" font-size="14.00">class = M</text>
</g>
<!-- 9&#45;&gt;10 -->
<g id="edge10" class="edge">
<title>9&#45;&gt;10</title>
<path fill="none" stroke="black" d="M634.28,-103.73C629.76,-95.06 624.99,-85.9 620.46,-77.18"/>
<polygon fill="black" stroke="black" points="623.56,-75.55 615.83,-68.3 617.35,-78.79 623.56,-75.55"/>
</g>
<!-- 11 -->
<g id="node12" class="node">
<title>11</title>
<path fill="#e58139" stroke="black" d="M774,-68C774,-68 685,-68 685,-68 679,-68 673,-62 673,-56 673,-56 673,-12 673,-12 673,-6 679,0 685,0 685,0 774,0 774,0 780,0 786,-6 786,-12 786,-12 786,-56 786,-56 786,-62 780,-68 774,-68"/>
<text text-anchor="start" x="694.5" y="-52.8" font-family="Helvetica,sans-Serif" font-size="14.00">gini = 0.0</text>
<text text-anchor="start" x="685.5" y="-37.8" font-family="Helvetica,sans-Serif" font-size="14.00">samples = 5</text>
<text text-anchor="start" x="681" y="-22.8" font-family="Helvetica,sans-Serif" font-size="14.00">value = [5, 0]</text>
<text text-anchor="start" x="696.5" y="-7.8" font-family="Helvetica,sans-Serif" font-size="14.00">class = B</text>
</g>
<!-- 9&#45;&gt;11 -->
<g id="edge11" class="edge">
<title>9&#45;&gt;11</title>
<path fill="none" stroke="black" d="M683.05,-103.73C689.03,-94.88 695.37,-85.51 701.37,-76.63"/>
<polygon fill="black" stroke="black" points="704.3,-78.54 707,-68.3 698.5,-74.63 704.3,-78.54"/>
</g>
<!-- 13 -->
<g id="node14" class="node">
<title>13</title>
<path fill="#f6d5bd" stroke="black" d="M905,-68C905,-68 816,-68 816,-68 810,-68 804,-62 804,-56 804,-56 804,-12 804,-12 804,-6 810,0 816,0 816,0 905,0 905,0 911,0 917,-6 917,-12 917,-12 917,-56 917,-56 917,-62 911,-68 905,-68"/>
<text text-anchor="start" x="821" y="-52.8" font-family="Helvetica,sans-Serif" font-size="14.00">gini = 0.48</text>
<text text-anchor="start" x="816.5" y="-37.8" font-family="Helvetica,sans-Serif" font-size="14.00">samples = 5</text>
<text text-anchor="start" x="812" y="-22.8" font-family="Helvetica,sans-Serif" font-size="14.00">value = [3, 2]</text>
<text text-anchor="start" x="827.5" y="-7.8" font-family="Helvetica,sans-Serif" font-size="14.00">class = B</text>
</g>
<!-- 12&#45;&gt;13 -->
<g id="edge13" class="edge">
<title>12&#45;&gt;13</title>
<path fill="none" stroke="black" d="M860.5,-103.73C860.5,-95.52 860.5,-86.86 860.5,-78.56"/>
<polygon fill="black" stroke="black" points="864,-78.3 860.5,-68.3 857,-78.3 864,-78.3"/>
</g>
<!-- 14 -->
<g id="node15" class="node">
<title>14</title>
<path fill="#3c9ee5" stroke="black" d="M1054,-68C1054,-68 947,-68 947,-68 941,-68 935,-62 935,-56 935,-56 935,-12 935,-12 935,-6 941,0 947,0 947,0 1054,0 1054,0 1060,0 1066,-6 1066,-12 1066,-12 1066,-56 1066,-56 1066,-62 1060,-68 1054,-68"/>
<text text-anchor="start" x="956.5" y="-52.8" font-family="Helvetica,sans-Serif" font-size="14.00">gini = 0.027</text>
<text text-anchor="start" x="947.5" y="-37.8" font-family="Helvetica,sans-Serif" font-size="14.00">samples = 146</text>
<text text-anchor="start" x="943" y="-22.8" font-family="Helvetica,sans-Serif" font-size="14.00">value = [2, 144]</text>
<text text-anchor="start" x="966.5" y="-7.8" font-family="Helvetica,sans-Serif" font-size="14.00">class = M</text>
</g>
<!-- 12&#45;&gt;14 -->
<g id="edge14" class="edge">
<title>12&#45;&gt;14</title>
<path fill="none" stroke="black" d="M912.63,-103.73C924.76,-94.24 937.65,-84.16 949.72,-74.72"/>
<polygon fill="black" stroke="black" points="952.2,-77.22 957.93,-68.3 947.89,-71.7 952.2,-77.22"/>
</g>
</g>
</svg>
