<?xml version="1.0" encoding="UTF-8" standalone="no"?>
<!DOCTYPE svg PUBLIC "-//W3C//DTD SVG 1.1//EN"
 "http://www.w3.org/Graphics/SVG/1.1/DTD/svg11.dtd">
<!-- Generated by graphviz version 2.43.0 (0)
 -->
<!-- Title: Tree Pages: 1 -->
<svg width="1542pt" height="552pt"
 viewBox="0.00 0.00 1542.00 552.00" xmlns="http://www.w3.org/2000/svg" xmlns:xlink="http://www.w3.org/1999/xlink">
<g id="graph0" class="graph" transform="scale(1 1) rotate(0) translate(4 548)">
<title>Tree</title>
<polygon fill="white" stroke="transparent" points="-4,4 -4,-548 1538,-548 1538,4 -4,4"/>
<!-- 0 -->
<g id="node1" class="node">
<title>0</title>
<path fill="#f5ccaf" stroke="black" d="M827,-544C827,-544 696,-544 696,-544 690,-544 684,-538 684,-532 684,-532 684,-473 684,-473 684,-467 690,-461 696,-461 696,-461 827,-461 827,-461 833,-461 839,-467 839,-473 839,-473 839,-532 839,-532 839,-538 833,-544 827,-544"/>
<text text-anchor="start" x="692" y="-528.8" font-family="Helvetica,sans-Serif" font-size="14.00">perimeter3 ≤ 112.8</text>
<text text-anchor="start" x="717.5" y="-513.8" font-family="Helvetica,sans-Serif" font-size="14.00">gini = 0.468</text>
<text text-anchor="start" x="708.5" y="-498.8" font-family="Helvetica,sans-Serif" font-size="14.00">samples = 455</text>
<text text-anchor="start" x="695" y="-483.8" font-family="Helvetica,sans-Serif" font-size="14.00">value = [285, 170]</text>
<text text-anchor="start" x="728.5" y="-468.8" font-family="Helvetica,sans-Serif" font-size="14.00">class = B</text>
</g>
<!-- 1 -->
<g id="node2" class="node">
<title>1</title>
<path fill="#e78b49" stroke="black" d="M703,-425C703,-425 542,-425 542,-425 536,-425 530,-419 530,-413 530,-413 530,-354 530,-354 530,-348 536,-342 542,-342 542,-342 703,-342 703,-342 709,-342 715,-348 715,-354 715,-354 715,-413 715,-413 715,-419 709,-425 703,-425"/>
<text text-anchor="start" x="538" y="-409.8" font-family="Helvetica,sans-Serif" font-size="14.00">concave_points3 ≤ 0.16</text>
<text text-anchor="start" x="578.5" y="-394.8" font-family="Helvetica,sans-Serif" font-size="14.00">gini = 0.137</text>
<text text-anchor="start" x="569.5" y="-379.8" font-family="Helvetica,sans-Serif" font-size="14.00">samples = 297</text>
<text text-anchor="start" x="560.5" y="-364.8" font-family="Helvetica,sans-Serif" font-size="14.00">value = [275, 22]</text>
<text text-anchor="start" x="589.5" y="-349.8" font-family="Helvetica,sans-Serif" font-size="14.00">class = B</text>
</g>
<!-- 0&#45;&gt;1 -->
<g id="edge1" class="edge">
<title>0&#45;&gt;1</title>
<path fill="none" stroke="black" d="M713.27,-460.91C702.06,-451.47 690.03,-441.34 678.51,-431.65"/>
<polygon fill="black" stroke="black" points="680.54,-428.78 670.64,-425.02 676.04,-434.14 680.54,-428.78"/>
<text text-anchor="middle" x="672.78" y="-446.23" font-family="Helvetica,sans-Serif" font-size="14.00">True</text>
</g>
<!-- 14 -->
<g id="node15" class="node">
<title>14</title>
<path fill="#46a4e7" stroke="black" d="M999.5,-425C999.5,-425 877.5,-425 877.5,-425 871.5,-425 865.5,-419 865.5,-413 865.5,-413 865.5,-354 865.5,-354 865.5,-348 871.5,-342 877.5,-342 877.5,-342 999.5,-342 999.5,-342 1005.5,-342 1011.5,-348 1011.5,-354 1011.5,-354 1011.5,-413 1011.5,-413 1011.5,-419 1005.5,-425 999.5,-425"/>
<text text-anchor="start" x="873.5" y="-409.8" font-family="Helvetica,sans-Serif" font-size="14.00">texture1 ≤ 14.955</text>
<text text-anchor="start" x="894.5" y="-394.8" font-family="Helvetica,sans-Serif" font-size="14.00">gini = 0.119</text>
<text text-anchor="start" x="885.5" y="-379.8" font-family="Helvetica,sans-Serif" font-size="14.00">samples = 158</text>
<text text-anchor="start" x="876.5" y="-364.8" font-family="Helvetica,sans-Serif" font-size="14.00">value = [10, 148]</text>
<text text-anchor="start" x="904.5" y="-349.8" font-family="Helvetica,sans-Serif" font-size="14.00">class = M</text>
</g>
<!-- 0&#45;&gt;14 -->
<g id="edge14" class="edge">
<title>0&#45;&gt;14</title>
<path fill="none" stroke="black" d="M822.91,-460.91C837.6,-451.2 853.39,-440.76 868.44,-430.81"/>
<polygon fill="black" stroke="black" points="870.79,-433.45 877.2,-425.02 866.93,-427.62 870.79,-433.45"/>
<text text-anchor="middle" x="872.2" y="-445.82" font-family="Helvetica,sans-Serif" font-size="14.00">False</text>
</g>
<!-- 2 -->
<g id="node3" class="node">
<title>2</title>
<path fill="#e68742" stroke="black" d="M472.5,-306C472.5,-306 356.5,-306 356.5,-306 350.5,-306 344.5,-300 344.5,-294 344.5,-294 344.5,-235 344.5,-235 344.5,-229 350.5,-223 356.5,-223 356.5,-223 472.5,-223 472.5,-223 478.5,-223 484.5,-229 484.5,-235 484.5,-235 484.5,-294 484.5,-294 484.5,-300 478.5,-306 472.5,-306"/>
<text text-anchor="start" x="359.5" y="-290.8" font-family="Helvetica,sans-Serif" font-size="14.00">area1 ≤ 696.25</text>
<text text-anchor="start" x="370.5" y="-275.8" font-family="Helvetica,sans-Serif" font-size="14.00">gini = 0.081</text>
<text text-anchor="start" x="361.5" y="-260.8" font-family="Helvetica,sans-Serif" font-size="14.00">samples = 285</text>
<text text-anchor="start" x="352.5" y="-245.8" font-family="Helvetica,sans-Serif" font-size="14.00">value = [273, 12]</text>
<text text-anchor="start" x="381.5" y="-230.8" font-family="Helvetica,sans-Serif" font-size="14.00">class = B</text>
</g>
<!-- 1&#45;&gt;2 -->
<g id="edge2" class="edge">
<title>1&#45;&gt;2</title>
<path fill="none" stroke="black" d="M550.34,-341.91C532,-331.59 512.21,-320.46 493.55,-309.97"/>
<polygon fill="black" stroke="black" points="495.21,-306.89 484.78,-305.03 491.78,-312.99 495.21,-306.89"/>
</g>
<!-- 9 -->
<g id="node10" class="node">
<title>9</title>
<path fill="#61b1ea" stroke="black" d="M683.5,-306C683.5,-306 561.5,-306 561.5,-306 555.5,-306 549.5,-300 549.5,-294 549.5,-294 549.5,-235 549.5,-235 549.5,-229 555.5,-223 561.5,-223 561.5,-223 683.5,-223 683.5,-223 689.5,-223 695.5,-229 695.5,-235 695.5,-235 695.5,-294 695.5,-294 695.5,-300 689.5,-306 683.5,-306"/>
<text text-anchor="start" x="557.5" y="-290.8" font-family="Helvetica,sans-Serif" font-size="14.00">texture3 ≤ 24.785</text>
<text text-anchor="start" x="578.5" y="-275.8" font-family="Helvetica,sans-Serif" font-size="14.00">gini = 0.278</text>
<text text-anchor="start" x="574" y="-260.8" font-family="Helvetica,sans-Serif" font-size="14.00">samples = 12</text>
<text text-anchor="start" x="569.5" y="-245.8" font-family="Helvetica,sans-Serif" font-size="14.00">value = [2, 10]</text>
<text text-anchor="start" x="588.5" y="-230.8" font-family="Helvetica,sans-Serif" font-size="14.00">class = M</text>
</g>
<!-- 1&#45;&gt;9 -->
<g id="edge9" class="edge">
<title>1&#45;&gt;9</title>
<path fill="none" stroke="black" d="M622.5,-341.91C622.5,-333.65 622.5,-324.86 622.5,-316.3"/>
<polygon fill="black" stroke="black" points="626,-316.02 622.5,-306.02 619,-316.02 626,-316.02"/>
</g>
<!-- 3 -->
<g id="node4" class="node">
<title>3</title>
<path fill="#e6853f" stroke="black" d="M279,-187C279,-187 132,-187 132,-187 126,-187 120,-181 120,-175 120,-175 120,-116 120,-116 120,-110 126,-104 132,-104 132,-104 279,-104 279,-104 285,-104 291,-110 291,-116 291,-116 291,-175 291,-175 291,-181 285,-187 279,-187"/>
<text text-anchor="start" x="128" y="-171.8" font-family="Helvetica,sans-Serif" font-size="14.00">smoothness3 ≤ 0.178</text>
<text text-anchor="start" x="161.5" y="-156.8" font-family="Helvetica,sans-Serif" font-size="14.00">gini = 0.056</text>
<text text-anchor="start" x="152.5" y="-141.8" font-family="Helvetica,sans-Serif" font-size="14.00">samples = 279</text>
<text text-anchor="start" x="148" y="-126.8" font-family="Helvetica,sans-Serif" font-size="14.00">value = [271, 8]</text>
<text text-anchor="start" x="172.5" y="-111.8" font-family="Helvetica,sans-Serif" font-size="14.00">class = B</text>
</g>
<!-- 2&#45;&gt;3 -->
<g id="edge3" class="edge">
<title>2&#45;&gt;3</title>
<path fill="none" stroke="black" d="M344.32,-224.22C325.9,-213.9 305.87,-202.69 286.91,-192.07"/>
<polygon fill="black" stroke="black" points="288.42,-188.91 277.99,-187.08 285,-195.02 288.42,-188.91"/>
</g>
<!-- 6 -->
<g id="node7" class="node">
<title>6</title>
<path fill="#9ccef2" stroke="black" d="M471,-187C471,-187 358,-187 358,-187 352,-187 346,-181 346,-175 346,-175 346,-116 346,-116 346,-110 352,-104 358,-104 358,-104 471,-104 471,-104 477,-104 483,-110 483,-116 483,-116 483,-175 483,-175 483,-181 477,-187 471,-187"/>
<text text-anchor="start" x="354" y="-171.8" font-family="Helvetica,sans-Serif" font-size="14.00">texture2 ≤ 0.656</text>
<text text-anchor="start" x="370.5" y="-156.8" font-family="Helvetica,sans-Serif" font-size="14.00">gini = 0.444</text>
<text text-anchor="start" x="370.5" y="-141.8" font-family="Helvetica,sans-Serif" font-size="14.00">samples = 6</text>
<text text-anchor="start" x="366" y="-126.8" font-family="Helvetica,sans-Serif" font-size="14.00">value = [2, 4]</text>
<text text-anchor="start" x="380.5" y="-111.8" font-family="Helvetica,sans-Serif" font-size="14.00">class = M</text>
</g>
<!-- 2&#45;&gt;6 -->
<g id="edge6" class="edge">
<title>2&#45;&gt;6</title>
<path fill="none" stroke="black" d="M414.5,-222.91C414.5,-214.65 414.5,-205.86 414.5,-197.3"/>
<polygon fill="black" stroke="black" points="418,-197.02 414.5,-187.02 411,-197.02 418,-197.02"/>
</g>
<!-- 4 -->
<g id="node5" class="node">
<title>4</title>
<path fill="#e5833d" stroke="black" d="M119,-68C119,-68 12,-68 12,-68 6,-68 0,-62 0,-56 0,-56 0,-12 0,-12 0,-6 6,0 12,0 12,0 119,0 119,0 125,0 131,-6 131,-12 131,-12 131,-56 131,-56 131,-62 125,-68 119,-68"/>
<text text-anchor="start" x="21.5" y="-52.8" font-family="Helvetica,sans-Serif" font-size="14.00">gini = 0.036</text>
<text text-anchor="start" x="12.5" y="-37.8" font-family="Helvetica,sans-Serif" font-size="14.00">samples = 274</text>
<text text-anchor="start" x="8" y="-22.8" font-family="Helvetica,sans-Serif" font-size="14.00">value = [269, 5]</text>
<text text-anchor="start" x="32.5" y="-7.8" font-family="Helvetica,sans-Serif" font-size="14.00">class = B</text>
</g>
<!-- 3&#45;&gt;4 -->
<g id="edge4" class="edge">
<title>3&#45;&gt;4</title>
<path fill="none" stroke="black" d="M153.37,-103.73C141.24,-94.24 128.35,-84.16 116.28,-74.72"/>
<polygon fill="black" stroke="black" points="118.11,-71.7 108.07,-68.3 113.8,-77.22 118.11,-71.7"/>
</g>
<!-- 5 -->
<g id="node6" class="node">
<title>5</title>
<path fill="#bddef6" stroke="black" d="M250,-68C250,-68 161,-68 161,-68 155,-68 149,-62 149,-56 149,-56 149,-12 149,-12 149,-6 155,0 161,0 161,0 250,0 250,0 256,0 262,-6 262,-12 262,-12 262,-56 262,-56 262,-62 256,-68 250,-68"/>
<text text-anchor="start" x="166" y="-52.8" font-family="Helvetica,sans-Serif" font-size="14.00">gini = 0.48</text>
<text text-anchor="start" x="161.5" y="-37.8" font-family="Helvetica,sans-Serif" font-size="14.00">samples = 5</text>
<text text-anchor="start" x="157" y="-22.8" font-family="Helvetica,sans-Serif" font-size="14.00">value = [2, 3]</text>
<text text-anchor="start" x="171.5" y="-7.8" font-family="Helvetica,sans-Serif" font-size="14.00">class = M</text>
</g>
<!-- 3&#45;&gt;5 -->
<g id="edge5" class="edge">
<title>3&#45;&gt;5</title>
<path fill="none" stroke="black" d="M205.5,-103.73C205.5,-95.52 205.5,-86.86 205.5,-78.56"/>
<polygon fill="black" stroke="black" points="209,-78.3 205.5,-68.3 202,-78.3 209,-78.3"/>
</g>
<!-- 7 -->
<g id="node8" class="node">
<title>7</title>
<path fill="#e58139" stroke="black" d="M381,-68C381,-68 292,-68 292,-68 286,-68 280,-62 280,-56 280,-56 280,-12 280,-12 280,-6 286,0 292,0 292,0 381,0 381,0 387,0 393,-6 393,-12 393,-12 393,-56 393,-56 393,-62 387,-68 381,-68"/>
<text text-anchor="start" x="301.5" y="-52.8" font-family="Helvetica,sans-Serif" font-size="14.00">gini = 0.0</text>
<text text-anchor="start" x="292.5" y="-37.8" font-family="Helvetica,sans-Serif" font-size="14.00">samples = 2</text>
<text text-anchor="start" x="288" y="-22.8" font-family="Helvetica,sans-Serif" font-size="14.00">value = [2, 0]</text>
<text text-anchor="start" x="303.5" y="-7.8" font-family="Helvetica,sans-Serif" font-size="14.00">class = B</text>
</g>
<!-- 6&#45;&gt;7 -->
<g id="edge7" class="edge">
<title>6&#45;&gt;7</title>
<path fill="none" stroke="black" d="M385.46,-103.73C379.15,-94.88 372.48,-85.51 366.15,-76.63"/>
<polygon fill="black" stroke="black" points="368.87,-74.41 360.22,-68.3 363.17,-78.48 368.87,-74.41"/>
</g>
<!-- 8 -->
<g id="node9" class="node">
<title>8</title>
<path fill="#399de5" stroke="black" d="M512,-68C512,-68 423,-68 423,-68 417,-68 411,-62 411,-56 411,-56 411,-12 411,-12 411,-6 417,0 423,0 423,0 512,0 512,0 518,0 524,-6 524,-12 524,-12 524,-56 524,-56 524,-62 518,-68 512,-68"/>
<text text-anchor="start" x="432.5" y="-52.8" font-family="Helvetica,sans-Serif" font-size="14.00">gini = 0.0</text>
<text text-anchor="start" x="423.5" y="-37.8" font-family="Helvetica,sans-Serif" font-size="14.00">samples = 4</text>
<text text-anchor="start" x="419" y="-22.8" font-family="Helvetica,sans-Serif" font-size="14.00">value = [0, 4]</text>
<text text-anchor="start" x="433.5" y="-7.8" font-family="Helvetica,sans-Serif" font-size="14.00">class = M</text>
</g>
<!-- 6&#45;&gt;8 -->
<g id="edge8" class="edge">
<title>6&#45;&gt;8</title>
<path fill="none" stroke="black" d="M434.24,-103.73C438.39,-95.15 442.77,-86.09 446.95,-77.46"/>
<polygon fill="black" stroke="black" points="450.18,-78.83 451.38,-68.3 443.88,-75.78 450.18,-78.83"/>
</g>
<!-- 10 -->
<g id="node11" class="node">
<title>10</title>
<path fill="#f2c09c" stroke="black" d="M659.5,-187C659.5,-187 537.5,-187 537.5,-187 531.5,-187 525.5,-181 525.5,-175 525.5,-175 525.5,-116 525.5,-116 525.5,-110 531.5,-104 537.5,-104 537.5,-104 659.5,-104 659.5,-104 665.5,-104 671.5,-110 671.5,-116 671.5,-116 671.5,-175 671.5,-175 671.5,-181 665.5,-187 659.5,-187"/>
<text text-anchor="start" x="533.5" y="-171.8" font-family="Helvetica,sans-Serif" font-size="14.00">texture3 ≤ 22.525</text>
<text text-anchor="start" x="554.5" y="-156.8" font-family="Helvetica,sans-Serif" font-size="14.00">gini = 0.444</text>
<text text-anchor="start" x="554.5" y="-141.8" font-family="Helvetica,sans-Serif" font-size="14.00">samples = 3</text>
<text text-anchor="start" x="550" y="-126.8" font-family="Helvetica,sans-Serif" font-size="14.00">value = [2, 1]</text>
<text text-anchor="start" x="565.5" y="-111.8" font-family="Helvetica,sans-Serif" font-size="14.00">class = B</text>
</g>
<!-- 9&#45;&gt;10 -->
<g id="edge10" class="edge">
<title>9&#45;&gt;10</title>
<path fill="none" stroke="black" d="M614.17,-222.91C612.46,-214.56 610.64,-205.67 608.86,-197.02"/>
<polygon fill="black" stroke="black" points="612.25,-196.11 606.81,-187.02 605.39,-197.52 612.25,-196.11"/>
</g>
<!-- 13 -->
<g id="node14" class="node">
<title>13</title>
<path fill="#399de5" stroke="black" d="M791,-179.5C791,-179.5 702,-179.5 702,-179.5 696,-179.5 690,-173.5 690,-167.5 690,-167.5 690,-123.5 690,-123.5 690,-117.5 696,-111.5 702,-111.5 702,-111.5 791,-111.5 791,-111.5 797,-111.5 803,-117.5 803,-123.5 803,-123.5 803,-167.5 803,-167.5 803,-173.5 797,-179.5 791,-179.5"/>
<text text-anchor="start" x="711.5" y="-164.3" font-family="Helvetica,sans-Serif" font-size="14.00">gini = 0.0</text>
<text text-anchor="start" x="702.5" y="-149.3" font-family="Helvetica,sans-Serif" font-size="14.00">samples = 9</text>
<text text-anchor="start" x="698" y="-134.3" font-family="Helvetica,sans-Serif" font-size="14.00">value = [0, 9]</text>
<text text-anchor="start" x="712.5" y="-119.3" font-family="Helvetica,sans-Serif" font-size="14.00">class = M</text>
</g>
<!-- 9&#45;&gt;13 -->
<g id="edge13" class="edge">
<title>9&#45;&gt;13</title>
<path fill="none" stroke="black" d="M665.52,-222.91C677.92,-211.21 691.43,-198.46 703.81,-186.78"/>
<polygon fill="black" stroke="black" points="706.48,-189.08 711.35,-179.67 701.67,-183.98 706.48,-189.08"/>
</g>
<!-- 11 -->
<g id="node12" class="node">
<title>11</title>
<path fill="#399de5" stroke="black" d="M643,-68C643,-68 554,-68 554,-68 548,-68 542,-62 542,-56 542,-56 542,-12 542,-12 542,-6 548,0 554,0 554,0 643,0 643,0 649,0 655,-6 655,-12 655,-12 655,-56 655,-56 655,-62 649,-68 643,-68"/>
<text text-anchor="start" x="563.5" y="-52.8" font-family="Helvetica,sans-Serif" font-size="14.00">gini = 0.0</text>
<text text-anchor="start" x="554.5" y="-37.8" font-family="Helvetica,sans-Serif" font-size="14.00">samples = 1</text>
<text text-anchor="start" x="550" y="-22.8" font-family="Helvetica,sans-Serif" font-size="14.00">value = [0, 1]</text>
<text text-anchor="start" x="564.5" y="-7.8" font-family="Helvetica,sans-Serif" font-size="14.00">class = M</text>
</g>
<!-- 10&#45;&gt;11 -->
<g id="edge11" class="edge">
<title>10&#45;&gt;11</title>
<path fill="none" stroke="black" d="M598.5,-103.73C598.5,-95.52 598.5,-86.86 598.5,-78.56"/>
<polygon fill="black" stroke="black" points="602,-78.3 598.5,-68.3 595,-78.3 602,-78.3"/>
</g>
<!-- 12 -->
<g id="node13" class="node">
<title>12</title>
<path fill="#e58139" stroke="black" d="M774,-68C774,-68 685,-68 685,-68 679,-68 673,-62 673,-56 673,-56 673,-12 673,-12 673,-6 679,0 685,0 685,0 774,0 774,0 780,0 786,-6 786,-12 786,-12 786,-56 786,-56 786,-62 780,-68 774,-68"/>
<text text-anchor="start" x="694.5" y="-52.8" font-family="Helvetica,sans-Serif" font-size="14.00">gini = 0.0</text>
<text text-anchor="start" x="685.5" y="-37.8" font-family="Helvetica,sans-Serif" font-size="14.00">samples = 2</text>
<text text-anchor="start" x="681" y="-22.8" font-family="Helvetica,sans-Serif" font-size="14.00">value = [2, 0]</text>
<text text-anchor="start" x="696.5" y="-7.8" font-family="Helvetica,sans-Serif" font-size="14.00">class = B</text>
</g>
<!-- 10&#45;&gt;12 -->
<g id="edge12" class="edge">
<title>10&#45;&gt;12</title>
<path fill="none" stroke="black" d="M647.28,-103.73C658.63,-94.24 670.69,-84.16 681.99,-74.72"/>
<polygon fill="black" stroke="black" points="684.23,-77.4 689.66,-68.3 679.74,-72.03 684.23,-77.4"/>
</g>
<!-- 15 -->
<g id="node16" class="node">
<title>15</title>
<path fill="#efb388" stroke="black" d="M1003,-306C1003,-306 874,-306 874,-306 868,-306 862,-300 862,-294 862,-294 862,-235 862,-235 862,-229 868,-223 874,-223 874,-223 1003,-223 1003,-223 1009,-223 1015,-229 1015,-235 1015,-235 1015,-294 1015,-294 1015,-300 1009,-306 1003,-306"/>
<text text-anchor="start" x="870" y="-290.8" font-family="Helvetica,sans-Serif" font-size="14.00">concavity3 ≤ 0.452</text>
<text text-anchor="start" x="894.5" y="-275.8" font-family="Helvetica,sans-Serif" font-size="14.00">gini = 0.408</text>
<text text-anchor="start" x="894.5" y="-260.8" font-family="Helvetica,sans-Serif" font-size="14.00">samples = 7</text>
<text text-anchor="start" x="890" y="-245.8" font-family="Helvetica,sans-Serif" font-size="14.00">value = [5, 2]</text>
<text text-anchor="start" x="905.5" y="-230.8" font-family="Helvetica,sans-Serif" font-size="14.00">class = B</text>
</g>
<!-- 14&#45;&gt;15 -->
<g id="edge15" class="edge">
<title>14&#45;&gt;15</title>
<path fill="none" stroke="black" d="M938.5,-341.91C938.5,-333.65 938.5,-324.86 938.5,-316.3"/>
<polygon fill="black" stroke="black" points="942,-316.02 938.5,-306.02 935,-316.02 942,-316.02"/>
</g>
<!-- 18 -->
<g id="node19" class="node">
<title>18</title>
<path fill="#40a0e6" stroke="black" d="M1214,-306C1214,-306 1107,-306 1107,-306 1101,-306 1095,-300 1095,-294 1095,-294 1095,-235 1095,-235 1095,-229 1101,-223 1107,-223 1107,-223 1214,-223 1214,-223 1220,-223 1226,-229 1226,-235 1226,-235 1226,-294 1226,-294 1226,-300 1220,-306 1214,-306"/>
<text text-anchor="start" x="1110" y="-290.8" font-family="Helvetica,sans-Serif" font-size="14.00">area3 ≤ 810.1</text>
<text text-anchor="start" x="1116.5" y="-275.8" font-family="Helvetica,sans-Serif" font-size="14.00">gini = 0.064</text>
<text text-anchor="start" x="1107.5" y="-260.8" font-family="Helvetica,sans-Serif" font-size="14.00">samples = 151</text>
<text text-anchor="start" x="1103" y="-245.8" font-family="Helvetica,sans-Serif" font-size="14.00">value = [5, 146]</text>
<text text-anchor="start" x="1126.5" y="-230.8" font-family="Helvetica,sans-Serif" font-size="14.00">class = M</text>
</g>
<!-- 14&#45;&gt;18 -->
<g id="edge18" class="edge">
<title>14&#45;&gt;18</title>
<path fill="none" stroke="black" d="M1011.81,-343.87C1035.55,-331.35 1061.9,-317.46 1085.75,-304.9"/>
<polygon fill="black" stroke="black" points="1087.54,-307.91 1094.75,-300.15 1084.27,-301.72 1087.54,-307.91"/>
</g>
<!-- 16 -->
<g id="node17" class="node">
<title>16</title>
<path fill="#e58139" stroke="black" d="M922,-179.5C922,-179.5 833,-179.5 833,-179.5 827,-179.5 821,-173.5 821,-167.5 821,-167.5 821,-123.5 821,-123.5 821,-117.5 827,-111.5 833,-111.5 833,-111.5 922,-111.5 922,-111.5 928,-111.5 934,-117.5 934,-123.5 934,-123.5 934,-167.5 934,-167.5 934,-173.5 928,-179.5 922,-179.5"/>
<text text-anchor="start" x="842.5" y="-164.3" font-family="Helvetica,sans-Serif" font-size="14.00">gini = 0.0</text>
<text text-anchor="start" x="833.5" y="-149.3" font-family="Helvetica,sans-Serif" font-size="14.00">samples = 5</text>
<text text-anchor="start" x="829" y="-134.3" font-family="Helvetica,sans-Serif" font-size="14.00">value = [5, 0]</text>
<text text-anchor="start" x="844.5" y="-119.3" font-family="Helvetica,sans-Serif" font-size="14.00">class = B</text>
</g>
<!-- 15&#45;&gt;16 -->
<g id="edge16" class="edge">
<title>15&#45;&gt;16</title>
<path fill="none" stroke="black" d="M917.34,-222.91C911.58,-211.87 905.34,-199.9 899.54,-188.77"/>
<polygon fill="black" stroke="black" points="902.52,-186.92 894.79,-179.67 896.31,-190.15 902.52,-186.92"/>
</g>
<!-- 17 -->
<g id="node18" class="node">
<title>17</title>
<path fill="#399de5" stroke="black" d="M1053,-179.5C1053,-179.5 964,-179.5 964,-179.5 958,-179.5 952,-173.5 952,-167.5 952,-167.5 952,-123.5 952,-123.5 952,-117.5 958,-111.5 964,-111.5 964,-111.5 1053,-111.5 1053,-111.5 1059,-111.5 1065,-117.5 1065,-123.5 1065,-123.5 1065,-167.5 1065,-167.5 1065,-173.5 1059,-179.5 1053,-179.5"/>
<text text-anchor="start" x="973.5" y="-164.3" font-family="Helvetica,sans-Serif" font-size="14.00">gini = 0.0</text>
<text text-anchor="start" x="964.5" y="-149.3" font-family="Helvetica,sans-Serif" font-size="14.00">samples = 2</text>
<text text-anchor="start" x="960" y="-134.3" font-family="Helvetica,sans-Serif" font-size="14.00">value = [0, 2]</text>
<text text-anchor="start" x="974.5" y="-119.3" font-family="Helvetica,sans-Serif" font-size="14.00">class = M</text>
</g>
<!-- 15&#45;&gt;17 -->
<g id="edge17" class="edge">
<title>15&#45;&gt;17</title>
<path fill="none" stroke="black" d="M962.79,-222.91C969.45,-211.76 976.7,-199.66 983.41,-188.44"/>
<polygon fill="black" stroke="black" points="986.53,-190.05 988.66,-179.67 980.52,-186.45 986.53,-190.05"/>
</g>
<!-- 19 -->
<g id="node20" class="node">
<title>19</title>
<path fill="#f6d5bd" stroke="black" d="M1226,-187C1226,-187 1095,-187 1095,-187 1089,-187 1083,-181 1083,-175 1083,-175 1083,-116 1083,-116 1083,-110 1089,-104 1095,-104 1095,-104 1226,-104 1226,-104 1232,-104 1238,-110 1238,-116 1238,-116 1238,-175 1238,-175 1238,-181 1232,-187 1226,-187"/>
<text text-anchor="start" x="1091" y="-171.8" font-family="Helvetica,sans-Serif" font-size="14.00">perimeter3 ≤ 115.6</text>
<text text-anchor="start" x="1121" y="-156.8" font-family="Helvetica,sans-Serif" font-size="14.00">gini = 0.48</text>
<text text-anchor="start" x="1116.5" y="-141.8" font-family="Helvetica,sans-Serif" font-size="14.00">samples = 5</text>
<text text-anchor="start" x="1112" y="-126.8" font-family="Helvetica,sans-Serif" font-size="14.00">value = [3, 2]</text>
<text text-anchor="start" x="1127.5" y="-111.8" font-family="Helvetica,sans-Serif" font-size="14.00">class = B</text>
</g>
<!-- 18&#45;&gt;19 -->
<g id="edge19" class="edge">
<title>18&#45;&gt;19</title>
<path fill="none" stroke="black" d="M1160.5,-222.91C1160.5,-214.65 1160.5,-205.86 1160.5,-197.3"/>
<polygon fill="black" stroke="black" points="1164,-197.02 1160.5,-187.02 1157,-197.02 1164,-197.02"/>
</g>
<!-- 22 -->
<g id="node23" class="node">
<title>22</title>
<path fill="#3c9ee5" stroke="black" d="M1415,-187C1415,-187 1268,-187 1268,-187 1262,-187 1256,-181 1256,-175 1256,-175 1256,-116 1256,-116 1256,-110 1262,-104 1268,-104 1268,-104 1415,-104 1415,-104 1421,-104 1427,-110 1427,-116 1427,-116 1427,-175 1427,-175 1427,-181 1421,-187 1415,-187"/>
<text text-anchor="start" x="1264" y="-171.8" font-family="Helvetica,sans-Serif" font-size="14.00">smoothness3 ≤ 0.088</text>
<text text-anchor="start" x="1297.5" y="-156.8" font-family="Helvetica,sans-Serif" font-size="14.00">gini = 0.027</text>
<text text-anchor="start" x="1288.5" y="-141.8" font-family="Helvetica,sans-Serif" font-size="14.00">samples = 146</text>
<text text-anchor="start" x="1284" y="-126.8" font-family="Helvetica,sans-Serif" font-size="14.00">value = [2, 144]</text>
<text text-anchor="start" x="1307.5" y="-111.8" font-family="Helvetica,sans-Serif" font-size="14.00">class = M</text>
</g>
<!-- 18&#45;&gt;22 -->
<g id="edge22" class="edge">
<title>18&#45;&gt;22</title>
<path fill="none" stroke="black" d="M1223.3,-222.91C1238.46,-213.11 1254.77,-202.56 1270.29,-192.53"/>
<polygon fill="black" stroke="black" points="1272.32,-195.39 1278.81,-187.02 1268.52,-189.51 1272.32,-195.39"/>
</g>
<!-- 20 -->
<g id="node21" class="node">
<title>20</title>
<path fill="#e58139" stroke="black" d="M1099,-68C1099,-68 1010,-68 1010,-68 1004,-68 998,-62 998,-56 998,-56 998,-12 998,-12 998,-6 1004,0 1010,0 1010,0 1099,0 1099,0 1105,0 1111,-6 1111,-12 1111,-12 1111,-56 1111,-56 1111,-62 1105,-68 1099,-68"/>
<text text-anchor="start" x="1019.5" y="-52.8" font-family="Helvetica,sans-Serif" font-size="14.00">gini = 0.0</text>
<text text-anchor="start" x="1010.5" y="-37.8" font-family="Helvetica,sans-Serif" font-size="14.00">samples = 3</text>
<text text-anchor="start" x="1006" y="-22.8" font-family="Helvetica,sans-Serif" font-size="14.00">value = [3, 0]</text>
<text text-anchor="start" x="1021.5" y="-7.8" font-family="Helvetica,sans-Serif" font-size="14.00">class = B</text>
</g>
<!-- 19&#45;&gt;20 -->
<g id="edge20" class="edge">
<title>19&#45;&gt;20</title>
<path fill="none" stroke="black" d="M1121.03,-103.73C1112.11,-94.51 1102.65,-84.74 1093.74,-75.53"/>
<polygon fill="black" stroke="black" points="1096.21,-73.05 1086.74,-68.3 1091.18,-77.92 1096.21,-73.05"/>
</g>
<!-- 21 -->
<g id="node22" class="node">
<title>21</title>
<path fill="#399de5" stroke="black" d="M1230,-68C1230,-68 1141,-68 1141,-68 1135,-68 1129,-62 1129,-56 1129,-56 1129,-12 1129,-12 1129,-6 1135,0 1141,0 1141,0 1230,0 1230,0 1236,0 1242,-6 1242,-12 1242,-12 1242,-56 1242,-56 1242,-62 1236,-68 1230,-68"/>
<text text-anchor="start" x="1150.5" y="-52.8" font-family="Helvetica,sans-Serif" font-size="14.00">gini = 0.0</text>
<text text-anchor="start" x="1141.5" y="-37.8" font-family="Helvetica,sans-Serif" font-size="14.00">samples = 2</text>
<text text-anchor="start" x="1137" y="-22.8" font-family="Helvetica,sans-Serif" font-size="14.00">value = [0, 2]</text>
<text text-anchor="start" x="1151.5" y="-7.8" font-family="Helvetica,sans-Serif" font-size="14.00">class = M</text>
</g>
<!-- 19&#45;&gt;21 -->
<g id="edge21" class="edge">
<title>19&#45;&gt;21</title>
<path fill="none" stroke="black" d="M1169.81,-103.73C1171.7,-95.43 1173.7,-86.67 1175.62,-78.28"/>
<polygon fill="black" stroke="black" points="1179.08,-78.83 1177.9,-68.3 1172.26,-77.27 1179.08,-78.83"/>
</g>
<!-- 23 -->
<g id="node24" class="node">
<title>23</title>
<path fill="#e58139" stroke="black" d="M1373,-68C1373,-68 1284,-68 1284,-68 1278,-68 1272,-62 1272,-56 1272,-56 1272,-12 1272,-12 1272,-6 1278,0 1284,0 1284,0 1373,0 1373,0 1379,0 1385,-6 1385,-12 1385,-12 1385,-56 1385,-56 1385,-62 1379,-68 1373,-68"/>
<text text-anchor="start" x="1293.5" y="-52.8" font-family="Helvetica,sans-Serif" font-size="14.00">gini = 0.0</text>
<text text-anchor="start" x="1284.5" y="-37.8" font-family="Helvetica,sans-Serif" font-size="14.00">samples = 1</text>
<text text-anchor="start" x="1280" y="-22.8" font-family="Helvetica,sans-Serif" font-size="14.00">value = [1, 0]</text>
<text text-anchor="start" x="1295.5" y="-7.8" font-family="Helvetica,sans-Serif" font-size="14.00">class = B</text>
</g>
<!-- 22&#45;&gt;23 -->
<g id="edge23" class="edge">
<title>22&#45;&gt;23</title>
<path fill="none" stroke="black" d="M1336.66,-103.73C1335.67,-95.43 1334.63,-86.67 1333.64,-78.28"/>
<polygon fill="black" stroke="black" points="1337.11,-77.82 1332.45,-68.3 1330.16,-78.64 1337.11,-77.82"/>
</g>
<!-- 24 -->
<g id="node25" class="node">
<title>24</title>
<path fill="#3a9ee5" stroke="black" d="M1522,-68C1522,-68 1415,-68 1415,-68 1409,-68 1403,-62 1403,-56 1403,-56 1403,-12 1403,-12 1403,-6 1409,0 1415,0 1415,0 1522,0 1522,0 1528,0 1534,-6 1534,-12 1534,-12 1534,-56 1534,-56 1534,-62 1528,-68 1522,-68"/>
<text text-anchor="start" x="1424.5" y="-52.8" font-family="Helvetica,sans-Serif" font-size="14.00">gini = 0.014</text>
<text text-anchor="start" x="1415.5" y="-37.8" font-family="Helvetica,sans-Serif" font-size="14.00">samples = 145</text>
<text text-anchor="start" x="1411" y="-22.8" font-family="Helvetica,sans-Serif" font-size="14.00">value = [1, 144]</text>
<text text-anchor="start" x="1434.5" y="-7.8" font-family="Helvetica,sans-Serif" font-size="14.00">class = M</text>
</g>
<!-- 22&#45;&gt;24 -->
<g id="edge24" class="edge">
<title>22&#45;&gt;24</title>
<path fill="none" stroke="black" d="M1388.79,-103.73C1399.69,-94.33 1411.26,-84.35 1422.12,-74.99"/>
<polygon fill="black" stroke="black" points="1424.59,-77.48 1429.88,-68.3 1420.02,-72.18 1424.59,-77.48"/>
</g>
</g>
</svg>
