<?xml version="1.0" encoding="UTF-8" standalone="no"?>
<!DOCTYPE svg PUBLIC "-//W3C//DTD SVG 1.1//EN"
 "http://www.w3.org/Graphics/SVG/1.1/DTD/svg11.dtd">
<!-- Generated by graphviz version 2.43.0 (0)
 -->
<!-- Title: Tree Pages: 1 -->
<svg width="1512pt" height="909pt"
 viewBox="0.00 0.00 1512.00 909.00" xmlns="http://www.w3.org/2000/svg" xmlns:xlink="http://www.w3.org/1999/xlink">
<g id="graph0" class="graph" transform="scale(1 1) rotate(0) translate(4 905)">
<title>Tree</title>
<polygon fill="white" stroke="transparent" points="-4,4 -4,-905 1508,-905 1508,4 -4,4"/>
<!-- 0 -->
<g id="node1" class="node">
<title>0</title>
<path fill="#f4ccaf" stroke="black" d="M1209.5,-901C1209.5,-901 1057.5,-901 1057.5,-901 1051.5,-901 1045.5,-895 1045.5,-889 1045.5,-889 1045.5,-830 1045.5,-830 1045.5,-824 1051.5,-818 1057.5,-818 1057.5,-818 1209.5,-818 1209.5,-818 1215.5,-818 1221.5,-824 1221.5,-830 1221.5,-830 1221.5,-889 1221.5,-889 1221.5,-895 1215.5,-901 1209.5,-901"/>
<text text-anchor="middle" x="1133.5" y="-885.8" font-family="Helvetica,sans-Serif" font-size="14.00">perimeter3 &lt;= 114.45</text>
<text text-anchor="middle" x="1133.5" y="-870.8" font-family="Helvetica,sans-Serif" font-size="14.00">entropy = 0.953</text>
<text text-anchor="middle" x="1133.5" y="-855.8" font-family="Helvetica,sans-Serif" font-size="14.00">samples = 512</text>
<text text-anchor="middle" x="1133.5" y="-840.8" font-family="Helvetica,sans-Serif" font-size="14.00">value = [321, 191]</text>
<text text-anchor="middle" x="1133.5" y="-825.8" font-family="Helvetica,sans-Serif" font-size="14.00">class = B</text>
</g>
<!-- 1 -->
<g id="node2" class="node">
<title>1</title>
<path fill="#e88f4f" stroke="black" d="M950.5,-782C950.5,-782 768.5,-782 768.5,-782 762.5,-782 756.5,-776 756.5,-770 756.5,-770 756.5,-711 756.5,-711 756.5,-705 762.5,-699 768.5,-699 768.5,-699 950.5,-699 950.5,-699 956.5,-699 962.5,-705 962.5,-711 962.5,-711 962.5,-770 962.5,-770 962.5,-776 956.5,-782 950.5,-782"/>
<text text-anchor="middle" x="859.5" y="-766.8" font-family="Helvetica,sans-Serif" font-size="14.00">concave_points3 &lt;= 0.111</text>
<text text-anchor="middle" x="859.5" y="-751.8" font-family="Helvetica,sans-Serif" font-size="14.00">entropy = 0.468</text>
<text text-anchor="middle" x="859.5" y="-736.8" font-family="Helvetica,sans-Serif" font-size="14.00">samples = 351</text>
<text text-anchor="middle" x="859.5" y="-721.8" font-family="Helvetica,sans-Serif" font-size="14.00">value = [316, 35]</text>
<text text-anchor="middle" x="859.5" y="-706.8" font-family="Helvetica,sans-Serif" font-size="14.00">class = B</text>
</g>
<!-- 0&#45;&gt;1 -->
<g id="edge1" class="edge">
<title>0&#45;&gt;1</title>
<path fill="none" stroke="black" d="M1045.3,-820.84C1019.41,-809.78 990.84,-797.58 964.04,-786.14"/>
<polygon fill="black" stroke="black" points="965.21,-782.83 954.64,-782.12 962.46,-789.27 965.21,-782.83"/>
<text text-anchor="middle" x="963.95" y="-801.62" font-family="Helvetica,sans-Serif" font-size="14.00">True</text>
</g>
<!-- 32 -->
<g id="node33" class="node">
<title>32</title>
<path fill="#3fa0e6" stroke="black" d="M1367,-782C1367,-782 1194,-782 1194,-782 1188,-782 1182,-776 1182,-770 1182,-770 1182,-711 1182,-711 1182,-705 1188,-699 1194,-699 1194,-699 1367,-699 1367,-699 1373,-699 1379,-705 1379,-711 1379,-711 1379,-770 1379,-770 1379,-776 1373,-782 1367,-782"/>
<text text-anchor="middle" x="1280.5" y="-766.8" font-family="Helvetica,sans-Serif" font-size="14.00">concave_points1 &lt;= 0.05</text>
<text text-anchor="middle" x="1280.5" y="-751.8" font-family="Helvetica,sans-Serif" font-size="14.00">entropy = 0.2</text>
<text text-anchor="middle" x="1280.5" y="-736.8" font-family="Helvetica,sans-Serif" font-size="14.00">samples = 161</text>
<text text-anchor="middle" x="1280.5" y="-721.8" font-family="Helvetica,sans-Serif" font-size="14.00">value = [5, 156]</text>
<text text-anchor="middle" x="1280.5" y="-706.8" font-family="Helvetica,sans-Serif" font-size="14.00">class = M</text>
</g>
<!-- 0&#45;&gt;32 -->
<g id="edge32" class="edge">
<title>0&#45;&gt;32</title>
<path fill="none" stroke="black" d="M1184.5,-817.91C1196.47,-808.38 1209.33,-798.15 1221.61,-788.37"/>
<polygon fill="black" stroke="black" points="1223.94,-790.99 1229.59,-782.02 1219.59,-785.51 1223.94,-790.99"/>
<text text-anchor="middle" x="1226.77" y="-803.16" font-family="Helvetica,sans-Serif" font-size="14.00">False</text>
</g>
<!-- 2 -->
<g id="node3" class="node">
<title>2</title>
<path fill="#e5833c" stroke="black" d="M505,-663C505,-663 398,-663 398,-663 392,-663 386,-657 386,-651 386,-651 386,-592 386,-592 386,-586 392,-580 398,-580 398,-580 505,-580 505,-580 511,-580 517,-586 517,-592 517,-592 517,-651 517,-651 517,-657 511,-663 505,-663"/>
<text text-anchor="middle" x="451.5" y="-647.8" font-family="Helvetica,sans-Serif" font-size="14.00">area2 &lt;= 45.17</text>
<text text-anchor="middle" x="451.5" y="-632.8" font-family="Helvetica,sans-Serif" font-size="14.00">entropy = 0.109</text>
<text text-anchor="middle" x="451.5" y="-617.8" font-family="Helvetica,sans-Serif" font-size="14.00">samples = 278</text>
<text text-anchor="middle" x="451.5" y="-602.8" font-family="Helvetica,sans-Serif" font-size="14.00">value = [274, 4]</text>
<text text-anchor="middle" x="451.5" y="-587.8" font-family="Helvetica,sans-Serif" font-size="14.00">class = B</text>
</g>
<!-- 1&#45;&gt;2 -->
<g id="edge2" class="edge">
<title>1&#45;&gt;2</title>
<path fill="none" stroke="black" d="M756.28,-709.9C684.87,-689.42 591.47,-662.64 526.97,-644.14"/>
<polygon fill="black" stroke="black" points="527.86,-640.76 517.28,-641.36 525.93,-647.48 527.86,-640.76"/>
</g>
<!-- 11 -->
<g id="node12" class="node">
<title>11</title>
<path fill="#f8decb" stroke="black" d="M926.5,-663C926.5,-663 792.5,-663 792.5,-663 786.5,-663 780.5,-657 780.5,-651 780.5,-651 780.5,-592 780.5,-592 780.5,-586 786.5,-580 792.5,-580 792.5,-580 926.5,-580 926.5,-580 932.5,-580 938.5,-586 938.5,-592 938.5,-592 938.5,-651 938.5,-651 938.5,-657 932.5,-663 926.5,-663"/>
<text text-anchor="middle" x="859.5" y="-647.8" font-family="Helvetica,sans-Serif" font-size="14.00">texture3 &lt;= 25.735</text>
<text text-anchor="middle" x="859.5" y="-632.8" font-family="Helvetica,sans-Serif" font-size="14.00">entropy = 0.984</text>
<text text-anchor="middle" x="859.5" y="-617.8" font-family="Helvetica,sans-Serif" font-size="14.00">samples = 73</text>
<text text-anchor="middle" x="859.5" y="-602.8" font-family="Helvetica,sans-Serif" font-size="14.00">value = [42, 31]</text>
<text text-anchor="middle" x="859.5" y="-587.8" font-family="Helvetica,sans-Serif" font-size="14.00">class = B</text>
</g>
<!-- 1&#45;&gt;11 -->
<g id="edge11" class="edge">
<title>1&#45;&gt;11</title>
<path fill="none" stroke="black" d="M859.5,-698.91C859.5,-690.65 859.5,-681.86 859.5,-673.3"/>
<polygon fill="black" stroke="black" points="863,-673.02 859.5,-663.02 856,-673.02 863,-673.02"/>
</g>
<!-- 3 -->
<g id="node4" class="node">
<title>3</title>
<path fill="#e5813a" stroke="black" d="M282,-544C282,-544 157,-544 157,-544 151,-544 145,-538 145,-532 145,-532 145,-473 145,-473 145,-467 151,-461 157,-461 157,-461 282,-461 282,-461 288,-461 294,-467 294,-473 294,-473 294,-532 294,-532 294,-538 288,-544 282,-544"/>
<text text-anchor="middle" x="219.5" y="-528.8" font-family="Helvetica,sans-Serif" font-size="14.00">texture3 &lt;= 33.35</text>
<text text-anchor="middle" x="219.5" y="-513.8" font-family="Helvetica,sans-Serif" font-size="14.00">entropy = 0.035</text>
<text text-anchor="middle" x="219.5" y="-498.8" font-family="Helvetica,sans-Serif" font-size="14.00">samples = 270</text>
<text text-anchor="middle" x="219.5" y="-483.8" font-family="Helvetica,sans-Serif" font-size="14.00">value = [269, 1]</text>
<text text-anchor="middle" x="219.5" y="-468.8" font-family="Helvetica,sans-Serif" font-size="14.00">class = B</text>
</g>
<!-- 2&#45;&gt;3 -->
<g id="edge3" class="edge">
<title>2&#45;&gt;3</title>
<path fill="none" stroke="black" d="M385.95,-587.44C360.31,-574.51 330.58,-559.52 303.4,-545.81"/>
<polygon fill="black" stroke="black" points="304.8,-542.6 294.3,-541.22 301.65,-548.85 304.8,-542.6"/>
</g>
<!-- 8 -->
<g id="node9" class="node">
<title>8</title>
<path fill="#f5cdb0" stroke="black" d="M535,-544C535,-544 368,-544 368,-544 362,-544 356,-538 356,-532 356,-532 356,-473 356,-473 356,-467 362,-461 368,-461 368,-461 535,-461 535,-461 541,-461 547,-467 547,-473 547,-473 547,-532 547,-532 547,-538 541,-544 535,-544"/>
<text text-anchor="middle" x="451.5" y="-528.8" font-family="Helvetica,sans-Serif" font-size="14.00">compactness2 &lt;= 0.014</text>
<text text-anchor="middle" x="451.5" y="-513.8" font-family="Helvetica,sans-Serif" font-size="14.00">entropy = 0.954</text>
<text text-anchor="middle" x="451.5" y="-498.8" font-family="Helvetica,sans-Serif" font-size="14.00">samples = 8</text>
<text text-anchor="middle" x="451.5" y="-483.8" font-family="Helvetica,sans-Serif" font-size="14.00">value = [5, 3]</text>
<text text-anchor="middle" x="451.5" y="-468.8" font-family="Helvetica,sans-Serif" font-size="14.00">class = B</text>
</g>
<!-- 2&#45;&gt;8 -->
<g id="edge8" class="edge">
<title>2&#45;&gt;8</title>
<path fill="none" stroke="black" d="M451.5,-579.91C451.5,-571.65 451.5,-562.86 451.5,-554.3"/>
<polygon fill="black" stroke="black" points="455,-554.02 451.5,-544.02 448,-554.02 455,-554.02"/>
</g>
<!-- 4 -->
<g id="node5" class="node">
<title>4</title>
<path fill="#e58139" stroke="black" d="M119,-417.5C119,-417.5 12,-417.5 12,-417.5 6,-417.5 0,-411.5 0,-405.5 0,-405.5 0,-361.5 0,-361.5 0,-355.5 6,-349.5 12,-349.5 12,-349.5 119,-349.5 119,-349.5 125,-349.5 131,-355.5 131,-361.5 131,-361.5 131,-405.5 131,-405.5 131,-411.5 125,-417.5 119,-417.5"/>
<text text-anchor="middle" x="65.5" y="-402.3" font-family="Helvetica,sans-Serif" font-size="14.00">entropy = 0.0</text>
<text text-anchor="middle" x="65.5" y="-387.3" font-family="Helvetica,sans-Serif" font-size="14.00">samples = 253</text>
<text text-anchor="middle" x="65.5" y="-372.3" font-family="Helvetica,sans-Serif" font-size="14.00">value = [253, 0]</text>
<text text-anchor="middle" x="65.5" y="-357.3" font-family="Helvetica,sans-Serif" font-size="14.00">class = B</text>
</g>
<!-- 3&#45;&gt;4 -->
<g id="edge4" class="edge">
<title>3&#45;&gt;4</title>
<path fill="none" stroke="black" d="M166.07,-460.91C150.24,-448.88 132.94,-435.73 117.22,-423.79"/>
<polygon fill="black" stroke="black" points="119.24,-420.93 109.16,-417.67 115,-426.5 119.24,-420.93"/>
</g>
<!-- 5 -->
<g id="node6" class="node">
<title>5</title>
<path fill="#e78945" stroke="black" d="M277.5,-425C277.5,-425 161.5,-425 161.5,-425 155.5,-425 149.5,-419 149.5,-413 149.5,-413 149.5,-354 149.5,-354 149.5,-348 155.5,-342 161.5,-342 161.5,-342 277.5,-342 277.5,-342 283.5,-342 289.5,-348 289.5,-354 289.5,-354 289.5,-413 289.5,-413 289.5,-419 283.5,-425 277.5,-425"/>
<text text-anchor="middle" x="219.5" y="-409.8" font-family="Helvetica,sans-Serif" font-size="14.00">texture1 &lt;= 23.2</text>
<text text-anchor="middle" x="219.5" y="-394.8" font-family="Helvetica,sans-Serif" font-size="14.00">entropy = 0.323</text>
<text text-anchor="middle" x="219.5" y="-379.8" font-family="Helvetica,sans-Serif" font-size="14.00">samples = 17</text>
<text text-anchor="middle" x="219.5" y="-364.8" font-family="Helvetica,sans-Serif" font-size="14.00">value = [16, 1]</text>
<text text-anchor="middle" x="219.5" y="-349.8" font-family="Helvetica,sans-Serif" font-size="14.00">class = B</text>
</g>
<!-- 3&#45;&gt;5 -->
<g id="edge5" class="edge">
<title>3&#45;&gt;5</title>
<path fill="none" stroke="black" d="M219.5,-460.91C219.5,-452.65 219.5,-443.86 219.5,-435.3"/>
<polygon fill="black" stroke="black" points="223,-435.02 219.5,-425.02 216,-435.02 223,-435.02"/>
</g>
<!-- 6 -->
<g id="node7" class="node">
<title>6</title>
<path fill="#399de5" stroke="black" d="M194,-298.5C194,-298.5 105,-298.5 105,-298.5 99,-298.5 93,-292.5 93,-286.5 93,-286.5 93,-242.5 93,-242.5 93,-236.5 99,-230.5 105,-230.5 105,-230.5 194,-230.5 194,-230.5 200,-230.5 206,-236.5 206,-242.5 206,-242.5 206,-286.5 206,-286.5 206,-292.5 200,-298.5 194,-298.5"/>
<text text-anchor="middle" x="149.5" y="-283.3" font-family="Helvetica,sans-Serif" font-size="14.00">entropy = 0.0</text>
<text text-anchor="middle" x="149.5" y="-268.3" font-family="Helvetica,sans-Serif" font-size="14.00">samples = 1</text>
<text text-anchor="middle" x="149.5" y="-253.3" font-family="Helvetica,sans-Serif" font-size="14.00">value = [0, 1]</text>
<text text-anchor="middle" x="149.5" y="-238.3" font-family="Helvetica,sans-Serif" font-size="14.00">class = M</text>
</g>
<!-- 5&#45;&gt;6 -->
<g id="edge6" class="edge">
<title>5&#45;&gt;6</title>
<path fill="none" stroke="black" d="M195.21,-341.91C188.55,-330.76 181.3,-318.66 174.59,-307.44"/>
<polygon fill="black" stroke="black" points="177.48,-305.45 169.34,-298.67 171.47,-309.05 177.48,-305.45"/>
</g>
<!-- 7 -->
<g id="node8" class="node">
<title>7</title>
<path fill="#e58139" stroke="black" d="M334.5,-298.5C334.5,-298.5 236.5,-298.5 236.5,-298.5 230.5,-298.5 224.5,-292.5 224.5,-286.5 224.5,-286.5 224.5,-242.5 224.5,-242.5 224.5,-236.5 230.5,-230.5 236.5,-230.5 236.5,-230.5 334.5,-230.5 334.5,-230.5 340.5,-230.5 346.5,-236.5 346.5,-242.5 346.5,-242.5 346.5,-286.5 346.5,-286.5 346.5,-292.5 340.5,-298.5 334.5,-298.5"/>
<text text-anchor="middle" x="285.5" y="-283.3" font-family="Helvetica,sans-Serif" font-size="14.00">entropy = 0.0</text>
<text text-anchor="middle" x="285.5" y="-268.3" font-family="Helvetica,sans-Serif" font-size="14.00">samples = 16</text>
<text text-anchor="middle" x="285.5" y="-253.3" font-family="Helvetica,sans-Serif" font-size="14.00">value = [16, 0]</text>
<text text-anchor="middle" x="285.5" y="-238.3" font-family="Helvetica,sans-Serif" font-size="14.00">class = B</text>
</g>
<!-- 5&#45;&gt;7 -->
<g id="edge7" class="edge">
<title>5&#45;&gt;7</title>
<path fill="none" stroke="black" d="M242.4,-341.91C248.69,-330.76 255.51,-318.66 261.84,-307.44"/>
<polygon fill="black" stroke="black" points="264.93,-309.1 266.79,-298.67 258.83,-305.66 264.93,-309.1"/>
</g>
<!-- 9 -->
<g id="node10" class="node">
<title>9</title>
<path fill="#399de5" stroke="black" d="M409,-417.5C409,-417.5 320,-417.5 320,-417.5 314,-417.5 308,-411.5 308,-405.5 308,-405.5 308,-361.5 308,-361.5 308,-355.5 314,-349.5 320,-349.5 320,-349.5 409,-349.5 409,-349.5 415,-349.5 421,-355.5 421,-361.5 421,-361.5 421,-405.5 421,-405.5 421,-411.5 415,-417.5 409,-417.5"/>
<text text-anchor="middle" x="364.5" y="-402.3" font-family="Helvetica,sans-Serif" font-size="14.00">entropy = 0.0</text>
<text text-anchor="middle" x="364.5" y="-387.3" font-family="Helvetica,sans-Serif" font-size="14.00">samples = 3</text>
<text text-anchor="middle" x="364.5" y="-372.3" font-family="Helvetica,sans-Serif" font-size="14.00">value = [0, 3]</text>
<text text-anchor="middle" x="364.5" y="-357.3" font-family="Helvetica,sans-Serif" font-size="14.00">class = M</text>
</g>
<!-- 8&#45;&gt;9 -->
<g id="edge9" class="edge">
<title>8&#45;&gt;9</title>
<path fill="none" stroke="black" d="M421.32,-460.91C412.86,-449.54 403.67,-437.18 395.19,-425.77"/>
<polygon fill="black" stroke="black" points="397.94,-423.6 389.16,-417.67 392.32,-427.78 397.94,-423.6"/>
</g>
<!-- 10 -->
<g id="node11" class="node">
<title>10</title>
<path fill="#e58139" stroke="black" d="M540,-417.5C540,-417.5 451,-417.5 451,-417.5 445,-417.5 439,-411.5 439,-405.5 439,-405.5 439,-361.5 439,-361.5 439,-355.5 445,-349.5 451,-349.5 451,-349.5 540,-349.5 540,-349.5 546,-349.5 552,-355.5 552,-361.5 552,-361.5 552,-405.5 552,-405.5 552,-411.5 546,-417.5 540,-417.5"/>
<text text-anchor="middle" x="495.5" y="-402.3" font-family="Helvetica,sans-Serif" font-size="14.00">entropy = 0.0</text>
<text text-anchor="middle" x="495.5" y="-387.3" font-family="Helvetica,sans-Serif" font-size="14.00">samples = 5</text>
<text text-anchor="middle" x="495.5" y="-372.3" font-family="Helvetica,sans-Serif" font-size="14.00">value = [5, 0]</text>
<text text-anchor="middle" x="495.5" y="-357.3" font-family="Helvetica,sans-Serif" font-size="14.00">class = B</text>
</g>
<!-- 8&#45;&gt;10 -->
<g id="edge10" class="edge">
<title>8&#45;&gt;10</title>
<path fill="none" stroke="black" d="M466.77,-460.91C470.87,-449.98 475.33,-438.14 479.48,-427.11"/>
<polygon fill="black" stroke="black" points="482.78,-428.26 483.03,-417.67 476.23,-425.79 482.78,-428.26"/>
</g>
<!-- 12 -->
<g id="node13" class="node">
<title>12</title>
<path fill="#e99355" stroke="black" d="M833,-544C833,-544 674,-544 674,-544 668,-544 662,-538 662,-532 662,-532 662,-473 662,-473 662,-467 668,-461 674,-461 674,-461 833,-461 833,-461 839,-461 845,-467 845,-473 845,-473 845,-532 845,-532 845,-538 839,-544 833,-544"/>
<text text-anchor="middle" x="753.5" y="-528.8" font-family="Helvetica,sans-Serif" font-size="14.00">smoothness3 &lt;= 0.179</text>
<text text-anchor="middle" x="753.5" y="-513.8" font-family="Helvetica,sans-Serif" font-size="14.00">entropy = 0.544</text>
<text text-anchor="middle" x="753.5" y="-498.8" font-family="Helvetica,sans-Serif" font-size="14.00">samples = 32</text>
<text text-anchor="middle" x="753.5" y="-483.8" font-family="Helvetica,sans-Serif" font-size="14.00">value = [28, 4]</text>
<text text-anchor="middle" x="753.5" y="-468.8" font-family="Helvetica,sans-Serif" font-size="14.00">class = B</text>
</g>
<!-- 11&#45;&gt;12 -->
<g id="edge12" class="edge">
<title>11&#45;&gt;12</title>
<path fill="none" stroke="black" d="M822.72,-579.91C814.42,-570.74 805.53,-560.93 796.98,-551.49"/>
<polygon fill="black" stroke="black" points="799.52,-549.08 790.21,-544.02 794.33,-553.78 799.52,-549.08"/>
</g>
<!-- 19 -->
<g id="node20" class="node">
<title>19</title>
<path fill="#a0d0f2" stroke="black" d="M1057.5,-544C1057.5,-544 875.5,-544 875.5,-544 869.5,-544 863.5,-538 863.5,-532 863.5,-532 863.5,-473 863.5,-473 863.5,-467 869.5,-461 875.5,-461 875.5,-461 1057.5,-461 1057.5,-461 1063.5,-461 1069.5,-467 1069.5,-473 1069.5,-473 1069.5,-532 1069.5,-532 1069.5,-538 1063.5,-544 1057.5,-544"/>
<text text-anchor="middle" x="966.5" y="-528.8" font-family="Helvetica,sans-Serif" font-size="14.00">concave_points1 &lt;= 0.049</text>
<text text-anchor="middle" x="966.5" y="-513.8" font-family="Helvetica,sans-Serif" font-size="14.00">entropy = 0.926</text>
<text text-anchor="middle" x="966.5" y="-498.8" font-family="Helvetica,sans-Serif" font-size="14.00">samples = 41</text>
<text text-anchor="middle" x="966.5" y="-483.8" font-family="Helvetica,sans-Serif" font-size="14.00">value = [14.0, 27.0]</text>
<text text-anchor="middle" x="966.5" y="-468.8" font-family="Helvetica,sans-Serif" font-size="14.00">class = M</text>
</g>
<!-- 11&#45;&gt;19 -->
<g id="edge19" class="edge">
<title>11&#45;&gt;19</title>
<path fill="none" stroke="black" d="M896.62,-579.91C905.01,-570.74 913.98,-560.93 922.61,-551.49"/>
<polygon fill="black" stroke="black" points="925.28,-553.76 929.44,-544.02 920.11,-549.04 925.28,-553.76"/>
</g>
<!-- 13 -->
<g id="node14" class="node">
<title>13</title>
<path fill="#e78a47" stroke="black" d="M689,-425C689,-425 582,-425 582,-425 576,-425 570,-419 570,-413 570,-413 570,-354 570,-354 570,-348 576,-342 582,-342 582,-342 689,-342 689,-342 695,-342 701,-348 701,-354 701,-354 701,-413 701,-413 701,-419 695,-425 689,-425"/>
<text text-anchor="middle" x="635.5" y="-409.8" font-family="Helvetica,sans-Serif" font-size="14.00">area3 &lt;= 810.3</text>
<text text-anchor="middle" x="635.5" y="-394.8" font-family="Helvetica,sans-Serif" font-size="14.00">entropy = 0.353</text>
<text text-anchor="middle" x="635.5" y="-379.8" font-family="Helvetica,sans-Serif" font-size="14.00">samples = 30</text>
<text text-anchor="middle" x="635.5" y="-364.8" font-family="Helvetica,sans-Serif" font-size="14.00">value = [28, 2]</text>
<text text-anchor="middle" x="635.5" y="-349.8" font-family="Helvetica,sans-Serif" font-size="14.00">class = B</text>
</g>
<!-- 12&#45;&gt;13 -->
<g id="edge13" class="edge">
<title>12&#45;&gt;13</title>
<path fill="none" stroke="black" d="M712.56,-460.91C703.22,-451.65 693.22,-441.73 683.62,-432.21"/>
<polygon fill="black" stroke="black" points="685.93,-429.58 676.37,-425.02 681,-434.55 685.93,-429.58"/>
</g>
<!-- 18 -->
<g id="node19" class="node">
<title>18</title>
<path fill="#399de5" stroke="black" d="M820,-417.5C820,-417.5 731,-417.5 731,-417.5 725,-417.5 719,-411.5 719,-405.5 719,-405.5 719,-361.5 719,-361.5 719,-355.5 725,-349.5 731,-349.5 731,-349.5 820,-349.5 820,-349.5 826,-349.5 832,-355.5 832,-361.5 832,-361.5 832,-405.5 832,-405.5 832,-411.5 826,-417.5 820,-417.5"/>
<text text-anchor="middle" x="775.5" y="-402.3" font-family="Helvetica,sans-Serif" font-size="14.00">entropy = 0.0</text>
<text text-anchor="middle" x="775.5" y="-387.3" font-family="Helvetica,sans-Serif" font-size="14.00">samples = 2</text>
<text text-anchor="middle" x="775.5" y="-372.3" font-family="Helvetica,sans-Serif" font-size="14.00">value = [0, 2]</text>
<text text-anchor="middle" x="775.5" y="-357.3" font-family="Helvetica,sans-Serif" font-size="14.00">class = M</text>
</g>
<!-- 12&#45;&gt;18 -->
<g id="edge18" class="edge">
<title>12&#45;&gt;18</title>
<path fill="none" stroke="black" d="M761.13,-460.91C763.15,-450.2 765.32,-438.62 767.36,-427.78"/>
<polygon fill="black" stroke="black" points="770.86,-428.14 769.26,-417.67 763.98,-426.85 770.86,-428.14"/>
</g>
<!-- 14 -->
<g id="node15" class="node">
<title>14</title>
<path fill="#e58139" stroke="black" d="M539.5,-298.5C539.5,-298.5 441.5,-298.5 441.5,-298.5 435.5,-298.5 429.5,-292.5 429.5,-286.5 429.5,-286.5 429.5,-242.5 429.5,-242.5 429.5,-236.5 435.5,-230.5 441.5,-230.5 441.5,-230.5 539.5,-230.5 539.5,-230.5 545.5,-230.5 551.5,-236.5 551.5,-242.5 551.5,-242.5 551.5,-286.5 551.5,-286.5 551.5,-292.5 545.5,-298.5 539.5,-298.5"/>
<text text-anchor="middle" x="490.5" y="-283.3" font-family="Helvetica,sans-Serif" font-size="14.00">entropy = 0.0</text>
<text text-anchor="middle" x="490.5" y="-268.3" font-family="Helvetica,sans-Serif" font-size="14.00">samples = 22</text>
<text text-anchor="middle" x="490.5" y="-253.3" font-family="Helvetica,sans-Serif" font-size="14.00">value = [22, 0]</text>
<text text-anchor="middle" x="490.5" y="-238.3" font-family="Helvetica,sans-Serif" font-size="14.00">class = B</text>
</g>
<!-- 13&#45;&gt;14 -->
<g id="edge14" class="edge">
<title>13&#45;&gt;14</title>
<path fill="none" stroke="black" d="M585.19,-341.91C570.42,-329.99 554.29,-316.98 539.6,-305.12"/>
<polygon fill="black" stroke="black" points="541.58,-302.22 531.6,-298.67 537.19,-307.67 541.58,-302.22"/>
</g>
<!-- 15 -->
<g id="node16" class="node">
<title>15</title>
<path fill="#eeab7b" stroke="black" d="M689,-306C689,-306 582,-306 582,-306 576,-306 570,-300 570,-294 570,-294 570,-235 570,-235 570,-229 576,-223 582,-223 582,-223 689,-223 689,-223 695,-223 701,-229 701,-235 701,-235 701,-294 701,-294 701,-300 695,-306 689,-306"/>
<text text-anchor="middle" x="635.5" y="-290.8" font-family="Helvetica,sans-Serif" font-size="14.00">area1 &lt;= 621.8</text>
<text text-anchor="middle" x="635.5" y="-275.8" font-family="Helvetica,sans-Serif" font-size="14.00">entropy = 0.811</text>
<text text-anchor="middle" x="635.5" y="-260.8" font-family="Helvetica,sans-Serif" font-size="14.00">samples = 8</text>
<text text-anchor="middle" x="635.5" y="-245.8" font-family="Helvetica,sans-Serif" font-size="14.00">value = [6, 2]</text>
<text text-anchor="middle" x="635.5" y="-230.8" font-family="Helvetica,sans-Serif" font-size="14.00">class = B</text>
</g>
<!-- 13&#45;&gt;15 -->
<g id="edge15" class="edge">
<title>13&#45;&gt;15</title>
<path fill="none" stroke="black" d="M635.5,-341.91C635.5,-333.65 635.5,-324.86 635.5,-316.3"/>
<polygon fill="black" stroke="black" points="639,-316.02 635.5,-306.02 632,-316.02 639,-316.02"/>
</g>
<!-- 16 -->
<g id="node17" class="node">
<title>16</title>
<path fill="#399de5" stroke="black" d="M552,-179.5C552,-179.5 463,-179.5 463,-179.5 457,-179.5 451,-173.5 451,-167.5 451,-167.5 451,-123.5 451,-123.5 451,-117.5 457,-111.5 463,-111.5 463,-111.5 552,-111.5 552,-111.5 558,-111.5 564,-117.5 564,-123.5 564,-123.5 564,-167.5 564,-167.5 564,-173.5 558,-179.5 552,-179.5"/>
<text text-anchor="middle" x="507.5" y="-164.3" font-family="Helvetica,sans-Serif" font-size="14.00">entropy = 0.0</text>
<text text-anchor="middle" x="507.5" y="-149.3" font-family="Helvetica,sans-Serif" font-size="14.00">samples = 2</text>
<text text-anchor="middle" x="507.5" y="-134.3" font-family="Helvetica,sans-Serif" font-size="14.00">value = [0, 2]</text>
<text text-anchor="middle" x="507.5" y="-119.3" font-family="Helvetica,sans-Serif" font-size="14.00">class = M</text>
</g>
<!-- 15&#45;&gt;16 -->
<g id="edge16" class="edge">
<title>15&#45;&gt;16</title>
<path fill="none" stroke="black" d="M591.09,-222.91C578.17,-211.1 564.08,-198.22 551.21,-186.45"/>
<polygon fill="black" stroke="black" points="553.53,-183.83 543.79,-179.67 548.8,-189 553.53,-183.83"/>
</g>
<!-- 17 -->
<g id="node18" class="node">
<title>17</title>
<path fill="#e58139" stroke="black" d="M683,-179.5C683,-179.5 594,-179.5 594,-179.5 588,-179.5 582,-173.5 582,-167.5 582,-167.5 582,-123.5 582,-123.5 582,-117.5 588,-111.5 594,-111.5 594,-111.5 683,-111.5 683,-111.5 689,-111.5 695,-117.5 695,-123.5 695,-123.5 695,-167.5 695,-167.5 695,-173.5 689,-179.5 683,-179.5"/>
<text text-anchor="middle" x="638.5" y="-164.3" font-family="Helvetica,sans-Serif" font-size="14.00">entropy = 0.0</text>
<text text-anchor="middle" x="638.5" y="-149.3" font-family="Helvetica,sans-Serif" font-size="14.00">samples = 6</text>
<text text-anchor="middle" x="638.5" y="-134.3" font-family="Helvetica,sans-Serif" font-size="14.00">value = [6, 0]</text>
<text text-anchor="middle" x="638.5" y="-119.3" font-family="Helvetica,sans-Serif" font-size="14.00">class = B</text>
</g>
<!-- 15&#45;&gt;17 -->
<g id="edge17" class="edge">
<title>15&#45;&gt;17</title>
<path fill="none" stroke="black" d="M636.54,-222.91C636.82,-212.2 637.11,-200.62 637.39,-189.78"/>
<polygon fill="black" stroke="black" points="640.89,-189.75 637.65,-179.67 633.89,-189.57 640.89,-189.75"/>
</g>
<!-- 20 -->
<g id="node21" class="node">
<title>20</title>
<path fill="#efb185" stroke="black" d="M1008.5,-425C1008.5,-425 880.5,-425 880.5,-425 874.5,-425 868.5,-419 868.5,-413 868.5,-413 868.5,-354 868.5,-354 868.5,-348 874.5,-342 880.5,-342 880.5,-342 1008.5,-342 1008.5,-342 1014.5,-342 1020.5,-348 1020.5,-354 1020.5,-354 1020.5,-413 1020.5,-413 1020.5,-419 1014.5,-425 1008.5,-425"/>
<text text-anchor="middle" x="944.5" y="-409.8" font-family="Helvetica,sans-Serif" font-size="14.00">radius3 &lt;= 16.825</text>
<text text-anchor="middle" x="944.5" y="-394.8" font-family="Helvetica,sans-Serif" font-size="14.00">entropy = 0.852</text>
<text text-anchor="middle" x="944.5" y="-379.8" font-family="Helvetica,sans-Serif" font-size="14.00">samples = 18</text>
<text text-anchor="middle" x="944.5" y="-364.8" font-family="Helvetica,sans-Serif" font-size="14.00">value = [13, 5]</text>
<text text-anchor="middle" x="944.5" y="-349.8" font-family="Helvetica,sans-Serif" font-size="14.00">class = B</text>
</g>
<!-- 19&#45;&gt;20 -->
<g id="edge20" class="edge">
<title>19&#45;&gt;20</title>
<path fill="none" stroke="black" d="M958.87,-460.91C957.3,-452.56 955.63,-443.67 954,-435.02"/>
<polygon fill="black" stroke="black" points="957.41,-434.2 952.12,-425.02 950.53,-435.5 957.41,-434.2"/>
</g>
<!-- 27 -->
<g id="node28" class="node">
<title>27</title>
<path fill="#42a1e6" stroke="black" d="M1194,-425C1194,-425 1051,-425 1051,-425 1045,-425 1039,-419 1039,-413 1039,-413 1039,-354 1039,-354 1039,-348 1045,-342 1051,-342 1051,-342 1194,-342 1194,-342 1200,-342 1206,-348 1206,-354 1206,-354 1206,-413 1206,-413 1206,-419 1200,-425 1194,-425"/>
<text text-anchor="middle" x="1122.5" y="-409.8" font-family="Helvetica,sans-Serif" font-size="14.00">perimeter2 &lt;= 1.558</text>
<text text-anchor="middle" x="1122.5" y="-394.8" font-family="Helvetica,sans-Serif" font-size="14.00">entropy = 0.258</text>
<text text-anchor="middle" x="1122.5" y="-379.8" font-family="Helvetica,sans-Serif" font-size="14.00">samples = 23</text>
<text text-anchor="middle" x="1122.5" y="-364.8" font-family="Helvetica,sans-Serif" font-size="14.00">value = [1, 22]</text>
<text text-anchor="middle" x="1122.5" y="-349.8" font-family="Helvetica,sans-Serif" font-size="14.00">class = M</text>
</g>
<!-- 19&#45;&gt;27 -->
<g id="edge27" class="edge">
<title>19&#45;&gt;27</title>
<path fill="none" stroke="black" d="M1020.62,-460.91C1033.45,-451.29 1047.23,-440.95 1060.38,-431.09"/>
<polygon fill="black" stroke="black" points="1062.57,-433.82 1068.47,-425.02 1058.37,-428.22 1062.57,-433.82"/>
</g>
<!-- 21 -->
<g id="node22" class="node">
<title>21</title>
<path fill="#e99457" stroke="black" d="M877.5,-306C877.5,-306 731.5,-306 731.5,-306 725.5,-306 719.5,-300 719.5,-294 719.5,-294 719.5,-235 719.5,-235 719.5,-229 725.5,-223 731.5,-223 731.5,-223 877.5,-223 877.5,-223 883.5,-223 889.5,-229 889.5,-235 889.5,-235 889.5,-294 889.5,-294 889.5,-300 883.5,-306 877.5,-306"/>
<text text-anchor="middle" x="804.5" y="-290.8" font-family="Helvetica,sans-Serif" font-size="14.00">symmetry3 &lt;= 0.298</text>
<text text-anchor="middle" x="804.5" y="-275.8" font-family="Helvetica,sans-Serif" font-size="14.00">entropy = 0.567</text>
<text text-anchor="middle" x="804.5" y="-260.8" font-family="Helvetica,sans-Serif" font-size="14.00">samples = 15</text>
<text text-anchor="middle" x="804.5" y="-245.8" font-family="Helvetica,sans-Serif" font-size="14.00">value = [13, 2]</text>
<text text-anchor="middle" x="804.5" y="-230.8" font-family="Helvetica,sans-Serif" font-size="14.00">class = B</text>
</g>
<!-- 20&#45;&gt;21 -->
<g id="edge21" class="edge">
<title>20&#45;&gt;21</title>
<path fill="none" stroke="black" d="M895.93,-341.91C884.63,-332.47 872.52,-322.34 860.92,-312.65"/>
<polygon fill="black" stroke="black" points="862.9,-309.75 852.99,-306.02 858.42,-315.12 862.9,-309.75"/>
</g>
<!-- 26 -->
<g id="node27" class="node">
<title>26</title>
<path fill="#399de5" stroke="black" d="M1009,-298.5C1009,-298.5 920,-298.5 920,-298.5 914,-298.5 908,-292.5 908,-286.5 908,-286.5 908,-242.5 908,-242.5 908,-236.5 914,-230.5 920,-230.5 920,-230.5 1009,-230.5 1009,-230.5 1015,-230.5 1021,-236.5 1021,-242.5 1021,-242.5 1021,-286.5 1021,-286.5 1021,-292.5 1015,-298.5 1009,-298.5"/>
<text text-anchor="middle" x="964.5" y="-283.3" font-family="Helvetica,sans-Serif" font-size="14.00">entropy = 0.0</text>
<text text-anchor="middle" x="964.5" y="-268.3" font-family="Helvetica,sans-Serif" font-size="14.00">samples = 3</text>
<text text-anchor="middle" x="964.5" y="-253.3" font-family="Helvetica,sans-Serif" font-size="14.00">value = [0, 3]</text>
<text text-anchor="middle" x="964.5" y="-238.3" font-family="Helvetica,sans-Serif" font-size="14.00">class = M</text>
</g>
<!-- 20&#45;&gt;26 -->
<g id="edge26" class="edge">
<title>20&#45;&gt;26</title>
<path fill="none" stroke="black" d="M951.44,-341.91C953.27,-331.2 955.25,-319.62 957.1,-308.78"/>
<polygon fill="black" stroke="black" points="960.6,-309.11 958.83,-298.67 953.7,-307.93 960.6,-309.11"/>
</g>
<!-- 22 -->
<g id="node23" class="node">
<title>22</title>
<path fill="#e58139" stroke="black" d="M836.5,-179.5C836.5,-179.5 738.5,-179.5 738.5,-179.5 732.5,-179.5 726.5,-173.5 726.5,-167.5 726.5,-167.5 726.5,-123.5 726.5,-123.5 726.5,-117.5 732.5,-111.5 738.5,-111.5 738.5,-111.5 836.5,-111.5 836.5,-111.5 842.5,-111.5 848.5,-117.5 848.5,-123.5 848.5,-123.5 848.5,-167.5 848.5,-167.5 848.5,-173.5 842.5,-179.5 836.5,-179.5"/>
<text text-anchor="middle" x="787.5" y="-164.3" font-family="Helvetica,sans-Serif" font-size="14.00">entropy = 0.0</text>
<text text-anchor="middle" x="787.5" y="-149.3" font-family="Helvetica,sans-Serif" font-size="14.00">samples = 10</text>
<text text-anchor="middle" x="787.5" y="-134.3" font-family="Helvetica,sans-Serif" font-size="14.00">value = [10, 0]</text>
<text text-anchor="middle" x="787.5" y="-119.3" font-family="Helvetica,sans-Serif" font-size="14.00">class = B</text>
</g>
<!-- 21&#45;&gt;22 -->
<g id="edge22" class="edge">
<title>21&#45;&gt;22</title>
<path fill="none" stroke="black" d="M798.6,-222.91C797.05,-212.2 795.36,-200.62 793.79,-189.78"/>
<polygon fill="black" stroke="black" points="797.22,-189.06 792.32,-179.67 790.29,-190.07 797.22,-189.06"/>
</g>
<!-- 23 -->
<g id="node24" class="node">
<title>23</title>
<path fill="#f6d5bd" stroke="black" d="M1024.5,-187C1024.5,-187 878.5,-187 878.5,-187 872.5,-187 866.5,-181 866.5,-175 866.5,-175 866.5,-116 866.5,-116 866.5,-110 872.5,-104 878.5,-104 878.5,-104 1024.5,-104 1024.5,-104 1030.5,-104 1036.5,-110 1036.5,-116 1036.5,-116 1036.5,-175 1036.5,-175 1036.5,-181 1030.5,-187 1024.5,-187"/>
<text text-anchor="middle" x="951.5" y="-171.8" font-family="Helvetica,sans-Serif" font-size="14.00">symmetry2 &lt;= 0.019</text>
<text text-anchor="middle" x="951.5" y="-156.8" font-family="Helvetica,sans-Serif" font-size="14.00">entropy = 0.971</text>
<text text-anchor="middle" x="951.5" y="-141.8" font-family="Helvetica,sans-Serif" font-size="14.00">samples = 5</text>
<text text-anchor="middle" x="951.5" y="-126.8" font-family="Helvetica,sans-Serif" font-size="14.00">value = [3, 2]</text>
<text text-anchor="middle" x="951.5" y="-111.8" font-family="Helvetica,sans-Serif" font-size="14.00">class = B</text>
</g>
<!-- 21&#45;&gt;23 -->
<g id="edge23" class="edge">
<title>21&#45;&gt;23</title>
<path fill="none" stroke="black" d="M855.5,-222.91C867.47,-213.38 880.33,-203.15 892.61,-193.37"/>
<polygon fill="black" stroke="black" points="894.94,-195.99 900.59,-187.02 890.59,-190.51 894.94,-195.99"/>
</g>
<!-- 24 -->
<g id="node25" class="node">
<title>24</title>
<path fill="#399de5" stroke="black" d="M931,-68C931,-68 842,-68 842,-68 836,-68 830,-62 830,-56 830,-56 830,-12 830,-12 830,-6 836,0 842,0 842,0 931,0 931,0 937,0 943,-6 943,-12 943,-12 943,-56 943,-56 943,-62 937,-68 931,-68"/>
<text text-anchor="middle" x="886.5" y="-52.8" font-family="Helvetica,sans-Serif" font-size="14.00">entropy = 0.0</text>
<text text-anchor="middle" x="886.5" y="-37.8" font-family="Helvetica,sans-Serif" font-size="14.00">samples = 2</text>
<text text-anchor="middle" x="886.5" y="-22.8" font-family="Helvetica,sans-Serif" font-size="14.00">value = [0, 2]</text>
<text text-anchor="middle" x="886.5" y="-7.8" font-family="Helvetica,sans-Serif" font-size="14.00">class = M</text>
</g>
<!-- 23&#45;&gt;24 -->
<g id="edge24" class="edge">
<title>23&#45;&gt;24</title>
<path fill="none" stroke="black" d="M927.3,-103.73C922.1,-94.97 916.6,-85.7 911.38,-76.91"/>
<polygon fill="black" stroke="black" points="914.38,-75.11 906.27,-68.3 908.36,-78.69 914.38,-75.11"/>
</g>
<!-- 25 -->
<g id="node26" class="node">
<title>25</title>
<path fill="#e58139" stroke="black" d="M1062,-68C1062,-68 973,-68 973,-68 967,-68 961,-62 961,-56 961,-56 961,-12 961,-12 961,-6 967,0 973,0 973,0 1062,0 1062,0 1068,0 1074,-6 1074,-12 1074,-12 1074,-56 1074,-56 1074,-62 1068,-68 1062,-68"/>
<text text-anchor="middle" x="1017.5" y="-52.8" font-family="Helvetica,sans-Serif" font-size="14.00">entropy = 0.0</text>
<text text-anchor="middle" x="1017.5" y="-37.8" font-family="Helvetica,sans-Serif" font-size="14.00">samples = 3</text>
<text text-anchor="middle" x="1017.5" y="-22.8" font-family="Helvetica,sans-Serif" font-size="14.00">value = [3, 0]</text>
<text text-anchor="middle" x="1017.5" y="-7.8" font-family="Helvetica,sans-Serif" font-size="14.00">class = B</text>
</g>
<!-- 23&#45;&gt;25 -->
<g id="edge25" class="edge">
<title>23&#45;&gt;25</title>
<path fill="none" stroke="black" d="M976.08,-103.73C981.35,-94.97 986.94,-85.7 992.24,-76.91"/>
<polygon fill="black" stroke="black" points="995.26,-78.67 997.43,-68.3 989.27,-75.06 995.26,-78.67"/>
</g>
<!-- 28 -->
<g id="node29" class="node">
<title>28</title>
<path fill="#ffffff" stroke="black" d="M1194,-306C1194,-306 1051,-306 1051,-306 1045,-306 1039,-300 1039,-294 1039,-294 1039,-235 1039,-235 1039,-229 1045,-223 1051,-223 1051,-223 1194,-223 1194,-223 1200,-223 1206,-229 1206,-235 1206,-235 1206,-294 1206,-294 1206,-300 1200,-306 1194,-306"/>
<text text-anchor="middle" x="1122.5" y="-290.8" font-family="Helvetica,sans-Serif" font-size="14.00">perimeter2 &lt;= 1.424</text>
<text text-anchor="middle" x="1122.5" y="-275.8" font-family="Helvetica,sans-Serif" font-size="14.00">entropy = 1.0</text>
<text text-anchor="middle" x="1122.5" y="-260.8" font-family="Helvetica,sans-Serif" font-size="14.00">samples = 2</text>
<text text-anchor="middle" x="1122.5" y="-245.8" font-family="Helvetica,sans-Serif" font-size="14.00">value = [1, 1]</text>
<text text-anchor="middle" x="1122.5" y="-230.8" font-family="Helvetica,sans-Serif" font-size="14.00">class = B</text>
</g>
<!-- 27&#45;&gt;28 -->
<g id="edge28" class="edge">
<title>27&#45;&gt;28</title>
<path fill="none" stroke="black" d="M1122.5,-341.91C1122.5,-333.65 1122.5,-324.86 1122.5,-316.3"/>
<polygon fill="black" stroke="black" points="1126,-316.02 1122.5,-306.02 1119,-316.02 1126,-316.02"/>
</g>
<!-- 31 -->
<g id="node32" class="node">
<title>31</title>
<path fill="#399de5" stroke="black" d="M1334.5,-298.5C1334.5,-298.5 1236.5,-298.5 1236.5,-298.5 1230.5,-298.5 1224.5,-292.5 1224.5,-286.5 1224.5,-286.5 1224.5,-242.5 1224.5,-242.5 1224.5,-236.5 1230.5,-230.5 1236.5,-230.5 1236.5,-230.5 1334.5,-230.5 1334.5,-230.5 1340.5,-230.5 1346.5,-236.5 1346.5,-242.5 1346.5,-242.5 1346.5,-286.5 1346.5,-286.5 1346.5,-292.5 1340.5,-298.5 1334.5,-298.5"/>
<text text-anchor="middle" x="1285.5" y="-283.3" font-family="Helvetica,sans-Serif" font-size="14.00">entropy = 0.0</text>
<text text-anchor="middle" x="1285.5" y="-268.3" font-family="Helvetica,sans-Serif" font-size="14.00">samples = 21</text>
<text text-anchor="middle" x="1285.5" y="-253.3" font-family="Helvetica,sans-Serif" font-size="14.00">value = [0, 21]</text>
<text text-anchor="middle" x="1285.5" y="-238.3" font-family="Helvetica,sans-Serif" font-size="14.00">class = M</text>
</g>
<!-- 27&#45;&gt;31 -->
<g id="edge31" class="edge">
<title>27&#45;&gt;31</title>
<path fill="none" stroke="black" d="M1179.05,-341.91C1195.81,-329.88 1214.12,-316.73 1230.76,-304.79"/>
<polygon fill="black" stroke="black" points="1233.21,-307.34 1239.29,-298.67 1229.13,-301.65 1233.21,-307.34"/>
</g>
<!-- 29 -->
<g id="node30" class="node">
<title>29</title>
<path fill="#399de5" stroke="black" d="M1163,-179.5C1163,-179.5 1074,-179.5 1074,-179.5 1068,-179.5 1062,-173.5 1062,-167.5 1062,-167.5 1062,-123.5 1062,-123.5 1062,-117.5 1068,-111.5 1074,-111.5 1074,-111.5 1163,-111.5 1163,-111.5 1169,-111.5 1175,-117.5 1175,-123.5 1175,-123.5 1175,-167.5 1175,-167.5 1175,-173.5 1169,-179.5 1163,-179.5"/>
<text text-anchor="middle" x="1118.5" y="-164.3" font-family="Helvetica,sans-Serif" font-size="14.00">entropy = 0.0</text>
<text text-anchor="middle" x="1118.5" y="-149.3" font-family="Helvetica,sans-Serif" font-size="14.00">samples = 1</text>
<text text-anchor="middle" x="1118.5" y="-134.3" font-family="Helvetica,sans-Serif" font-size="14.00">value = [0, 1]</text>
<text text-anchor="middle" x="1118.5" y="-119.3" font-family="Helvetica,sans-Serif" font-size="14.00">class = M</text>
</g>
<!-- 28&#45;&gt;29 -->
<g id="edge29" class="edge">
<title>28&#45;&gt;29</title>
<path fill="none" stroke="black" d="M1121.11,-222.91C1120.75,-212.2 1120.35,-200.62 1119.98,-189.78"/>
<polygon fill="black" stroke="black" points="1123.47,-189.54 1119.63,-179.67 1116.48,-189.78 1123.47,-189.54"/>
</g>
<!-- 30 -->
<g id="node31" class="node">
<title>30</title>
<path fill="#e58139" stroke="black" d="M1294,-179.5C1294,-179.5 1205,-179.5 1205,-179.5 1199,-179.5 1193,-173.5 1193,-167.5 1193,-167.5 1193,-123.5 1193,-123.5 1193,-117.5 1199,-111.5 1205,-111.5 1205,-111.5 1294,-111.5 1294,-111.5 1300,-111.5 1306,-117.5 1306,-123.5 1306,-123.5 1306,-167.5 1306,-167.5 1306,-173.5 1300,-179.5 1294,-179.5"/>
<text text-anchor="middle" x="1249.5" y="-164.3" font-family="Helvetica,sans-Serif" font-size="14.00">entropy = 0.0</text>
<text text-anchor="middle" x="1249.5" y="-149.3" font-family="Helvetica,sans-Serif" font-size="14.00">samples = 1</text>
<text text-anchor="middle" x="1249.5" y="-134.3" font-family="Helvetica,sans-Serif" font-size="14.00">value = [1, 0]</text>
<text text-anchor="middle" x="1249.5" y="-119.3" font-family="Helvetica,sans-Serif" font-size="14.00">class = B</text>
</g>
<!-- 28&#45;&gt;30 -->
<g id="edge30" class="edge">
<title>28&#45;&gt;30</title>
<path fill="none" stroke="black" d="M1166.56,-222.91C1179.38,-211.1 1193.36,-198.22 1206.14,-186.45"/>
<polygon fill="black" stroke="black" points="1208.52,-189.02 1213.5,-179.67 1203.77,-183.87 1208.52,-189.02"/>
</g>
<!-- 33 -->
<g id="node34" class="node">
<title>33</title>
<path fill="#b5daf5" stroke="black" d="M1343,-663C1343,-663 1218,-663 1218,-663 1212,-663 1206,-657 1206,-651 1206,-651 1206,-592 1206,-592 1206,-586 1212,-580 1218,-580 1218,-580 1343,-580 1343,-580 1349,-580 1355,-586 1355,-592 1355,-592 1355,-651 1355,-651 1355,-657 1349,-663 1343,-663"/>
<text text-anchor="middle" x="1280.5" y="-647.8" font-family="Helvetica,sans-Serif" font-size="14.00">texture3 &lt;= 28.97</text>
<text text-anchor="middle" x="1280.5" y="-632.8" font-family="Helvetica,sans-Serif" font-size="14.00">entropy = 0.961</text>
<text text-anchor="middle" x="1280.5" y="-617.8" font-family="Helvetica,sans-Serif" font-size="14.00">samples = 13</text>
<text text-anchor="middle" x="1280.5" y="-602.8" font-family="Helvetica,sans-Serif" font-size="14.00">value = [5, 8]</text>
<text text-anchor="middle" x="1280.5" y="-587.8" font-family="Helvetica,sans-Serif" font-size="14.00">class = M</text>
</g>
<!-- 32&#45;&gt;33 -->
<g id="edge33" class="edge">
<title>32&#45;&gt;33</title>
<path fill="none" stroke="black" d="M1280.5,-698.91C1280.5,-690.65 1280.5,-681.86 1280.5,-673.3"/>
<polygon fill="black" stroke="black" points="1284,-673.02 1280.5,-663.02 1277,-673.02 1284,-673.02"/>
</g>
<!-- 38 -->
<g id="node39" class="node">
<title>38</title>
<path fill="#399de5" stroke="black" d="M1492,-655.5C1492,-655.5 1385,-655.5 1385,-655.5 1379,-655.5 1373,-649.5 1373,-643.5 1373,-643.5 1373,-599.5 1373,-599.5 1373,-593.5 1379,-587.5 1385,-587.5 1385,-587.5 1492,-587.5 1492,-587.5 1498,-587.5 1504,-593.5 1504,-599.5 1504,-599.5 1504,-643.5 1504,-643.5 1504,-649.5 1498,-655.5 1492,-655.5"/>
<text text-anchor="middle" x="1438.5" y="-640.3" font-family="Helvetica,sans-Serif" font-size="14.00">entropy = 0.0</text>
<text text-anchor="middle" x="1438.5" y="-625.3" font-family="Helvetica,sans-Serif" font-size="14.00">samples = 148</text>
<text text-anchor="middle" x="1438.5" y="-610.3" font-family="Helvetica,sans-Serif" font-size="14.00">value = [0, 148]</text>
<text text-anchor="middle" x="1438.5" y="-595.3" font-family="Helvetica,sans-Serif" font-size="14.00">class = M</text>
</g>
<!-- 32&#45;&gt;38 -->
<g id="edge38" class="edge">
<title>32&#45;&gt;38</title>
<path fill="none" stroke="black" d="M1335.32,-698.91C1351.56,-686.88 1369.31,-673.73 1385.44,-661.79"/>
<polygon fill="black" stroke="black" points="1387.76,-664.43 1393.71,-655.67 1383.59,-658.81 1387.76,-664.43"/>
</g>
<!-- 34 -->
<g id="node35" class="node">
<title>34</title>
<path fill="#efb388" stroke="black" d="M1343,-544C1343,-544 1218,-544 1218,-544 1212,-544 1206,-538 1206,-532 1206,-532 1206,-473 1206,-473 1206,-467 1212,-461 1218,-461 1218,-461 1343,-461 1343,-461 1349,-461 1355,-467 1355,-473 1355,-473 1355,-532 1355,-532 1355,-538 1349,-544 1343,-544"/>
<text text-anchor="middle" x="1280.5" y="-528.8" font-family="Helvetica,sans-Serif" font-size="14.00">texture2 &lt;= 0.603</text>
<text text-anchor="middle" x="1280.5" y="-513.8" font-family="Helvetica,sans-Serif" font-size="14.00">entropy = 0.863</text>
<text text-anchor="middle" x="1280.5" y="-498.8" font-family="Helvetica,sans-Serif" font-size="14.00">samples = 7</text>
<text text-anchor="middle" x="1280.5" y="-483.8" font-family="Helvetica,sans-Serif" font-size="14.00">value = [5, 2]</text>
<text text-anchor="middle" x="1280.5" y="-468.8" font-family="Helvetica,sans-Serif" font-size="14.00">class = B</text>
</g>
<!-- 33&#45;&gt;34 -->
<g id="edge34" class="edge">
<title>33&#45;&gt;34</title>
<path fill="none" stroke="black" d="M1280.5,-579.91C1280.5,-571.65 1280.5,-562.86 1280.5,-554.3"/>
<polygon fill="black" stroke="black" points="1284,-554.02 1280.5,-544.02 1277,-554.02 1284,-554.02"/>
</g>
<!-- 37 -->
<g id="node38" class="node">
<title>37</title>
<path fill="#399de5" stroke="black" d="M1474,-536.5C1474,-536.5 1385,-536.5 1385,-536.5 1379,-536.5 1373,-530.5 1373,-524.5 1373,-524.5 1373,-480.5 1373,-480.5 1373,-474.5 1379,-468.5 1385,-468.5 1385,-468.5 1474,-468.5 1474,-468.5 1480,-468.5 1486,-474.5 1486,-480.5 1486,-480.5 1486,-524.5 1486,-524.5 1486,-530.5 1480,-536.5 1474,-536.5"/>
<text text-anchor="middle" x="1429.5" y="-521.3" font-family="Helvetica,sans-Serif" font-size="14.00">entropy = 0.0</text>
<text text-anchor="middle" x="1429.5" y="-506.3" font-family="Helvetica,sans-Serif" font-size="14.00">samples = 6</text>
<text text-anchor="middle" x="1429.5" y="-491.3" font-family="Helvetica,sans-Serif" font-size="14.00">value = [0, 6]</text>
<text text-anchor="middle" x="1429.5" y="-476.3" font-family="Helvetica,sans-Serif" font-size="14.00">class = M</text>
</g>
<!-- 33&#45;&gt;37 -->
<g id="edge37" class="edge">
<title>33&#45;&gt;37</title>
<path fill="none" stroke="black" d="M1332.19,-579.91C1347.37,-567.99 1363.95,-554.98 1379.04,-543.12"/>
<polygon fill="black" stroke="black" points="1381.56,-545.6 1387.26,-536.67 1377.24,-540.09 1381.56,-545.6"/>
</g>
<!-- 35 -->
<g id="node36" class="node">
<title>35</title>
<path fill="#399de5" stroke="black" d="M1325,-417.5C1325,-417.5 1236,-417.5 1236,-417.5 1230,-417.5 1224,-411.5 1224,-405.5 1224,-405.5 1224,-361.5 1224,-361.5 1224,-355.5 1230,-349.5 1236,-349.5 1236,-349.5 1325,-349.5 1325,-349.5 1331,-349.5 1337,-355.5 1337,-361.5 1337,-361.5 1337,-405.5 1337,-405.5 1337,-411.5 1331,-417.5 1325,-417.5"/>
<text text-anchor="middle" x="1280.5" y="-402.3" font-family="Helvetica,sans-Serif" font-size="14.00">entropy = 0.0</text>
<text text-anchor="middle" x="1280.5" y="-387.3" font-family="Helvetica,sans-Serif" font-size="14.00">samples = 2</text>
<text text-anchor="middle" x="1280.5" y="-372.3" font-family="Helvetica,sans-Serif" font-size="14.00">value = [0, 2]</text>
<text text-anchor="middle" x="1280.5" y="-357.3" font-family="Helvetica,sans-Serif" font-size="14.00">class = M</text>
</g>
<!-- 34&#45;&gt;35 -->
<g id="edge35" class="edge">
<title>34&#45;&gt;35</title>
<path fill="none" stroke="black" d="M1280.5,-460.91C1280.5,-450.2 1280.5,-438.62 1280.5,-427.78"/>
<polygon fill="black" stroke="black" points="1284,-427.67 1280.5,-417.67 1277,-427.67 1284,-427.67"/>
</g>
<!-- 36 -->
<g id="node37" class="node">
<title>36</title>
<path fill="#e58139" stroke="black" d="M1456,-417.5C1456,-417.5 1367,-417.5 1367,-417.5 1361,-417.5 1355,-411.5 1355,-405.5 1355,-405.5 1355,-361.5 1355,-361.5 1355,-355.5 1361,-349.5 1367,-349.5 1367,-349.5 1456,-349.5 1456,-349.5 1462,-349.5 1468,-355.5 1468,-361.5 1468,-361.5 1468,-405.5 1468,-405.5 1468,-411.5 1462,-417.5 1456,-417.5"/>
<text text-anchor="middle" x="1411.5" y="-402.3" font-family="Helvetica,sans-Serif" font-size="14.00">entropy = 0.0</text>
<text text-anchor="middle" x="1411.5" y="-387.3" font-family="Helvetica,sans-Serif" font-size="14.00">samples = 5</text>
<text text-anchor="middle" x="1411.5" y="-372.3" font-family="Helvetica,sans-Serif" font-size="14.00">value = [5, 0]</text>
<text text-anchor="middle" x="1411.5" y="-357.3" font-family="Helvetica,sans-Serif" font-size="14.00">class = B</text>
</g>
<!-- 34&#45;&gt;36 -->
<g id="edge36" class="edge">
<title>34&#45;&gt;36</title>
<path fill="none" stroke="black" d="M1325.95,-460.91C1339.17,-449.1 1353.6,-436.22 1366.77,-424.45"/>
<polygon fill="black" stroke="black" points="1369.24,-426.94 1374.36,-417.67 1364.57,-421.72 1369.24,-426.94"/>
</g>
</g>
</svg>
